999
dxfrw 0.5.11
0
SECTION
2
HEADER
9
$ACADVER
1
AC1021
9
$HANDSEED
5
20000
9
$DWGCODEPAGE
3
ANSI_1252
9
$INSBASE
10
0
20
0
30
0
9
$EXTMIN
10
0.828021
20
0.827997
30
0
9
$EXTMAX
10
4.546209
20
7.086232
30
0
9
$LIMMIN
10
0
20
0
9
$LIMMAX
10
420
20
297
9
$ORTHOMODE
70
0
9
$LTSCALE
40
1
9
$TEXTSTYLE
7
STANDARD
9
$CLAYER
8
0
9
$DIMASZ
40
2.5
9
$DIMLFAC
40
1
9
$DIMSCALE
40
1
9
$DIMEXO
40
0.625
9
$DIMEXE
40
1.25
9
$DIMTXT
40
2.5
9
$DIMTSZ
40
0
9
$DIMAUNIT
70
0
9
$DIMADEC
70
0
9
$DIMLUNIT
70
2
9
$DIMSTYLE
2
Standard
9
$DIMGAP
40
0.625
9
$DIMTIH
70
0
9
$LUNITS
70
2
9
$LUPREC
70
4
9
$AUNITS
70
0
9
$AUPREC
70
2
9
$SPLINESEGS
70
8
9
$GRIDMODE
70
0
9
$SNAPSTYLE
70
0
9
$PINSBASE
10
0
20
0
30
0
9
$PLIMMIN
10
0
20
0
9
$PLIMMAX
10
210
20
297
9
$INSUNITS
70
4
9
$PSVPSCALE
40
1
0
ENDSEC
0
SECTION
2
CLASSES
0
ENDSEC
0
SECTION
2
TABLES
0
TABLE
2
VPORT
5
8
330
0
100
AcDbSymbolTable
70
1
0
VPORT
5
31
330
2
100
AcDbSymbolTableRecord
100
AcDbViewportTableRecord
2
*ACTIVE
70
0
10
0
20
0
11
1
21
1
12
30.3033960642
22
16.428391189
13
0
23
0
14
10
24
10
15
10
25
10
16
0
26
0
36
1
17
0
27
0
37
0
40
45.768245248
41
1.96421052632
42
50
43
0
44
0
50
0
51
0
71
0
72
100
73
1
74
3
75
0
76
0
77
0
78
0
281
0
65
1
110
0
120
0
130
0
111
1
121
0
131
0
112
0
122
1
132
0
79
0
146
0
348
10020
60
7
61
5
292
1
282
1
141
0
142
0
63
250
421
3358443
0
ENDTAB
0
TABLE
2
LTYPE
5
5
330
0
100
AcDbSymbolTable
70
4
0
LTYPE
5
14
330
5
100
AcDbSymbolTableRecord
100
AcDbLinetypeTableRecord
2
ByBlock
70
0
3

72
65
73
0
40
0
0
LTYPE
5
15
330
5
100
AcDbSymbolTableRecord
100
AcDbLinetypeTableRecord
2
ByLayer
70
0
3

72
65
73
0
40
0
0
LTYPE
5
16
330
5
100
AcDbSymbolTableRecord
100
AcDbLinetypeTableRecord
2
Continuous
70
0
3
Solid line
72
65
73
0
40
0
0
LTYPE
5
32
330
5
100
AcDbSymbolTableRecord
100
AcDbLinetypeTableRecord
2
DOT
70
0
3
Dot . . . . . . . . . . . . . . . . . . . . . .
72
65
73
2
40
6.35
49
0
74
0
49
-6.35
74
0
0
LTYPE
5
33
330
5
100
AcDbSymbolTableRecord
100
AcDbLinetypeTableRecord
2
DOT2
70
0
3
Dot (.5x) .....................................
72
65
73
2
40
3.175
49
0
74
0
49
-3.175
74
0
0
LTYPE
5
34
330
5
100
AcDbSymbolTableRecord
100
AcDbLinetypeTableRecord
2
DOTX2
70
0
3
Dot (2x) .  .  .  .  .  .  .  .  .  .  .  .  .
72
65
73
2
40
12.7
49
0
74
0
49
-12.7
74
0
0
LTYPE
5
35
330
5
100
AcDbSymbolTableRecord
100
AcDbLinetypeTableRecord
2
DASHED
70
0
3
Dot . . . . . . . . . . . . . . . . . . . . . .
72
65
73
2
40
19.05
49
12.7
74
0
49
-6.35
74
0
0
LTYPE
5
36
330
5
100
AcDbSymbolTableRecord
100
AcDbLinetypeTableRecord
2
DASHED2
70
0
3
Dashed (.5x) _ _ _ _ _ _ _ _ _ _ _ _ _ _ _ _ _
72
65
73
2
40
9.525
49
6.35
74
0
49
-3.175
74
0
0
LTYPE
5
37
330
5
100
AcDbSymbolTableRecord
100
AcDbLinetypeTableRecord
2
DASHEDX2
70
0
3
Dashed (2x) ____  ____  ____  ____  ____  ___
72
65
73
2
40
38.1
49
25.4
74
0
49
-12.7
74
0
0
LTYPE
5
38
330
5
100
AcDbSymbolTableRecord
100
AcDbLinetypeTableRecord
2
DASHDOT
70
0
3
Dash dot __ . __ . __ . __ . __ . __ . __ . __
72
65
73
4
40
25.4
49
12.7
74
0
49
-6.35
74
0
49
0
74
0
49
-6.35
74
0
0
LTYPE
5
39
330
5
100
AcDbSymbolTableRecord
100
AcDbLinetypeTableRecord
2
DASHDOT2
70
0
3
Dash dot (.5x) _._._._._._._._._._._._._._._.
72
65
73
4
40
12.7
49
6.35
74
0
49
-3.175
74
0
49
0
74
0
49
-3.175
74
0
0
LTYPE
5
3A
330
5
100
AcDbSymbolTableRecord
100
AcDbLinetypeTableRecord
2
DASHDOTX2
70
0
3
Dash dot (2x) ____  .  ____  .  ____  .  ___
72
65
73
4
40
50.8
49
25.4
74
0
49
-12.7
74
0
49
0
74
0
49
-12.7
74
0
0
LTYPE
5
3B
330
5
100
AcDbSymbolTableRecord
100
AcDbLinetypeTableRecord
2
DIVIDE
70
0
3
Divide ____ . . ____ . . ____ . . ____ . . ____
72
65
73
6
40
31.75
49
12.7
74
0
49
-6.35
74
0
49
0
74
0
49
-6.35
74
0
49
0
74
0
49
-6.35
74
0
0
LTYPE
5
3C
330
5
100
AcDbSymbolTableRecord
100
AcDbLinetypeTableRecord
2
DIVIDE2
70
0
3
Divide (.5x) __..__..__..__..__..__..__..__.._
72
65
73
6
40
15.875
49
6.35
74
0
49
-3.175
74
0
49
0
74
0
49
-3.175
74
0
49
0
74
0
49
-3.175
74
0
0
LTYPE
5
3D
330
5
100
AcDbSymbolTableRecord
100
AcDbLinetypeTableRecord
2
DIVIDEX2
70
0
3
Divide (2x) ________  .  .  ________  .  .  _
72
65
73
6
40
63.5
49
25.4
74
0
49
-12.7
74
0
49
0
74
0
49
-12.7
74
0
49
0
74
0
49
-12.7
74
0
0
LTYPE
5
3E
330
5
100
AcDbSymbolTableRecord
100
AcDbLinetypeTableRecord
2
BORDER
70
0
3
Border __ __ . __ __ . __ __ . __ __ . __ __ .
72
65
73
6
40
44.45
49
12.7
74
0
49
-6.35
74
0
49
12.7
74
0
49
-6.35
74
0
49
0
74
0
49
-6.35
74
0
0
LTYPE
5
3F
330
5
100
AcDbSymbolTableRecord
100
AcDbLinetypeTableRecord
2
BORDER2
70
0
3
Border (.5x) __.__.__.__.__.__.__.__.__.__.__.
72
65
73
6
40
22.225
49
6.35
74
0
49
-3.175
74
0
49
6.35
74
0
49
-3.175
74
0
49
0
74
0
49
-3.175
74
0
0
LTYPE
5
40
330
5
100
AcDbSymbolTableRecord
100
AcDbLinetypeTableRecord
2
BORDERX2
70
0
3
Border (2x) ____  ____  .  ____  ____  .  ___
72
65
73
6
40
88.9
49
25.4
74
0
49
-12.7
74
0
49
25.4
74
0
49
-12.7
74
0
49
0
74
0
49
-12.7
74
0
0
LTYPE
5
41
330
5
100
AcDbSymbolTableRecord
100
AcDbLinetypeTableRecord
2
CENTER
70
0
3
Center ____ _ ____ _ ____ _ ____ _ ____ _ ____
72
65
73
4
40
50.8
49
31.75
74
0
49
-6.35
74
0
49
6.35
74
0
49
-6.35
74
0
0
LTYPE
5
42
330
5
100
AcDbSymbolTableRecord
100
AcDbLinetypeTableRecord
2
CENTER2
70
0
3
Center (.5x) ___ _ ___ _ ___ _ ___ _ ___ _ ___
72
65
73
4
40
28.575
49
19.05
74
0
49
-3.175
74
0
49
3.175
74
0
49
-3.175
74
0
0
LTYPE
5
43
330
5
100
AcDbSymbolTableRecord
100
AcDbLinetypeTableRecord
2
CENTERX2
70
0
3
Center (2x) ________  __  ________  __  _____
72
65
73
4
40
101.6
49
63.5
74
0
49
-12.7
74
0
49
12.7
74
0
49
-12.7
74
0
0
ENDTAB
0
TABLE
2
LAYER
5
2
330
0
100
AcDbSymbolTable
70
1
0
LAYER
5
44
330
2
100
AcDbSymbolTableRecord
100
AcDbLayerTableRecord
2
!
70
1
62
7
6
CONTINUOUS
370
-3
390
F
0
LAYER
5
45
330
2
100
AcDbSymbolTableRecord
100
AcDbLayerTableRecord
2
"
70
1
62
7
6
CONTINUOUS
370
-3
390
F
0
LAYER
5
46
330
2
100
AcDbSymbolTableRecord
100
AcDbLayerTableRecord
2
'
70
1
62
7
6
CONTINUOUS
370
-3
390
F
0
LAYER
5
47
330
2
100
AcDbSymbolTableRecord
100
AcDbLayerTableRecord
2
(
70
1
62
7
6
CONTINUOUS
370
-3
390
F
0
LAYER
5
48
330
2
100
AcDbSymbolTableRecord
100
AcDbLayerTableRecord
2
)
70
1
62
7
6
CONTINUOUS
370
-3
390
F
0
LAYER
5
49
330
2
100
AcDbSymbolTableRecord
100
AcDbLayerTableRecord
2
*
70
1
62
7
6
CONTINUOUS
370
-3
390
F
0
LAYER
5
4A
330
2
100
AcDbSymbolTableRecord
100
AcDbLayerTableRecord
2
,
70
1
62
7
6
CONTINUOUS
370
-3
390
F
0
LAYER
5
4B
330
2
100
AcDbSymbolTableRecord
100
AcDbLayerTableRecord
2
.
70
1
62
7
6
CONTINUOUS
370
-3
390
F
0
LAYER
5
10
330
2
100
AcDbSymbolTableRecord
100
AcDbLayerTableRecord
2
0
70
1
62
7
6
CONTINUOUS
370
-3
390
F
0
LAYER
5
4C
330
2
100
AcDbSymbolTableRecord
100
AcDbLayerTableRecord
2
1
70
1
62
7
6
CONTINUOUS
370
-3
390
F
0
LAYER
5
4D
330
2
100
AcDbSymbolTableRecord
100
AcDbLayerTableRecord
2
2
70
1
62
7
6
CONTINUOUS
370
-3
390
F
0
LAYER
5
4E
330
2
100
AcDbSymbolTableRecord
100
AcDbLayerTableRecord
2
3
70
1
62
7
6
CONTINUOUS
370
-3
390
F
0
LAYER
5
4F
330
2
100
AcDbSymbolTableRecord
100
AcDbLayerTableRecord
2
4
70
1
62
7
6
CONTINUOUS
370
-3
390
F
0
LAYER
5
50
330
2
100
AcDbSymbolTableRecord
100
AcDbLayerTableRecord
2
5
70
1
62
7
6
CONTINUOUS
370
-3
390
F
0
LAYER
5
51
330
2
100
AcDbSymbolTableRecord
100
AcDbLayerTableRecord
2
6
70
1
62
7
6
CONTINUOUS
370
-3
390
F
0
LAYER
5
52
330
2
100
AcDbSymbolTableRecord
100
AcDbLayerTableRecord
2
7
70
1
62
7
6
CONTINUOUS
370
-3
390
F
0
LAYER
5
53
330
2
100
AcDbSymbolTableRecord
100
AcDbLayerTableRecord
2
8
70
1
62
7
6
CONTINUOUS
370
-3
390
F
0
LAYER
5
54
330
2
100
AcDbSymbolTableRecord
100
AcDbLayerTableRecord
2
9
70
1
62
7
6
CONTINUOUS
370
-3
390
F
0
LAYER
5
55
330
2
100
AcDbSymbolTableRecord
100
AcDbLayerTableRecord
2
:
70
1
62
7
6
CONTINUOUS
370
-3
390
F
0
LAYER
5
56
330
2
100
AcDbSymbolTableRecord
100
AcDbLayerTableRecord
2
;
70
5
62
7
6
CONTINUOUS
370
-3
390
F
0
LAYER
5
57
330
2
100
AcDbSymbolTableRecord
100
AcDbLayerTableRecord
2
=
70
1
62
7
6
CONTINUOUS
370
-3
390
F
0
LAYER
5
58
330
2
100
AcDbSymbolTableRecord
100
AcDbLayerTableRecord
2
?
70
1
62
7
6
CONTINUOUS
370
-3
390
F
0
LAYER
5
59
330
2
100
AcDbSymbolTableRecord
100
AcDbLayerTableRecord
2
A
70
1
62
7
6
CONTINUOUS
370
-3
390
F
0
LAYER
5
5A
330
2
100
AcDbSymbolTableRecord
100
AcDbLayerTableRecord
2
B
70
1
62
7
6
CONTINUOUS
370
-3
390
F
0
LAYER
5
5B
330
2
100
AcDbSymbolTableRecord
100
AcDbLayerTableRecord
2
C
70
1
62
7
6
CONTINUOUS
370
-3
390
F
0
LAYER
5
5C
330
2
100
AcDbSymbolTableRecord
100
AcDbLayerTableRecord
2
D
70
1
62
7
6
CONTINUOUS
370
-3
390
F
0
LAYER
5
5D
330
2
100
AcDbSymbolTableRecord
100
AcDbLayerTableRecord
2
E
70
1
62
7
6
CONTINUOUS
370
-3
390
F
0
LAYER
5
5E
330
2
100
AcDbSymbolTableRecord
100
AcDbLayerTableRecord
2
F
70
1
62
7
6
CONTINUOUS
370
-3
390
F
0
LAYER
5
5F
330
2
100
AcDbSymbolTableRecord
100
AcDbLayerTableRecord
2
G
70
1
62
7
6
CONTINUOUS
370
-3
390
F
0
LAYER
5
60
330
2
100
AcDbSymbolTableRecord
100
AcDbLayerTableRecord
2
H
70
1
62
7
6
CONTINUOUS
370
-3
390
F
0
LAYER
5
61
330
2
100
AcDbSymbolTableRecord
100
AcDbLayerTableRecord
2
I
70
1
62
7
6
CONTINUOUS
370
-3
390
F
0
LAYER
5
62
330
2
100
AcDbSymbolTableRecord
100
AcDbLayerTableRecord
2
J
70
1
62
7
6
CONTINUOUS
370
-3
390
F
0
LAYER
5
63
330
2
100
AcDbSymbolTableRecord
100
AcDbLayerTableRecord
2
K
70
1
62
7
6
CONTINUOUS
370
-3
390
F
0
LAYER
5
64
330
2
100
AcDbSymbolTableRecord
100
AcDbLayerTableRecord
2
L
70
1
62
7
6
CONTINUOUS
370
-3
390
F
0
LAYER
5
65
330
2
100
AcDbSymbolTableRecord
100
AcDbLayerTableRecord
2
M
70
1
62
7
6
CONTINUOUS
370
-3
390
F
0
LAYER
5
66
330
2
100
AcDbSymbolTableRecord
100
AcDbLayerTableRecord
2
N
70
1
62
7
6
CONTINUOUS
370
-3
390
F
0
LAYER
5
67
330
2
100
AcDbSymbolTableRecord
100
AcDbLayerTableRecord
2
O
70
1
62
7
6
CONTINUOUS
370
-3
390
F
0
LAYER
5
68
330
2
100
AcDbSymbolTableRecord
100
AcDbLayerTableRecord
2
P
70
1
62
7
6
CONTINUOUS
370
-3
390
F
0
LAYER
5
69
330
2
100
AcDbSymbolTableRecord
100
AcDbLayerTableRecord
2
Q
70
1
62
7
6
CONTINUOUS
370
-3
390
F
0
LAYER
5
6A
330
2
100
AcDbSymbolTableRecord
100
AcDbLayerTableRecord
2
R
70
1
62
7
6
CONTINUOUS
370
-3
390
F
0
LAYER
5
6B
330
2
100
AcDbSymbolTableRecord
100
AcDbLayerTableRecord
2
S
70
1
62
7
6
CONTINUOUS
370
-3
390
F
0
LAYER
5
6C
330
2
100
AcDbSymbolTableRecord
100
AcDbLayerTableRecord
2
T
70
1
62
7
6
CONTINUOUS
370
-3
390
F
0
LAYER
5
6D
330
2
100
AcDbSymbolTableRecord
100
AcDbLayerTableRecord
2
U
70
1
62
7
6
CONTINUOUS
370
-3
390
F
0
LAYER
5
6E
330
2
100
AcDbSymbolTableRecord
100
AcDbLayerTableRecord
2
V
70
1
62
7
6
CONTINUOUS
370
-3
390
F
0
LAYER
5
6F
330
2
100
AcDbSymbolTableRecord
100
AcDbLayerTableRecord
2
W
70
1
62
7
6
CONTINUOUS
370
-3
390
F
0
LAYER
5
70
330
2
100
AcDbSymbolTableRecord
100
AcDbLayerTableRecord
2
X
70
1
62
7
6
CONTINUOUS
370
-3
390
F
0
LAYER
5
71
330
2
100
AcDbSymbolTableRecord
100
AcDbLayerTableRecord
2
Y
70
1
62
7
6
CONTINUOUS
370
-3
390
F
0
LAYER
5
72
330
2
100
AcDbSymbolTableRecord
100
AcDbLayerTableRecord
2
Z
70
1
62
7
6
CONTINUOUS
370
-3
390
F
0
LAYER
5
73
330
2
100
AcDbSymbolTableRecord
100
AcDbLayerTableRecord
2
^
70
1
62
7
6
CONTINUOUS
370
-3
390
F
0
LAYER
5
74
330
2
100
AcDbSymbolTableRecord
100
AcDbLayerTableRecord
2
a_
70
1
62
7
6
CONTINUOUS
370
-3
390
F
0
LAYER
5
75
330
2
100
AcDbSymbolTableRecord
100
AcDbLayerTableRecord
2
b_
70
1
62
7
6
CONTINUOUS
370
-3
390
F
0
LAYER
5
76
330
2
100
AcDbSymbolTableRecord
100
AcDbLayerTableRecord
2
c_
70
1
62
7
6
CONTINUOUS
370
-3
390
F
0
LAYER
5
77
330
2
100
AcDbSymbolTableRecord
100
AcDbLayerTableRecord
2
d_
70
1
62
7
6
CONTINUOUS
370
-3
390
F
0
LAYER
5
78
330
2
100
AcDbSymbolTableRecord
100
AcDbLayerTableRecord
2
e_
70
1
62
7
6
CONTINUOUS
370
-3
390
F
0
LAYER
5
79
330
2
100
AcDbSymbolTableRecord
100
AcDbLayerTableRecord
2
f_
70
1
62
7
6
CONTINUOUS
370
-3
390
F
0
LAYER
5
7A
330
2
100
AcDbSymbolTableRecord
100
AcDbLayerTableRecord
2
g_
70
1
62
7
6
CONTINUOUS
370
-3
390
F
0
LAYER
5
7B
330
2
100
AcDbSymbolTableRecord
100
AcDbLayerTableRecord
2
h_
70
1
62
7
6
CONTINUOUS
370
-3
390
F
0
LAYER
5
7C
330
2
100
AcDbSymbolTableRecord
100
AcDbLayerTableRecord
2
i_
70
1
62
7
6
CONTINUOUS
370
-3
390
F
0
LAYER
5
7D
330
2
100
AcDbSymbolTableRecord
100
AcDbLayerTableRecord
2
j_
70
1
62
7
6
CONTINUOUS
370
-3
390
F
0
LAYER
5
7E
330
2
100
AcDbSymbolTableRecord
100
AcDbLayerTableRecord
2
k_
70
1
62
7
6
CONTINUOUS
370
-3
390
F
0
LAYER
5
7F
330
2
100
AcDbSymbolTableRecord
100
AcDbLayerTableRecord
2
l_
70
1
62
7
6
CONTINUOUS
370
-3
390
F
0
LAYER
5
80
330
2
100
AcDbSymbolTableRecord
100
AcDbLayerTableRecord
2
m_
70
1
62
7
6
CONTINUOUS
370
-3
390
F
0
LAYER
5
81
330
2
100
AcDbSymbolTableRecord
100
AcDbLayerTableRecord
2
n_
70
1
62
7
6
CONTINUOUS
370
-3
390
F
0
LAYER
5
82
330
2
100
AcDbSymbolTableRecord
100
AcDbLayerTableRecord
2
o_
70
1
62
7
6
CONTINUOUS
370
-3
390
F
0
LAYER
5
83
330
2
100
AcDbSymbolTableRecord
100
AcDbLayerTableRecord
2
outline
70
1
62
7
6
CONTINUOUS
370
-3
390
F
0
LAYER
5
84
330
2
100
AcDbSymbolTableRecord
100
AcDbLayerTableRecord
2
p_
70
1
62
7
6
CONTINUOUS
370
-3
390
F
0
LAYER
5
85
330
2
100
AcDbSymbolTableRecord
100
AcDbLayerTableRecord
2
q_
70
1
62
7
6
CONTINUOUS
370
-3
390
F
0
LAYER
5
86
330
2
100
AcDbSymbolTableRecord
100
AcDbLayerTableRecord
2
r_
70
1
62
7
6
CONTINUOUS
370
-3
390
F
0
LAYER
5
87
330
2
100
AcDbSymbolTableRecord
100
AcDbLayerTableRecord
2
s_
70
1
62
7
6
CONTINUOUS
370
-3
390
F
0
LAYER
5
88
330
2
100
AcDbSymbolTableRecord
100
AcDbLayerTableRecord
2
t_
70
1
62
7
6
CONTINUOUS
370
-3
390
F
0
LAYER
5
89
330
2
100
AcDbSymbolTableRecord
100
AcDbLayerTableRecord
2
u_
70
1
62
7
6
CONTINUOUS
370
-3
390
F
0
LAYER
5
8A
330
2
100
AcDbSymbolTableRecord
100
AcDbLayerTableRecord
2
v_
70
1
62
7
6
CONTINUOUS
370
-3
390
F
0
LAYER
5
8B
330
2
100
AcDbSymbolTableRecord
100
AcDbLayerTableRecord
2
w_
70
1
62
7
6
CONTINUOUS
370
-3
390
F
0
LAYER
5
8C
330
2
100
AcDbSymbolTableRecord
100
AcDbLayerTableRecord
2
x_
70
1
62
7
6
CONTINUOUS
370
-3
390
F
0
LAYER
5
8D
330
2
100
AcDbSymbolTableRecord
100
AcDbLayerTableRecord
2
y_
70
1
62
7
6
CONTINUOUS
370
-3
390
F
0
LAYER
5
8E
330
2
100
AcDbSymbolTableRecord
100
AcDbLayerTableRecord
2
z_
70
1
62
7
6
CONTINUOUS
370
-3
390
F
0
ENDTAB
0
TABLE
2
STYLE
5
3
330
0
100
AcDbSymbolTable
70
3
0
STYLE
5
8F
330
2
100
AcDbSymbolTableRecord
100
AcDbTextStyleTableRecord
2
Standard
70
0
40
0
41
1
50
0
71
0
42
1
3
txt
4

0
ENDTAB
0
TABLE
2
VIEW
5
6
330
0
100
AcDbSymbolTable
70
0
0
ENDTAB
0
TABLE
2
UCS
5
7
330
0
100
AcDbSymbolTable
70
0
0
ENDTAB
0
TABLE
2
APPID
5
9
330
0
100
AcDbSymbolTable
70
1
0
APPID
5
12
330
9
100
AcDbSymbolTableRecord
100
AcDbRegAppTableRecord
2
ACAD
70
0
0
ENDTAB
0
TABLE
2
DIMSTYLE
5
A
330
0
100
AcDbSymbolTable
70
1
100
AcDbDimStyleTable
71
1
0
DIMSTYLE
105
90
330
A
100
AcDbSymbolTableRecord
100
AcDbDimStyleTableRecord
2
Standard
70
0
40
1
41
2.5
42
0.625
43
0.38
44
1.25
45
0
46
0
47
0
48
0
140
2.5
141
0.09
142
0
143
25.4
144
1
145
0
146
1
147
0.625
148
0
71
0
72
0
73
0
74
1
75
0
76
0
77
0
78
0
79
0
170
0
171
2
172
0
173
0
174
0
175
0
176
0
177
0
178
0
179
0
271
4
272
4
273
2
274
2
275
0
276
0
277
2
278
46
279
0
280
0
281
0
282
0
283
1
284
0
285
0
286
0
288
0
289
3
340
Standard
341

371
-2
372
-2
0
ENDTAB
0
TABLE
2
BLOCK_RECORD
5
1
330
0
100
AcDbSymbolTable
70
2
0
BLOCK_RECORD
5
1F
330
1
100
AcDbSymbolTableRecord
100
AcDbBlockTableRecord
2
*Model_Space
70
0
280
1
281
0
0
BLOCK_RECORD
5
1E
330
1
100
AcDbSymbolTableRecord
100
AcDbBlockTableRecord
2
*Paper_Space
70
0
280
1
281
0
0
ENDTAB
0
ENDSEC
0
SECTION
2
BLOCKS
0
BLOCK
5
20
330
1F
100
AcDbEntity
8
0
100
AcDbBlockBegin
2
*Model_Space
70
0
10
0
20
0
30
0
3
*Model_Space
1

0
ENDBLK
5
21
330
1F
100
AcDbEntity
8
0
100
AcDbBlockEnd
0
BLOCK
5
1C
330
1B
100
AcDbEntity
8
0
100
AcDbBlockBegin
2
*Paper_Space
70
0
10
0
20
0
30
0
3
*Paper_Space
1

0
ENDBLK
5
1D
330
1F
100
AcDbEntity
8
0
100
AcDbBlockEnd
0
ENDSEC
0
SECTION
2
ENTITIES
0
LWPOLYLINE
5
91
100
AcDbEntity
8
outline
6
ByLayer
62
7
370
-1
100
AcDbPolyline
90
9
70
0
43
0
10
3.01081
20
6.260257
10
3.243301
20
6.818678
10
3.788465
20
7.055559
10
4.304218
20
6.831383
10
4.515556
20
6.268733
10
4.295757
20
5.693581
10
3.754618
20
5.465175
10
3.230609
20
5.702057
10
3.01081
20
6.260257
0
LWPOLYLINE
5
92
100
AcDbEntity
8
outline
6
ByLayer
62
7
370
-1
100
AcDbPolyline
90
9
70
0
43
0
10
3.086759
20
6.260257
10
3.285507
20
5.75709
10
3.754618
20
5.541389
10
4.240755
20
5.748615
10
4.4394
20
6.268733
10
4.249217
20
6.776349
10
3.788465
20
6.979345
10
3.293865
20
6.763644
10
3.086759
20
6.260257
0
LWPOLYLINE
5
93
100
AcDbEntity
8
outline
6
ByLayer
62
7
370
-1
100
AcDbPolyline
90
9
70
0
43
0
10
0.846667
20
3.959481
10
1.083389
20
4.517901
10
1.632783
20
4.754766
10
2.148537
20
4.52636
10
2.359874
20
3.959481
10
2.135845
20
3.388558
10
1.607398
20
3.155923
10
1.074927
20
3.392805
10
0.846667
20
3.959481
0
LWPOLYLINE
5
94
100
AcDbEntity
8
outline
6
ByLayer
62
7
370
-1
100
AcDbPolyline
90
9
70
0
43
0
10
3.01081
20
3.959481
10
3.243301
20
4.517901
10
3.788465
20
4.754766
10
4.304218
20
4.52636
10
4.515556
20
3.959481
10
4.295757
20
3.388558
10
3.754618
20
3.155923
10
3.230609
20
3.392805
10
3.01081
20
3.959481
0
LWPOLYLINE
5
95
100
AcDbEntity
8
outline
6
ByLayer
62
7
370
-1
100
AcDbPolyline
90
9
70
0
43
0
10
0.922822
20
3.959481
10
1.129929
20
3.447838
10
1.607398
20
3.232137
10
2.080843
20
3.443609
10
2.283719
20
3.959481
10
2.093536
20
4.467097
10
1.632783
20
4.670093
10
1.13416
20
4.458621
10
0.922822
20
3.959481
0
LWPOLYLINE
5
96
100
AcDbEntity
8
outline
6
ByLayer
62
7
370
-1
100
AcDbPolyline
90
9
70
0
43
0
10
3.086759
20
3.959481
10
3.285507
20
3.447838
10
3.754618
20
3.232137
10
4.240755
20
3.443609
10
4.4394
20
3.959481
10
4.249217
20
4.467097
10
3.788465
20
4.670093
10
3.293865
20
4.458621
10
3.086759
20
3.959481
0
LWPOLYLINE
5
97
100
AcDbEntity
8
outline
6
ByLayer
62
7
370
-1
100
AcDbPolyline
90
9
70
0
43
0
10
3.01081
20
1.641753
10
3.243301
20
2.204301
10
3.788465
20
2.445311
10
4.304218
20
2.221236
10
4.515556
20
1.658687
10
4.295757
20
1.079306
10
3.754618
20
0.846671
10
3.230609
20
1.083553
10
3.01081
20
1.641753
0
LWPOLYLINE
5
98
100
AcDbEntity
8
outline
6
ByLayer
62
7
370
-1
100
AcDbPolyline
90
9
70
0
43
0
10
0.846667
20
1.641753
10
1.083389
20
2.204301
10
1.632783
20
2.445311
10
2.148537
20
2.221236
10
2.359874
20
1.658687
10
2.135845
20
1.079306
10
1.607398
20
0.846671
10
1.074927
20
1.083553
10
0.846667
20
1.641753
0
LWPOLYLINE
5
99
100
AcDbEntity
8
outline
6
ByLayer
62
7
370
-1
100
AcDbPolyline
90
9
70
0
43
0
10
0.922822
20
1.641753
10
1.129929
20
1.138586
10
1.607398
20
0.922885
10
2.080843
20
1.134356
10
2.283719
20
1.658687
10
2.093536
20
2.166304
10
1.632783
20
2.369316
10
1.13416
20
2.149369
10
0.922822
20
1.641753
0
LWPOLYLINE
5
9A
100
AcDbEntity
8
outline
6
ByLayer
62
7
370
-1
100
AcDbPolyline
90
9
70
0
43
0
10
3.086759
20
1.641753
10
3.285507
20
1.138586
10
3.754618
20
0.922885
10
4.240755
20
1.134356
10
4.4394
20
1.658687
10
4.249217
20
2.166304
10
3.788465
20
2.369316
10
3.293865
20
2.149369
10
3.086759
20
1.641753
0
LWPOLYLINE
5
9B
100
AcDbEntity
8
outline
6
ByLayer
62
7
370
-1
100
AcDbPolyline
90
9
70
0
43
0
10
0.859359
20
6.243309
10
1.091851
20
6.801716
10
1.637014
20
7.038606
10
2.152768
20
6.814423
10
2.364105
20
6.251774
10
2.144306
20
5.676624
10
1.603167
20
5.44822
10
1.079158
20
5.685109
10
0.859359
20
6.243309
0
SPLINE
5
9C
100
AcDbEntity
8
outline
6
ByLayer
62
7
370
-1
100
AcDbSpline
210
0
220
0
230
1
70
8
71
3
72
8
73
4
74
0
42
1e-07
43
1e-07
40
0
40
0
40
0
40
0
40
1
40
1
40
1
40
1
10
1.142415
20
6.746684
30
0
10
1.090249
20
6.623893
30
0
10
1.138731
20
6.769699
30
0
10
0.935309
20
6.243309
30
0
0
LWPOLYLINE
5
9D
100
AcDbEntity
8
outline
6
ByLayer
62
7
370
-1
100
AcDbPolyline
90
8
70
0
43
0
10
0.935309
20
6.243309
10
1.134057
20
5.740141
10
1.603167
20
5.524444
10
2.089305
20
5.731655
10
2.28795
20
6.251774
10
2.097767
20
6.759392
10
1.637014
20
6.962381
10
1.142415
20
6.746684
0
LWPOLYLINE
5
9E
100
AcDbEntity
8
outline
6
ByLayer
62
7
370
-1
100
AcDbPolyline
90
2
70
0
43
0
10
0.935309
20
6.243309
10
0.935309
20
6.243309
0
LWPOLYLINE
5
9F
100
AcDbEntity
8
a_
6
ByLayer
62
7
370
-1
100
AcDbPolyline
90
9
70
0
43
0
10
0.832026
20
6.276457
10
1.068748
20
6.83487
10
1.618142
20
7.071759
10
2.133896
20
6.847575
10
2.345233
20
6.284927
10
2.121203
20
5.7098
10
1.592757
20
5.481382
10
1.060286
20
5.718241
10
0.832026
20
6.276457
0
LWPOLYLINE
5
A0
100
AcDbEntity
8
A
6
ByLayer
62
7
370
-1
100
AcDbPolyline
90
9
70
0
43
0
10
0.832307
20
6.276457
10
1.06903
20
6.83487
10
1.618424
20
7.071759
10
2.134178
20
6.847575
10
2.345515
20
6.284927
10
2.121485
20
5.7098
10
1.593039
20
5.481382
10
1.060568
20
5.718241
10
0.832307
20
6.276457
0
LWPOLYLINE
5
A1
100
AcDbEntity
8
b_
6
ByLayer
62
7
370
-1
100
AcDbPolyline
90
9
70
0
43
0
10
0.862841
20
6.276457
10
1.099563
20
6.83487
10
1.648958
20
7.071759
10
2.164711
20
6.847575
10
2.376049
20
6.284927
10
2.152019
20
5.7098
10
1.623572
20
5.481382
10
1.091102
20
5.718241
10
0.862841
20
6.276457
0
LWPOLYLINE
5
A2
100
AcDbEntity
8
b_
6
ByLayer
62
7
370
-1
100
AcDbPolyline
90
9
70
0
43
0
10
0.862841
20
3.97567
10
1.099563
20
4.534083
10
1.648958
20
4.770971
10
2.164711
20
4.542553
10
2.376049
20
3.97567
10
2.152019
20
3.40475
10
1.623572
20
3.172125
10
1.091102
20
3.408985
10
0.862841
20
3.97567
0
LWPOLYLINE
5
A3
100
AcDbEntity
8
B
6
ByLayer
62
7
370
-1
100
AcDbPolyline
90
9
70
0
43
0
10
0.862841
20
6.276457
10
1.099563
20
6.83487
10
1.648958
20
7.071759
10
2.164711
20
6.847575
10
2.376049
20
6.284927
10
2.152019
20
5.7098
10
1.623572
20
5.481382
10
1.091102
20
5.718241
10
0.862841
20
6.276457
0
LWPOLYLINE
5
A4
100
AcDbEntity
8
B
6
ByLayer
62
7
370
-1
100
AcDbPolyline
90
9
70
0
43
0
10
0.862841
20
3.97567
10
1.099563
20
4.534083
10
1.648958
20
4.770971
10
2.164711
20
4.542553
10
2.376049
20
3.97567
10
2.152019
20
3.40475
10
1.623572
20
3.172125
10
1.091102
20
3.408985
10
0.862841
20
3.97567
0
LWPOLYLINE
5
A5
100
AcDbEntity
8
c_
6
ByLayer
62
7
370
-1
100
AcDbPolyline
90
9
70
0
43
0
10
0.832026
20
6.245635
10
1.068749
20
6.80404
10
1.618143
20
7.040921
10
2.133897
20
6.816745
10
2.345234
20
6.254094
10
2.121204
20
5.678957
10
1.592758
20
5.45055
10
1.060287
20
5.687416
10
0.832026
20
6.245635
0
LWPOLYLINE
5
A6
100
AcDbEntity
8
c_
6
ByLayer
62
7
370
-1
100
AcDbPolyline
90
9
70
0
43
0
10
2.996169
20
6.245635
10
3.228661
20
6.80404
10
3.773824
20
7.040921
10
4.289578
20
6.816745
10
4.500915
20
6.254094
10
4.281116
20
5.678957
10
3.739977
20
5.45055
10
3.215968
20
5.687416
10
2.996169
20
6.245635
0
LWPOLYLINE
5
A7
100
AcDbEntity
8
C
6
ByLayer
62
7
370
-1
100
AcDbPolyline
90
9
70
0
43
0
10
0.832026
20
6.245635
10
1.068749
20
6.80404
10
1.618143
20
7.040921
10
2.133897
20
6.816745
10
2.345234
20
6.254094
10
2.121204
20
5.678957
10
1.592758
20
5.45055
10
1.060287
20
5.687416
10
0.832026
20
6.245635
0
LWPOLYLINE
5
A8
100
AcDbEntity
8
C
6
ByLayer
62
7
370
-1
100
AcDbPolyline
90
9
70
0
43
0
10
2.996169
20
6.245635
10
3.228661
20
6.80404
10
3.773824
20
7.040921
10
4.289578
20
6.816745
10
4.500915
20
6.254094
10
4.281116
20
5.678957
10
3.739977
20
5.45055
10
3.215968
20
5.687416
10
2.996169
20
6.245635
0
LWPOLYLINE
5
A9
100
AcDbEntity
8
d_
6
ByLayer
62
7
370
-1
100
AcDbPolyline
90
9
70
0
43
0
10
0.862842
20
6.276514
10
1.099564
20
6.834927
10
1.648959
20
7.071787
10
2.164712
20
6.847631
10
2.376049
20
6.284955
10
2.15202
20
5.709829
10
1.623573
20
5.48141
10
1.091103
20
5.718298
10
0.862842
20
6.276514
0
LWPOLYLINE
5
AA
100
AcDbEntity
8
d_
6
ByLayer
62
7
370
-1
100
AcDbPolyline
90
9
70
0
43
0
10
3.026985
20
3.975698
10
3.259476
20
4.53414
10
3.80464
20
4.771
10
4.320393
20
4.542609
10
4.531731
20
3.975698
10
4.311932
20
3.404807
10
3.770793
20
3.172153
10
3.246784
20
3.409041
10
3.026985
20
3.975698
0
LWPOLYLINE
5
AB
100
AcDbEntity
8
d_
6
ByLayer
62
7
370
-1
100
AcDbPolyline
90
9
70
0
43
0
10
3.026985
20
6.276514
10
3.259476
20
6.834927
10
3.80464
20
7.071787
10
4.320393
20
6.847631
10
4.531731
20
6.284955
10
4.311932
20
5.709829
10
3.770793
20
5.48141
10
3.246784
20
5.718298
10
3.026985
20
6.276514
0
LWPOLYLINE
5
AC
100
AcDbEntity
8
D
6
ByLayer
62
7
370
-1
100
AcDbPolyline
90
9
70
0
43
0
10
0.862842
20
6.276514
10
1.099564
20
6.834927
10
1.648959
20
7.071787
10
2.164712
20
6.847631
10
2.376049
20
6.284955
10
2.15202
20
5.709829
10
1.623573
20
5.48141
10
1.091103
20
5.718298
10
0.862842
20
6.276514
0
LWPOLYLINE
5
AD
100
AcDbEntity
8
D
6
ByLayer
62
7
370
-1
100
AcDbPolyline
90
9
70
0
43
0
10
3.026985
20
3.975698
10
3.259476
20
4.53414
10
3.80464
20
4.771
10
4.320393
20
4.542609
10
4.531731
20
3.975698
10
4.311932
20
3.404807
10
3.770793
20
3.172153
10
3.246784
20
3.409041
10
3.026985
20
3.975698
0
LWPOLYLINE
5
AE
100
AcDbEntity
8
D
6
ByLayer
62
7
370
-1
100
AcDbPolyline
90
9
70
0
43
0
10
3.026985
20
6.276514
10
3.259476
20
6.834927
10
3.80464
20
7.071787
10
4.320393
20
6.847631
10
4.531731
20
6.284955
10
4.311932
20
5.709829
10
3.770793
20
5.48141
10
3.246784
20
5.718298
10
3.026985
20
6.276514
0
LWPOLYLINE
5
AF
100
AcDbEntity
8
e_
6
ByLayer
62
7
370
-1
100
AcDbPolyline
90
9
70
0
43
0
10
0.832026
20
6.245657
10
1.068749
20
6.80407
10
1.618143
20
7.040958
10
2.133896
20
6.816774
10
2.345234
20
6.254126
10
2.121204
20
5.678972
10
1.592758
20
5.450581
10
1.060287
20
5.687441
10
0.832026
20
6.245657
0
LWPOLYLINE
5
B0
100
AcDbEntity
8
e_
6
ByLayer
62
7
370
-1
100
AcDbPolyline
90
9
70
0
43
0
10
2.996169
20
3.94487
10
3.22866
20
4.503283
10
3.773824
20
4.740171
10
4.289578
20
4.511752
10
4.500915
20
3.94487
10
4.281116
20
3.37395
10
3.739977
20
3.141325
10
3.215968
20
3.378185
10
2.996169
20
3.94487
0
LWPOLYLINE
5
B1
100
AcDbEntity
8
E
6
ByLayer
62
7
370
-1
100
AcDbPolyline
90
9
70
0
43
0
10
0.832026
20
6.245657
10
1.068749
20
6.80407
10
1.618143
20
7.040958
10
2.133896
20
6.816774
10
2.345234
20
6.254126
10
2.121204
20
5.678972
10
1.592758
20
5.450581
10
1.060287
20
5.687441
10
0.832026
20
6.245657
0
LWPOLYLINE
5
B2
100
AcDbEntity
8
E
6
ByLayer
62
7
370
-1
100
AcDbPolyline
90
9
70
0
43
0
10
2.996169
20
3.94487
10
3.22866
20
4.503283
10
3.773824
20
4.740171
10
4.289578
20
4.511752
10
4.500915
20
3.94487
10
4.281116
20
3.37395
10
3.739977
20
3.141325
10
3.215968
20
3.378185
10
2.996169
20
3.94487
0
LWPOLYLINE
5
B3
100
AcDbEntity
8
f_
6
ByLayer
62
7
370
-1
100
AcDbPolyline
90
9
70
0
43
0
10
0.832026
20
6.276429
10
1.068749
20
6.834842
10
1.618143
20
7.07173
10
2.133897
20
6.847546
10
2.345234
20
6.284898
10
2.121204
20
5.709744
10
1.592758
20
5.481353
10
1.060287
20
5.718213
10
0.832026
20
6.276429
0
LWPOLYLINE
5
B4
100
AcDbEntity
8
f_
6
ByLayer
62
7
370
-1
100
AcDbPolyline
90
9
70
0
43
0
10
0.832026
20
3.975642
10
1.068749
20
4.534055
10
1.618143
20
4.770943
10
2.133897
20
4.542524
10
2.345234
20
3.975642
10
2.121204
20
3.404722
10
1.592758
20
3.172097
10
1.060287
20
3.408957
10
0.832026
20
3.975642
0
LWPOLYLINE
5
B5
100
AcDbEntity
8
f_
6
ByLayer
62
7
370
-1
100
AcDbPolyline
90
9
70
0
43
0
10
2.996169
20
6.276429
10
3.228661
20
6.834842
10
3.773824
20
7.07173
10
4.289578
20
6.847546
10
4.500915
20
6.284898
10
4.281116
20
5.709744
10
3.739977
20
5.481353
10
3.215968
20
5.718213
10
2.996169
20
6.276429
0
LWPOLYLINE
5
B6
100
AcDbEntity
8
F
6
ByLayer
62
7
370
-1
100
AcDbPolyline
90
9
70
0
43
0
10
0.832026
20
6.276429
10
1.068749
20
6.834842
10
1.618143
20
7.07173
10
2.133897
20
6.847546
10
2.345234
20
6.284898
10
2.121204
20
5.709744
10
1.592758
20
5.481353
10
1.060287
20
5.718213
10
0.832026
20
6.276429
0
LWPOLYLINE
5
B7
100
AcDbEntity
8
F
6
ByLayer
62
7
370
-1
100
AcDbPolyline
90
9
70
0
43
0
10
0.832026
20
3.975642
10
1.068749
20
4.534055
10
1.618143
20
4.770943
10
2.133897
20
4.542524
10
2.345234
20
3.975642
10
2.121204
20
3.404722
10
1.592758
20
3.172097
10
1.060287
20
3.408957
10
0.832026
20
3.975642
0
LWPOLYLINE
5
B8
100
AcDbEntity
8
F
6
ByLayer
62
7
370
-1
100
AcDbPolyline
90
9
70
0
43
0
10
2.996169
20
6.276429
10
3.228661
20
6.834842
10
3.773824
20
7.07173
10
4.289578
20
6.847546
10
4.500915
20
6.284898
10
4.281116
20
5.709744
10
3.739977
20
5.481353
10
3.215968
20
5.718213
10
2.996169
20
6.276429
0
LWPOLYLINE
5
B9
100
AcDbEntity
8
g_
6
ByLayer
62
7
370
-1
100
AcDbPolyline
90
9
70
0
43
0
10
0.862842
20
6.2456
10
1.099564
20
6.804014
10
1.648958
20
7.040874
10
2.164712
20
6.816718
10
2.376049
20
6.254042
10
2.15202
20
5.678915
10
1.623573
20
5.450497
10
1.091102
20
5.687385
10
0.862842
20
6.2456
0
LWPOLYLINE
5
BA
100
AcDbEntity
8
g_
6
ByLayer
62
7
370
-1
100
AcDbPolyline
90
9
70
0
43
0
10
0.862842
20
3.944785
10
1.099564
20
4.503227
10
1.648958
20
4.740086
10
2.164712
20
4.511696
10
2.376049
20
3.944785
10
2.15202
20
3.373893
10
1.623573
20
3.14124
10
1.091102
20
3.378128
10
0.862842
20
3.944785
0
LWPOLYLINE
5
BB
100
AcDbEntity
8
g_
6
ByLayer
62
7
370
-1
100
AcDbPolyline
90
9
70
0
43
0
10
3.026985
20
3.944785
10
3.259476
20
4.503227
10
3.80464
20
4.740086
10
4.320393
20
4.511696
10
4.531731
20
3.944785
10
4.311932
20
3.373893
10
3.770793
20
3.14124
10
3.246783
20
3.378128
10
3.026985
20
3.944785
0
LWPOLYLINE
5
BC
100
AcDbEntity
8
g_
6
ByLayer
62
7
370
-1
100
AcDbPolyline
90
9
70
0
43
0
10
3.026985
20
6.2456
10
3.259476
20
6.804014
10
3.80464
20
7.040874
10
4.320393
20
6.816718
10
4.531731
20
6.254042
10
4.311932
20
5.678915
10
3.770793
20
5.450497
10
3.246783
20
5.687385
10
3.026985
20
6.2456
0
LWPOLYLINE
5
BD
100
AcDbEntity
8
G
6
ByLayer
62
7
370
-1
100
AcDbPolyline
90
9
70
0
43
0
10
0.862842
20
6.2456
10
1.099564
20
6.804014
10
1.648958
20
7.040874
10
2.164712
20
6.816718
10
2.376049
20
6.254042
10
2.15202
20
5.678915
10
1.623573
20
5.450497
10
1.091102
20
5.687385
10
0.862842
20
6.2456
0
LWPOLYLINE
5
BE
100
AcDbEntity
8
G
6
ByLayer
62
7
370
-1
100
AcDbPolyline
90
9
70
0
43
0
10
0.862842
20
3.944785
10
1.099564
20
4.503227
10
1.648958
20
4.740086
10
2.164712
20
4.511696
10
2.376049
20
3.944785
10
2.15202
20
3.373893
10
1.623573
20
3.14124
10
1.091102
20
3.378128
10
0.862842
20
3.944785
0
LWPOLYLINE
5
BF
100
AcDbEntity
8
G
6
ByLayer
62
7
370
-1
100
AcDbPolyline
90
9
70
0
43
0
10
3.026985
20
3.944785
10
3.259476
20
4.503227
10
3.80464
20
4.740086
10
4.320393
20
4.511696
10
4.531731
20
3.944785
10
4.311932
20
3.373893
10
3.770793
20
3.14124
10
3.246783
20
3.378128
10
3.026985
20
3.944785
0
LWPOLYLINE
5
C0
100
AcDbEntity
8
G
6
ByLayer
62
7
370
-1
100
AcDbPolyline
90
9
70
0
43
0
10
3.026985
20
6.2456
10
3.259476
20
6.804014
10
3.80464
20
7.040874
10
4.320393
20
6.816718
10
4.531731
20
6.254042
10
4.311932
20
5.678915
10
3.770793
20
5.450497
10
3.246783
20
5.687385
10
3.026985
20
6.2456
0
LWPOLYLINE
5
C1
100
AcDbEntity
8
h_
6
ByLayer
62
7
370
-1
100
AcDbPolyline
90
9
70
0
43
0
10
0.828022
20
6.285209
10
1.064745
20
6.84365
10
1.614139
20
7.08051
10
2.129893
20
6.856326
10
2.34123
20
6.293678
10
2.1172
20
5.718552
10
1.588754
20
5.490133
10
1.056283
20
5.726993
10
0.828022
20
6.285209
0
LWPOLYLINE
5
C2
100
AcDbEntity
8
h_
6
ByLayer
62
7
370
-1
100
AcDbPolyline
90
9
70
0
43
0
10
0.828022
20
3.984422
10
1.064745
20
4.542835
10
1.614139
20
4.779723
10
2.129893
20
4.551304
10
2.34123
20
3.984422
10
2.1172
20
3.41353
10
1.588754
20
3.180877
10
1.056283
20
3.417736
10
0.828022
20
3.984422
0
LWPOLYLINE
5
C3
100
AcDbEntity
8
h_
6
ByLayer
62
7
370
-1
100
AcDbPolyline
90
9
70
0
43
0
10
2.992165
20
3.984422
10
3.224657
20
4.542835
10
3.76982
20
4.779723
10
4.285574
20
4.551304
10
4.496911
20
3.984422
10
4.277112
20
3.41353
10
3.735973
20
3.180877
10
3.211964
20
3.417736
10
2.992165
20
3.984422
0
LWPOLYLINE
5
C4
100
AcDbEntity
8
H
6
ByLayer
62
7
370
-1
100
AcDbPolyline
90
9
70
0
43
0
10
0.828022
20
6.285209
10
1.064745
20
6.84365
10
1.614139
20
7.08051
10
2.129893
20
6.856326
10
2.34123
20
6.293678
10
2.1172
20
5.718552
10
1.588754
20
5.490133
10
1.056283
20
5.726993
10
0.828022
20
6.285209
0
LWPOLYLINE
5
C5
100
AcDbEntity
8
H
6
ByLayer
62
7
370
-1
100
AcDbPolyline
90
9
70
0
43
0
10
0.828022
20
3.984422
10
1.064745
20
4.542835
10
1.614139
20
4.779723
10
2.129893
20
4.551304
10
2.34123
20
3.984422
10
2.1172
20
3.41353
10
1.588754
20
3.180877
10
1.056283
20
3.417736
10
0.828022
20
3.984422
0
LWPOLYLINE
5
C6
100
AcDbEntity
8
H
6
ByLayer
62
7
370
-1
100
AcDbPolyline
90
9
70
0
43
0
10
2.992165
20
3.984422
10
3.224657
20
4.542835
10
3.76982
20
4.779723
10
4.285574
20
4.551304
10
4.496911
20
3.984422
10
4.277112
20
3.41353
10
3.735973
20
3.180877
10
3.211964
20
3.417736
10
2.992165
20
3.984422
0
LWPOLYLINE
5
C7
100
AcDbEntity
8
i_
6
ByLayer
62
7
370
-1
100
AcDbPolyline
90
9
70
0
43
0
10
0.828021
20
3.940833
10
1.064744
20
4.499246
10
1.614138
20
4.736134
10
2.129892
20
4.507715
10
2.341229
20
3.940833
10
2.117199
20
3.369913
10
1.588753
20
3.137288
10
1.056282
20
3.374147
10
0.828021
20
3.940833
0
LWPOLYLINE
5
C8
100
AcDbEntity
8
i_
6
ByLayer
62
7
370
-1
100
AcDbPolyline
90
9
70
0
43
0
10
2.992164
20
6.24162
10
3.224656
20
6.800033
10
3.769819
20
7.036921
10
4.285573
20
6.812737
10
4.49691
20
6.250089
10
4.277111
20
5.674935
10
3.735972
20
5.446544
10
3.211963
20
5.683404
10
2.992164
20
6.24162
0
LWPOLYLINE
5
C9
100
AcDbEntity
8
I
6
ByLayer
62
7
370
-1
100
AcDbPolyline
90
9
70
0
43
0
10
0.828021
20
3.940833
10
1.064744
20
4.499246
10
1.614138
20
4.736134
10
2.129892
20
4.507715
10
2.341229
20
3.940833
10
2.117199
20
3.369913
10
1.588753
20
3.137288
10
1.056282
20
3.374147
10
0.828021
20
3.940833
0
LWPOLYLINE
5
CA
100
AcDbEntity
8
I
6
ByLayer
62
7
370
-1
100
AcDbPolyline
90
9
70
0
43
0
10
2.992164
20
6.24162
10
3.224656
20
6.800033
10
3.769819
20
7.036921
10
4.285573
20
6.812737
10
4.49691
20
6.250089
10
4.277111
20
5.674935
10
3.735972
20
5.446544
10
3.211963
20
5.683404
10
2.992164
20
6.24162
0
LWPOLYLINE
5
CB
100
AcDbEntity
8
j_
6
ByLayer
62
7
370
-1
100
AcDbPolyline
90
9
70
0
43
0
10
0.871601
20
3.984393
10
1.108324
20
4.542807
10
1.657718
20
4.779695
10
2.173472
20
4.551276
10
2.384809
20
3.984393
10
2.160779
20
3.413474
10
1.632333
20
3.180848
10
1.099862
20
3.417708
10
0.871601
20
3.984393
0
LWPOLYLINE
5
CC
100
AcDbEntity
8
j_
6
ByLayer
62
7
370
-1
100
AcDbPolyline
90
9
70
0
43
0
10
3.035744
20
3.984393
10
3.268236
20
4.542807
10
3.8134
20
4.779695
10
4.329153
20
4.551276
10
4.54049
20
3.984393
10
4.320691
20
3.413474
10
3.779552
20
3.180848
10
3.255543
20
3.417708
10
3.035744
20
3.984393
0
LWPOLYLINE
5
CD
100
AcDbEntity
8
j_
6
ByLayer
62
7
370
-1
100
AcDbPolyline
90
9
70
0
43
0
10
3.035744
20
6.285181
10
3.268236
20
6.843594
10
3.8134
20
7.080482
10
4.329153
20
6.856298
10
4.54049
20
6.29365
10
4.320691
20
5.718495
10
3.779552
20
5.490105
10
3.255543
20
5.726965
10
3.035744
20
6.285181
0
LWPOLYLINE
5
CE
100
AcDbEntity
8
J
6
ByLayer
62
7
370
-1
100
AcDbPolyline
90
9
70
0
43
0
10
0.871601
20
3.984393
10
1.108324
20
4.542807
10
1.657718
20
4.779695
10
2.173472
20
4.551276
10
2.384809
20
3.984393
10
2.160779
20
3.413474
10
1.632333
20
3.180848
10
1.099862
20
3.417708
10
0.871601
20
3.984393
0
LWPOLYLINE
5
CF
100
AcDbEntity
8
J
6
ByLayer
62
7
370
-1
100
AcDbPolyline
90
9
70
0
43
0
10
3.035744
20
3.984393
10
3.268236
20
4.542807
10
3.8134
20
4.779695
10
4.329153
20
4.551276
10
4.54049
20
3.984393
10
4.320691
20
3.413474
10
3.779552
20
3.180848
10
3.255543
20
3.417708
10
3.035744
20
3.984393
0
LWPOLYLINE
5
D0
100
AcDbEntity
8
J
6
ByLayer
62
7
370
-1
100
AcDbPolyline
90
9
70
0
43
0
10
3.035744
20
6.285181
10
3.268236
20
6.843594
10
3.8134
20
7.080482
10
4.329153
20
6.856298
10
4.54049
20
6.29365
10
4.320691
20
5.718495
10
3.779552
20
5.490105
10
3.255543
20
5.726965
10
3.035744
20
6.285181
0
LWPOLYLINE
5
D1
100
AcDbEntity
8
k_
6
ByLayer
62
7
370
-1
100
AcDbPolyline
90
9
70
0
43
0
10
0.828021
20
6.246623
10
1.065113
20
6.805564
10
1.615363
20
7.042631
10
2.131921
20
6.818264
10
2.343588
20
6.25509
10
2.119209
20
5.679413
10
1.589939
20
5.450813
10
1.056638
20
5.68788
10
0.828021
20
6.246623
0
LWPOLYLINE
5
D2
100
AcDbEntity
8
k_
6
ByLayer
62
7
370
-1
100
AcDbPolyline
90
9
70
0
43
0
10
0.828021
20
1.623852
10
1.065113
20
2.186913
10
1.615363
20
2.428157
10
2.131921
20
2.203875
10
2.343588
20
1.640813
10
2.119209
20
1.060903
10
1.589939
20
0.828041
10
1.056638
20
1.065136
10
0.828021
20
1.623852
0
LWPOLYLINE
5
D3
100
AcDbEntity
8
K
6
ByLayer
62
7
370
-1
100
AcDbPolyline
90
9
70
0
43
0
10
0.828021
20
6.246623
10
1.065113
20
6.805564
10
1.615363
20
7.042631
10
2.131921
20
6.818264
10
2.343588
20
6.25509
10
2.119209
20
5.679413
10
1.589939
20
5.450813
10
1.056638
20
5.68788
10
0.828021
20
6.246623
0
LWPOLYLINE
5
D4
100
AcDbEntity
8
K
6
ByLayer
62
7
370
-1
100
AcDbPolyline
90
9
70
0
43
0
10
0.828021
20
1.623852
10
1.065113
20
2.186913
10
1.615363
20
2.428157
10
2.131921
20
2.203875
10
2.343588
20
1.640813
10
2.119209
20
1.060903
10
1.589939
20
0.828041
10
1.056638
20
1.065136
10
0.828021
20
1.623852
0
LWPOLYLINE
5
D5
100
AcDbEntity
8
l_
6
ByLayer
62
7
370
-1
100
AcDbPolyline
90
9
70
0
43
0
10
0.828021
20
6.246623
10
1.065113
20
6.805564
10
1.615363
20
7.042631
10
2.131921
20
6.818264
10
2.343587
20
6.25509
10
2.119208
20
5.679413
10
1.589938
20
5.450813
10
1.056638
20
5.68788
10
0.828021
20
6.246623
0
LWPOLYLINE
5
D6
100
AcDbEntity
8
l_
6
ByLayer
62
7
370
-1
100
AcDbPolyline
90
9
70
0
43
0
10
0.828021
20
1.623852
10
1.065113
20
2.186913
10
1.615363
20
2.428157
10
2.131921
20
2.203875
10
2.343587
20
1.640813
10
2.119208
20
1.060903
10
1.589938
20
0.828041
10
1.056638
20
1.065136
10
0.828021
20
1.623852
0
LWPOLYLINE
5
D7
100
AcDbEntity
8
l_
6
ByLayer
62
7
370
-1
100
AcDbPolyline
90
9
70
0
43
0
10
0.828021
20
3.943718
10
1.065113
20
4.502631
10
1.615363
20
4.739726
10
2.131921
20
4.511126
10
2.343587
20
3.943718
10
2.119208
20
3.372275
10
1.589938
20
3.139413
10
1.056638
20
3.376508
10
0.828021
20
3.943718
0
LWPOLYLINE
5
D8
100
AcDbEntity
8
L
6
ByLayer
62
7
370
-1
100
AcDbPolyline
90
9
70
0
43
0
10
0.828021
20
6.246623
10
1.065113
20
6.805564
10
1.615363
20
7.042631
10
2.131921
20
6.818264
10
2.343587
20
6.25509
10
2.119208
20
5.679413
10
1.589938
20
5.450813
10
1.056638
20
5.68788
10
0.828021
20
6.246623
0
LWPOLYLINE
5
D9
100
AcDbEntity
8
L
6
ByLayer
62
7
370
-1
100
AcDbPolyline
90
9
70
0
43
0
10
0.828021
20
1.623852
10
1.065113
20
2.186913
10
1.615363
20
2.428157
10
2.131921
20
2.203875
10
2.343587
20
1.640813
10
2.119208
20
1.060903
10
1.589938
20
0.828041
10
1.056638
20
1.065136
10
0.828021
20
1.623852
0
LWPOLYLINE
5
DA
100
AcDbEntity
8
L
6
ByLayer
62
7
370
-1
100
AcDbPolyline
90
9
70
0
43
0
10
0.828021
20
3.943718
10
1.065113
20
4.502631
10
1.615363
20
4.739726
10
2.131921
20
4.511126
10
2.343587
20
3.943718
10
2.119208
20
3.372275
10
1.589938
20
3.139413
10
1.056638
20
3.376508
10
0.828021
20
3.943718
0
LWPOLYLINE
5
DB
100
AcDbEntity
8
m_
6
ByLayer
62
7
370
-1
100
AcDbPolyline
90
9
70
0
43
0
10
0.828022
20
6.246595
10
1.065113
20
6.805508
10
1.615364
20
7.042603
10
2.131921
20
6.818236
10
2.343588
20
6.255062
10
2.119209
20
5.679385
10
1.589939
20
5.450757
10
1.056638
20
5.687852
10
0.828022
20
6.246595
0
LWPOLYLINE
5
DC
100
AcDbEntity
8
m_
6
ByLayer
62
7
370
-1
100
AcDbPolyline
90
9
70
0
43
0
10
0.828022
20
1.623823
10
1.065113
20
2.186885
10
1.615364
20
2.4281
10
2.131921
20
2.203846
10
2.343588
20
1.640757
10
2.119209
20
1.060846
10
1.589939
20
0.828013
10
1.056638
20
1.06508
10
0.828022
20
1.623823
0
LWPOLYLINE
5
DD
100
AcDbEntity
8
m_
6
ByLayer
62
7
370
-1
100
AcDbPolyline
90
9
70
0
43
0
10
2.995538
20
6.246595
10
3.228392
20
6.805508
10
3.774405
20
7.042603
10
4.290963
20
6.818236
10
4.502629
20
6.255062
10
4.282488
20
5.679385
10
3.740505
20
5.450757
10
3.21568
20
5.687852
10
2.995538
20
6.246595
0
LWPOLYLINE
5
DE
100
AcDbEntity
8
M
6
ByLayer
62
7
370
-1
100
AcDbPolyline
90
9
70
0
43
0
10
0.828022
20
6.246595
10
1.065113
20
6.805508
10
1.615364
20
7.042603
10
2.131921
20
6.818236
10
2.343588
20
6.255062
10
2.119209
20
5.679385
10
1.589939
20
5.450757
10
1.056638
20
5.687852
10
0.828022
20
6.246595
0
LWPOLYLINE
5
DF
100
AcDbEntity
8
M
6
ByLayer
62
7
370
-1
100
AcDbPolyline
90
9
70
0
43
0
10
0.828022
20
1.623823
10
1.065113
20
2.186885
10
1.615364
20
2.4281
10
2.131921
20
2.203846
10
2.343588
20
1.640757
10
2.119209
20
1.060846
10
1.589939
20
0.828013
10
1.056638
20
1.06508
10
0.828022
20
1.623823
0
LWPOLYLINE
5
E0
100
AcDbEntity
8
M
6
ByLayer
62
7
370
-1
100
AcDbPolyline
90
9
70
0
43
0
10
2.995538
20
6.246595
10
3.228392
20
6.805508
10
3.774405
20
7.042603
10
4.290963
20
6.818236
10
4.502629
20
6.255062
10
4.282488
20
5.679385
10
3.740505
20
5.450757
10
3.21568
20
5.687852
10
2.995538
20
6.246595
0
LWPOLYLINE
5
E1
100
AcDbEntity
8
n_
6
ByLayer
62
7
370
-1
100
AcDbPolyline
90
9
70
0
43
0
10
0.828021
20
6.246623
10
1.065113
20
6.805564
10
1.615364
20
7.042631
10
2.131921
20
6.818264
10
2.343588
20
6.25509
10
2.119209
20
5.679413
10
1.589939
20
5.450813
10
1.056638
20
5.68788
10
0.828021
20
6.246623
0
LWPOLYLINE
5
E2
100
AcDbEntity
8
n_
6
ByLayer
62
7
370
-1
100
AcDbPolyline
90
9
70
0
43
0
10
0.828021
20
1.623852
10
1.065113
20
2.186913
10
1.615364
20
2.428157
10
2.131921
20
2.203875
10
2.343588
20
1.640813
10
2.119209
20
1.060903
10
1.589939
20
0.828041
10
1.056638
20
1.065136
10
0.828021
20
1.623852
0
LWPOLYLINE
5
E3
100
AcDbEntity
8
n_
6
ByLayer
62
7
370
-1
100
AcDbPolyline
90
9
70
0
43
0
10
2.995538
20
3.943718
10
3.228392
20
4.502631
10
3.774405
20
4.739726
10
4.290963
20
4.511126
10
4.502629
20
3.943718
10
4.282488
20
3.372275
10
3.740505
20
3.139413
10
3.215679
20
3.376508
10
2.995538
20
3.943718
0
LWPOLYLINE
5
E4
100
AcDbEntity
8
n_
6
ByLayer
62
7
370
-1
100
AcDbPolyline
90
9
70
0
43
0
10
2.995538
20
6.246623
10
3.228392
20
6.805564
10
3.774405
20
7.042631
10
4.290963
20
6.818264
10
4.502629
20
6.25509
10
4.282488
20
5.679413
10
3.740505
20
5.450813
10
3.215679
20
5.68788
10
2.995538
20
6.246623
0
LWPOLYLINE
5
E5
100
AcDbEntity
8
N
6
ByLayer
62
7
370
-1
100
AcDbPolyline
90
9
70
0
43
0
10
0.828021
20
6.246623
10
1.065113
20
6.805564
10
1.615364
20
7.042631
10
2.131921
20
6.818264
10
2.343588
20
6.25509
10
2.119209
20
5.679413
10
1.589939
20
5.450813
10
1.056638
20
5.68788
10
0.828021
20
6.246623
0
LWPOLYLINE
5
E6
100
AcDbEntity
8
N
6
ByLayer
62
7
370
-1
100
AcDbPolyline
90
9
70
0
43
0
10
0.828021
20
1.623852
10
1.065113
20
2.186913
10
1.615364
20
2.428157
10
2.131921
20
2.203875
10
2.343588
20
1.640813
10
2.119209
20
1.060903
10
1.589939
20
0.828041
10
1.056638
20
1.065136
10
0.828021
20
1.623852
0
LWPOLYLINE
5
E7
100
AcDbEntity
8
N
6
ByLayer
62
7
370
-1
100
AcDbPolyline
90
9
70
0
43
0
10
2.995538
20
3.943718
10
3.228392
20
4.502631
10
3.774405
20
4.739726
10
4.290963
20
4.511126
10
4.502629
20
3.943718
10
4.282488
20
3.372275
10
3.740505
20
3.139413
10
3.215679
20
3.376508
10
2.995538
20
3.943718
0
LWPOLYLINE
5
E8
100
AcDbEntity
8
N
6
ByLayer
62
7
370
-1
100
AcDbPolyline
90
9
70
0
43
0
10
2.995538
20
6.246623
10
3.228392
20
6.805564
10
3.774405
20
7.042631
10
4.290963
20
6.818264
10
4.502629
20
6.25509
10
4.282488
20
5.679413
10
3.740505
20
5.450813
10
3.215679
20
5.68788
10
2.995538
20
6.246623
0
LWPOLYLINE
5
E9
100
AcDbEntity
8
o_
6
ByLayer
62
7
370
-1
100
AcDbPolyline
90
9
70
0
43
0
10
0.828021
20
6.246595
10
1.065113
20
6.805508
10
1.615364
20
7.042603
10
2.131921
20
6.818236
10
2.343588
20
6.255062
10
2.119209
20
5.679385
10
1.589939
20
5.450757
10
1.056638
20
5.687852
10
0.828021
20
6.246595
0
LWPOLYLINE
5
EA
100
AcDbEntity
8
o_
6
ByLayer
62
7
370
-1
100
AcDbPolyline
90
9
70
0
43
0
10
0.828021
20
1.623823
10
1.065113
20
2.186885
10
1.615364
20
2.4281
10
2.131921
20
2.203846
10
2.343588
20
1.640757
10
2.119209
20
1.060846
10
1.589939
20
0.828013
10
1.056638
20
1.06508
10
0.828021
20
1.623823
0
LWPOLYLINE
5
EB
100
AcDbEntity
8
o_
6
ByLayer
62
7
370
-1
100
AcDbPolyline
90
9
70
0
43
0
10
2.995538
20
3.94369
10
3.228392
20
4.502603
10
3.774405
20
4.739698
10
4.290963
20
4.51107
10
4.502629
20
3.94369
10
4.282488
20
3.372246
10
3.740505
20
3.139385
10
3.215679
20
3.37648
10
2.995538
20
3.94369
0
LWPOLYLINE
5
EC
100
AcDbEntity
8
O
6
ByLayer
62
7
370
-1
100
AcDbPolyline
90
9
70
0
43
0
10
0.828021
20
6.246595
10
1.065113
20
6.805508
10
1.615364
20
7.042603
10
2.131921
20
6.818236
10
2.343588
20
6.255062
10
2.119209
20
5.679385
10
1.589939
20
5.450757
10
1.056638
20
5.687852
10
0.828021
20
6.246595
0
LWPOLYLINE
5
ED
100
AcDbEntity
8
O
6
ByLayer
62
7
370
-1
100
AcDbPolyline
90
9
70
0
43
0
10
0.828021
20
1.623823
10
1.065113
20
2.186885
10
1.615364
20
2.4281
10
2.131921
20
2.203846
10
2.343588
20
1.640757
10
2.119209
20
1.060846
10
1.589939
20
0.828013
10
1.056638
20
1.06508
10
0.828021
20
1.623823
0
LWPOLYLINE
5
EE
100
AcDbEntity
8
O
6
ByLayer
62
7
370
-1
100
AcDbPolyline
90
9
70
0
43
0
10
2.995538
20
3.94369
10
3.228392
20
4.502603
10
3.774405
20
4.739698
10
4.290963
20
4.51107
10
4.502629
20
3.94369
10
4.282488
20
3.372246
10
3.740505
20
3.139385
10
3.215679
20
3.37648
10
2.995538
20
3.94369
0
LWPOLYLINE
5
EF
100
AcDbEntity
8
p_
6
ByLayer
62
7
370
-1
100
AcDbPolyline
90
9
70
0
43
0
10
0.828021
20
6.246623
10
1.065113
20
6.805564
10
1.615363
20
7.042631
10
2.131921
20
6.818264
10
2.343588
20
6.25509
10
2.119209
20
5.679413
10
1.589939
20
5.450813
10
1.056638
20
5.68788
10
0.828021
20
6.246623
0
LWPOLYLINE
5
F0
100
AcDbEntity
8
p_
6
ByLayer
62
7
370
-1
100
AcDbPolyline
90
9
70
0
43
0
10
0.828021
20
1.623852
10
1.065113
20
2.186913
10
1.615363
20
2.428157
10
2.131921
20
2.203875
10
2.343588
20
1.640813
10
2.119209
20
1.060903
10
1.589939
20
0.828041
10
1.056638
20
1.065136
10
0.828021
20
1.623852
0
LWPOLYLINE
5
F1
100
AcDbEntity
8
p_
6
ByLayer
62
7
370
-1
100
AcDbPolyline
90
9
70
0
43
0
10
0.828021
20
3.943718
10
1.065113
20
4.502631
10
1.615363
20
4.739726
10
2.131921
20
4.511126
10
2.343588
20
3.943718
10
2.119209
20
3.372275
10
1.589939
20
3.139413
10
1.056638
20
3.376508
10
0.828021
20
3.943718
0
LWPOLYLINE
5
F2
100
AcDbEntity
8
p_
6
ByLayer
62
7
370
-1
100
AcDbPolyline
90
9
70
0
43
0
10
2.995538
20
6.246623
10
3.228392
20
6.805564
10
3.774405
20
7.042631
10
4.290962
20
6.818264
10
4.502629
20
6.25509
10
4.282487
20
5.679413
10
3.740505
20
5.450813
10
3.215679
20
5.68788
10
2.995538
20
6.246623
0
LWPOLYLINE
5
F3
100
AcDbEntity
8
P
6
ByLayer
62
7
370
-1
100
AcDbPolyline
90
9
70
0
43
0
10
0.828021
20
6.246623
10
1.065113
20
6.805564
10
1.615363
20
7.042631
10
2.131921
20
6.818264
10
2.343588
20
6.25509
10
2.119209
20
5.679413
10
1.589939
20
5.450813
10
1.056638
20
5.68788
10
0.828021
20
6.246623
0
LWPOLYLINE
5
F4
100
AcDbEntity
8
P
6
ByLayer
62
7
370
-1
100
AcDbPolyline
90
9
70
0
43
0
10
0.828021
20
1.623852
10
1.065113
20
2.186913
10
1.615363
20
2.428157
10
2.131921
20
2.203875
10
2.343588
20
1.640813
10
2.119209
20
1.060903
10
1.589939
20
0.828041
10
1.056638
20
1.065136
10
0.828021
20
1.623852
0
LWPOLYLINE
5
F5
100
AcDbEntity
8
P
6
ByLayer
62
7
370
-1
100
AcDbPolyline
90
9
70
0
43
0
10
0.828021
20
3.943718
10
1.065113
20
4.502631
10
1.615363
20
4.739726
10
2.131921
20
4.511126
10
2.343588
20
3.943718
10
2.119209
20
3.372275
10
1.589939
20
3.139413
10
1.056638
20
3.376508
10
0.828021
20
3.943718
0
LWPOLYLINE
5
F6
100
AcDbEntity
8
P
6
ByLayer
62
7
370
-1
100
AcDbPolyline
90
9
70
0
43
0
10
2.995538
20
6.246623
10
3.228392
20
6.805564
10
3.774405
20
7.042631
10
4.290962
20
6.818264
10
4.502629
20
6.25509
10
4.282487
20
5.679413
10
3.740505
20
5.450813
10
3.215679
20
5.68788
10
2.995538
20
6.246623
0
LWPOLYLINE
5
F7
100
AcDbEntity
8
q_
6
ByLayer
62
7
370
-1
100
AcDbPolyline
90
9
70
0
43
0
10
0.828022
20
6.29017
10
1.065113
20
6.849083
10
1.615364
20
7.086178
10
2.131922
20
6.861811
10
2.343588
20
6.298637
10
2.119209
20
5.72296
10
1.589939
20
5.49436
10
1.056638
20
5.731427
10
0.828022
20
6.29017
0
LWPOLYLINE
5
F8
100
AcDbEntity
8
q_
6
ByLayer
62
7
370
-1
100
AcDbPolyline
90
9
70
0
43
0
10
0.828022
20
1.667398
10
1.065113
20
2.23046
10
1.615364
20
2.471704
10
2.131922
20
2.247422
10
2.343588
20
1.68436
10
2.119209
20
1.104422
10
1.589939
20
0.871588
10
1.056638
20
1.108683
10
0.828022
20
1.667398
0
LWPOLYLINE
5
F9
100
AcDbEntity
8
q_
6
ByLayer
62
7
370
-1
100
AcDbPolyline
90
9
70
0
43
0
10
0.828022
20
3.987265
10
1.065113
20
4.546178
10
1.615364
20
4.783273
10
2.131922
20
4.554673
10
2.343588
20
3.987265
10
2.119209
20
3.415822
10
1.589939
20
3.18296
10
1.056638
20
3.420055
10
0.828022
20
3.987265
0
LWPOLYLINE
5
FA
100
AcDbEntity
8
q_
6
ByLayer
62
7
370
-1
100
AcDbPolyline
90
9
70
0
43
0
10
2.995538
20
3.987265
10
3.228392
20
4.546178
10
3.774405
20
4.783273
10
4.290963
20
4.554673
10
4.502629
20
3.987265
10
4.282488
20
3.415822
10
3.740506
20
3.18296
10
3.21568
20
3.420055
10
2.995538
20
3.987265
0
LWPOLYLINE
5
FB
100
AcDbEntity
8
q_
6
ByLayer
62
7
370
-1
100
AcDbPolyline
90
9
70
0
43
0
10
2.995538
20
6.29017
10
3.228392
20
6.849083
10
3.774405
20
7.086178
10
4.290963
20
6.861811
10
4.502629
20
6.298637
10
4.282488
20
5.72296
10
3.740506
20
5.49436
10
3.21568
20
5.731427
10
2.995538
20
6.29017
0
LWPOLYLINE
5
FC
100
AcDbEntity
8
Q
6
ByLayer
62
7
370
-1
100
AcDbPolyline
90
9
70
0
43
0
10
0.828022
20
6.29017
10
1.065113
20
6.849083
10
1.615364
20
7.086178
10
2.131922
20
6.861811
10
2.343588
20
6.298637
10
2.119209
20
5.72296
10
1.589939
20
5.49436
10
1.056638
20
5.731427
10
0.828022
20
6.29017
0
LWPOLYLINE
5
FD
100
AcDbEntity
8
Q
6
ByLayer
62
7
370
-1
100
AcDbPolyline
90
9
70
0
43
0
10
0.828022
20
1.667398
10
1.065113
20
2.23046
10
1.615364
20
2.471704
10
2.131922
20
2.247422
10
2.343588
20
1.68436
10
2.119209
20
1.104422
10
1.589939
20
0.871588
10
1.056638
20
1.108683
10
0.828022
20
1.667398
0
LWPOLYLINE
5
FE
100
AcDbEntity
8
Q
6
ByLayer
62
7
370
-1
100
AcDbPolyline
90
9
70
0
43
0
10
0.828022
20
3.987265
10
1.065113
20
4.546178
10
1.615364
20
4.783273
10
2.131922
20
4.554673
10
2.343588
20
3.987265
10
2.119209
20
3.415822
10
1.589939
20
3.18296
10
1.056638
20
3.420055
10
0.828022
20
3.987265
0
LWPOLYLINE
5
FF
100
AcDbEntity
8
Q
6
ByLayer
62
7
370
-1
100
AcDbPolyline
90
9
70
0
43
0
10
2.995538
20
3.987265
10
3.228392
20
4.546178
10
3.774405
20
4.783273
10
4.290963
20
4.554673
10
4.502629
20
3.987265
10
4.282488
20
3.415822
10
3.740506
20
3.18296
10
3.21568
20
3.420055
10
2.995538
20
3.987265
0
LWPOLYLINE
5
100
100
AcDbEntity
8
Q
6
ByLayer
62
7
370
-1
100
AcDbPolyline
90
9
70
0
43
0
10
2.995538
20
6.29017
10
3.228392
20
6.849083
10
3.774405
20
7.086178
10
4.290963
20
6.861811
10
4.502629
20
6.298637
10
4.282488
20
5.72296
10
3.740506
20
5.49436
10
3.21568
20
5.731427
10
2.995538
20
6.29017
0
LWPOLYLINE
5
101
100
AcDbEntity
8
r_
6
ByLayer
62
7
370
-1
100
AcDbPolyline
90
9
70
0
43
0
10
0.828022
20
6.246623
10
1.065113
20
6.805564
10
1.615364
20
7.042631
10
2.131921
20
6.818264
10
2.343588
20
6.25509
10
2.119209
20
5.679413
10
1.589939
20
5.450813
10
1.056638
20
5.68788
10
0.828022
20
6.246623
0
LWPOLYLINE
5
102
100
AcDbEntity
8
r_
6
ByLayer
62
7
370
-1
100
AcDbPolyline
90
9
70
0
43
0
10
0.828022
20
1.623852
10
1.065113
20
2.186913
10
1.615364
20
2.428157
10
2.131921
20
2.203875
10
2.343588
20
1.640813
10
2.119209
20
1.060903
10
1.589939
20
0.828041
10
1.056638
20
1.065136
10
0.828022
20
1.623852
0
LWPOLYLINE
5
103
100
AcDbEntity
8
r_
6
ByLayer
62
7
370
-1
100
AcDbPolyline
90
9
70
0
43
0
10
0.828022
20
3.943718
10
1.065113
20
4.502631
10
1.615364
20
4.739726
10
2.131921
20
4.511126
10
2.343588
20
3.943718
10
2.119209
20
3.372275
10
1.589939
20
3.139413
10
1.056638
20
3.376508
10
0.828022
20
3.943718
0
LWPOLYLINE
5
104
100
AcDbEntity
8
r_
6
ByLayer
62
7
370
-1
100
AcDbPolyline
90
9
70
0
43
0
10
2.995538
20
3.943718
10
3.228392
20
4.502631
10
3.774405
20
4.739726
10
4.290963
20
4.511126
10
4.502629
20
3.943718
10
4.282488
20
3.372275
10
3.740505
20
3.139413
10
3.21568
20
3.376508
10
2.995538
20
3.943718
0
LWPOLYLINE
5
105
100
AcDbEntity
8
R
6
ByLayer
62
7
370
-1
100
AcDbPolyline
90
9
70
0
43
0
10
0.828022
20
6.246623
10
1.065113
20
6.805564
10
1.615364
20
7.042631
10
2.131921
20
6.818264
10
2.343588
20
6.25509
10
2.119209
20
5.679413
10
1.589939
20
5.450813
10
1.056638
20
5.68788
10
0.828022
20
6.246623
0
LWPOLYLINE
5
106
100
AcDbEntity
8
R
6
ByLayer
62
7
370
-1
100
AcDbPolyline
90
9
70
0
43
0
10
0.828022
20
1.623852
10
1.065113
20
2.186913
10
1.615364
20
2.428157
10
2.131921
20
2.203875
10
2.343588
20
1.640813
10
2.119209
20
1.060903
10
1.589939
20
0.828041
10
1.056638
20
1.065136
10
0.828022
20
1.623852
0
LWPOLYLINE
5
107
100
AcDbEntity
8
R
6
ByLayer
62
7
370
-1
100
AcDbPolyline
90
9
70
0
43
0
10
0.828022
20
3.943718
10
1.065113
20
4.502631
10
1.615364
20
4.739726
10
2.131921
20
4.511126
10
2.343588
20
3.943718
10
2.119209
20
3.372275
10
1.589939
20
3.139413
10
1.056638
20
3.376508
10
0.828022
20
3.943718
0
LWPOLYLINE
5
108
100
AcDbEntity
8
R
6
ByLayer
62
7
370
-1
100
AcDbPolyline
90
9
70
0
43
0
10
2.995538
20
3.943718
10
3.228392
20
4.502631
10
3.774405
20
4.739726
10
4.290963
20
4.511126
10
4.502629
20
3.943718
10
4.282488
20
3.372275
10
3.740505
20
3.139413
10
3.21568
20
3.376508
10
2.995538
20
3.943718
0
LWPOLYLINE
5
109
100
AcDbEntity
8
s_
6
ByLayer
62
7
370
-1
100
AcDbPolyline
90
9
70
0
43
0
10
0.828022
20
1.623865
10
1.065113
20
2.186926
10
1.615364
20
2.428142
10
2.131921
20
2.20386
10
2.343588
20
1.640798
10
2.119209
20
1.060888
10
1.589939
20
0.828026
10
1.056638
20
1.065121
10
0.828022
20
1.623865
0
LWPOLYLINE
5
10A
100
AcDbEntity
8
s_
6
ByLayer
62
7
370
-1
100
AcDbPolyline
90
9
70
0
43
0
10
0.828022
20
3.943703
10
1.065113
20
4.502644
10
1.615364
20
4.739739
10
2.131921
20
4.511111
10
2.343588
20
3.943703
10
2.119209
20
3.372288
10
1.589939
20
3.139426
10
1.056638
20
3.376521
10
0.828022
20
3.943703
0
LWPOLYLINE
5
10B
100
AcDbEntity
8
s_
6
ByLayer
62
7
370
-1
100
AcDbPolyline
90
9
70
0
43
0
10
2.995538
20
6.246608
10
3.228392
20
6.805549
10
3.774405
20
7.042644
10
4.290963
20
6.818278
10
4.502629
20
6.255103
10
4.282488
20
5.679426
10
3.740505
20
5.450798
10
3.21568
20
5.687893
10
2.995538
20
6.246608
0
LWPOLYLINE
5
10C
100
AcDbEntity
8
S
6
ByLayer
62
7
370
-1
100
AcDbPolyline
90
9
70
0
43
0
10
0.828022
20
1.623865
10
1.065113
20
2.186926
10
1.615364
20
2.428142
10
2.131921
20
2.20386
10
2.343588
20
1.640798
10
2.119209
20
1.060888
10
1.589939
20
0.828026
10
1.056638
20
1.065121
10
0.828022
20
1.623865
0
LWPOLYLINE
5
10D
100
AcDbEntity
8
S
6
ByLayer
62
7
370
-1
100
AcDbPolyline
90
9
70
0
43
0
10
0.828022
20
3.943703
10
1.065113
20
4.502644
10
1.615364
20
4.739739
10
2.131921
20
4.511111
10
2.343588
20
3.943703
10
2.119209
20
3.372288
10
1.589939
20
3.139426
10
1.056638
20
3.376521
10
0.828022
20
3.943703
0
LWPOLYLINE
5
10E
100
AcDbEntity
8
S
6
ByLayer
62
7
370
-1
100
AcDbPolyline
90
9
70
0
43
0
10
2.995538
20
6.246608
10
3.228392
20
6.805549
10
3.774405
20
7.042644
10
4.290963
20
6.818278
10
4.502629
20
6.255103
10
4.282488
20
5.679426
10
3.740505
20
5.450798
10
3.21568
20
5.687893
10
2.995538
20
6.246608
0
LWPOLYLINE
5
10F
100
AcDbEntity
8
t_
6
ByLayer
62
7
370
-1
100
AcDbPolyline
90
9
70
0
43
0
10
0.828021
20
1.623859
10
1.065113
20
2.186921
10
1.615364
20
2.428136
10
2.131921
20
2.203854
10
2.343588
20
1.640793
10
2.119209
20
1.060883
10
1.589939
20
0.828021
10
1.056638
20
1.065116
10
0.828021
20
1.623859
0
LWPOLYLINE
5
110
100
AcDbEntity
8
t_
6
ByLayer
62
7
370
-1
100
AcDbPolyline
90
9
70
0
43
0
10
0.828021
20
3.943698
10
1.065113
20
4.502639
10
1.615364
20
4.739734
10
2.131921
20
4.511106
10
2.343588
20
3.943698
10
2.119209
20
3.372254
10
1.589939
20
3.139421
10
1.056638
20
3.376516
10
0.828021
20
3.943698
0
LWPOLYLINE
5
111
100
AcDbEntity
8
t_
6
ByLayer
62
7
370
-1
100
AcDbPolyline
90
9
70
0
43
0
10
2.995538
20
3.943698
10
3.228392
20
4.502639
10
3.774405
20
4.739734
10
4.290963
20
4.511106
10
4.502629
20
3.943698
10
4.282487
20
3.372254
10
3.740505
20
3.139421
10
3.215679
20
3.376516
10
2.995538
20
3.943698
0
LWPOLYLINE
5
112
100
AcDbEntity
8
t_
6
ByLayer
62
7
370
-1
100
AcDbPolyline
90
9
70
0
43
0
10
2.995538
20
6.246603
10
3.228392
20
6.805544
10
3.774405
20
7.042639
10
4.290963
20
6.818272
10
4.502629
20
6.255098
10
4.282487
20
5.679421
10
3.740505
20
5.450793
10
3.215679
20
5.687888
10
2.995538
20
6.246603
0
LWPOLYLINE
5
113
100
AcDbEntity
8
T
6
ByLayer
62
7
370
-1
100
AcDbPolyline
90
9
70
0
43
0
10
0.828021
20
1.623859
10
1.065113
20
2.186921
10
1.615364
20
2.428136
10
2.131921
20
2.203854
10
2.343588
20
1.640793
10
2.119209
20
1.060883
10
1.589939
20
0.828021
10
1.056638
20
1.065116
10
0.828021
20
1.623859
0
LWPOLYLINE
5
114
100
AcDbEntity
8
T
6
ByLayer
62
7
370
-1
100
AcDbPolyline
90
9
70
0
43
0
10
0.828021
20
3.943698
10
1.065113
20
4.502639
10
1.615364
20
4.739734
10
2.131921
20
4.511106
10
2.343588
20
3.943698
10
2.119209
20
3.372254
10
1.589939
20
3.139421
10
1.056638
20
3.376516
10
0.828021
20
3.943698
0
LWPOLYLINE
5
115
100
AcDbEntity
8
T
6
ByLayer
62
7
370
-1
100
AcDbPolyline
90
9
70
0
43
0
10
2.995538
20
3.943698
10
3.228392
20
4.502639
10
3.774405
20
4.739734
10
4.290963
20
4.511106
10
4.502629
20
3.943698
10
4.282487
20
3.372254
10
3.740505
20
3.139421
10
3.215679
20
3.376516
10
2.995538
20
3.943698
0
LWPOLYLINE
5
116
100
AcDbEntity
8
T
6
ByLayer
62
7
370
-1
100
AcDbPolyline
90
9
70
0
43
0
10
2.995538
20
6.246603
10
3.228392
20
6.805544
10
3.774405
20
7.042639
10
4.290963
20
6.818272
10
4.502629
20
6.255098
10
4.282487
20
5.679421
10
3.740505
20
5.450793
10
3.215679
20
5.687888
10
2.995538
20
6.246603
0
LWPOLYLINE
5
117
100
AcDbEntity
8
u_
6
ByLayer
62
7
370
-1
100
AcDbPolyline
90
9
70
0
43
0
10
2.995538
20
1.623854
10
3.228392
20
2.186916
10
3.774405
20
2.428131
10
4.290963
20
2.203849
10
4.502629
20
1.640788
10
4.282488
20
1.060877
10
3.740505
20
0.828016
10
3.21568
20
1.065111
10
2.995538
20
1.623854
0
LWPOLYLINE
5
118
100
AcDbEntity
8
u_
6
ByLayer
62
7
370
-1
100
AcDbPolyline
90
9
70
0
43
0
10
0.828022
20
6.246598
10
1.065113
20
6.805539
10
1.615364
20
7.042634
10
2.131921
20
6.818239
10
2.343588
20
6.255093
10
2.119209
20
5.679416
10
1.589939
20
5.450788
10
1.056638
20
5.687882
10
0.828022
20
6.246598
0
LWPOLYLINE
5
119
100
AcDbEntity
8
u_
6
ByLayer
62
7
370
-1
100
AcDbPolyline
90
9
70
0
43
0
10
0.828022
20
1.623854
10
1.065113
20
2.186916
10
1.615364
20
2.428131
10
2.131921
20
2.203849
10
2.343588
20
1.640788
10
2.119209
20
1.060877
10
1.589939
20
0.828016
10
1.056638
20
1.065111
10
0.828022
20
1.623854
0
LWPOLYLINE
5
11A
100
AcDbEntity
8
U
6
ByLayer
62
7
370
-1
100
AcDbPolyline
90
9
70
0
43
0
10
2.995538
20
1.623854
10
3.228392
20
2.186916
10
3.774405
20
2.428131
10
4.290963
20
2.203849
10
4.502629
20
1.640788
10
4.282488
20
1.060877
10
3.740505
20
0.828016
10
3.21568
20
1.065111
10
2.995538
20
1.623854
0
LWPOLYLINE
5
11B
100
AcDbEntity
8
U
6
ByLayer
62
7
370
-1
100
AcDbPolyline
90
9
70
0
43
0
10
0.828022
20
6.246598
10
1.065113
20
6.805539
10
1.615364
20
7.042634
10
2.131921
20
6.818239
10
2.343588
20
6.255093
10
2.119209
20
5.679416
10
1.589939
20
5.450788
10
1.056638
20
5.687882
10
0.828022
20
6.246598
0
LWPOLYLINE
5
11C
100
AcDbEntity
8
U
6
ByLayer
62
7
370
-1
100
AcDbPolyline
90
9
70
0
43
0
10
0.828022
20
1.623854
10
1.065113
20
2.186916
10
1.615364
20
2.428131
10
2.131921
20
2.203849
10
2.343588
20
1.640788
10
2.119209
20
1.060877
10
1.589939
20
0.828016
10
1.056638
20
1.065111
10
0.828022
20
1.623854
0
LWPOLYLINE
5
11D
100
AcDbEntity
8
v_
6
ByLayer
62
7
370
-1
100
AcDbPolyline
90
9
70
0
43
0
10
2.995538
20
1.623835
10
3.228392
20
2.186897
10
3.774405
20
2.428112
10
4.290963
20
2.20383
10
4.502629
20
1.640769
10
4.282487
20
1.060858
10
3.740505
20
0.827997
10
3.215679
20
1.065092
10
2.995538
20
1.623835
0
LWPOLYLINE
5
11E
100
AcDbEntity
8
v_
6
ByLayer
62
7
370
-1
100
AcDbPolyline
90
9
70
0
43
0
10
0.828021
20
6.246607
10
1.065113
20
6.80552
10
1.615364
20
7.042615
10
2.131921
20
6.818248
10
2.343588
20
6.255074
10
2.119209
20
5.679397
10
1.589939
20
5.450769
10
1.056638
20
5.687864
10
0.828021
20
6.246607
0
LWPOLYLINE
5
11F
100
AcDbEntity
8
v_
6
ByLayer
62
7
370
-1
100
AcDbPolyline
90
9
70
0
43
0
10
0.828021
20
1.623835
10
1.065113
20
2.186897
10
1.615364
20
2.428112
10
2.131921
20
2.20383
10
2.343588
20
1.640769
10
2.119209
20
1.060858
10
1.589939
20
0.827997
10
1.056638
20
1.065092
10
0.828021
20
1.623835
0
LWPOLYLINE
5
120
100
AcDbEntity
8
v_
6
ByLayer
62
7
370
-1
100
AcDbPolyline
90
9
70
0
43
0
10
0.828021
20
3.943674
10
1.065113
20
4.502615
10
1.615364
20
4.73971
10
2.131921
20
4.511082
10
2.343588
20
3.943674
10
2.119209
20
3.372258
10
1.589939
20
3.139397
10
1.056638
20
3.376492
10
0.828021
20
3.943674
0
LWPOLYLINE
5
121
100
AcDbEntity
8
V
6
ByLayer
62
7
370
-1
100
AcDbPolyline
90
9
70
0
43
0
10
2.995538
20
1.623835
10
3.228392
20
2.186897
10
3.774405
20
2.428112
10
4.290963
20
2.20383
10
4.502629
20
1.640769
10
4.282487
20
1.060858
10
3.740505
20
0.827997
10
3.215679
20
1.065092
10
2.995538
20
1.623835
0
LWPOLYLINE
5
122
100
AcDbEntity
8
V
6
ByLayer
62
7
370
-1
100
AcDbPolyline
90
9
70
0
43
0
10
0.828021
20
6.246607
10
1.065113
20
6.80552
10
1.615364
20
7.042615
10
2.131921
20
6.818248
10
2.343588
20
6.255074
10
2.119209
20
5.679397
10
1.589939
20
5.450769
10
1.056638
20
5.687864
10
0.828021
20
6.246607
0
LWPOLYLINE
5
123
100
AcDbEntity
8
V
6
ByLayer
62
7
370
-1
100
AcDbPolyline
90
9
70
0
43
0
10
0.828021
20
1.623835
10
1.065113
20
2.186897
10
1.615364
20
2.428112
10
2.131921
20
2.20383
10
2.343588
20
1.640769
10
2.119209
20
1.060858
10
1.589939
20
0.827997
10
1.056638
20
1.065092
10
0.828021
20
1.623835
0
LWPOLYLINE
5
124
100
AcDbEntity
8
V
6
ByLayer
62
7
370
-1
100
AcDbPolyline
90
9
70
0
43
0
10
0.828021
20
3.943674
10
1.065113
20
4.502615
10
1.615364
20
4.73971
10
2.131921
20
4.511082
10
2.343588
20
3.943674
10
2.119209
20
3.372258
10
1.589939
20
3.139397
10
1.056638
20
3.376492
10
0.828021
20
3.943674
0
LWPOLYLINE
5
125
100
AcDbEntity
8
w_
6
ByLayer
62
7
370
-1
100
AcDbPolyline
90
9
70
0
43
0
10
3.039118
20
1.623849
10
3.271972
20
2.186911
10
3.817985
20
2.428126
10
4.334543
20
2.203844
10
4.546209
20
1.640783
10
4.326068
20
1.060872
10
3.784085
20
0.828011
10
3.259259
20
1.065106
10
3.039118
20
1.623849
0
LWPOLYLINE
5
126
100
AcDbEntity
8
w_
6
ByLayer
62
7
370
-1
100
AcDbPolyline
90
9
70
0
43
0
10
0.871602
20
3.943688
10
1.108693
20
4.502629
10
1.658944
20
4.739724
10
2.175501
20
4.511096
10
2.387168
20
3.943688
10
2.162789
20
3.372272
10
1.633519
20
3.139411
10
1.100218
20
3.376506
10
0.871602
20
3.943688
0
LWPOLYLINE
5
127
100
AcDbEntity
8
w_
6
ByLayer
62
7
370
-1
100
AcDbPolyline
90
9
70
0
43
0
10
3.039118
20
3.943688
10
3.271972
20
4.502629
10
3.817985
20
4.739724
10
4.334543
20
4.511096
10
4.546209
20
3.943688
10
4.326068
20
3.372272
10
3.784085
20
3.139411
10
3.259259
20
3.376506
10
3.039118
20
3.943688
0
LWPOLYLINE
5
128
100
AcDbEntity
8
w_
6
ByLayer
62
7
370
-1
100
AcDbPolyline
90
9
70
0
43
0
10
3.039118
20
6.246621
10
3.271972
20
6.805534
10
3.817985
20
7.042629
10
4.334543
20
6.818262
10
4.546209
20
6.255088
10
4.326068
20
5.679411
10
3.784085
20
5.450783
10
3.259259
20
5.687878
10
3.039118
20
6.246621
0
LWPOLYLINE
5
129
100
AcDbEntity
8
W
6
ByLayer
62
7
370
-1
100
AcDbPolyline
90
9
70
0
43
0
10
3.039118
20
1.623849
10
3.271972
20
2.186911
10
3.817985
20
2.428126
10
4.334543
20
2.203844
10
4.546209
20
1.640783
10
4.326068
20
1.060872
10
3.784085
20
0.828011
10
3.259259
20
1.065106
10
3.039118
20
1.623849
0
LWPOLYLINE
5
12A
100
AcDbEntity
8
W
6
ByLayer
62
7
370
-1
100
AcDbPolyline
90
9
70
0
43
0
10
0.871602
20
3.943688
10
1.108693
20
4.502629
10
1.658944
20
4.739724
10
2.175501
20
4.511096
10
2.387168
20
3.943688
10
2.162789
20
3.372272
10
1.633519
20
3.139411
10
1.100218
20
3.376506
10
0.871602
20
3.943688
0
LWPOLYLINE
5
12B
100
AcDbEntity
8
W
6
ByLayer
62
7
370
-1
100
AcDbPolyline
90
9
70
0
43
0
10
3.039118
20
3.943688
10
3.271972
20
4.502629
10
3.817985
20
4.739724
10
4.334543
20
4.511096
10
4.546209
20
3.943688
10
4.326068
20
3.372272
10
3.784085
20
3.139411
10
3.259259
20
3.376506
10
3.039118
20
3.943688
0
LWPOLYLINE
5
12C
100
AcDbEntity
8
W
6
ByLayer
62
7
370
-1
100
AcDbPolyline
90
9
70
0
43
0
10
3.039118
20
6.246621
10
3.271972
20
6.805534
10
3.817985
20
7.042629
10
4.334543
20
6.818262
10
4.546209
20
6.255088
10
4.326068
20
5.679411
10
3.784085
20
5.450783
10
3.259259
20
5.687878
10
3.039118
20
6.246621
0
LWPOLYLINE
5
12D
100
AcDbEntity
8
x_
6
ByLayer
62
7
370
-1
100
AcDbPolyline
90
9
70
0
43
0
10
2.995538
20
1.667425
10
3.228392
20
2.230486
10
3.774405
20
2.47173
10
4.290963
20
2.247448
10
4.502629
20
1.684386
10
4.282488
20
1.104476
10
3.740505
20
0.871614
10
3.215679
20
1.108709
10
2.995538
20
1.667425
0
LWPOLYLINE
5
12E
100
AcDbEntity
8
x_
6
ByLayer
62
7
370
-1
100
AcDbPolyline
90
9
70
0
43
0
10
0.828021
20
6.290196
10
1.065113
20
6.849138
10
1.615364
20
7.086232
10
2.131921
20
6.861838
10
2.343588
20
6.298663
10
2.119209
20
5.722986
10
1.589939
20
5.494386
10
1.056638
20
5.731481
10
0.828021
20
6.290196
0
LWPOLYLINE
5
12F
100
AcDbEntity
8
x_
6
ByLayer
62
7
370
-1
100
AcDbPolyline
90
9
70
0
43
0
10
0.828021
20
1.667425
10
1.065113
20
2.230486
10
1.615364
20
2.47173
10
2.131921
20
2.247448
10
2.343588
20
1.684386
10
2.119209
20
1.104476
10
1.589939
20
0.871614
10
1.056638
20
1.108709
10
0.828021
20
1.667425
0
LWPOLYLINE
5
130
100
AcDbEntity
8
x_
6
ByLayer
62
7
370
-1
100
AcDbPolyline
90
9
70
0
43
0
10
2.995538
20
6.290196
10
3.228392
20
6.849138
10
3.774405
20
7.086232
10
4.290963
20
6.861838
10
4.502629
20
6.298663
10
4.282488
20
5.722986
10
3.740505
20
5.494386
10
3.215679
20
5.731481
10
2.995538
20
6.290196
0
LWPOLYLINE
5
131
100
AcDbEntity
8
X
6
ByLayer
62
7
370
-1
100
AcDbPolyline
90
9
70
0
43
0
10
2.995538
20
1.667425
10
3.228392
20
2.230486
10
3.774405
20
2.47173
10
4.290963
20
2.247448
10
4.502629
20
1.684386
10
4.282488
20
1.104476
10
3.740505
20
0.871614
10
3.215679
20
1.108709
10
2.995538
20
1.667425
0
LWPOLYLINE
5
132
100
AcDbEntity
8
X
6
ByLayer
62
7
370
-1
100
AcDbPolyline
90
9
70
0
43
0
10
0.828021
20
6.290196
10
1.065113
20
6.849138
10
1.615364
20
7.086232
10
2.131921
20
6.861838
10
2.343588
20
6.298663
10
2.119209
20
5.722986
10
1.589939
20
5.494386
10
1.056638
20
5.731481
10
0.828021
20
6.290196
0
LWPOLYLINE
5
133
100
AcDbEntity
8
X
6
ByLayer
62
7
370
-1
100
AcDbPolyline
90
9
70
0
43
0
10
0.828021
20
1.667425
10
1.065113
20
2.230486
10
1.615364
20
2.47173
10
2.131921
20
2.247448
10
2.343588
20
1.684386
10
2.119209
20
1.104476
10
1.589939
20
0.871614
10
1.056638
20
1.108709
10
0.828021
20
1.667425
0
LWPOLYLINE
5
134
100
AcDbEntity
8
X
6
ByLayer
62
7
370
-1
100
AcDbPolyline
90
9
70
0
43
0
10
2.995538
20
6.290196
10
3.228392
20
6.849138
10
3.774405
20
7.086232
10
4.290963
20
6.861838
10
4.502629
20
6.298663
10
4.282488
20
5.722986
10
3.740505
20
5.494386
10
3.215679
20
5.731481
10
2.995538
20
6.290196
0
LWPOLYLINE
5
135
100
AcDbEntity
8
y_
6
ByLayer
62
7
370
-1
100
AcDbPolyline
90
9
70
0
43
0
10
2.995538
20
1.623834
10
3.228392
20
2.186896
10
3.774405
20
2.428139
10
4.290963
20
2.203857
10
4.502629
20
1.640796
10
4.282488
20
1.060886
10
3.740505
20
0.828024
10
3.21568
20
1.065119
10
2.995538
20
1.623834
0
LWPOLYLINE
5
136
100
AcDbEntity
8
y_
6
ByLayer
62
7
370
-1
100
AcDbPolyline
90
9
70
0
43
0
10
0.828022
20
6.246606
10
1.065113
20
6.805547
10
1.615364
20
7.042642
10
2.131921
20
6.818247
10
2.343588
20
6.255073
10
2.119209
20
5.679396
10
1.589939
20
5.450796
10
1.056638
20
5.687891
10
0.828022
20
6.246606
0
LWPOLYLINE
5
137
100
AcDbEntity
8
y_
6
ByLayer
62
7
370
-1
100
AcDbPolyline
90
9
70
0
43
0
10
0.828022
20
1.623834
10
1.065113
20
2.186896
10
1.615364
20
2.428139
10
2.131921
20
2.203857
10
2.343588
20
1.640796
10
2.119209
20
1.060886
10
1.589939
20
0.828024
10
1.056638
20
1.065119
10
0.828022
20
1.623834
0
LWPOLYLINE
5
138
100
AcDbEntity
8
y_
6
ByLayer
62
7
370
-1
100
AcDbPolyline
90
9
70
0
43
0
10
2.995538
20
3.943701
10
3.228392
20
4.502642
10
3.774405
20
4.739737
10
4.290963
20
4.511109
10
4.502629
20
3.943701
10
4.282488
20
3.372257
10
3.740505
20
3.139396
10
3.21568
20
3.376491
10
2.995538
20
3.943701
0
LWPOLYLINE
5
139
100
AcDbEntity
8
y_
6
ByLayer
62
7
370
-1
100
AcDbPolyline
90
9
70
0
43
0
10
2.995538
20
6.246606
10
3.228392
20
6.805547
10
3.774405
20
7.042642
10
4.290963
20
6.818247
10
4.502629
20
6.255073
10
4.282488
20
5.679396
10
3.740505
20
5.450796
10
3.21568
20
5.687891
10
2.995538
20
6.246606
0
LWPOLYLINE
5
13A
100
AcDbEntity
8
Y
6
ByLayer
62
7
370
-1
100
AcDbPolyline
90
9
70
0
43
0
10
2.995538
20
1.623834
10
3.228392
20
2.186896
10
3.774405
20
2.428139
10
4.290963
20
2.203857
10
4.502629
20
1.640796
10
4.282488
20
1.060886
10
3.740505
20
0.828024
10
3.21568
20
1.065119
10
2.995538
20
1.623834
0
LWPOLYLINE
5
13B
100
AcDbEntity
8
Y
6
ByLayer
62
7
370
-1
100
AcDbPolyline
90
9
70
0
43
0
10
0.828022
20
6.246606
10
1.065113
20
6.805547
10
1.615364
20
7.042642
10
2.131921
20
6.818247
10
2.343588
20
6.255073
10
2.119209
20
5.679396
10
1.589939
20
5.450796
10
1.056638
20
5.687891
10
0.828022
20
6.246606
0
LWPOLYLINE
5
13C
100
AcDbEntity
8
Y
6
ByLayer
62
7
370
-1
100
AcDbPolyline
90
9
70
0
43
0
10
0.828022
20
1.623834
10
1.065113
20
2.186896
10
1.615364
20
2.428139
10
2.131921
20
2.203857
10
2.343588
20
1.640796
10
2.119209
20
1.060886
10
1.589939
20
0.828024
10
1.056638
20
1.065119
10
0.828022
20
1.623834
0
LWPOLYLINE
5
13D
100
AcDbEntity
8
Y
6
ByLayer
62
7
370
-1
100
AcDbPolyline
90
9
70
0
43
0
10
2.995538
20
3.943701
10
3.228392
20
4.502642
10
3.774405
20
4.739737
10
4.290963
20
4.511109
10
4.502629
20
3.943701
10
4.282488
20
3.372257
10
3.740505
20
3.139396
10
3.21568
20
3.376491
10
2.995538
20
3.943701
0
LWPOLYLINE
5
13E
100
AcDbEntity
8
Y
6
ByLayer
62
7
370
-1
100
AcDbPolyline
90
9
70
0
43
0
10
2.995538
20
6.246606
10
3.228392
20
6.805547
10
3.774405
20
7.042642
10
4.290963
20
6.818247
10
4.502629
20
6.255073
10
4.282488
20
5.679396
10
3.740505
20
5.450796
10
3.21568
20
5.687891
10
2.995538
20
6.246606
0
LWPOLYLINE
5
13F
100
AcDbEntity
8
z_
6
ByLayer
62
7
370
-1
100
AcDbPolyline
90
9
70
0
43
0
10
2.995538
20
1.623877
10
3.228392
20
2.186939
10
3.774405
20
2.428154
10
4.290963
20
2.203872
10
4.502629
20
1.640811
10
4.282488
20
1.0609
10
3.740505
20
0.828039
10
3.21568
20
1.065134
10
2.995538
20
1.623877
0
LWPOLYLINE
5
140
100
AcDbEntity
8
z_
6
ByLayer
62
7
370
-1
100
AcDbPolyline
90
9
70
0
43
0
10
0.828022
20
6.246649
10
1.065113
20
6.805562
10
1.615364
20
7.042657
10
2.131921
20
6.81829
10
2.343588
20
6.255116
10
2.119209
20
5.679439
10
1.589939
20
5.450811
10
1.056638
20
5.687905
10
0.828022
20
6.246649
0
LWPOLYLINE
5
141
100
AcDbEntity
8
z_
6
ByLayer
62
7
370
-1
100
AcDbPolyline
90
9
70
0
43
0
10
0.828022
20
1.623877
10
1.065113
20
2.186939
10
1.615364
20
2.428154
10
2.131921
20
2.203872
10
2.343588
20
1.640811
10
2.119209
20
1.0609
10
1.589939
20
0.828039
10
1.056638
20
1.065134
10
0.828022
20
1.623877
0
LWPOLYLINE
5
142
100
AcDbEntity
8
z_
6
ByLayer
62
7
370
-1
100
AcDbPolyline
90
9
70
0
43
0
10
2.995538
20
3.943716
10
3.228392
20
4.502657
10
3.774405
20
4.739752
10
4.290963
20
4.511123
10
4.502629
20
3.943716
10
4.282488
20
3.3723
10
3.740505
20
3.139439
10
3.21568
20
3.376534
10
2.995538
20
3.943716
0
LWPOLYLINE
5
143
100
AcDbEntity
8
Z
6
ByLayer
62
7
370
-1
100
AcDbPolyline
90
9
70
0
43
0
10
2.995538
20
1.623877
10
3.228392
20
2.186939
10
3.774405
20
2.428154
10
4.290963
20
2.203872
10
4.502629
20
1.640811
10
4.282488
20
1.0609
10
3.740505
20
0.828039
10
3.21568
20
1.065134
10
2.995538
20
1.623877
0
LWPOLYLINE
5
144
100
AcDbEntity
8
Z
6
ByLayer
62
7
370
-1
100
AcDbPolyline
90
9
70
0
43
0
10
0.828022
20
6.246649
10
1.065113
20
6.805562
10
1.615364
20
7.042657
10
2.131921
20
6.81829
10
2.343588
20
6.255116
10
2.119209
20
5.679439
10
1.589939
20
5.450811
10
1.056638
20
5.687905
10
0.828022
20
6.246649
0
LWPOLYLINE
5
145
100
AcDbEntity
8
Z
6
ByLayer
62
7
370
-1
100
AcDbPolyline
90
9
70
0
43
0
10
0.828022
20
1.623877
10
1.065113
20
2.186939
10
1.615364
20
2.428154
10
2.131921
20
2.203872
10
2.343588
20
1.640811
10
2.119209
20
1.0609
10
1.589939
20
0.828039
10
1.056638
20
1.065134
10
0.828022
20
1.623877
0
LWPOLYLINE
5
146
100
AcDbEntity
8
Z
6
ByLayer
62
7
370
-1
100
AcDbPolyline
90
9
70
0
43
0
10
2.995538
20
3.943716
10
3.228392
20
4.502657
10
3.774405
20
4.739752
10
4.290963
20
4.511123
10
4.502629
20
3.943716
10
4.282488
20
3.3723
10
3.740505
20
3.139439
10
3.21568
20
3.376534
10
2.995538
20
3.943716
0
LWPOLYLINE
5
147
100
AcDbEntity
8
1
6
ByLayer
62
7
370
-1
100
AcDbPolyline
90
9
70
0
43
0
10
0.832026
20
6.276457
10
1.068748
20
6.83487
10
1.618142
20
7.071759
10
2.133896
20
6.847575
10
2.345233
20
6.284927
10
2.121203
20
5.7098
10
1.592757
20
5.481382
10
1.060286
20
5.718241
10
0.832026
20
6.276457
0
LWPOLYLINE
5
148
100
AcDbEntity
8
2
6
ByLayer
62
7
370
-1
100
AcDbPolyline
90
9
70
0
43
0
10
0.862841
20
6.276457
10
1.099563
20
6.83487
10
1.648958
20
7.071759
10
2.164711
20
6.847575
10
2.376049
20
6.284927
10
2.152019
20
5.7098
10
1.623572
20
5.481382
10
1.091102
20
5.718241
10
0.862841
20
6.276457
0
LWPOLYLINE
5
149
100
AcDbEntity
8
2
6
ByLayer
62
7
370
-1
100
AcDbPolyline
90
9
70
0
43
0
10
0.862841
20
3.97567
10
1.099563
20
4.534083
10
1.648958
20
4.770971
10
2.164711
20
4.542553
10
2.376049
20
3.97567
10
2.152019
20
3.40475
10
1.623572
20
3.172125
10
1.091102
20
3.408985
10
0.862841
20
3.97567
0
LWPOLYLINE
5
14A
100
AcDbEntity
8
3
6
ByLayer
62
7
370
-1
100
AcDbPolyline
90
9
70
0
43
0
10
0.832026
20
6.245635
10
1.068749
20
6.80404
10
1.618143
20
7.040921
10
2.133897
20
6.816745
10
2.345234
20
6.254094
10
2.121204
20
5.678957
10
1.592758
20
5.45055
10
1.060287
20
5.687416
10
0.832026
20
6.245635
0
LWPOLYLINE
5
14B
100
AcDbEntity
8
3
6
ByLayer
62
7
370
-1
100
AcDbPolyline
90
9
70
0
43
0
10
2.996169
20
6.245635
10
3.228661
20
6.80404
10
3.773824
20
7.040921
10
4.289578
20
6.816745
10
4.500915
20
6.254094
10
4.281116
20
5.678957
10
3.739977
20
5.45055
10
3.215968
20
5.687416
10
2.996169
20
6.245635
0
LWPOLYLINE
5
14C
100
AcDbEntity
8
4
6
ByLayer
62
7
370
-1
100
AcDbPolyline
90
9
70
0
43
0
10
0.862842
20
6.276514
10
1.099564
20
6.834927
10
1.648959
20
7.071787
10
2.164712
20
6.847631
10
2.376049
20
6.284955
10
2.15202
20
5.709829
10
1.623573
20
5.48141
10
1.091103
20
5.718298
10
0.862842
20
6.276514
0
LWPOLYLINE
5
14D
100
AcDbEntity
8
4
6
ByLayer
62
7
370
-1
100
AcDbPolyline
90
9
70
0
43
0
10
3.026985
20
3.975698
10
3.259476
20
4.53414
10
3.80464
20
4.771
10
4.320393
20
4.542609
10
4.531731
20
3.975698
10
4.311932
20
3.404807
10
3.770793
20
3.172153
10
3.246784
20
3.409041
10
3.026985
20
3.975698
0
LWPOLYLINE
5
14E
100
AcDbEntity
8
4
6
ByLayer
62
7
370
-1
100
AcDbPolyline
90
9
70
0
43
0
10
3.026985
20
6.276514
10
3.259476
20
6.834927
10
3.80464
20
7.071787
10
4.320393
20
6.847631
10
4.531731
20
6.284955
10
4.311932
20
5.709829
10
3.770793
20
5.48141
10
3.246784
20
5.718298
10
3.026985
20
6.276514
0
LWPOLYLINE
5
14F
100
AcDbEntity
8
5
6
ByLayer
62
7
370
-1
100
AcDbPolyline
90
9
70
0
43
0
10
0.832026
20
6.245657
10
1.068749
20
6.80407
10
1.618143
20
7.040958
10
2.133896
20
6.816774
10
2.345234
20
6.254126
10
2.121204
20
5.678972
10
1.592758
20
5.450581
10
1.060287
20
5.687441
10
0.832026
20
6.245657
0
LWPOLYLINE
5
150
100
AcDbEntity
8
5
6
ByLayer
62
7
370
-1
100
AcDbPolyline
90
9
70
0
43
0
10
2.996169
20
3.94487
10
3.22866
20
4.503283
10
3.773824
20
4.740171
10
4.289578
20
4.511752
10
4.500915
20
3.94487
10
4.281116
20
3.37395
10
3.739977
20
3.141325
10
3.215968
20
3.378185
10
2.996169
20
3.94487
0
LWPOLYLINE
5
151
100
AcDbEntity
8
6
6
ByLayer
62
7
370
-1
100
AcDbPolyline
90
9
70
0
43
0
10
0.832026
20
6.276429
10
1.068749
20
6.834842
10
1.618143
20
7.07173
10
2.133897
20
6.847546
10
2.345234
20
6.284898
10
2.121204
20
5.709744
10
1.592758
20
5.481353
10
1.060287
20
5.718213
10
0.832026
20
6.276429
0
LWPOLYLINE
5
152
100
AcDbEntity
8
6
6
ByLayer
62
7
370
-1
100
AcDbPolyline
90
9
70
0
43
0
10
0.832026
20
3.975642
10
1.068749
20
4.534055
10
1.618143
20
4.770943
10
2.133897
20
4.542524
10
2.345234
20
3.975642
10
2.121204
20
3.404722
10
1.592758
20
3.172097
10
1.060287
20
3.408957
10
0.832026
20
3.975642
0
LWPOLYLINE
5
153
100
AcDbEntity
8
6
6
ByLayer
62
7
370
-1
100
AcDbPolyline
90
9
70
0
43
0
10
2.996169
20
6.276429
10
3.228661
20
6.834842
10
3.773824
20
7.07173
10
4.289578
20
6.847546
10
4.500915
20
6.284898
10
4.281116
20
5.709744
10
3.739977
20
5.481353
10
3.215968
20
5.718213
10
2.996169
20
6.276429
0
LWPOLYLINE
5
154
100
AcDbEntity
8
7
6
ByLayer
62
7
370
-1
100
AcDbPolyline
90
9
70
0
43
0
10
0.862842
20
6.2456
10
1.099564
20
6.804014
10
1.648958
20
7.040874
10
2.164712
20
6.816718
10
2.376049
20
6.254042
10
2.15202
20
5.678915
10
1.623573
20
5.450497
10
1.091102
20
5.687385
10
0.862842
20
6.2456
0
LWPOLYLINE
5
155
100
AcDbEntity
8
7
6
ByLayer
62
7
370
-1
100
AcDbPolyline
90
9
70
0
43
0
10
0.862842
20
3.944785
10
1.099564
20
4.503227
10
1.648958
20
4.740086
10
2.164712
20
4.511696
10
2.376049
20
3.944785
10
2.15202
20
3.373893
10
1.623573
20
3.14124
10
1.091102
20
3.378128
10
0.862842
20
3.944785
0
LWPOLYLINE
5
156
100
AcDbEntity
8
7
6
ByLayer
62
7
370
-1
100
AcDbPolyline
90
9
70
0
43
0
10
3.026985
20
3.944785
10
3.259476
20
4.503227
10
3.80464
20
4.740086
10
4.320393
20
4.511696
10
4.531731
20
3.944785
10
4.311932
20
3.373893
10
3.770793
20
3.14124
10
3.246783
20
3.378128
10
3.026985
20
3.944785
0
LWPOLYLINE
5
157
100
AcDbEntity
8
7
6
ByLayer
62
7
370
-1
100
AcDbPolyline
90
9
70
0
43
0
10
3.026985
20
6.2456
10
3.259476
20
6.804014
10
3.80464
20
7.040874
10
4.320393
20
6.816718
10
4.531731
20
6.254042
10
4.311932
20
5.678915
10
3.770793
20
5.450497
10
3.246783
20
5.687385
10
3.026985
20
6.2456
0
LWPOLYLINE
5
158
100
AcDbEntity
8
8
6
ByLayer
62
7
370
-1
100
AcDbPolyline
90
9
70
0
43
0
10
0.828022
20
6.285209
10
1.064745
20
6.84365
10
1.614139
20
7.08051
10
2.129893
20
6.856326
10
2.34123
20
6.293678
10
2.1172
20
5.718552
10
1.588754
20
5.490133
10
1.056283
20
5.726993
10
0.828022
20
6.285209
0
LWPOLYLINE
5
159
100
AcDbEntity
8
8
6
ByLayer
62
7
370
-1
100
AcDbPolyline
90
9
70
0
43
0
10
0.828022
20
3.984422
10
1.064745
20
4.542835
10
1.614139
20
4.779723
10
2.129893
20
4.551304
10
2.34123
20
3.984422
10
2.1172
20
3.41353
10
1.588754
20
3.180877
10
1.056283
20
3.417736
10
0.828022
20
3.984422
0
LWPOLYLINE
5
15A
100
AcDbEntity
8
8
6
ByLayer
62
7
370
-1
100
AcDbPolyline
90
9
70
0
43
0
10
2.992165
20
3.984422
10
3.224657
20
4.542835
10
3.76982
20
4.779723
10
4.285574
20
4.551304
10
4.496911
20
3.984422
10
4.277112
20
3.41353
10
3.735973
20
3.180877
10
3.211964
20
3.417736
10
2.992165
20
3.984422
0
LWPOLYLINE
5
15B
100
AcDbEntity
8
9
6
ByLayer
62
7
370
-1
100
AcDbPolyline
90
9
70
0
43
0
10
0.828021
20
3.940833
10
1.064744
20
4.499246
10
1.614138
20
4.736134
10
2.129892
20
4.507715
10
2.341229
20
3.940833
10
2.117199
20
3.369913
10
1.588753
20
3.137288
10
1.056282
20
3.374147
10
0.828021
20
3.940833
0
LWPOLYLINE
5
15C
100
AcDbEntity
8
9
6
ByLayer
62
7
370
-1
100
AcDbPolyline
90
9
70
0
43
0
10
2.992164
20
6.24162
10
3.224656
20
6.800033
10
3.769819
20
7.036921
10
4.285573
20
6.812737
10
4.49691
20
6.250089
10
4.277111
20
5.674935
10
3.735972
20
5.446544
10
3.211963
20
5.683404
10
2.992164
20
6.24162
0
LWPOLYLINE
5
15D
100
AcDbEntity
8
0
6
ByLayer
62
7
370
-1
100
AcDbPolyline
90
9
70
0
43
0
10
0.871601
20
3.984393
10
1.108324
20
4.542807
10
1.657718
20
4.779695
10
2.173472
20
4.551276
10
2.384809
20
3.984393
10
2.160779
20
3.413474
10
1.632333
20
3.180848
10
1.099862
20
3.417708
10
0.871601
20
3.984393
0
LWPOLYLINE
5
15E
100
AcDbEntity
8
0
6
ByLayer
62
7
370
-1
100
AcDbPolyline
90
9
70
0
43
0
10
3.035744
20
3.984393
10
3.268236
20
4.542807
10
3.8134
20
4.779695
10
4.329153
20
4.551276
10
4.54049
20
3.984393
10
4.320691
20
3.413474
10
3.779552
20
3.180848
10
3.255543
20
3.417708
10
3.035744
20
3.984393
0
LWPOLYLINE
5
15F
100
AcDbEntity
8
0
6
ByLayer
62
7
370
-1
100
AcDbPolyline
90
9
70
0
43
0
10
3.035744
20
6.285181
10
3.268236
20
6.843594
10
3.8134
20
7.080482
10
4.329153
20
6.856298
10
4.54049
20
6.29365
10
4.320691
20
5.718495
10
3.779552
20
5.490105
10
3.255543
20
5.726965
10
3.035744
20
6.285181
0
LWPOLYLINE
5
160
100
AcDbEntity
8
,
6
ByLayer
62
7
370
-1
100
AcDbPolyline
90
9
70
0
43
0
10
0.828021
20
3.943694
10
1.065113
20
4.502607
10
1.615364
20
4.739701
10
2.131921
20
4.511101
10
2.343588
20
3.943694
10
2.119209
20
3.37225
10
1.589939
20
3.139389
10
1.056638
20
3.376483
10
0.828021
20
3.943694
0
LWPOLYLINE
5
161
100
AcDbEntity
8
.
6
ByLayer
62
7
370
-1
100
AcDbPolyline
90
9
70
0
43
0
10
2.995538
20
1.623852
10
3.228392
20
2.186913
10
3.774405
20
2.428157
10
4.290963
20
2.203875
10
4.502629
20
1.640813
10
4.282488
20
1.060903
10
3.740505
20
0.828041
10
3.21568
20
1.065136
10
2.995538
20
1.623852
0
LWPOLYLINE
5
162
100
AcDbEntity
8
.
6
ByLayer
62
7
370
-1
100
AcDbPolyline
90
9
70
0
43
0
10
0.828022
20
3.943718
10
1.065113
20
4.502631
10
1.615364
20
4.739726
10
2.131921
20
4.511126
10
2.343588
20
3.943718
10
2.119209
20
3.372275
10
1.589939
20
3.139413
10
1.056638
20
3.376508
10
0.828022
20
3.943718
0
LWPOLYLINE
5
163
100
AcDbEntity
8
.
6
ByLayer
62
7
370
-1
100
AcDbPolyline
90
9
70
0
43
0
10
2.995538
20
3.943718
10
3.228392
20
4.502631
10
3.774405
20
4.739726
10
4.290963
20
4.511126
10
4.502629
20
3.943718
10
4.282488
20
3.372275
10
3.740505
20
3.139413
10
3.21568
20
3.376508
10
2.995538
20
3.943718
0
LWPOLYLINE
5
164
100
AcDbEntity
8
?
6
ByLayer
62
7
370
-1
100
AcDbPolyline
90
9
70
0
43
0
10
2.995537
20
1.667424
10
3.228391
20
2.230486
10
3.774405
20
2.471701
10
4.290962
20
2.247419
10
4.502629
20
1.684357
10
4.282487
20
1.104447
10
3.740505
20
0.871586
10
3.215679
20
1.108681
10
2.995537
20
1.667424
0
LWPOLYLINE
5
165
100
AcDbEntity
8
?
6
ByLayer
62
7
370
-1
100
AcDbPolyline
90
9
70
0
43
0
10
0.828021
20
3.987263
10
1.065113
20
4.546204
10
1.615363
20
4.783299
10
2.131921
20
4.55467
10
2.343587
20
3.987263
10
2.119208
20
3.415847
10
1.589938
20
3.182986
10
1.056638
20
3.420081
10
0.828021
20
3.987263
0
LWPOLYLINE
5
166
100
AcDbEntity
8
!
6
ByLayer
62
7
370
-1
100
AcDbPolyline
90
9
70
0
43
0
10
0.828021
20
1.623824
10
1.065113
20
2.186885
10
1.615363
20
2.428129
10
2.131921
20
2.203847
10
2.343587
20
1.640785
10
2.119208
20
1.060875
10
1.589938
20
0.828014
10
1.056638
20
1.065109
10
0.828021
20
1.623824
0
LWPOLYLINE
5
167
100
AcDbEntity
8
!
6
ByLayer
62
7
370
-1
100
AcDbPolyline
90
9
70
0
43
0
10
0.828021
20
3.943691
10
1.065113
20
4.502632
10
1.615363
20
4.739727
10
2.131921
20
4.511098
10
2.343587
20
3.943691
10
2.119208
20
3.372247
10
1.589938
20
3.139385
10
1.056638
20
3.37648
10
0.828021
20
3.943691
0
LWPOLYLINE
5
168
100
AcDbEntity
8
!
6
ByLayer
62
7
370
-1
100
AcDbPolyline
90
9
70
0
43
0
10
2.995537
20
3.943691
10
3.228391
20
4.502632
10
3.774405
20
4.739727
10
4.290962
20
4.511098
10
4.502629
20
3.943691
10
4.282487
20
3.372247
10
3.740505
20
3.139385
10
3.215679
20
3.37648
10
2.995537
20
3.943691
0
LWPOLYLINE
5
169
100
AcDbEntity
8
(
6
ByLayer
62
7
370
-1
100
AcDbPolyline
90
9
70
0
43
0
10
2.995537
20
1.623874
10
3.228391
20
2.186935
10
3.774404
20
2.428151
10
4.290962
20
2.203897
10
4.502629
20
1.640807
10
4.282487
20
1.060897
10
3.740505
20
0.828064
10
3.215679
20
1.06513
10
2.995537
20
1.623874
0
LWPOLYLINE
5
16A
100
AcDbEntity
8
(
6
ByLayer
62
7
370
-1
100
AcDbPolyline
90
9
70
0
43
0
10
0.828021
20
1.623874
10
1.065112
20
2.186935
10
1.615363
20
2.428151
10
2.131921
20
2.203897
10
2.343587
20
1.640807
10
2.119208
20
1.060897
10
1.589938
20
0.828064
10
1.056637
20
1.06513
10
0.828021
20
1.623874
0
LWPOLYLINE
5
16B
100
AcDbEntity
8
(
6
ByLayer
62
7
370
-1
100
AcDbPolyline
90
9
70
0
43
0
10
0.828021
20
3.943712
10
1.065112
20
4.502653
10
1.615363
20
4.739748
10
2.131921
20
4.51112
10
2.343587
20
3.943712
10
2.119208
20
3.372297
10
1.589938
20
3.139435
10
1.056637
20
3.37653
10
0.828021
20
3.943712
0
LWPOLYLINE
5
16C
100
AcDbEntity
8
(
6
ByLayer
62
7
370
-1
100
AcDbPolyline
90
9
70
0
43
0
10
2.995537
20
3.943712
10
3.228391
20
4.502653
10
3.774404
20
4.739748
10
4.290962
20
4.51112
10
4.502629
20
3.943712
10
4.282487
20
3.372297
10
3.740505
20
3.139435
10
3.215679
20
3.37653
10
2.995537
20
3.943712
0
LWPOLYLINE
5
16D
100
AcDbEntity
8
)
6
ByLayer
62
7
370
-1
100
AcDbPolyline
90
9
70
0
43
0
10
2.995537
20
1.623874
10
3.228391
20
2.186935
10
3.774404
20
2.428151
10
4.290962
20
2.203897
10
4.502629
20
1.640807
10
4.282487
20
1.060897
10
3.740505
20
0.828064
10
3.215679
20
1.06513
10
2.995537
20
1.623874
0
LWPOLYLINE
5
16E
100
AcDbEntity
8
)
6
ByLayer
62
7
370
-1
100
AcDbPolyline
90
9
70
0
43
0
10
0.828021
20
1.623874
10
1.065112
20
2.186935
10
1.615363
20
2.428151
10
2.131921
20
2.203897
10
2.343587
20
1.640807
10
2.119208
20
1.060897
10
1.589938
20
0.828064
10
1.056637
20
1.06513
10
0.828021
20
1.623874
0
LWPOLYLINE
5
16F
100
AcDbEntity
8
)
6
ByLayer
62
7
370
-1
100
AcDbPolyline
90
9
70
0
43
0
10
0.828021
20
3.943712
10
1.065112
20
4.502653
10
1.615363
20
4.739748
10
2.131921
20
4.51112
10
2.343587
20
3.943712
10
2.119208
20
3.372297
10
1.589938
20
3.139435
10
1.056637
20
3.37653
10
0.828021
20
3.943712
0
LWPOLYLINE
5
170
100
AcDbEntity
8
)
6
ByLayer
62
7
370
-1
100
AcDbPolyline
90
9
70
0
43
0
10
2.995537
20
3.943712
10
3.228391
20
4.502653
10
3.774404
20
4.739748
10
4.290962
20
4.51112
10
4.502629
20
3.943712
10
4.282487
20
3.372297
10
3.740505
20
3.139435
10
3.215679
20
3.37653
10
2.995537
20
3.943712
0
LWPOLYLINE
5
171
100
AcDbEntity
8
"
6
ByLayer
62
7
370
-1
100
AcDbPolyline
90
9
70
0
43
0
10
3.039118
20
1.667416
10
3.271972
20
2.230477
10
3.817985
20
2.471693
10
4.334542
20
2.247439
10
4.546209
20
1.684377
10
4.326068
20
1.104439
10
3.784085
20
0.871606
10
3.259259
20
1.1087
10
3.039118
20
1.667416
0
LWPOLYLINE
5
172
100
AcDbEntity
8
"
6
ByLayer
62
7
370
-1
100
AcDbPolyline
90
9
70
0
43
0
10
0.871601
20
1.667416
10
1.108693
20
2.230477
10
1.658943
20
2.471693
10
2.175501
20
2.247439
10
2.387168
20
1.684377
10
2.162789
20
1.104439
10
1.633519
20
0.871606
10
1.100218
20
1.1087
10
0.871601
20
1.667416
0
LWPOLYLINE
5
173
100
AcDbEntity
8
"
6
ByLayer
62
7
370
-1
100
AcDbPolyline
90
9
70
0
43
0
10
3.039118
20
3.987282
10
3.271972
20
4.546195
10
3.817985
20
4.78329
10
4.334542
20
4.55469
10
4.546209
20
3.987282
10
4.326068
20
3.415839
10
3.784085
20
3.182977
10
3.259259
20
3.420072
10
3.039118
20
3.987282
0
LWPOLYLINE
5
174
100
AcDbEntity
8
'
6
ByLayer
62
7
370
-1
100
AcDbPolyline
90
17
70
0
43
0
10
0.828022
20
1.623827
10
1.065113
20
2.186889
10
1.615364
20
2.428132
10
2.131921
20
2.20385
10
2.343588
20
1.640789
10
2.119209
20
1.060879
10
1.589939
20
0.828017
10
1.056638
20
1.065112
10
0.828022
20
1.623827
10
1.065113
20
2.18694
10
1.615364
20
2.428156
10
2.131921
20
2.203874
10
2.343588
20
1.640812
10
2.119209
20
1.060902
10
1.589939
20
0.82804
10
1.056638
20
1.065135
10
0.828021
20
1.623879
0
LWPOLYLINE
5
175
100
AcDbEntity
8
;
6
ByLayer
62
7
370
-1
100
AcDbPolyline
90
17
70
0
43
0
10
0.828021
20
3.943717
10
1.065113
20
4.502658
10
1.615364
20
4.739753
10
2.131921
20
4.511125
10
2.343588
20
3.943717
10
2.119209
20
3.372274
10
1.589939
20
3.13944
10
1.056638
20
3.376535
10
0.828021
20
3.943717
10
1.065113
20
4.502622
10
1.615363
20
4.739717
10
2.131921
20
4.511117
10
2.343588
20
3.943709
10
2.119209
20
3.372266
10
1.589938
20
3.139404
10
1.056638
20
3.376499
10
0.828021
20
3.943709
0
LWPOLYLINE
5
176
100
AcDbEntity
8
:
6
ByLayer
62
7
370
-1
100
AcDbPolyline
90
9
70
0
43
0
10
2.995537
20
3.943709
10
3.228391
20
4.502622
10
3.774405
20
4.739717
10
4.290962
20
4.511117
10
4.502629
20
3.943709
10
4.282487
20
3.372266
10
3.740505
20
3.139404
10
3.215679
20
3.376499
10
2.995537
20
3.943709
0
LWPOLYLINE
5
177
100
AcDbEntity
8
^
6
ByLayer
62
7
370
-1
100
AcDbPolyline
90
9
70
0
43
0
10
2.951958
20
1.667398
10
3.184811
20
2.23046
10
3.730825
20
2.471704
10
4.247382
20
2.247422
10
4.459049
20
1.68436
10
4.238907
20
1.10445
10
3.696925
20
0.871588
10
3.172099
20
1.108683
10
2.951958
20
1.667398
0
LWPOLYLINE
5
178
100
AcDbEntity
8
*
6
ByLayer
62
7
370
-1
100
AcDbPolyline
90
9
70
0
43
0
10
0.828022
20
1.623836
10
1.065113
20
2.186897
10
1.615364
20
2.428141
10
2.131921
20
2.203859
10
2.343588
20
1.640797
10
2.119209
20
1.060887
10
1.589939
20
0.828026
10
1.056638
20
1.065121
10
0.828022
20
1.623836
0
LWPOLYLINE
5
179
100
AcDbEntity
8
*
6
ByLayer
62
7
370
-1
100
AcDbPolyline
90
9
70
0
43
0
10
2.995538
20
3.943703
10
3.228392
20
4.502644
10
3.774405
20
4.73971
10
4.290963
20
4.51111
10
4.502629
20
3.943703
10
4.282488
20
3.372259
10
3.740505
20
3.139397
10
3.21568
20
3.376492
10
2.995538
20
3.943703
0
LWPOLYLINE
5
17A
100
AcDbEntity
8
=
6
ByLayer
62
7
370
-1
100
AcDbPolyline
90
9
70
0
43
0
10
0.871601
20
6.246614
10
1.108693
20
6.805527
10
1.658943
20
7.042622
10
2.175501
20
6.818255
10
2.387168
20
6.255081
10
2.162789
20
5.679404
10
1.633519
20
5.450776
10
1.100218
20
5.687871
10
0.871601
20
6.246614
0
LWPOLYLINE
5
17B
100
AcDbEntity
8
=
6
ByLayer
62
7
370
-1
100
AcDbPolyline
90
9
70
0
43
0
10
0.871601
20
1.623842
10
1.108693
20
2.186904
10
1.658943
20
2.428119
10
2.175501
20
2.203866
10
2.387168
20
1.640776
10
2.162789
20
1.060866
10
1.633519
20
0.828032
10
1.100218
20
1.065099
10
0.871601
20
1.623842
0
ENDSEC
0
SECTION
2
OBJECTS
0
DICTIONARY
5
C
330
0
100
AcDbDictionary
281
1
3
ACAD_GROUP
350
D
0
DICTIONARY
5
D
330
C
100
AcDbDictionary
281
1
0
ENDSEC
0
EOF
