999
dxfrw 0.5.10
0
SECTION
2
HEADER
9
$ACADVER
1
AC1021
9
$HANDSEED
5
20000
9
$DWGCODEPAGE
3
ANSI_1252
9
$INSBASE
10
0
20
0
30
0
9
$EXTMIN
10
-15
20
-15
30
0
9
$EXTMAX
10
15
20
15
30
0
9
$LIMMIN
10
0
20
0
9
$LIMMAX
10
420
20
297
9
$ORTHOMODE
70
0
9
$LTSCALE
40
1
9
$TEXTSTYLE
7
STANDARD
9
$CLAYER
8
Lock-system-10-15
9
$DIMASZ
40
2.5
9
$DIMLFAC
40
1
9
$DIMSCALE
40
1
9
$DIMEXO
40
0.625
9
$DIMEXE
40
1.25
9
$DIMTXT
40
2.5
9
$DIMTSZ
40
0
9
$DIMAUNIT
70
0
9
$DIMADEC
70
0
9
$DIMLUNIT
70
2
9
$DIMSTYLE
2
STANDARD
9
$DIMGAP
40
0.625
9
$DIMTIH
70
0
9
$LUNITS
70
2
9
$LUPREC
70
4
9
$AUNITS
70
0
9
$AUPREC
70
2
9
$SPLINESEGS
70
8
9
$GRIDMODE
70
1
9
$SNAPSTYLE
70
0
9
$PINSBASE
10
0
20
0
30
0
9
$PLIMMIN
10
0
20
0
9
$PLIMMAX
10
210
20
297
9
$INSUNITS
70
0
9
$PSVPSCALE
40
1
0
ENDSEC
0
SECTION
2
CLASSES
0
ENDSEC
0
SECTION
2
TABLES
0
TABLE
2
VPORT
5
8
330
0
100
AcDbSymbolTable
70
1
0
VPORT
5
31
330
2
100
AcDbSymbolTableRecord
100
AcDbViewportTableRecord
2
*ACTIVE
70
0
10
0
20
0
11
1
21
1
12
17.1482907538
22
9.98444876494
13
0
23
0
14
10
24
10
15
10
25
10
16
0
26
0
36
1
17
0
27
0
37
0
40
37.8410608191
41
1.6253298153
42
50
43
0
44
0
50
0
51
0
71
0
72
100
73
1
74
3
75
0
76
1
77
0
78
0
281
0
65
1
110
0
120
0
130
0
111
1
121
0
131
0
112
0
122
1
132
0
79
0
146
0
348
10020
60
7
61
5
292
1
282
1
141
0
142
0
63
250
421
3358443
0
ENDTAB
0
TABLE
2
LTYPE
5
5
330
0
100
AcDbSymbolTable
70
4
0
LTYPE
5
14
330
5
100
AcDbSymbolTableRecord
100
AcDbLinetypeTableRecord
2
ByBlock
70
0
3

72
65
73
0
40
0
0
LTYPE
5
15
330
5
100
AcDbSymbolTableRecord
100
AcDbLinetypeTableRecord
2
ByLayer
70
0
3

72
65
73
0
40
0
0
LTYPE
5
16
330
5
100
AcDbSymbolTableRecord
100
AcDbLinetypeTableRecord
2
Continuous
70
0
3
Solid line
72
65
73
0
40
0
0
LTYPE
5
32
330
5
100
AcDbSymbolTableRecord
100
AcDbLinetypeTableRecord
2
DOT
70
0
3
Dot . . . . . . . . . . . . . . . . . . . . . .
72
65
73
2
40
6.35
49
0
74
0
49
-6.35
74
0
0
LTYPE
5
33
330
5
100
AcDbSymbolTableRecord
100
AcDbLinetypeTableRecord
2
DOT2
70
0
3
Dot (.5x) .....................................
72
65
73
2
40
3.175
49
0
74
0
49
-3.175
74
0
0
LTYPE
5
34
330
5
100
AcDbSymbolTableRecord
100
AcDbLinetypeTableRecord
2
DOTX2
70
0
3
Dot (2x) .  .  .  .  .  .  .  .  .  .  .  .  .
72
65
73
2
40
12.7
49
0
74
0
49
-12.7
74
0
0
LTYPE
5
35
330
5
100
AcDbSymbolTableRecord
100
AcDbLinetypeTableRecord
2
DASHED
70
0
3
Dot . . . . . . . . . . . . . . . . . . . . . .
72
65
73
2
40
19.05
49
12.7
74
0
49
-6.35
74
0
0
LTYPE
5
36
330
5
100
AcDbSymbolTableRecord
100
AcDbLinetypeTableRecord
2
DASHED2
70
0
3
Dashed (.5x) _ _ _ _ _ _ _ _ _ _ _ _ _ _ _ _ _
72
65
73
2
40
9.525
49
6.35
74
0
49
-3.175
74
0
0
LTYPE
5
37
330
5
100
AcDbSymbolTableRecord
100
AcDbLinetypeTableRecord
2
DASHEDX2
70
0
3
Dashed (2x) ____  ____  ____  ____  ____  ___
72
65
73
2
40
38.1
49
25.4
74
0
49
-12.7
74
0
0
LTYPE
5
38
330
5
100
AcDbSymbolTableRecord
100
AcDbLinetypeTableRecord
2
DASHDOT
70
0
3
Dash dot __ . __ . __ . __ . __ . __ . __ . __
72
65
73
4
40
25.4
49
12.7
74
0
49
-6.35
74
0
49
0
74
0
49
-6.35
74
0
0
LTYPE
5
39
330
5
100
AcDbSymbolTableRecord
100
AcDbLinetypeTableRecord
2
DASHDOT2
70
0
3
Dash dot (.5x) _._._._._._._._._._._._._._._.
72
65
73
4
40
12.7
49
6.35
74
0
49
-3.175
74
0
49
0
74
0
49
-3.175
74
0
0
LTYPE
5
3A
330
5
100
AcDbSymbolTableRecord
100
AcDbLinetypeTableRecord
2
DASHDOTX2
70
0
3
Dash dot (2x) ____  .  ____  .  ____  .  ___
72
65
73
4
40
50.8
49
25.4
74
0
49
-12.7
74
0
49
0
74
0
49
-12.7
74
0
0
LTYPE
5
3B
330
5
100
AcDbSymbolTableRecord
100
AcDbLinetypeTableRecord
2
DIVIDE
70
0
3
Divide ____ . . ____ . . ____ . . ____ . . ____
72
65
73
6
40
31.75
49
12.7
74
0
49
-6.35
74
0
49
0
74
0
49
-6.35
74
0
49
0
74
0
49
-6.35
74
0
0
LTYPE
5
3C
330
5
100
AcDbSymbolTableRecord
100
AcDbLinetypeTableRecord
2
DIVIDE2
70
0
3
Divide (.5x) __..__..__..__..__..__..__..__.._
72
65
73
6
40
15.875
49
6.35
74
0
49
-3.175
74
0
49
0
74
0
49
-3.175
74
0
49
0
74
0
49
-3.175
74
0
0
LTYPE
5
3D
330
5
100
AcDbSymbolTableRecord
100
AcDbLinetypeTableRecord
2
DIVIDEX2
70
0
3
Divide (2x) ________  .  .  ________  .  .  _
72
65
73
6
40
63.5
49
25.4
74
0
49
-12.7
74
0
49
0
74
0
49
-12.7
74
0
49
0
74
0
49
-12.7
74
0
0
LTYPE
5
3E
330
5
100
AcDbSymbolTableRecord
100
AcDbLinetypeTableRecord
2
BORDER
70
0
3
Border __ __ . __ __ . __ __ . __ __ . __ __ .
72
65
73
6
40
44.45
49
12.7
74
0
49
-6.35
74
0
49
12.7
74
0
49
-6.35
74
0
49
0
74
0
49
-6.35
74
0
0
LTYPE
5
3F
330
5
100
AcDbSymbolTableRecord
100
AcDbLinetypeTableRecord
2
BORDER2
70
0
3
Border (.5x) __.__.__.__.__.__.__.__.__.__.__.
72
65
73
6
40
22.225
49
6.35
74
0
49
-3.175
74
0
49
6.35
74
0
49
-3.175
74
0
49
0
74
0
49
-3.175
74
0
0
LTYPE
5
40
330
5
100
AcDbSymbolTableRecord
100
AcDbLinetypeTableRecord
2
BORDERX2
70
0
3
Border (2x) ____  ____  .  ____  ____  .  ___
72
65
73
6
40
88.9
49
25.4
74
0
49
-12.7
74
0
49
25.4
74
0
49
-12.7
74
0
49
0
74
0
49
-12.7
74
0
0
LTYPE
5
41
330
5
100
AcDbSymbolTableRecord
100
AcDbLinetypeTableRecord
2
CENTER
70
0
3
Center ____ _ ____ _ ____ _ ____ _ ____ _ ____
72
65
73
4
40
50.8
49
31.75
74
0
49
-6.35
74
0
49
6.35
74
0
49
-6.35
74
0
0
LTYPE
5
42
330
5
100
AcDbSymbolTableRecord
100
AcDbLinetypeTableRecord
2
CENTER2
70
0
3
Center (.5x) ___ _ ___ _ ___ _ ___ _ ___ _ ___
72
65
73
4
40
28.575
49
19.05
74
0
49
-3.175
74
0
49
3.175
74
0
49
-3.175
74
0
0
LTYPE
5
43
330
5
100
AcDbSymbolTableRecord
100
AcDbLinetypeTableRecord
2
CENTERX2
70
0
3
Center (2x) ________  __  ________  __  _____
72
65
73
4
40
101.6
49
63.5
74
0
49
-12.7
74
0
49
12.7
74
0
49
-12.7
74
0
0
ENDTAB
0
TABLE
2
LAYER
5
2
330
0
100
AcDbSymbolTable
70
1
0
LAYER
5
10
330
2
100
AcDbSymbolTableRecord
100
AcDbLayerTableRecord
2
0
70
0
62
7
6
CONTINUOUS
370
0
390
F
0
LAYER
5
44
330
2
100
AcDbSymbolTableRecord
100
AcDbLayerTableRecord
2
angles
70
1
62
7
6
CONTINUOUS
370
0
390
F
0
LAYER
5
45
330
2
100
AcDbSymbolTableRecord
100
AcDbLayerTableRecord
2
Lock-system-0-5
70
0
62
7
6
CONTINUOUS
370
0
390
F
0
LAYER
5
46
330
2
100
AcDbSymbolTableRecord
100
AcDbLayerTableRecord
2
Lock-system-5-10
70
0
62
7
6
CONTINUOUS
370
0
390
F
0
LAYER
5
47
330
2
100
AcDbSymbolTableRecord
100
AcDbLayerTableRecord
2
Lock-system-10-15
70
0
62
7
6
CONTINUOUS
370
0
390
F
0
ENDTAB
0
TABLE
2
STYLE
5
3
330
0
100
AcDbSymbolTable
70
3
0
STYLE
5
48
330
2
100
AcDbSymbolTableRecord
100
AcDbTextStyleTableRecord
2
Standard
70
0
40
0
41
1
50
0
71
0
42
1
3
txt
4

0
ENDTAB
0
TABLE
2
VIEW
5
6
330
0
100
AcDbSymbolTable
70
0
0
ENDTAB
0
TABLE
2
UCS
5
7
330
0
100
AcDbSymbolTable
70
0
0
ENDTAB
0
TABLE
2
APPID
5
9
330
0
100
AcDbSymbolTable
70
1
0
APPID
5
12
330
9
100
AcDbSymbolTableRecord
100
AcDbRegAppTableRecord
2
ACAD
70
0
0
ENDTAB
0
TABLE
2
DIMSTYLE
5
A
330
0
100
AcDbSymbolTable
70
1
100
AcDbDimStyleTable
71
1
0
DIMSTYLE
105
49
330
A
100
AcDbSymbolTableRecord
100
AcDbDimStyleTableRecord
2
Standard
70
0
40
1
41
2.5
42
0.625
43
0.38
44
1.25
45
0
46
0
47
0
48
0
140
2.5
141
0.09
142
0
143
25.4
144
1
145
0
146
1
147
0.625
148
0
71
0
72
0
73
0
74
1
75
0
76
0
77
0
78
0
79
0
170
0
171
2
172
0
173
0
174
0
175
0
176
0
177
0
178
0
179
0
271
4
272
4
273
2
274
2
275
0
276
0
277
2
278
46
279
0
280
0
281
0
282
0
283
1
284
0
285
0
286
0
288
0
289
3
340
Standard
341

371
-2
372
-2
0
ENDTAB
0
TABLE
2
BLOCK_RECORD
5
1
330
0
100
AcDbSymbolTable
70
2
0
BLOCK_RECORD
5
1F
330
1
100
AcDbSymbolTableRecord
100
AcDbBlockTableRecord
2
*Model_Space
70
0
280
1
281
0
0
BLOCK_RECORD
5
1E
330
1
100
AcDbSymbolTableRecord
100
AcDbBlockTableRecord
2
*Paper_Space
70
0
280
1
281
0
0
BLOCK_RECORD
5
4A
330
1
100
AcDbSymbolTableRecord
100
AcDbBlockTableRecord
2
*D2
70
0
280
1
281
0
0
BLOCK_RECORD
5
4D
330
1
100
AcDbSymbolTableRecord
100
AcDbBlockTableRecord
2
*D4
70
0
280
1
281
0
0
BLOCK_RECORD
5
50
330
1
100
AcDbSymbolTableRecord
100
AcDbBlockTableRecord
2
*D3
70
0
280
1
281
0
0
BLOCK_RECORD
5
53
330
1
100
AcDbSymbolTableRecord
100
AcDbBlockTableRecord
2
*D5
70
0
280
1
281
0
0
BLOCK_RECORD
5
56
330
1
100
AcDbSymbolTableRecord
100
AcDbBlockTableRecord
2
*D6
70
0
280
1
281
0
0
BLOCK_RECORD
5
59
330
1
100
AcDbSymbolTableRecord
100
AcDbBlockTableRecord
2
*D1
70
0
280
1
281
0
0
ENDTAB
0
ENDSEC
0
SECTION
2
BLOCKS
0
BLOCK
5
20
330
1F
100
AcDbEntity
8
0
100
AcDbBlockBegin
2
*Model_Space
70
0
10
0
20
0
30
0
3
*Model_Space
1

0
ENDBLK
5
21
330
1F
100
AcDbEntity
8
0
100
AcDbBlockEnd
0
BLOCK
5
1C
330
1B
100
AcDbEntity
8
0
100
AcDbBlockBegin
2
*Paper_Space
70
0
10
0
20
0
30
0
3
*Paper_Space
1

0
ENDBLK
5
1D
330
1F
100
AcDbEntity
8
0
100
AcDbBlockEnd
0
BLOCK
5
4B
330
4A
100
AcDbEntity
8
0
100
AcDbBlockBegin
2
*D2
70
1
10
0
20
0
3
*D2
1

0
LINE
5
5C
100
AcDbEntity
8
angles
6
CONTINUOUS
62
7
370
0
100
AcDbLine
10
2.72446572085e-15
20
44.4939017968
11
0
21
0
0
SOLID
5
5D
100
AcDbEntity
8
angles
6
CONTINUOUS
62
7
370
0
100
AcDbTrace
10
2.72446572085e-15
20
44.4939017968
30
0
11
0.416284657773
21
41.9939017968
31
0
12
-0.416284657773
22
41.9939017968
32
0
13
-0.416284657773
23
41.9939017968
33
0
0
SOLID
5
5E
100
AcDbEntity
8
angles
6
CONTINUOUS
62
7
370
0
100
AcDbTrace
10
0
20
0
30
0
11
-0.416284657773
21
2.5
31
0
12
0.416284657773
22
2.5
32
0
13
0.416284657773
23
2.5
33
0
0
MTEXT
5
5F
100
AcDbEntity
8
angles
6
CONTINUOUS
62
7
370
0
100
AcDbMText
10
-1.875
20
22.2469508984
30
0
40
2.5
41
12.5
71
5
72
1
1
44.4939
7
standard
210
0
220
0
230
1
50
90
73
2
44
1
0
LINE
5
60
100
AcDbEntity
8
angles
6
CONTINUOUS
62
7
370
0
100
AcDbLine
10
5.44069820597
20
44.4939017968
11
-1.25
21
44.4939017968
0
LINE
5
61
100
AcDbEntity
8
angles
6
CONTINUOUS
62
7
370
0
100
AcDbLine
10
-0.625
20
7.65404249467e-17
11
-1.25
21
1.53080849893e-16
0
ENDBLK
5
4C
330
4A
100
AcDbEntity
8
0
100
AcDbBlockEnd
0
BLOCK
5
4E
330
4D
100
AcDbEntity
8
0
100
AcDbBlockBegin
2
*D4
70
1
10
0
20
0
3
*D4
1

0
LINE
5
62
100
AcDbEntity
8
angles
6
CONTINUOUS
62
7
370
0
100
AcDbLine
10
-43.081242979
20
0
11
0
21
0
0
SOLID
5
63
100
AcDbEntity
8
angles
6
CONTINUOUS
62
7
370
0
100
AcDbTrace
10
-43.081242979
20
0
30
0
11
-40.581242979
21
0.416284657773
31
0
12
-40.581242979
22
-0.416284657773
32
0
13
-40.581242979
23
-0.416284657773
33
0
0
SOLID
5
64
100
AcDbEntity
8
angles
6
CONTINUOUS
62
7
370
0
100
AcDbTrace
10
0
20
0
30
0
11
-2.5
21
-0.416284657773
31
0
12
-2.5
22
0.416284657773
32
0
13
-2.5
23
0.416284657773
33
0
0
MTEXT
5
65
100
AcDbEntity
8
angles
6
CONTINUOUS
62
7
370
0
100
AcDbMText
10
-21.5406214895
20
1.875
30
0
40
2.5
41
11.3888888889
71
5
72
1
1
43.0812
7
standard
210
0
220
0
230
1
50
0
73
2
44
1
0
LINE
5
66
100
AcDbEntity
8
angles
6
CONTINUOUS
62
7
370
0
100
AcDbLine
10
-43.081242979
20
-15.4939023872
11
-43.081242979
21
1.25
0
LINE
5
67
100
AcDbEntity
8
angles
6
CONTINUOUS
62
7
370
0
100
AcDbLine
10
3.1582596863e-16
20
0.625
11
6.31651937259e-16
21
1.25
0
ENDBLK
5
4F
330
4D
100
AcDbEntity
8
0
100
AcDbBlockEnd
0
BLOCK
5
51
330
50
100
AcDbEntity
8
0
100
AcDbBlockBegin
2
*D3
70
1
10
0
20
0
3
*D3
1

0
LINE
5
68
100
AcDbEntity
8
angles
6
CONTINUOUS
62
7
370
0
100
AcDbLine
10
11.065698206
20
44.4939017968
11
-5
21
44.4939017968
0
SOLID
5
69
100
AcDbEntity
8
angles
6
CONTINUOUS
62
7
370
0
100
AcDbTrace
10
6.06569820597
20
44.4939017968
30
0
11
8.56569820597
21
44.9101864546
31
0
12
8.56569820597
22
44.077617139
32
0
13
8.56569820597
23
44.077617139
33
0
0
SOLID
5
6A
100
AcDbEntity
8
angles
6
CONTINUOUS
62
7
370
0
100
AcDbTrace
10
0
20
44.4939017968
30
0
11
-2.5
21
44.077617139
31
0
12
-2.5
22
44.9101864546
32
0
13
-2.5
23
44.9101864546
33
0
0
MTEXT
5
6B
100
AcDbEntity
8
angles
6
CONTINUOUS
62
7
370
0
100
AcDbMText
10
11.5518093171
20
46.3689017968
30
0
40
2.5
41
9.72222222222
71
5
72
1
1
6.0657
7
standard
210
0
220
0
230
1
50
360
73
2
44
1
0
LINE
5
6C
100
AcDbEntity
8
angles
6
CONTINUOUS
62
7
370
0
100
AcDbLine
10
6.06569820597
20
45.1189017968
11
6.06569820597
21
45.7439017968
0
LINE
5
6D
100
AcDbEntity
8
angles
6
CONTINUOUS
62
7
370
0
100
AcDbLine
10
3.82702124734e-17
20
0.625
11
7.65404249467e-17
21
45.7439017968
0
ENDBLK
5
52
330
50
100
AcDbEntity
8
0
100
AcDbBlockEnd
0
BLOCK
5
54
330
53
100
AcDbEntity
8
0
100
AcDbBlockBegin
2
*D5
70
1
10
0
20
0
3
*D5
1

0
LINE
5
6E
100
AcDbEntity
8
angles
6
CONTINUOUS
62
7
370
0
100
AcDbLine
10
-35.5000001282
20
-30.9999998059
11
0
21
-30.9999998059
0
SOLID
5
6F
100
AcDbEntity
8
angles
6
CONTINUOUS
62
7
370
0
100
AcDbTrace
10
-35.5000001282
20
-30.9999998059
30
0
11
-33.0000001282
21
-30.5837151481
31
0
12
-33.0000001282
22
-31.4162844637
32
0
13
-33.0000001282
23
-31.4162844637
33
0
0
SOLID
5
70
100
AcDbEntity
8
angles
6
CONTINUOUS
62
7
370
0
100
AcDbTrace
10
0
20
-30.9999998059
30
0
11
-2.5
21
-31.4162844637
31
0
12
-2.5
22
-30.5837151481
32
0
13
-2.5
23
-30.5837151481
33
0
0
MTEXT
5
71
100
AcDbEntity
8
angles
6
CONTINUOUS
62
7
370
0
100
AcDbMText
10
-17.7500000641
20
-29.1249998059
30
0
40
2.5
41
5.83333333333
71
5
72
1
1
35.5
7
standard
210
0
220
0
230
1
50
0
73
2
44
1
0
LINE
5
72
100
AcDbEntity
8
angles
6
CONTINUOUS
62
7
370
0
100
AcDbLine
10
-35.5000001282
20
-29.8749996975
11
-35.5000001282
21
-32.2499998059
0
LINE
5
73
100
AcDbEntity
8
angles
6
CONTINUOUS
62
7
370
0
100
AcDbLine
10
-1.1481063742e-16
20
-0.625
11
-2.2962127484e-16
21
-32.2499998059
0
ENDBLK
5
55
330
53
100
AcDbEntity
8
0
100
AcDbBlockEnd
0
BLOCK
5
57
330
56
100
AcDbEntity
8
0
100
AcDbBlockBegin
2
*D6
70
1
10
0
20
0
3
*D6
1

0
LINE
5
74
100
AcDbEntity
8
angles
6
CONTINUOUS
62
7
370
0
100
AcDbLine
10
2.03287770632e-07
20
3.5527136788e-15
11
2.03287768841e-07
21
-29.249999713
0
SOLID
5
75
100
AcDbEntity
8
angles
6
CONTINUOUS
62
7
370
0
100
AcDbTrace
10
2.03287770632e-07
20
3.5527136788e-15
30
0
11
0.416284861061
21
-2.5
31
0
12
-0.416284454485
22
-2.5
32
0
13
-0.416284454485
23
-2.5
33
0
0
SOLID
5
76
100
AcDbEntity
8
angles
6
CONTINUOUS
62
7
370
0
100
AcDbTrace
10
2.03287768841e-07
20
-29.249999713
30
0
11
-0.416284454485
21
-26.749999713
31
0
12
0.416284861061
22
-26.749999713
32
0
13
0.416284861061
23
-26.749999713
33
0
0
MTEXT
5
77
100
AcDbEntity
8
angles
6
CONTINUOUS
62
7
370
0
100
AcDbMText
10
-1.87499979671
20
-14.6249998565
30
0
40
2.5
41
7.77777777778
71
5
72
1
1
29.25
7
standard
210
0
220
0
230
1
50
90
73
2
44
1
0
LINE
5
78
100
AcDbEntity
8
angles
6
CONTINUOUS
62
7
370
0
100
AcDbLine
10
0.625
20
0
11
1.25000020329
21
3.5527136788e-15
0
LINE
5
79
100
AcDbEntity
8
angles
6
CONTINUOUS
62
7
370
0
100
AcDbLine
10
-31.8750001282
20
-29.249999713
11
1.25000020329
21
-29.249999713
0
ENDBLK
5
58
330
56
100
AcDbEntity
8
0
100
AcDbBlockEnd
0
BLOCK
5
5A
330
59
100
AcDbEntity
8
0
100
AcDbBlockBegin
2
*D1
70
1
10
0
20
0
3
*D1
1

0
LINE
5
7A
100
AcDbEntity
8
angles
6
CONTINUOUS
62
7
370
0
100
AcDbLine
10
11.8495006957
20
25.4760622902
11
12.6540560096
21
24.0825316312
0
LINE
5
7B
100
AcDbEntity
8
angles
6
CONTINUOUS
62
7
370
0
100
AcDbLine
10
-0.625
20
3.3289711531e-15
11
-1.25
21
3.40551157805e-15
0
ARC
5
7C
100
AcDbEntity
8
angles
6
CONTINUOUS
62
7
370
0
100
AcDbCircle
10
26.5581123506
20
0
40
26.5581123506
100
AcDbArc
50
120.000000394
51
180
0
SOLID
5
7D
100
AcDbEntity
8
angles
6
CONTINUOUS
62
7
370
0
100
AcDbTrace
10
13.279056017
20
22.9999998808
30
0
11
11.4000753859
21
21.299198686
31
0
12
10.9503280074
22
21.9998405066
32
0
13
10.9503280074
23
21.9998405066
33
0
0
SOLID
5
7E
100
AcDbEntity
8
angles
6
CONTINUOUS
62
7
370
0
100
AcDbTrace
10
0
20
3.25243072815e-15
30
0
11
-0.298200596246
21
2.51681729982
31
0
12
0.533446708837
22
2.47764556084
32
0
13
0.533446708837
23
2.47764556084
33
0
0
MTEXT
5
7F
100
AcDbEntity
8
angles
6
CONTINUOUS
62
7
370
0
100
AcDbMText
10
3.01684645428
20
13.5915560943
30
0
40
2.5
41
4.72222222222
71
8
72
1
1
60%%D
7
standard
210
0
220
0
230
1
50
420.000000197
73
2
44
1
0
ENDBLK
5
5B
330
59
100
AcDbEntity
8
0
100
AcDbBlockEnd
0
ENDSEC
0
SECTION
2
ENTITIES
0
POINT
5
80
100
AcDbEntity
8
0
6
ByLayer
62
256
370
-1
100
AcDbPoint
10
0
20
20
0
ARC
5
81
100
AcDbEntity
8
0
6
ByLayer
62
256
370
-1
100
AcDbCircle
10
36.3156986803
20
-7.90063512087
40
7.5
100
AcDbArc
50
120.000000394
51
300.000004601
0
ARC
5
82
100
AcDbEntity
8
0
6
ByLayer
62
256
370
-1
100
AcDbCircle
10
11.3156985792
20
35.40063501
40
7.50000022737
100
AcDbArc
50
120.000002131
51
300.000001881
0
LINE
5
83
100
AcDbEntity
8
0
6
ByLayer
62
256
370
-1
100
AcDbLine
10
34.0967875189
20
2.94263160359
11
31.0656986177
21
1.19263158273
0
LINE
5
84
100
AcDbEntity
8
0
6
ByLayer
62
256
370
-1
100
AcDbLine
10
35.5967875368
20
0.344555402563
11
32.5656986356
21
-1.4054446183
0
LINE
5
85
100
AcDbEntity
8
0
6
ByLayer
62
256
370
-1
100
AcDbLine
10
43.0967876262
20
-12.6458256026
11
40.065698725
21
-14.3958256234
0
LINE
5
86
100
AcDbEntity
8
0
6
ByLayer
62
256
370
-1
100
AcDbLine
10
44.5967876441
20
-15.2439018036
11
41.5656987429
21
-16.9939018245
0
LINE
5
87
100
AcDbEntity
8
0
6
ByLayer
62
256
370
-1
100
AcDbLine
10
19.5967874597
20
28.0573680166
11
16.5656985585
21
26.3073679958
0
LINE
5
88
100
AcDbEntity
8
0
6
ByLayer
62
256
370
-1
100
AcDbLine
10
18.0967874418
20
30.6554442177
11
15.0656985406
21
28.9054441968
0
LINE
5
89
100
AcDbEntity
8
0
6
ByLayer
62
256
370
-1
100
AcDbLine
10
10.5967871251
20
43.6458256166
11
7.56569822385
21
41.8958255958
0
LINE
5
8A
100
AcDbEntity
8
0
6
ByLayer
62
256
370
-1
100
AcDbLine
10
9.09678710717
20
46.2439018177
11
6.06569820597
21
44.4939017968
0
LINE
5
8B
100
AcDbEntity
8
0
6
ByLayer
62
256
370
-1
100
AcDbLine
10
27.6751678319
20
-1.93479681776
11
12.1620006994
21
24.934796415
0
LINE
5
8C
100
AcDbEntity
8
0
6
ByLayer
62
256
370
-1
100
AcDbLine
10
10.5967871251
20
43.6458256166
11
9.09678710717
21
46.2439018177
0
LINE
5
8D
100
AcDbEntity
8
0
6
ByLayer
62
256
370
-1
100
AcDbLine
10
19.5967874597
20
28.0573680166
11
18.0967874418
21
30.6554442177
0
LINE
5
8E
100
AcDbEntity
8
0
6
ByLayer
62
256
370
-1
100
AcDbLine
10
35.5967875368
20
0.344555402563
11
34.0967875189
21
2.94263160359
0
LINE
5
8F
100
AcDbEntity
8
0
6
ByLayer
62
256
370
-1
100
AcDbLine
10
44.5967876441
20
-15.2439018036
11
43.0967876262
21
-12.6458256026
0
ARC
5
90
100
AcDbEntity
8
0
6
ByLayer
62
256
370
-1
100
AcDbCircle
10
11.3156985792
20
35.40063501
40
10.5000002274
100
AcDbArc
50
120.000001635
51
165.584692304
0
ARC
5
91
100
AcDbEntity
8
0
6
ByLayer
62
256
370
-1
100
AcDbCircle
10
36.3156986803
20
-7.90063512087
40
10.5
100
AcDbArc
50
254.415308992
51
300.000004643
0
ARC
5
92
100
AcDbEntity
8
0
6
ByLayer
62
256
370
-1
100
AcDbCircle
10
36.3156986803
20
-7.90063512087
40
10.5
100
AcDbArc
50
119.99999827
51
145.376933919
0
ARC
5
93
100
AcDbEntity
8
0
6
ByLayer
62
256
370
-1
100
AcDbCircle
10
11.3156985792
20
35.40063501
40
10.5000002274
100
AcDbArc
50
274.623066084
51
299.99999739
0
LINE
5
94
100
AcDbEntity
8
0
6
ByLayer
62
256
370
-1
100
AcDbLine
10
1.14627317528
20
38.0145959374
11
-2.66081190858e-07
21
39.9999997456
0
LINE
5
95
100
AcDbEntity
8
0
6
ByLayer
62
256
370
-1
100
AcDbLine
10
33.4947428357
20
-18.014596171
11
34.6410163234
21
-20.0000000596
0
ARC
5
96
100
AcDbEntity
8
0
6
ByLayer
62
256
370
-1
100
AcDbCircle
10
25.0000001082
20
-27.5000000098
40
7.5
100
AcDbArc
50
359.999995498
51
179.999999704
0
ARC
5
97
100
AcDbEntity
8
0
6
ByLayer
62
256
370
-1
100
AcDbCircle
10
-24.9999998918
20
-27.4999999791
40
7.50000022737
100
AcDbArc
50
359.999998217
51
179.999997967
0
LINE
5
98
100
AcDbEntity
8
0
6
ByLayer
62
256
370
-1
100
AcDbLine
10
14.5000000901
20
-30.9999999556
11
14.5000001082
21
-27.4999999556
0
LINE
5
99
100
AcDbEntity
8
0
6
ByLayer
62
256
370
-1
100
AcDbLine
10
17.5000000901
20
-30.9999999711
11
17.5000001082
21
-27.4999999711
0
LINE
5
9A
100
AcDbEntity
8
0
6
ByLayer
62
256
370
-1
100
AcDbLine
10
32.5000000901
20
-31.0000000486
11
32.5000001082
21
-27.5000000486
0
LINE
5
9B
100
AcDbEntity
8
0
6
ByLayer
62
256
370
-1
100
AcDbLine
10
35.5000000901
20
-31.000000064
11
35.5000001082
21
-27.500000064
0
LINE
5
9C
100
AcDbEntity
8
0
6
ByLayer
62
256
370
-1
100
AcDbLine
10
-14.4999996825
20
-30.9999998059
11
-14.4999996645
21
-27.4999998059
0
LINE
5
9D
100
AcDbEntity
8
0
6
ByLayer
62
256
370
-1
100
AcDbLine
10
-17.4999996825
20
-30.9999997905
11
-17.4999996645
21
-27.4999997905
0
LINE
5
9E
100
AcDbEntity
8
0
6
ByLayer
62
256
370
-1
100
AcDbLine
10
-32.5000001373
20
-30.999999713
11
-32.5000001192
21
-27.499999713
0
LINE
5
9F
100
AcDbEntity
8
0
6
ByLayer
62
256
370
-1
100
AcDbLine
10
-35.5000001373
20
-30.9999996975
11
-35.5000001192
21
-27.4999996975
0
LINE
5
A0
100
AcDbEntity
8
0
6
ByLayer
62
256
370
-1
100
AcDbLine
10
15.5131671509
20
-22.9999999609
11
-15.5131667443
21
-22.9999998007
0
LINE
5
A1
100
AcDbEntity
8
0
6
ByLayer
62
256
370
-1
100
AcDbLine
10
-32.5000001373
20
-30.999999713
11
-35.5000001373
21
-30.9999996975
0
LINE
5
A2
100
AcDbEntity
8
0
6
ByLayer
62
256
370
-1
100
AcDbLine
10
-14.4999996825
20
-30.9999998059
11
-17.4999996825
21
-30.9999997905
0
LINE
5
A3
100
AcDbEntity
8
0
6
ByLayer
62
256
370
-1
100
AcDbLine
10
17.5000000901
20
-30.9999999711
11
14.5000000901
21
-30.9999999556
0
LINE
5
A4
100
AcDbEntity
8
0
6
ByLayer
62
256
370
-1
100
AcDbLine
10
35.5000000901
20
-31.000000064
11
32.5000000901
21
-31.0000000486
0
ARC
5
A5
100
AcDbEntity
8
0
6
ByLayer
62
256
370
-1
100
AcDbCircle
10
-24.9999998918
20
-27.4999999791
40
10.5000002274
100
AcDbArc
50
134.415307795
51
179.999998464
0
ARC
5
A6
100
AcDbEntity
8
0
6
ByLayer
62
256
370
-1
100
AcDbCircle
10
25.0000001082
20
-27.5000000098
40
10.5
100
AcDbArc
50
359.999995455
51
45.5846911071
0
ARC
5
A7
100
AcDbEntity
8
0
6
ByLayer
62
256
370
-1
100
AcDbCircle
10
25.0000001082
20
-27.5000000098
40
10.5
100
AcDbArc
50
154.623066179
51
180.000001829
0
ARC
5
A8
100
AcDbEntity
8
0
6
ByLayer
62
256
370
-1
100
AcDbCircle
10
-24.9999998918
20
-27.4999999791
40
10.5000002274
100
AcDbArc
50
2.70874809579e-06
51
25.3769340141
0
LINE
5
A9
100
AcDbEntity
8
0
6
ByLayer
62
256
370
-1
100
AcDbLine
10
-32.3484691743
20
-19.9999997138
11
-34.6410160297
21
-19.999999702
0
LINE
5
AA
100
AcDbEntity
8
0
6
ByLayer
62
256
370
-1
100
AcDbLine
10
32.3484693752
20
-20.0000000478
11
34.6410163234
21
-20.0000000596
0
ARC
5
AB
100
AcDbEntity
8
0
6
ByLayer
62
256
370
-1
100
AcDbCircle
10
-36.3156985752
20
-7.90063560402
40
7.5
100
AcDbArc
50
239.999996162
51
60.0000003679
0
ARC
5
AC
100
AcDbEntity
8
0
6
ByLayer
62
256
370
-1
100
AcDbCircle
10
-11.3156990501
20
35.4006348594
40
7.50000022737
100
AcDbArc
50
239.999998881
51
59.9999986309
0
LINE
5
AD
100
AcDbEntity
8
0
6
ByLayer
62
256
370
-1
100
AcDbLine
10
-34.096787558
20
2.94263114997
11
-31.0656986335
21
1.19263116943
0
LINE
5
AE
100
AcDbEntity
8
0
6
ByLayer
62
256
370
-1
100
AcDbLine
10
-35.5967875413
20
0.344554928981
11
-32.5656986169
21
-1.40544505155
0
LINE
5
AF
100
AcDbEntity
8
0
6
ByLayer
62
256
370
-1
100
AcDbLine
10
-43.0967874579
20
-12.6458261759
11
-40.0656985334
21
-14.3958261565
0
LINE
5
B0
100
AcDbEntity
8
0
6
ByLayer
62
256
370
-1
100
AcDbLine
10
-44.5967874412
20
-15.2439023969
11
-41.5656985168
21
-16.9939023775
0
LINE
5
B1
100
AcDbEntity
8
0
6
ByLayer
62
256
370
-1
100
AcDbLine
10
-19.596787833
20
28.0573677559
11
-16.5656989085
21
26.3073677754
0
LINE
5
B2
100
AcDbEntity
8
0
6
ByLayer
62
256
370
-1
100
AcDbLine
10
-18.0967878497
20
30.6554439769
11
-15.0656989252
21
28.9054439964
0
LINE
5
B3
100
AcDbEntity
8
0
6
ByLayer
62
256
370
-1
100
AcDbLine
10
-10.5967877057
20
43.6458254757
11
-7.56569878124
21
41.8958254951
0
LINE
5
B4
100
AcDbEntity
8
0
6
ByLayer
62
256
370
-1
100
AcDbLine
10
-9.0967877224
20
46.2439016966
11
-6.06569879792
21
44.4939017161
0
LINE
5
B5
100
AcDbEntity
8
0
6
ByLayer
62
256
370
-1
100
AcDbLine
10
-27.6751678062
20
-1.93479718596
11
-12.1620010311
21
24.9347962532
0
LINE
5
B6
100
AcDbEntity
8
0
6
ByLayer
62
256
370
-1
100
AcDbLine
10
-10.5967877057
20
43.6458254757
11
-9.0967877224
21
46.2439016966
0
LINE
5
B7
100
AcDbEntity
8
0
6
ByLayer
62
256
370
-1
100
AcDbLine
10
-19.596787833
20
28.0573677559
11
-18.0967878497
21
30.6554439769
0
LINE
5
B8
100
AcDbEntity
8
0
6
ByLayer
62
256
370
-1
100
AcDbLine
10
-35.5967875413
20
0.344554928981
11
-34.096787558
21
2.94263114997
0
LINE
5
B9
100
AcDbEntity
8
0
6
ByLayer
62
256
370
-1
100
AcDbLine
10
-44.5967874412
20
-15.2439023969
11
-43.0967874579
21
-12.6458261759
0
ARC
5
BA
100
AcDbEntity
8
0
6
ByLayer
62
256
370
-1
100
AcDbCircle
10
-11.3156990501
20
35.4006348594
40
10.5000002274
100
AcDbArc
50
14.4153084586
51
59.9999991272
0
ARC
5
BB
100
AcDbEntity
8
0
6
ByLayer
62
256
370
-1
100
AcDbCircle
10
-36.3156985752
20
-7.90063560402
40
10.5
100
AcDbArc
50
239.999996119
51
285.584691771
0
ARC
5
BC
100
AcDbEntity
8
0
6
ByLayer
62
256
370
-1
100
AcDbCircle
10
-36.3156985752
20
-7.90063560402
40
10.5
100
AcDbArc
50
34.6230668428
51
60.0000024924
0
ARC
5
BD
100
AcDbEntity
8
0
6
ByLayer
62
256
370
-1
100
AcDbCircle
10
-11.3156990501
20
35.4006348594
40
10.5000002274
100
AcDbArc
50
240.000003372
51
265.376934678
0
LINE
5
BE
100
AcDbEntity
8
0
6
ByLayer
62
256
370
-1
100
AcDbLine
10
-1.14627368103
20
38.0145959221
11
-2.66081197964e-07
21
39.9999997456
0
LINE
5
BF
100
AcDbEntity
8
0
6
ByLayer
62
256
370
-1
100
AcDbLine
10
-33.494742596
20
-18.0145966166
11
-34.6410160574
21
-20.0000005205
0
LINE
5
C0
100
AcDbEntity
8
angles
6
ByLayer
62
256
370
-1
100
AcDbLine
10
0
20
0
11
0
21
300
0
LINE
5
C1
100
AcDbEntity
8
angles
6
ByLayer
62
256
370
-1
100
AcDbLine
10
0
20
0
11
3000
21
0
0
DIMENSION
5
C2
100
AcDbEntity
8
angles
6
ByLayer
62
256
370
-1
100
AcDbDimension
2
*D1
10
3000
20
0
30
0
11
0
21
0
31
0
70
34
71
5
3
Standard
53
0
210
0
220
0
230
1
100
AcDb2LineAngularDimension
13
27.6751678319
23
-1.93479681776
33
0
14
12.1620006994
24
24.934796415
34
0
15
0
25
0
35
0
16
0
26
0
36
0
0
DIMENSION
5
C3
100
AcDbEntity
8
angles
6
ByLayer
62
256
370
-1
100
AcDbDimension
2
*D2
10
0
20
0
30
0
11
-1.875
21
22.2469508984
31
0
70
32
71
5
3
Standard
53
0
210
0
220
0
230
1
100
AcDbAlignedDimension
13
6.06569820597
23
44.4939017968
33
0
14
0
24
0
34
0
50
90
100
AcDbRotatedDimension
0
DIMENSION
5
C4
100
AcDbEntity
8
angles
6
ByLayer
62
256
370
-1
100
AcDbDimension
2
*D3
10
2.72446572085e-15
20
44.4939017968
30
0
11
3.03284910299
21
46.3689017968
31
0
70
32
71
5
3
Standard
53
0
210
0
220
0
230
1
100
AcDbAlignedDimension
13
6.06569820597
23
44.4939017968
33
0
14
0
24
0
34
0
100
AcDbRotatedDimension
0
DIMENSION
5
C5
100
AcDbEntity
8
angles
6
ByLayer
62
256
370
-1
100
AcDbDimension
2
*D4
10
0
20
0
30
0
11
-21.5406214895
21
1.875
31
0
70
32
71
5
3
Standard
53
0
210
0
220
0
230
1
100
AcDbAlignedDimension
13
-43.081242979
23
-16.1189023872
33
0
14
0
24
0
34
0
100
AcDbRotatedDimension
0
DIMENSION
5
C6
100
AcDbEntity
8
angles
6
ByLayer
62
256
370
-1
100
AcDbDimension
2
*D5
10
-1.8982025268e-15
20
-30.9999998059
30
0
11
-17.7500000641
21
-29.1249998059
31
0
70
32
71
5
3
Standard
53
0
210
0
220
0
230
1
100
AcDbAlignedDimension
13
-35.5000001282
23
-29.2499996975
33
0
14
0
24
0
34
0
100
AcDbRotatedDimension
0
DIMENSION
5
C7
100
AcDbEntity
8
angles
6
ByLayer
62
256
370
-1
100
AcDbDimension
2
*D6
10
2.03287768841e-07
20
-29.249999713
30
0
11
-1.87499979671
21
-14.6249998565
31
0
70
32
71
5
3
Standard
53
0
210
0
220
0
230
1
100
AcDbAlignedDimension
13
0
23
0
33
0
14
-32.5000001282
24
-29.249999713
34
0
50
90
100
AcDbRotatedDimension
0
ARC
5
C8
100
AcDbEntity
8
0
6
ByLayer
62
256
370
-1
100
AcDbCircle
10
1.99005104861e-15
20
6.5
40
6.5
100
AcDbArc
50
317.600526636
51
222.399473364
0
ARC
5
C9
100
AcDbEntity
8
0
6
ByLayer
62
256
370
-1
100
AcDbCircle
10
0
20
0
40
4.8
100
AcDbArc
50
180
51
0
0
LINE
5
CA
100
AcDbEntity
8
0
6
ByLayer
62
256
370
-1
100
AcDbLine
10
4.8
20
-0
11
4.8
21
2.11707859984
0
LINE
5
CB
100
AcDbEntity
8
0
6
ByLayer
62
256
370
-1
100
AcDbLine
10
-4.8
20
0
11
-4.8
21
2.11707859984
0
CIRCLE
5
CC
100
AcDbEntity
8
0
6
ByLayer
62
256
370
-1
100
AcDbCircle
10
-1.67053080702e-07
20
25.1136360372
40
2
0
CIRCLE
5
CD
100
AcDbEntity
8
0
6
ByLayer
62
256
370
-1
100
AcDbCircle
10
-21.5941671546
20
-12.4673987022
40
2
0
CIRCLE
5
CE
100
AcDbEntity
8
0
6
ByLayer
62
256
370
-1
100
AcDbCircle
10
21.5941674376
20
-12.4673984825
40
2
0
CIRCLE
5
CF
100
AcDbEntity
8
Lock-system-5-10
6
ByLayer
62
256
370
-1
100
AcDbCircle
10
9.8
20
-1.22464679915e-15
40
1.5
0
CIRCLE
5
D0
100
AcDbEntity
8
Lock-system-5-10
6
ByLayer
62
256
370
-1
100
AcDbCircle
10
-9.8
20
6.12323399574e-16
40
1.5
0
CIRCLE
5
D1
100
AcDbEntity
8
Lock-system-5-10
6
ByLayer
62
256
370
-1
100
AcDbCircle
10
0
20
0
40
15
0
CIRCLE
5
D2
100
AcDbEntity
8
Lock-system-5-10
6
ByLayer
62
256
370
-1
100
AcDbCircle
10
9.8
20
-1.22464679915e-15
40
1.5
0
CIRCLE
5
D3
100
AcDbEntity
8
Lock-system-10-15
6
ByLayer
62
256
370
-1
100
AcDbCircle
10
0
20
0
40
15
0
CIRCLE
5
D4
100
AcDbEntity
8
Lock-system-10-15
6
ByLayer
62
256
370
-1
100
AcDbCircle
10
9.8
20
-1.22464679915e-15
40
1.5
0
CIRCLE
5
D5
100
AcDbEntity
8
Lock-system-10-15
6
ByLayer
62
256
370
-1
100
AcDbCircle
10
-9.8
20
6.12323399574e-16
40
1.5
0
CIRCLE
5
D6
100
AcDbEntity
8
0
6
ByLayer
62
256
370
-1
100
AcDbCircle
10
9.8
20
-1.22464679915e-15
40
1.5
0
CIRCLE
5
D7
100
AcDbEntity
8
0
6
ByLayer
62
256
370
-1
100
AcDbCircle
10
-9.8
20
6.12323399574e-16
40
1.5
0
ARC
5
D8
100
AcDbEntity
8
Lock-system-0-5
6
ByLayer
62
256
370
-1
100
AcDbCircle
10
0
20
8.08266887437e-16
40
6.6
100
AcDbArc
50
32.5155951637
51
147.484404836
0
ARC
5
D9
100
AcDbEntity
8
Lock-system-0-5
6
ByLayer
62
256
370
-1
100
AcDbCircle
10
1.99005104861e-15
20
6.5
40
6.3
100
AcDbArc
50
332.055227986
51
207.944772014
0
CIRCLE
5
DA
100
AcDbEntity
8
Lock-system-5-10
6
ByLayer
62
256
370
-1
100
AcDbCircle
10
0
20
0
40
6.6
0
CIRCLE
5
DB
100
AcDbEntity
8
Lock-system-10-15
6
ByLayer
62
256
370
-1
100
AcDbCircle
10
0
20
0
40
2.4
0
ENDSEC
0
SECTION
2
OBJECTS
0
DICTIONARY
5
C
330
0
100
AcDbDictionary
281
1
3
ACAD_GROUP
350
D
0
DICTIONARY
5
D
330
C
100
AcDbDictionary
281
1
0
ENDSEC
0
EOF
