999
dxfrw 0.5.11
0
SECTION
2
HEADER
9
$ACADVER
1
AC1021
9
$HANDSEED
5
20000
9
$DWGCODEPAGE
3
ANSI_1252
9
$INSBASE
10
0
20
0
30
0
9
$EXTMIN
10
10000000000
20
10000000000
30
0
9
$EXTMAX
10
-10000000000
20
-10000000000
30
0
9
$LIMMIN
10
0
20
0
9
$LIMMAX
10
420
20
297
9
$ORTHOMODE
70
0
9
$LTSCALE
40
1
9
$TEXTSTYLE
7
STANDARD
9
$CLAYER
8
moteurs+poulies
9
$DIMASZ
40
2.5
9
$DIMLFAC
40
1
9
$DIMSCALE
40
1
9
$DIMEXO
40
0.625
9
$DIMEXE
40
1.25
9
$DIMTXT
40
2.5
9
$DIMTSZ
40
0
9
$DIMAUNIT
70
0
9
$DIMADEC
70
2
9
$DIMLUNIT
70
2
9
$DIMSTYLE
2
STANDARD
9
$DIMGAP
40
0.625
9
$DIMTIH
70
0
9
$LUNITS
70
2
9
$LUPREC
70
4
9
$AUNITS
70
0
9
$AUPREC
70
2
9
$SPLINESEGS
70
8
9
$GRIDMODE
70
1
9
$SNAPSTYLE
70
0
9
$GRIDUNIT
10
0
20
0
9
$PINSBASE
10
0
20
0
30
0
9
$PLIMMIN
10
0
20
0
9
$PLIMMAX
10
210
20
297
9
$INSUNITS
70
4
9
$PSVPSCALE
40
1
0
ENDSEC
0
SECTION
2
CLASSES
0
ENDSEC
0
SECTION
2
TABLES
0
TABLE
2
VPORT
5
8
330
0
100
AcDbSymbolTable
70
1
0
VPORT
5
31
330
2
100
AcDbSymbolTableRecord
100
AcDbViewportTableRecord
2
*ACTIVE
70
0
10
0
20
0
11
1
21
1
12
57.1936233658
22
38.8005745039
13
0
23
0
14
10
24
10
15
10
25
10
16
0
26
0
36
1
17
0
27
0
37
0
40
83.2066496133
41
1.96421052632
42
50
43
0
44
0
50
0
51
0
71
0
72
100
73
1
74
3
75
0
76
1
77
0
78
0
281
0
65
1
110
0
120
0
130
0
111
1
121
0
131
0
112
0
122
1
132
0
79
0
146
0
348
10020
60
7
61
5
292
1
282
1
141
0
142
0
63
250
421
3358443
0
ENDTAB
0
TABLE
2
LTYPE
5
5
330
0
100
AcDbSymbolTable
70
4
0
LTYPE
5
14
330
5
100
AcDbSymbolTableRecord
100
AcDbLinetypeTableRecord
2
ByBlock
70
0
3

72
65
73
0
40
0
0
LTYPE
5
15
330
5
100
AcDbSymbolTableRecord
100
AcDbLinetypeTableRecord
2
ByLayer
70
0
3

72
65
73
0
40
0
0
LTYPE
5
16
330
5
100
AcDbSymbolTableRecord
100
AcDbLinetypeTableRecord
2
Continuous
70
0
3
Solid line
72
65
73
0
40
0
0
LTYPE
5
32
330
5
100
AcDbSymbolTableRecord
100
AcDbLinetypeTableRecord
2
DOT
70
0
3
Dot . . . . . . . . . . . . . . . . . . . . . .
72
65
73
2
40
6.35
49
0
74
0
49
-6.35
74
0
0
LTYPE
5
33
330
5
100
AcDbSymbolTableRecord
100
AcDbLinetypeTableRecord
2
DOT2
70
0
3
Dot (.5x) .....................................
72
65
73
2
40
3.175
49
0
74
0
49
-3.175
74
0
0
LTYPE
5
34
330
5
100
AcDbSymbolTableRecord
100
AcDbLinetypeTableRecord
2
DOTX2
70
0
3
Dot (2x) .  .  .  .  .  .  .  .  .  .  .  .  .
72
65
73
2
40
12.7
49
0
74
0
49
-12.7
74
0
0
LTYPE
5
35
330
5
100
AcDbSymbolTableRecord
100
AcDbLinetypeTableRecord
2
DASHED
70
0
3
Dot . . . . . . . . . . . . . . . . . . . . . .
72
65
73
2
40
19.05
49
12.7
74
0
49
-6.35
74
0
0
LTYPE
5
36
330
5
100
AcDbSymbolTableRecord
100
AcDbLinetypeTableRecord
2
DASHED2
70
0
3
Dashed (.5x) _ _ _ _ _ _ _ _ _ _ _ _ _ _ _ _ _
72
65
73
2
40
9.525
49
6.35
74
0
49
-3.175
74
0
0
LTYPE
5
37
330
5
100
AcDbSymbolTableRecord
100
AcDbLinetypeTableRecord
2
DASHEDX2
70
0
3
Dashed (2x) ____  ____  ____  ____  ____  ___
72
65
73
2
40
38.1
49
25.4
74
0
49
-12.7
74
0
0
LTYPE
5
38
330
5
100
AcDbSymbolTableRecord
100
AcDbLinetypeTableRecord
2
DASHDOT
70
0
3
Dash dot __ . __ . __ . __ . __ . __ . __ . __
72
65
73
4
40
25.4
49
12.7
74
0
49
-6.35
74
0
49
0
74
0
49
-6.35
74
0
0
LTYPE
5
39
330
5
100
AcDbSymbolTableRecord
100
AcDbLinetypeTableRecord
2
DASHDOT2
70
0
3
Dash dot (.5x) _._._._._._._._._._._._._._._.
72
65
73
4
40
12.7
49
6.35
74
0
49
-3.175
74
0
49
0
74
0
49
-3.175
74
0
0
LTYPE
5
3A
330
5
100
AcDbSymbolTableRecord
100
AcDbLinetypeTableRecord
2
DASHDOTX2
70
0
3
Dash dot (2x) ____  .  ____  .  ____  .  ___
72
65
73
4
40
50.8
49
25.4
74
0
49
-12.7
74
0
49
0
74
0
49
-12.7
74
0
0
LTYPE
5
3B
330
5
100
AcDbSymbolTableRecord
100
AcDbLinetypeTableRecord
2
DIVIDE
70
0
3
Divide ____ . . ____ . . ____ . . ____ . . ____
72
65
73
6
40
31.75
49
12.7
74
0
49
-6.35
74
0
49
0
74
0
49
-6.35
74
0
49
0
74
0
49
-6.35
74
0
0
LTYPE
5
3C
330
5
100
AcDbSymbolTableRecord
100
AcDbLinetypeTableRecord
2
DIVIDE2
70
0
3
Divide (.5x) __..__..__..__..__..__..__..__.._
72
65
73
6
40
15.875
49
6.35
74
0
49
-3.175
74
0
49
0
74
0
49
-3.175
74
0
49
0
74
0
49
-3.175
74
0
0
LTYPE
5
3D
330
5
100
AcDbSymbolTableRecord
100
AcDbLinetypeTableRecord
2
DIVIDEX2
70
0
3
Divide (2x) ________  .  .  ________  .  .  _
72
65
73
6
40
63.5
49
25.4
74
0
49
-12.7
74
0
49
0
74
0
49
-12.7
74
0
49
0
74
0
49
-12.7
74
0
0
LTYPE
5
3E
330
5
100
AcDbSymbolTableRecord
100
AcDbLinetypeTableRecord
2
BORDER
70
0
3
Border __ __ . __ __ . __ __ . __ __ . __ __ .
72
65
73
6
40
44.45
49
12.7
74
0
49
-6.35
74
0
49
12.7
74
0
49
-6.35
74
0
49
0
74
0
49
-6.35
74
0
0
LTYPE
5
3F
330
5
100
AcDbSymbolTableRecord
100
AcDbLinetypeTableRecord
2
BORDER2
70
0
3
Border (.5x) __.__.__.__.__.__.__.__.__.__.__.
72
65
73
6
40
22.225
49
6.35
74
0
49
-3.175
74
0
49
6.35
74
0
49
-3.175
74
0
49
0
74
0
49
-3.175
74
0
0
LTYPE
5
40
330
5
100
AcDbSymbolTableRecord
100
AcDbLinetypeTableRecord
2
BORDERX2
70
0
3
Border (2x) ____  ____  .  ____  ____  .  ___
72
65
73
6
40
88.9
49
25.4
74
0
49
-12.7
74
0
49
25.4
74
0
49
-12.7
74
0
49
0
74
0
49
-12.7
74
0
0
LTYPE
5
41
330
5
100
AcDbSymbolTableRecord
100
AcDbLinetypeTableRecord
2
CENTER
70
0
3
Center ____ _ ____ _ ____ _ ____ _ ____ _ ____
72
65
73
4
40
50.8
49
31.75
74
0
49
-6.35
74
0
49
6.35
74
0
49
-6.35
74
0
0
LTYPE
5
42
330
5
100
AcDbSymbolTableRecord
100
AcDbLinetypeTableRecord
2
CENTER2
70
0
3
Center (.5x) ___ _ ___ _ ___ _ ___ _ ___ _ ___
72
65
73
4
40
28.575
49
19.05
74
0
49
-3.175
74
0
49
3.175
74
0
49
-3.175
74
0
0
LTYPE
5
43
330
5
100
AcDbSymbolTableRecord
100
AcDbLinetypeTableRecord
2
CENTERX2
70
0
3
Center (2x) ________  __  ________  __  _____
72
65
73
4
40
101.6
49
63.5
74
0
49
-12.7
74
0
49
12.7
74
0
49
-12.7
74
0
0
ENDTAB
0
TABLE
2
LAYER
5
2
330
0
100
AcDbSymbolTable
70
1
0
LAYER
5
10
330
2
100
AcDbSymbolTableRecord
100
AcDbLayerTableRecord
2
0
70
4
62
7
6
CONTINUOUS
370
0
390
F
0
LAYER
5
44
330
2
100
AcDbSymbolTableRecord
100
AcDbLayerTableRecord
2
cotations
70
1
62
7
6
CONTINUOUS
370
0
390
F
0
LAYER
5
45
330
2
100
AcDbSymbolTableRecord
100
AcDbLayerTableRecord
2
for-rotules
70
5
62
7
6
CONTINUOUS
370
0
390
F
0
LAYER
5
46
330
2
100
AcDbSymbolTableRecord
100
AcDbLayerTableRecord
2
guides
70
1
62
7
6
CONTINUOUS
370
0
390
F
0
LAYER
5
47
330
2
100
AcDbSymbolTableRecord
100
AcDbLayerTableRecord
2
guides-profil-pour-3D
70
0
62
7
6
CONTINUOUS
370
0
390
F
0
LAYER
5
48
330
2
100
AcDbSymbolTableRecord
100
AcDbLayerTableRecord
2
guides-profil-pour-3D2
70
4
62
7
6
CONTINUOUS
370
0
390
F
0
LAYER
5
49
330
2
100
AcDbSymbolTableRecord
100
AcDbLayerTableRecord
2
moteurs+poulies
70
0
62
3
6
CONTINUOUS
370
0
390
F
0
LAYER
5
4A
330
2
100
AcDbSymbolTableRecord
100
AcDbLayerTableRecord
2
roulements
70
0
62
3
6
CONTINUOUS
370
0
390
F
0
ENDTAB
0
TABLE
2
STYLE
5
3
330
0
100
AcDbSymbolTable
70
3
0
STYLE
5
4B
330
2
100
AcDbSymbolTableRecord
100
AcDbTextStyleTableRecord
2
Standard
70
0
40
0
41
1
50
0
71
0
42
1
3
txt
4

0
ENDTAB
0
TABLE
2
VIEW
5
6
330
0
100
AcDbSymbolTable
70
0
0
ENDTAB
0
TABLE
2
UCS
5
7
330
0
100
AcDbSymbolTable
70
0
0
ENDTAB
0
TABLE
2
APPID
5
9
330
0
100
AcDbSymbolTable
70
1
0
APPID
5
12
330
9
100
AcDbSymbolTableRecord
100
AcDbRegAppTableRecord
2
ACAD
70
0
0
ENDTAB
0
TABLE
2
DIMSTYLE
5
A
330
0
100
AcDbSymbolTable
70
1
100
AcDbDimStyleTable
71
1
0
DIMSTYLE
105
4C
330
A
100
AcDbSymbolTableRecord
100
AcDbDimStyleTableRecord
2
Standard
70
0
40
1
41
2.5
42
0.625
43
0.38
44
1.25
45
0
46
0
47
0
48
0
140
2.5
141
0.09
142
0
143
25.4
144
1
145
0
146
1
147
0.625
148
0
71
0
72
0
73
0
74
1
75
0
76
0
77
0
78
0
79
0
170
0
171
2
172
0
173
0
174
0
175
0
176
0
177
0
178
0
179
0
271
4
272
4
273
2
274
2
275
0
276
0
277
2
278
46
279
0
280
0
281
0
282
0
283
1
284
0
285
0
286
0
288
0
289
3
340
Standard
341

371
-2
372
-2
0
ENDTAB
0
TABLE
2
BLOCK_RECORD
5
1
330
0
100
AcDbSymbolTable
70
2
0
BLOCK_RECORD
5
1F
330
1
100
AcDbSymbolTableRecord
100
AcDbBlockTableRecord
2
*Model_Space
70
0
280
1
281
0
0
BLOCK_RECORD
5
1E
330
1
100
AcDbSymbolTableRecord
100
AcDbBlockTableRecord
2
*Paper_Space
70
0
280
1
281
0
0
BLOCK_RECORD
5
4D
330
1
100
AcDbSymbolTableRecord
100
AcDbBlockTableRecord
2
*D5
70
0
280
1
281
0
0
BLOCK_RECORD
5
50
330
1
100
AcDbSymbolTableRecord
100
AcDbBlockTableRecord
2
*D1
70
0
280
1
281
0
0
BLOCK_RECORD
5
53
330
1
100
AcDbSymbolTableRecord
100
AcDbBlockTableRecord
2
*D3
70
0
280
1
281
0
0
BLOCK_RECORD
5
56
330
1
100
AcDbSymbolTableRecord
100
AcDbBlockTableRecord
2
*D7
70
0
280
1
281
0
0
BLOCK_RECORD
5
59
330
1
100
AcDbSymbolTableRecord
100
AcDbBlockTableRecord
2
*D2
70
0
280
1
281
0
0
BLOCK_RECORD
5
5C
330
1
100
AcDbSymbolTableRecord
100
AcDbBlockTableRecord
2
*D6
70
0
280
1
281
0
0
BLOCK_RECORD
5
5F
330
1
100
AcDbSymbolTableRecord
100
AcDbBlockTableRecord
2
*D4
70
0
280
1
281
0
0
BLOCK_RECORD
5
62
330
1
100
AcDbSymbolTableRecord
100
AcDbBlockTableRecord
2
a3
70
0
280
1
281
0
0
BLOCK_RECORD
5
65
330
1
100
AcDbSymbolTableRecord
100
AcDbBlockTableRecord
2
a3-0
70
0
280
1
281
0
0
BLOCK_RECORD
5
68
330
1
100
AcDbSymbolTableRecord
100
AcDbBlockTableRecord
2
foot-cotes
70
0
280
1
281
0
0
BLOCK_RECORD
5
6B
330
1
100
AcDbSymbolTableRecord
100
AcDbBlockTableRecord
2
forrotules-0
70
0
280
1
281
0
0
ENDTAB
0
ENDSEC
0
SECTION
2
BLOCKS
0
BLOCK
5
20
330
1F
100
AcDbEntity
8
0
100
AcDbBlockBegin
2
*Model_Space
70
0
10
0
20
0
30
0
3
*Model_Space
1

0
ENDBLK
5
21
330
1F
100
AcDbEntity
8
0
100
AcDbBlockEnd
0
BLOCK
5
1C
330
1B
100
AcDbEntity
8
0
100
AcDbBlockBegin
2
*Paper_Space
70
0
10
0
20
0
30
0
3
*Paper_Space
1

0
ENDBLK
5
1D
330
1F
100
AcDbEntity
8
0
100
AcDbBlockEnd
0
BLOCK
5
4E
330
4D
100
AcDbEntity
8
0
100
AcDbBlockBegin
2
*D5
70
1
10
0
20
0
3
*D5
1

0
LINE
5
6E
100
AcDbEntity
8
cotations
6
CONTINUOUS
62
7
370
0
100
AcDbLine
10
-6
20
31.5
11
-6
21
3.73034936274e-16
0
SOLID
5
6F
100
AcDbEntity
8
cotations
6
CONTINUOUS
62
7
370
0
100
AcDbTrace
10
-6
20
31.5
30
0
11
-5.58371534223
21
29
31
0
12
-6.41628465777
22
29
32
0
13
-6.41628465777
23
29
33
0
0
SOLID
5
70
100
AcDbEntity
8
cotations
6
CONTINUOUS
62
7
370
0
100
AcDbTrace
10
-6
20
3.73034936274e-16
30
0
11
-6.41628465777
21
2.5
31
0
12
-5.58371534223
22
2.5
32
0
13
-5.58371534223
23
2.5
33
0
0
MTEXT
5
71
100
AcDbEntity
8
cotations
6
CONTINUOUS
62
7
370
0
100
AcDbMText
10
-7.875
20
15.75
30
0
40
2.5
41
5.27777777778
71
5
72
1
1
31.5
7
standard
210
0
220
0
230
1
50
90
73
2
44
1
0
LINE
5
72
100
AcDbEntity
8
cotations
6
CONTINUOUS
62
7
370
0
100
AcDbLine
10
-1.625
20
31.5
11
-7.25
21
31.5
0
LINE
5
73
100
AcDbEntity
8
cotations
6
CONTINUOUS
62
7
370
0
100
AcDbLine
10
-0.625
20
7.65404249467e-17
11
-7.25
21
5.26115786167e-16
0
ENDBLK
5
4F
330
4D
100
AcDbEntity
8
0
100
AcDbBlockEnd
0
BLOCK
5
51
330
50
100
AcDbEntity
8
0
100
AcDbBlockBegin
2
*D1
70
1
10
0
20
0
3
*D1
1

0
LINE
5
74
100
AcDbEntity
8
cotations
6
CONTINUOUS
62
7
370
0
100
AcDbLine
10
12.5
20
41
11
22.5
21
41
0
SOLID
5
75
100
AcDbEntity
8
cotations
6
CONTINUOUS
62
7
370
0
100
AcDbTrace
10
12.5
20
41
30
0
11
15
21
41.4162846578
31
0
12
15
22
40.5837153422
32
0
13
15
23
40.5837153422
33
0
0
SOLID
5
76
100
AcDbEntity
8
cotations
6
CONTINUOUS
62
7
370
0
100
AcDbTrace
10
22.5
20
41
30
0
11
20
21
40.5837153422
31
0
12
20
22
41.4162846578
32
0
13
20
23
41.4162846578
33
0
0
MTEXT
5
77
100
AcDbEntity
8
cotations
6
CONTINUOUS
62
7
370
0
100
AcDbMText
10
17.5
20
42.875
30
0
40
2.5
41
2.5
71
5
72
1
1
10
7
standard
210
0
220
0
230
1
50
0
73
2
44
1
0
LINE
5
78
100
AcDbEntity
8
cotations
6
CONTINUOUS
62
7
370
0
100
AcDbLine
10
12.5
20
36.625
11
12.5
21
42.25
0
LINE
5
79
100
AcDbEntity
8
cotations
6
CONTINUOUS
62
7
370
0
100
AcDbLine
10
22.5
20
36.625
11
22.5
21
42.25
0
ENDBLK
5
52
330
50
100
AcDbEntity
8
0
100
AcDbBlockEnd
0
BLOCK
5
54
330
53
100
AcDbEntity
8
0
100
AcDbBlockBegin
2
*D3
70
1
10
0
20
0
3
*D3
1

0
LINE
5
7A
100
AcDbEntity
8
cotations
6
CONTINUOUS
62
7
370
0
100
AcDbLine
10
-14
20
-5
11
-14
21
9.5
0
SOLID
5
7B
100
AcDbEntity
8
cotations
6
CONTINUOUS
62
7
370
0
100
AcDbTrace
10
-14
20
8.881784197e-16
30
0
11
-13.5837153422
21
-2.5
31
0
12
-14.4162846578
22
-2.5
32
0
13
-14.4162846578
23
-2.5
33
0
0
SOLID
5
7C
100
AcDbEntity
8
cotations
6
CONTINUOUS
62
7
370
0
100
AcDbTrace
10
-14
20
4.5
30
0
11
-14.4162846578
21
7
31
0
12
-13.5837153422
22
7
32
0
13
-13.5837153422
23
7
33
0
0
MTEXT
5
7D
100
AcDbEntity
8
cotations
6
CONTINUOUS
62
7
370
0
100
AcDbMText
10
-15.875
20
2.25
30
0
40
2.5
41
4.16666666667
71
5
72
1
1
4.5
7
standard
210
0
220
0
230
1
50
90
73
2
44
1
0
LINE
5
7E
100
AcDbEntity
8
cotations
6
CONTINUOUS
62
7
370
0
100
AcDbLine
10
-0.625
20
7.65404249467e-17
11
-15.25
21
1.04125926959e-15
0
LINE
5
7F
100
AcDbEntity
8
cotations
6
CONTINUOUS
62
7
370
0
100
AcDbLine
10
-5.625
20
4.5
11
-15.25
21
4.5
0
ENDBLK
5
55
330
53
100
AcDbEntity
8
0
100
AcDbBlockEnd
0
BLOCK
5
57
330
56
100
AcDbEntity
8
0
100
AcDbBlockBegin
2
*D7
70
1
10
0
20
0
3
*D7
1

0
LINE
5
80
100
AcDbEntity
8
cotations
6
CONTINUOUS
62
7
370
0
100
AcDbLine
10
46
20
36.5
11
46
21
20.5
0
SOLID
5
81
100
AcDbEntity
8
cotations
6
CONTINUOUS
62
7
370
0
100
AcDbTrace
10
46
20
31.5
30
0
11
45.5837153422
21
34
31
0
12
46.4162846578
22
34
32
0
13
46.4162846578
23
34
33
0
0
SOLID
5
82
100
AcDbEntity
8
cotations
6
CONTINUOUS
62
7
370
0
100
AcDbTrace
10
46
20
25.5
30
0
11
46.4162846578
21
23
31
0
12
45.5837153422
22
23
32
0
13
45.5837153422
23
23
33
0
0
MTEXT
5
83
100
AcDbEntity
8
cotations
6
CONTINUOUS
62
7
370
0
100
AcDbMText
10
44.125
20
28.5
30
0
40
2.5
41
1.11111111111
71
5
72
1
1
6
7
standard
210
0
220
0
230
1
50
90
73
2
44
1
0
LINE
5
84
100
AcDbEntity
8
cotations
6
CONTINUOUS
62
7
370
0
100
AcDbLine
10
45.375
20
31.5
11
44.75
21
31.5
0
LINE
5
85
100
AcDbEntity
8
cotations
6
CONTINUOUS
62
7
370
0
100
AcDbLine
10
45.375
20
25.5
11
44.75
21
25.5
0
ENDBLK
5
58
330
56
100
AcDbEntity
8
0
100
AcDbBlockEnd
0
BLOCK
5
5A
330
59
100
AcDbEntity
8
0
100
AcDbBlockBegin
2
*D2
70
1
10
0
20
0
3
*D2
1

0
LINE
5
86
100
AcDbEntity
8
cotations
6
CONTINUOUS
62
7
370
0
100
AcDbLine
10
-10
20
-6
11
5
21
-6
0
SOLID
5
87
100
AcDbEntity
8
cotations
6
CONTINUOUS
62
7
370
0
100
AcDbTrace
10
-5
20
-6
30
0
11
-7.5
21
-6.41628465777
31
0
12
-7.5
22
-5.58371534223
32
0
13
-7.5
23
-5.58371534223
33
0
0
SOLID
5
88
100
AcDbEntity
8
cotations
6
CONTINUOUS
62
7
370
0
100
AcDbTrace
10
4.93038065763e-32
20
-6
30
0
11
2.5
21
-5.58371534223
31
0
12
2.5
22
-6.41628465777
32
0
13
2.5
23
-6.41628465777
33
0
0
MTEXT
5
89
100
AcDbEntity
8
cotations
6
CONTINUOUS
62
7
370
0
100
AcDbMText
10
-2.5
20
-4.125
30
0
40
2.5
41
1.11111111111
71
5
72
1
1
5
7
standard
210
0
220
0
230
1
50
0
73
2
44
1
0
LINE
5
8A
100
AcDbEntity
8
cotations
6
CONTINUOUS
62
7
370
0
100
AcDbLine
10
-5
20
29.875
11
-5
21
-7.25
0
LINE
5
8B
100
AcDbEntity
8
cotations
6
CONTINUOUS
62
7
370
0
100
AcDbLine
10
-1.1481063742e-16
20
-0.625
11
-2.2962127484e-16
21
-7.25
0
ENDBLK
5
5B
330
59
100
AcDbEntity
8
0
100
AcDbBlockEnd
0
BLOCK
5
5D
330
5C
100
AcDbEntity
8
0
100
AcDbBlockBegin
2
*D6
70
1
10
0
20
0
3
*D6
1

0
LINE
5
8C
100
AcDbEntity
8
cotations
6
CONTINUOUS
62
7
370
0
100
AcDbLine
10
40
20
2.75545529808e-16
11
0
21
2.75545529808e-16
0
SOLID
5
8D
100
AcDbEntity
8
cotations
6
CONTINUOUS
62
7
370
0
100
AcDbTrace
10
40
20
2.75545529808e-16
30
0
11
37.5
21
-0.416284657773
31
0
12
37.5
22
0.416284657773
32
0
13
37.5
23
0.416284657773
33
0
0
SOLID
5
8E
100
AcDbEntity
8
cotations
6
CONTINUOUS
62
7
370
0
100
AcDbTrace
10
0
20
2.75545529808e-16
30
0
11
2.5
21
0.416284657773
31
0
12
2.5
22
-0.416284657773
32
0
13
2.5
23
-0.416284657773
33
0
0
MTEXT
5
8F
100
AcDbEntity
8
cotations
6
CONTINUOUS
62
7
370
0
100
AcDbMText
10
20
20
1.875
30
0
40
2.5
41
3.33333333333
71
5
72
1
1
40
7
standard
210
0
220
0
230
1
50
360
73
2
44
1
0
LINE
5
90
100
AcDbEntity
8
cotations
6
CONTINUOUS
62
7
370
0
100
AcDbLine
10
40
20
3.775
11
40
21
-1.25
0
LINE
5
91
100
AcDbEntity
8
cotations
6
CONTINUOUS
62
7
370
0
100
AcDbLine
10
-1.1481063742e-16
20
-0.625
11
-2.2962127484e-16
21
-1.25
0
ENDBLK
5
5E
330
5C
100
AcDbEntity
8
0
100
AcDbBlockEnd
0
BLOCK
5
60
330
5F
100
AcDbEntity
8
0
100
AcDbBlockBegin
2
*D4
70
1
10
0
20
0
3
*D4
1

0
LINE
5
92
100
AcDbEntity
8
cotations
6
CONTINUOUS
62
7
370
0
100
AcDbLine
10
-11
20
0
11
-11
21
25.5
0
SOLID
5
93
100
AcDbEntity
8
cotations
6
CONTINUOUS
62
7
370
0
100
AcDbTrace
10
-11
20
0
30
0
11
-11.4162846578
21
2.5
31
0
12
-10.5837153422
22
2.5
32
0
13
-10.5837153422
23
2.5
33
0
0
SOLID
5
94
100
AcDbEntity
8
cotations
6
CONTINUOUS
62
7
370
0
100
AcDbTrace
10
-11
20
25.5
30
0
11
-10.5837153422
21
23
31
0
12
-11.4162846578
22
23
32
0
13
-11.4162846578
23
23
33
0
0
MTEXT
5
95
100
AcDbEntity
8
cotations
6
CONTINUOUS
62
7
370
0
100
AcDbMText
10
-12.875
20
12.75
30
0
40
2.5
41
5.83333333333
71
5
72
1
1
25.5
7
standard
210
0
220
0
230
1
50
90
73
2
44
1
0
LINE
5
96
100
AcDbEntity
8
cotations
6
CONTINUOUS
62
7
370
0
100
AcDbLine
10
-0.625
20
7.65404249467e-17
11
-12.25
21
1.53080849893e-16
0
LINE
5
97
100
AcDbEntity
8
cotations
6
CONTINUOUS
62
7
370
0
100
AcDbLine
10
-1.625
20
25.5
11
-12.25
21
25.5
0
ENDBLK
5
61
330
5F
100
AcDbEntity
8
0
100
AcDbBlockEnd
0
BLOCK
5
63
330
62
100
AcDbEntity
8
0
100
AcDbBlockBegin
2
a3
70
0
10
0
20
0
3
a3
1

0
ENDBLK
5
64
330
62
100
AcDbEntity
8
0
100
AcDbBlockEnd
0
BLOCK
5
66
330
65
100
AcDbEntity
8
0
100
AcDbBlockBegin
2
a3-0
70
0
10
0
20
0
3
a3-0
1

0
ENDBLK
5
67
330
65
100
AcDbEntity
8
0
100
AcDbBlockEnd
0
BLOCK
5
69
330
68
100
AcDbEntity
8
0
100
AcDbBlockBegin
2
foot-cotes
70
0
10
0
20
0
3
foot-cotes
1

0
ENDBLK
5
6A
330
68
100
AcDbEntity
8
0
100
AcDbBlockEnd
0
BLOCK
5
6C
330
6B
100
AcDbEntity
8
0
100
AcDbBlockBegin
2
forrotules-0
70
0
10
0
20
0
3
forrotules-0
1

0
ENDBLK
5
6D
330
6B
100
AcDbEntity
8
0
100
AcDbBlockEnd
0
ENDSEC
0
SECTION
2
ENTITIES
0
HATCH
5
98
100
AcDbEntity
8
0
6
ByLayer
62
256
370
-1
100
AcDbHatch
10
0
20
0
30
0
210
0
220
0
230
1
2
SOLID
70
1
71
0
91
1
92
0
93
64
72
1
10
35
20
22
11
35
21
35
72
1
10
35
20
35
11
22
21
35
72
1
10
22
20
35
11
22
21
33.43
72
1
10
22
20
33.43
11
25.73
21
33.43
72
1
10
25.73
20
33.43
11
25.73
21
27.23
72
1
10
25.73
20
27.23
11
22
21
27.23
72
1
10
22
20
27.23
11
13
21
27.23
72
1
10
13
20
27.23
11
9.27
21
27.23
72
1
10
9.27
20
27.23
11
9.27
21
33.43
72
1
10
9.27
20
33.43
11
13
21
33.43
72
1
10
13
20
33.43
11
13
21
35
72
1
10
13
20
35
11
0
21
35
72
1
10
0
20
35
11
0
21
22
72
1
10
0
20
22
11
1.57
21
22
72
1
10
1.57
20
22
11
1.57
21
25.73
72
1
10
1.57
20
25.73
11
7.77
21
25.73
72
1
10
7.77
20
25.73
11
7.77
21
9.27
72
1
10
7.77
20
9.27
11
1.57
21
9.27
72
1
10
1.57
20
9.27
11
1.57
21
13
72
1
10
1.57
20
13
11
0
21
13
72
1
10
0
20
13
11
0
21
0
72
1
10
0
20
0
11
13
21
0
72
1
10
13
20
0
11
13
21
1.57
72
1
10
13
20
1.57
11
9.27
21
1.57
72
1
10
9.27
20
1.57
11
9.27
21
7.77
72
1
10
9.27
20
7.77
11
13
21
7.77
72
1
10
13
20
7.77
11
22
21
7.77
72
1
10
22
20
7.77
11
25.73
21
7.77
72
1
10
25.73
20
7.77
11
25.73
21
1.57
72
1
10
25.73
20
1.57
11
22
21
1.57
72
1
10
22
20
1.57
11
22
21
0
72
1
10
22
20
0
11
35
21
0
72
1
10
35
20
0
11
35
21
13
72
1
10
35
20
13
11
33.43
21
13
72
1
10
33.43
20
13
11
33.43
21
9.27
72
1
10
33.43
20
9.27
11
27.23
21
9.27
72
1
10
27.23
20
9.27
11
27.23
21
25.73
72
1
10
27.23
20
25.73
11
33.43
21
25.73
72
1
10
33.43
20
25.73
11
33.43
21
22
72
1
10
33.43
20
22
11
35
21
22
72
1
10
33.43
20
27.23
11
33.43
21
33.43
72
1
10
33.43
20
33.43
11
27.23
21
33.43
72
1
10
27.23
20
33.43
11
27.23
21
27.23
72
1
10
27.23
20
27.23
11
33.43
21
27.23
72
1
10
25.73
20
25.73
11
22
21
25.73
72
1
10
22
20
25.73
11
13
21
25.73
72
1
10
13
20
25.73
11
9.27
21
25.73
72
1
10
9.27
20
25.73
11
9.27
21
9.27
72
1
10
9.27
20
9.27
11
13
21
9.27
72
1
10
13
20
9.27
11
22
21
9.27
72
1
10
22
20
9.27
11
25.73
21
9.27
72
1
10
25.73
20
9.27
11
25.73
21
25.73
72
1
10
1.57
20
27.23
11
1.57
21
33.43
72
1
10
1.57
20
33.43
11
7.77
21
33.43
72
1
10
7.77
20
33.43
11
7.77
21
27.23
72
1
10
7.77
20
27.23
11
1.57
21
27.23
72
1
10
33.43
20
7.77
11
33.43
21
1.57
72
1
10
33.43
20
1.57
11
27.23
21
1.57
72
1
10
27.23
20
1.57
11
27.23
21
7.77
72
1
10
27.23
20
7.77
11
33.43
21
7.77
72
1
10
1.57
20
7.77
11
1.57
21
1.57
72
1
10
1.57
20
1.57
11
7.77
21
1.57
72
1
10
7.77
20
1.57
11
7.77
21
7.77
72
1
10
7.77
20
7.77
11
1.57
21
7.77
97
0
75
0
76
1
98
0
0
LINE
5
99
100
AcDbEntity
8
0
6
ByLayer
62
256
370
-1
100
AcDbLine
10
22
20
35
11
35
21
35
0
LINE
5
9A
100
AcDbEntity
8
0
6
ByLayer
62
256
370
-1
100
AcDbLine
10
22
20
35
11
22
21
33.43
0
LINE
5
9B
100
AcDbEntity
8
0
6
ByLayer
62
256
370
-1
100
AcDbLine
10
33.43
20
22
11
35
21
22
0
LINE
5
9C
100
AcDbEntity
8
0
6
ByLayer
62
256
370
-1
100
AcDbLine
10
25.73
20
33.43
11
22
21
33.43
0
LINE
5
9D
100
AcDbEntity
8
0
6
ByLayer
62
256
370
-1
100
AcDbLine
10
33.43
20
27.23
11
33.43
21
33.43
0
LINE
5
9E
100
AcDbEntity
8
0
6
ByLayer
62
256
370
-1
100
AcDbLine
10
33.43
20
33.43
11
27.23
21
33.43
0
LINE
5
9F
100
AcDbEntity
8
0
6
ByLayer
62
256
370
-1
100
AcDbLine
10
27.23
20
27.23
11
27.23
21
33.43
0
LINE
5
A0
100
AcDbEntity
8
0
6
ByLayer
62
256
370
-1
100
AcDbLine
10
33.43
20
22
11
33.43
21
25.73
0
LINE
5
A1
100
AcDbEntity
8
0
6
ByLayer
62
256
370
-1
100
AcDbLine
10
25.73
20
27.23
11
22
21
27.23
0
LINE
5
A2
100
AcDbEntity
8
0
6
ByLayer
62
256
370
-1
100
AcDbLine
10
25.73
20
27.23
11
25.73
21
33.43
0
LINE
5
A3
100
AcDbEntity
8
0
6
ByLayer
62
256
370
-1
100
AcDbLine
10
27.23
20
27.23
11
33.43
21
27.23
0
LINE
5
A4
100
AcDbEntity
8
0
6
ByLayer
62
256
370
-1
100
AcDbLine
10
33.43
20
25.73
11
27.23
21
25.73
0
LINE
5
A5
100
AcDbEntity
8
0
6
ByLayer
62
256
370
-1
100
AcDbLine
10
25.73
20
25.73
11
22
21
25.73
0
LINE
5
A6
100
AcDbEntity
8
0
6
ByLayer
62
256
370
-1
100
AcDbLine
10
0
20
22
11
0
21
35
0
LINE
5
A7
100
AcDbEntity
8
0
6
ByLayer
62
256
370
-1
100
AcDbLine
10
13
20
35
11
0
21
35
0
LINE
5
A8
100
AcDbEntity
8
0
6
ByLayer
62
256
370
-1
100
AcDbLine
10
13
20
35
11
13
21
33.43
0
LINE
5
A9
100
AcDbEntity
8
0
6
ByLayer
62
256
370
-1
100
AcDbLine
10
1.57
20
22
11
0
21
22
0
LINE
5
AA
100
AcDbEntity
8
0
6
ByLayer
62
256
370
-1
100
AcDbLine
10
9.27
20
33.43
11
13
21
33.43
0
LINE
5
AB
100
AcDbEntity
8
0
6
ByLayer
62
256
370
-1
100
AcDbLine
10
1.57
20
27.23
11
1.57
21
33.43
0
LINE
5
AC
100
AcDbEntity
8
0
6
ByLayer
62
256
370
-1
100
AcDbLine
10
1.57
20
33.43
11
7.77
21
33.43
0
LINE
5
AD
100
AcDbEntity
8
0
6
ByLayer
62
256
370
-1
100
AcDbLine
10
7.77
20
27.23
11
7.77
21
33.43
0
LINE
5
AE
100
AcDbEntity
8
0
6
ByLayer
62
256
370
-1
100
AcDbLine
10
1.57
20
22
11
1.57
21
25.73
0
LINE
5
AF
100
AcDbEntity
8
0
6
ByLayer
62
256
370
-1
100
AcDbLine
10
9.27
20
27.23
11
13
21
27.23
0
LINE
5
B0
100
AcDbEntity
8
0
6
ByLayer
62
256
370
-1
100
AcDbLine
10
9.27
20
27.23
11
9.27
21
33.43
0
LINE
5
B1
100
AcDbEntity
8
0
6
ByLayer
62
256
370
-1
100
AcDbLine
10
7.77
20
27.23
11
1.57
21
27.23
0
LINE
5
B2
100
AcDbEntity
8
0
6
ByLayer
62
256
370
-1
100
AcDbLine
10
1.57
20
25.73
11
7.77
21
25.73
0
LINE
5
B3
100
AcDbEntity
8
0
6
ByLayer
62
256
370
-1
100
AcDbLine
10
9.27
20
25.73
11
13
21
25.73
0
LINE
5
B4
100
AcDbEntity
8
0
6
ByLayer
62
256
370
-1
100
AcDbLine
10
35
20
13
11
35
21
0
0
LINE
5
B5
100
AcDbEntity
8
0
6
ByLayer
62
256
370
-1
100
AcDbLine
10
22
20
0
11
35
21
0
0
LINE
5
B6
100
AcDbEntity
8
0
6
ByLayer
62
256
370
-1
100
AcDbLine
10
22
20
0
11
22
21
1.57
0
LINE
5
B7
100
AcDbEntity
8
0
6
ByLayer
62
256
370
-1
100
AcDbLine
10
33.43
20
13
11
35
21
13
0
LINE
5
B8
100
AcDbEntity
8
0
6
ByLayer
62
256
370
-1
100
AcDbLine
10
25.73
20
1.57
11
22
21
1.57
0
LINE
5
B9
100
AcDbEntity
8
0
6
ByLayer
62
256
370
-1
100
AcDbLine
10
33.43
20
7.77
11
33.43
21
1.57
0
LINE
5
BA
100
AcDbEntity
8
0
6
ByLayer
62
256
370
-1
100
AcDbLine
10
33.43
20
1.57
11
27.23
21
1.57
0
LINE
5
BB
100
AcDbEntity
8
0
6
ByLayer
62
256
370
-1
100
AcDbLine
10
27.23
20
7.77
11
27.23
21
1.57
0
LINE
5
BC
100
AcDbEntity
8
0
6
ByLayer
62
256
370
-1
100
AcDbLine
10
33.43
20
13
11
33.43
21
9.27
0
LINE
5
BD
100
AcDbEntity
8
0
6
ByLayer
62
256
370
-1
100
AcDbLine
10
25.73
20
7.77
11
22
21
7.77
0
LINE
5
BE
100
AcDbEntity
8
0
6
ByLayer
62
256
370
-1
100
AcDbLine
10
25.73
20
7.77
11
25.73
21
1.57
0
LINE
5
BF
100
AcDbEntity
8
0
6
ByLayer
62
256
370
-1
100
AcDbLine
10
27.23
20
7.77
11
33.43
21
7.77
0
LINE
5
C0
100
AcDbEntity
8
0
6
ByLayer
62
256
370
-1
100
AcDbLine
10
33.43
20
9.27
11
27.23
21
9.27
0
LINE
5
C1
100
AcDbEntity
8
0
6
ByLayer
62
256
370
-1
100
AcDbLine
10
25.73
20
9.27
11
22
21
9.27
0
LINE
5
C2
100
AcDbEntity
8
0
6
ByLayer
62
256
370
-1
100
AcDbLine
10
0
20
13
11
0
21
0
0
LINE
5
C3
100
AcDbEntity
8
0
6
ByLayer
62
256
370
-1
100
AcDbLine
10
13
20
0
11
0
21
0
0
LINE
5
C4
100
AcDbEntity
8
0
6
ByLayer
62
256
370
-1
100
AcDbLine
10
13
20
0
11
13
21
1.57
0
LINE
5
C5
100
AcDbEntity
8
0
6
ByLayer
62
256
370
-1
100
AcDbLine
10
1.57
20
13
11
0
21
13
0
LINE
5
C6
100
AcDbEntity
8
0
6
ByLayer
62
256
370
-1
100
AcDbLine
10
9.27
20
1.57
11
13
21
1.57
0
LINE
5
C7
100
AcDbEntity
8
0
6
ByLayer
62
256
370
-1
100
AcDbLine
10
1.57
20
7.77
11
1.57
21
1.57
0
LINE
5
C8
100
AcDbEntity
8
0
6
ByLayer
62
256
370
-1
100
AcDbLine
10
1.57
20
1.57
11
7.77
21
1.57
0
LINE
5
C9
100
AcDbEntity
8
0
6
ByLayer
62
256
370
-1
100
AcDbLine
10
7.77
20
7.77
11
7.77
21
1.57
0
LINE
5
CA
100
AcDbEntity
8
0
6
ByLayer
62
256
370
-1
100
AcDbLine
10
1.57
20
13
11
1.57
21
9.27
0
LINE
5
CB
100
AcDbEntity
8
0
6
ByLayer
62
256
370
-1
100
AcDbLine
10
9.27
20
7.77
11
13
21
7.77
0
LINE
5
CC
100
AcDbEntity
8
0
6
ByLayer
62
256
370
-1
100
AcDbLine
10
9.27
20
7.77
11
9.27
21
1.57
0
LINE
5
CD
100
AcDbEntity
8
0
6
ByLayer
62
256
370
-1
100
AcDbLine
10
7.77
20
7.77
11
1.57
21
7.77
0
LINE
5
CE
100
AcDbEntity
8
0
6
ByLayer
62
256
370
-1
100
AcDbLine
10
1.57
20
9.27
11
7.77
21
9.27
0
LINE
5
CF
100
AcDbEntity
8
0
6
ByLayer
62
256
370
-1
100
AcDbLine
10
9.27
20
9.27
11
13
21
9.27
0
LINE
5
D0
100
AcDbEntity
8
0
6
ByLayer
62
256
370
-1
100
AcDbLine
10
7.77
20
25.73
11
7.77
21
9.27
0
LINE
5
D1
100
AcDbEntity
8
0
6
ByLayer
62
256
370
-1
100
AcDbLine
10
9.27
20
9.27
11
9.27
21
25.73
0
LINE
5
D2
100
AcDbEntity
8
0
6
ByLayer
62
256
370
-1
100
AcDbLine
10
13
20
25.73
11
22
21
25.73
0
LINE
5
D3
100
AcDbEntity
8
0
6
ByLayer
62
256
370
-1
100
AcDbLine
10
13
20
27.23
11
22
21
27.23
0
LINE
5
D4
100
AcDbEntity
8
0
6
ByLayer
62
256
370
-1
100
AcDbLine
10
27.23
20
25.73
11
27.23
21
9.27
0
LINE
5
D5
100
AcDbEntity
8
0
6
ByLayer
62
256
370
-1
100
AcDbLine
10
25.73
20
25.73
11
25.73
21
9.27
0
LINE
5
D6
100
AcDbEntity
8
0
6
ByLayer
62
256
370
-1
100
AcDbLine
10
22
20
9.27
11
13
21
9.27
0
LINE
5
D7
100
AcDbEntity
8
0
6
ByLayer
62
256
370
-1
100
AcDbLine
10
13
20
7.77
11
22
21
7.77
0
LINE
5
D8
100
AcDbEntity
8
roulements
6
ByLayer
62
256
370
-1
100
AcDbLine
10
35
20
30.5
11
45
21
30.5
0
LINE
5
D9
100
AcDbEntity
8
roulements
6
ByLayer
62
256
370
-1
100
AcDbLine
10
45
20
26.5
11
45
21
30.5
0
LINE
5
DA
100
AcDbEntity
8
roulements
6
ByLayer
62
256
370
-1
100
AcDbLine
10
35
20
26.5
11
45
21
26.5
0
LINE
5
DB
100
AcDbEntity
8
roulements
6
ByLayer
62
256
370
-1
100
AcDbLine
10
35
20
30.5
11
35
21
26.5
0
LINE
5
DC
100
AcDbEntity
8
roulements
6
ByLayer
62
256
370
-1
100
AcDbLine
10
0
20
30.5
11
-10
21
30.5
0
LINE
5
DD
100
AcDbEntity
8
roulements
6
ByLayer
62
256
370
-1
100
AcDbLine
10
-10
20
26.5
11
-10
21
30.5
0
LINE
5
DE
100
AcDbEntity
8
roulements
6
ByLayer
62
256
370
-1
100
AcDbLine
10
0
20
26.5
11
-10
21
26.5
0
LINE
5
DF
100
AcDbEntity
8
roulements
6
ByLayer
62
256
370
-1
100
AcDbLine
10
0
20
30.5
11
0
21
26.5
0
LINE
5
E0
100
AcDbEntity
8
roulements
6
ByLayer
62
256
370
-1
100
AcDbLine
10
35
20
4.5
11
45
21
4.5
0
LINE
5
E1
100
AcDbEntity
8
roulements
6
ByLayer
62
256
370
-1
100
AcDbLine
10
45
20
8.5
11
45
21
4.5
0
LINE
5
E2
100
AcDbEntity
8
roulements
6
ByLayer
62
256
370
-1
100
AcDbLine
10
35
20
8.5
11
45
21
8.5
0
LINE
5
E3
100
AcDbEntity
8
roulements
6
ByLayer
62
256
370
-1
100
AcDbLine
10
35
20
4.5
11
35
21
8.5
0
LINE
5
E4
100
AcDbEntity
8
roulements
6
ByLayer
62
256
370
-1
100
AcDbLine
10
-7.1054273576e-15
20
4.5
11
-10
21
4.5
0
LINE
5
E5
100
AcDbEntity
8
roulements
6
ByLayer
62
256
370
-1
100
AcDbLine
10
-10
20
8.5
11
-10
21
4.5
0
LINE
5
E6
100
AcDbEntity
8
roulements
6
ByLayer
62
256
370
-1
100
AcDbLine
10
-7.1054273576e-15
20
8.5
11
-10
21
8.5
0
LINE
5
E7
100
AcDbEntity
8
roulements
6
ByLayer
62
256
370
-1
100
AcDbLine
10
-7.1054273576e-15
20
4.5
11
-7.1054273576e-15
21
8.5
0
LINE
5
E8
100
AcDbEntity
8
roulements
6
ByLayer
62
256
370
-1
100
AcDbLine
10
4.5
20
0
11
4.5
21
-10
0
LINE
5
E9
100
AcDbEntity
8
roulements
6
ByLayer
62
256
370
-1
100
AcDbLine
10
8.5
20
-10
11
4.5
21
-10
0
LINE
5
EA
100
AcDbEntity
8
roulements
6
ByLayer
62
256
370
-1
100
AcDbLine
10
8.5
20
0
11
8.5
21
-10
0
LINE
5
EB
100
AcDbEntity
8
roulements
6
ByLayer
62
256
370
-1
100
AcDbLine
10
4.5
20
0
11
8.5
21
0
0
LINE
5
EC
100
AcDbEntity
8
roulements
6
ByLayer
62
256
370
-1
100
AcDbLine
10
4.5
20
35
11
4.5
21
45
0
LINE
5
ED
100
AcDbEntity
8
roulements
6
ByLayer
62
256
370
-1
100
AcDbLine
10
8.5
20
45
11
4.5
21
45
0
LINE
5
EE
100
AcDbEntity
8
roulements
6
ByLayer
62
256
370
-1
100
AcDbLine
10
8.5
20
35
11
8.5
21
45
0
LINE
5
EF
100
AcDbEntity
8
roulements
6
ByLayer
62
256
370
-1
100
AcDbLine
10
4.5
20
35
11
8.5
21
35
0
LINE
5
F0
100
AcDbEntity
8
roulements
6
ByLayer
62
256
370
-1
100
AcDbLine
10
30.5
20
0
11
30.5
21
-10
0
LINE
5
F1
100
AcDbEntity
8
roulements
6
ByLayer
62
256
370
-1
100
AcDbLine
10
26.5
20
-10
11
30.5
21
-10
0
LINE
5
F2
100
AcDbEntity
8
roulements
6
ByLayer
62
256
370
-1
100
AcDbLine
10
26.5
20
0
11
26.5
21
-10
0
LINE
5
F3
100
AcDbEntity
8
roulements
6
ByLayer
62
256
370
-1
100
AcDbLine
10
30.5
20
0
11
26.5
21
0
0
LINE
5
F4
100
AcDbEntity
8
roulements
6
ByLayer
62
256
370
-1
100
AcDbLine
10
30.5
20
35
11
30.5
21
45
0
LINE
5
F5
100
AcDbEntity
8
roulements
6
ByLayer
62
256
370
-1
100
AcDbLine
10
26.5
20
45
11
30.5
21
45
0
LINE
5
F6
100
AcDbEntity
8
roulements
6
ByLayer
62
256
370
-1
100
AcDbLine
10
26.5
20
35
11
26.5
21
45
0
LINE
5
F7
100
AcDbEntity
8
roulements
6
ByLayer
62
256
370
-1
100
AcDbLine
10
30.5
20
35
11
26.5
21
35
0
LINE
5
F8
100
AcDbEntity
8
roulements
6
ByLayer
62
256
370
-1
100
AcDbLine
10
26.5
20
41.5
11
30.5
21
41.5
0
LINE
5
F9
100
AcDbEntity
8
roulements
6
ByLayer
62
256
370
-1
100
AcDbLine
10
30.5
20
38.5
11
26.5
21
38.5
0
LINE
5
FA
100
AcDbEntity
8
roulements
6
ByLayer
62
256
370
-1
100
AcDbLine
10
41.5
20
26.5
11
41.5
21
30.5
0
LINE
5
FB
100
AcDbEntity
8
roulements
6
ByLayer
62
256
370
-1
100
AcDbLine
10
38.5
20
30.5
11
38.5
21
26.5
0
LINE
5
FC
100
AcDbEntity
8
roulements
6
ByLayer
62
256
370
-1
100
AcDbLine
10
41.5
20
8.5
11
41.5
21
4.5
0
LINE
5
FD
100
AcDbEntity
8
roulements
6
ByLayer
62
256
370
-1
100
AcDbLine
10
26.5
20
-6.5
11
30.5
21
-6.5
0
LINE
5
FE
100
AcDbEntity
8
roulements
6
ByLayer
62
256
370
-1
100
AcDbLine
10
8.5
20
-6.5
11
4.5
21
-6.5
0
LINE
5
FF
100
AcDbEntity
8
roulements
6
ByLayer
62
256
370
-1
100
AcDbLine
10
-3.5
20
4.5
11
-3.5
21
8.5
0
LINE
5
100
100
AcDbEntity
8
roulements
6
ByLayer
62
256
370
-1
100
AcDbLine
10
-6.5
20
8.5
11
-6.5
21
4.5
0
LINE
5
101
100
AcDbEntity
8
roulements
6
ByLayer
62
256
370
-1
100
AcDbLine
10
-6.5
20
26.5
11
-6.5
21
30.5
0
LINE
5
102
100
AcDbEntity
8
roulements
6
ByLayer
62
256
370
-1
100
AcDbLine
10
8.5
20
41.5
11
4.5
21
41.5
0
LINE
5
103
100
AcDbEntity
8
roulements
6
ByLayer
62
256
370
-1
100
AcDbLine
10
8.5
20
38.5
11
4.5
21
38.5
0
LINE
5
104
100
AcDbEntity
8
roulements
6
ByLayer
62
256
370
-1
100
AcDbLine
10
38.5
20
8.5
11
38.5
21
4.5
0
LINE
5
105
100
AcDbEntity
8
roulements
6
ByLayer
62
256
370
-1
100
AcDbLine
10
26.5
20
-3.5
11
30.5
21
-3.5
0
LINE
5
106
100
AcDbEntity
8
roulements
6
ByLayer
62
256
370
-1
100
AcDbLine
10
8.5
20
-3.5
11
4.5
21
-3.5
0
LINE
5
107
100
AcDbEntity
8
roulements
6
ByLayer
62
256
370
-1
100
AcDbLine
10
-3.5
20
26.5
11
-3.5
21
30.5
0
LINE
5
108
100
AcDbEntity
8
guides
6
ByLayer
62
256
370
-1
100
AcDbLine
10
4.4
20
38.5
11
4.4
21
41.5
0
LINE
5
109
100
AcDbEntity
8
guides
6
ByLayer
62
256
370
-1
100
AcDbLine
10
3.5
20
45
11
4.4
21
41.5
0
LINE
5
10A
100
AcDbEntity
8
guides
6
ByLayer
62
256
370
-1
100
AcDbLine
10
8.6
20
38.5
11
8.6
21
41.5
0
LINE
5
10B
100
AcDbEntity
8
guides
6
ByLayer
62
256
370
-1
100
AcDbLine
10
9.5
20
45
11
8.6
21
41.5
0
LINE
5
10C
100
AcDbEntity
8
guides
6
ByLayer
62
256
370
-1
100
AcDbLine
10
3.75714285714
20
36
11
4.4
21
38.5
0
LINE
5
10D
100
AcDbEntity
8
guides
6
ByLayer
62
256
370
-1
100
AcDbLine
10
9.24285714286
20
36
11
8.6
21
38.5
0
LINE
5
10E
100
AcDbEntity
8
guides
6
ByLayer
62
256
370
-1
100
AcDbLine
10
9.24285714286
20
36
11
12.5
21
36
0
LINE
5
10F
100
AcDbEntity
8
guides
6
ByLayer
62
256
370
-1
100
AcDbLine
10
3.5
20
45
11
3.5
21
46
0
LINE
5
110
100
AcDbEntity
8
guides
6
ByLayer
62
256
370
-1
100
AcDbLine
10
9.5
20
45
11
9.5
21
46
0
LINE
5
111
100
AcDbEntity
8
guides
6
ByLayer
62
256
370
-1
100
AcDbLine
10
3.5
20
46
11
9.5
21
46
0
LINE
5
112
100
AcDbEntity
8
guides
6
ByLayer
62
256
370
-1
100
AcDbLine
10
30.6
20
38.5
11
30.6
21
41.5
0
LINE
5
113
100
AcDbEntity
8
guides
6
ByLayer
62
256
370
-1
100
AcDbLine
10
31.5
20
45
11
30.6
21
41.5
0
LINE
5
114
100
AcDbEntity
8
guides
6
ByLayer
62
256
370
-1
100
AcDbLine
10
26.4
20
38.5
11
26.4
21
41.5
0
LINE
5
115
100
AcDbEntity
8
guides
6
ByLayer
62
256
370
-1
100
AcDbLine
10
25.5
20
45
11
26.4
21
41.5
0
LINE
5
116
100
AcDbEntity
8
guides
6
ByLayer
62
256
370
-1
100
AcDbLine
10
31.2428571429
20
36
11
30.6
21
38.5
0
LINE
5
117
100
AcDbEntity
8
guides
6
ByLayer
62
256
370
-1
100
AcDbLine
10
25.7571428571
20
36
11
26.4
21
38.5
0
LINE
5
118
100
AcDbEntity
8
guides
6
ByLayer
62
256
370
-1
100
AcDbLine
10
25.7571428571
20
36
11
22.5
21
36
0
LINE
5
119
100
AcDbEntity
8
guides
6
ByLayer
62
256
370
-1
100
AcDbLine
10
31.5
20
45
11
31.5
21
46
0
LINE
5
11A
100
AcDbEntity
8
guides
6
ByLayer
62
256
370
-1
100
AcDbLine
10
25.5
20
45
11
25.5
21
46
0
LINE
5
11B
100
AcDbEntity
8
guides
6
ByLayer
62
256
370
-1
100
AcDbLine
10
31.5
20
46
11
25.5
21
46
0
LINE
5
11C
100
AcDbEntity
8
guides
6
ByLayer
62
256
370
-1
100
AcDbLine
10
22.5
20
46
11
22.5
21
36
0
LINE
5
11D
100
AcDbEntity
8
guides
6
ByLayer
62
256
370
-1
100
AcDbLine
10
12.5
20
46
11
12.5
21
36
0
LINE
5
11E
100
AcDbEntity
8
guides
6
ByLayer
62
256
370
-1
100
AcDbLine
10
12.5
20
46
11
22.5
21
46
0
LINE
5
11F
100
AcDbEntity
8
guides
6
ByLayer
62
256
370
-1
100
AcDbLine
10
0.5
20
49
11
34.5
21
49
0
DIMENSION
5
120
100
AcDbEntity
8
cotations
6
ByLayer
62
256
370
-1
100
AcDbDimension
2
*D1
10
22.5
20
41
30
0
11
17.5
21
42.875
31
0
70
32
71
5
72
0
3
Standard
53
0
210
0
220
0
230
1
100
AcDbAlignedDimension
13
12.5
23
36
33
0
14
22.5
24
36
34
0
100
AcDbRotatedDimension
0
LINE
5
121
100
AcDbEntity
8
guides
6
ByLayer
62
256
370
-1
100
AcDbLine
10
38.5
20
4.4
11
41.5
21
4.4
0
LINE
5
122
100
AcDbEntity
8
guides
6
ByLayer
62
256
370
-1
100
AcDbLine
10
45
20
3.5
11
41.5
21
4.4
0
LINE
5
123
100
AcDbEntity
8
guides
6
ByLayer
62
256
370
-1
100
AcDbLine
10
38.5
20
8.6
11
41.5
21
8.6
0
LINE
5
124
100
AcDbEntity
8
guides
6
ByLayer
62
256
370
-1
100
AcDbLine
10
45
20
9.5
11
41.5
21
8.6
0
LINE
5
125
100
AcDbEntity
8
guides
6
ByLayer
62
256
370
-1
100
AcDbLine
10
36
20
3.75714285714
11
38.5
21
4.4
0
LINE
5
126
100
AcDbEntity
8
guides
6
ByLayer
62
256
370
-1
100
AcDbLine
10
36
20
9.24285714286
11
38.5
21
8.6
0
LINE
5
127
100
AcDbEntity
8
guides
6
ByLayer
62
256
370
-1
100
AcDbLine
10
36
20
9.24285714286
11
36
21
12.5
0
LINE
5
128
100
AcDbEntity
8
guides
6
ByLayer
62
256
370
-1
100
AcDbLine
10
45
20
3.5
11
46
21
3.5
0
LINE
5
129
100
AcDbEntity
8
guides
6
ByLayer
62
256
370
-1
100
AcDbLine
10
45
20
9.5
11
46
21
9.5
0
LINE
5
12A
100
AcDbEntity
8
guides
6
ByLayer
62
256
370
-1
100
AcDbLine
10
46
20
3.5
11
46
21
9.5
0
LINE
5
12B
100
AcDbEntity
8
guides
6
ByLayer
62
256
370
-1
100
AcDbLine
10
38.5
20
30.6
11
41.5
21
30.6
0
LINE
5
12C
100
AcDbEntity
8
guides
6
ByLayer
62
256
370
-1
100
AcDbLine
10
45
20
31.5
11
41.5
21
30.6
0
LINE
5
12D
100
AcDbEntity
8
guides
6
ByLayer
62
256
370
-1
100
AcDbLine
10
38.5
20
26.4
11
41.5
21
26.4
0
LINE
5
12E
100
AcDbEntity
8
guides
6
ByLayer
62
256
370
-1
100
AcDbLine
10
45
20
25.5
11
41.5
21
26.4
0
LINE
5
12F
100
AcDbEntity
8
guides
6
ByLayer
62
256
370
-1
100
AcDbLine
10
36
20
31.2428571429
11
38.5
21
30.6
0
LINE
5
130
100
AcDbEntity
8
guides
6
ByLayer
62
256
370
-1
100
AcDbLine
10
36
20
25.7571428571
11
38.5
21
26.4
0
LINE
5
131
100
AcDbEntity
8
guides
6
ByLayer
62
256
370
-1
100
AcDbLine
10
36
20
25.7571428571
11
36
21
22.5
0
LINE
5
132
100
AcDbEntity
8
guides
6
ByLayer
62
256
370
-1
100
AcDbLine
10
45
20
31.5
11
46
21
31.5
0
LINE
5
133
100
AcDbEntity
8
guides
6
ByLayer
62
256
370
-1
100
AcDbLine
10
45
20
25.5
11
46
21
25.5
0
LINE
5
134
100
AcDbEntity
8
guides
6
ByLayer
62
256
370
-1
100
AcDbLine
10
46
20
31.5
11
46
21
25.5
0
LINE
5
135
100
AcDbEntity
8
guides
6
ByLayer
62
256
370
-1
100
AcDbLine
10
46
20
22.5
11
36
21
22.5
0
LINE
5
136
100
AcDbEntity
8
guides
6
ByLayer
62
256
370
-1
100
AcDbLine
10
46
20
12.5
11
36
21
12.5
0
LINE
5
137
100
AcDbEntity
8
guides
6
ByLayer
62
256
370
-1
100
AcDbLine
10
46
20
12.5
11
46
21
22.5
0
LINE
5
138
100
AcDbEntity
8
guides
6
ByLayer
62
256
370
-1
100
AcDbLine
10
49
20
0.5
11
49
21
34.5
0
LINE
5
139
100
AcDbEntity
8
guides
6
ByLayer
62
256
370
-1
100
AcDbLine
10
34.5
20
49
11
49
21
34.5
0
LINE
5
13A
100
AcDbEntity
8
guides
6
ByLayer
62
256
370
-1
100
AcDbLine
10
36
20
36
11
36
21
31.2428571429
0
LINE
5
13B
100
AcDbEntity
8
guides
6
ByLayer
62
256
370
-1
100
AcDbLine
10
36
20
36
11
31.2428571429
21
36
0
LINE
5
13C
100
AcDbEntity
8
guides
6
ByLayer
62
256
370
-1
100
AcDbLine
10
-3.5
20
30.6
11
-6.5
21
30.6
0
LINE
5
13D
100
AcDbEntity
8
guides
6
ByLayer
62
256
370
-1
100
AcDbLine
10
-10
20
31.5
11
-6.5
21
30.6
0
LINE
5
13E
100
AcDbEntity
8
guides
6
ByLayer
62
256
370
-1
100
AcDbLine
10
-3.5
20
26.4
11
-6.5
21
26.4
0
LINE
5
13F
100
AcDbEntity
8
guides
6
ByLayer
62
256
370
-1
100
AcDbLine
10
-10
20
25.5
11
-6.5
21
26.4
0
LINE
5
140
100
AcDbEntity
8
guides
6
ByLayer
62
256
370
-1
100
AcDbLine
10
-1
20
31.2428571429
11
-3.5
21
30.6
0
LINE
5
141
100
AcDbEntity
8
guides
6
ByLayer
62
256
370
-1
100
AcDbLine
10
-1
20
25.7571428571
11
-3.5
21
26.4
0
LINE
5
142
100
AcDbEntity
8
guides
6
ByLayer
62
256
370
-1
100
AcDbLine
10
-1
20
25.7571428571
11
-1
21
22.5
0
LINE
5
143
100
AcDbEntity
8
guides
6
ByLayer
62
256
370
-1
100
AcDbLine
10
-10
20
31.5
11
-11
21
31.5
0
LINE
5
144
100
AcDbEntity
8
guides
6
ByLayer
62
256
370
-1
100
AcDbLine
10
-10
20
25.5
11
-11
21
25.5
0
LINE
5
145
100
AcDbEntity
8
guides
6
ByLayer
62
256
370
-1
100
AcDbLine
10
-11
20
31.5
11
-11
21
25.5
0
LINE
5
146
100
AcDbEntity
8
guides
6
ByLayer
62
256
370
-1
100
AcDbLine
10
-3.5
20
4.4
11
-6.5
21
4.4
0
LINE
5
147
100
AcDbEntity
8
guides
6
ByLayer
62
256
370
-1
100
AcDbLine
10
-10
20
3.5
11
-6.5
21
4.4
0
LINE
5
148
100
AcDbEntity
8
guides
6
ByLayer
62
256
370
-1
100
AcDbLine
10
-3.5
20
8.6
11
-6.5
21
8.6
0
LINE
5
149
100
AcDbEntity
8
guides
6
ByLayer
62
256
370
-1
100
AcDbLine
10
-10
20
9.5
11
-6.5
21
8.6
0
LINE
5
14A
100
AcDbEntity
8
guides
6
ByLayer
62
256
370
-1
100
AcDbLine
10
-1
20
3.75714285714
11
-3.5
21
4.4
0
LINE
5
14B
100
AcDbEntity
8
guides
6
ByLayer
62
256
370
-1
100
AcDbLine
10
-1
20
9.24285714286
11
-3.5
21
8.6
0
LINE
5
14C
100
AcDbEntity
8
guides
6
ByLayer
62
256
370
-1
100
AcDbLine
10
-1
20
9.24285714286
11
-1
21
12.5
0
LINE
5
14D
100
AcDbEntity
8
guides
6
ByLayer
62
256
370
-1
100
AcDbLine
10
-10
20
3.5
11
-11
21
3.5
0
LINE
5
14E
100
AcDbEntity
8
guides
6
ByLayer
62
256
370
-1
100
AcDbLine
10
-10
20
9.5
11
-11
21
9.5
0
LINE
5
14F
100
AcDbEntity
8
guides
6
ByLayer
62
256
370
-1
100
AcDbLine
10
-11
20
3.5
11
-11
21
9.5
0
LINE
5
150
100
AcDbEntity
8
guides
6
ByLayer
62
256
370
-1
100
AcDbLine
10
-11
20
12.5
11
-1
21
12.5
0
LINE
5
151
100
AcDbEntity
8
guides
6
ByLayer
62
256
370
-1
100
AcDbLine
10
-11
20
22.5
11
-1
21
22.5
0
LINE
5
152
100
AcDbEntity
8
guides
6
ByLayer
62
256
370
-1
100
AcDbLine
10
-11
20
22.5
11
-11
21
12.5
0
LINE
5
153
100
AcDbEntity
8
guides
6
ByLayer
62
256
370
-1
100
AcDbLine
10
-14
20
34.5
11
-14
21
0.5
0
LINE
5
154
100
AcDbEntity
8
guides
6
ByLayer
62
256
370
-1
100
AcDbLine
10
30.6
20
-3.5
11
30.6
21
-6.5
0
LINE
5
155
100
AcDbEntity
8
guides
6
ByLayer
62
256
370
-1
100
AcDbLine
10
31.5
20
-10
11
30.6
21
-6.5
0
LINE
5
156
100
AcDbEntity
8
guides
6
ByLayer
62
256
370
-1
100
AcDbLine
10
26.4
20
-3.5
11
26.4
21
-6.5
0
LINE
5
157
100
AcDbEntity
8
guides
6
ByLayer
62
256
370
-1
100
AcDbLine
10
25.5
20
-10
11
26.4
21
-6.5
0
LINE
5
158
100
AcDbEntity
8
guides
6
ByLayer
62
256
370
-1
100
AcDbLine
10
25.7571428571
20
-1
11
26.4
21
-3.5
0
LINE
5
159
100
AcDbEntity
8
guides
6
ByLayer
62
256
370
-1
100
AcDbLine
10
25.7571428571
20
-1
11
22.5
21
-1
0
LINE
5
15A
100
AcDbEntity
8
guides
6
ByLayer
62
256
370
-1
100
AcDbLine
10
31.5
20
-10
11
31.5
21
-11
0
LINE
5
15B
100
AcDbEntity
8
guides
6
ByLayer
62
256
370
-1
100
AcDbLine
10
25.5
20
-10
11
25.5
21
-11
0
LINE
5
15C
100
AcDbEntity
8
guides
6
ByLayer
62
256
370
-1
100
AcDbLine
10
31.5
20
-11
11
25.5
21
-11
0
LINE
5
15D
100
AcDbEntity
8
guides
6
ByLayer
62
256
370
-1
100
AcDbLine
10
4.4
20
-3.5
11
4.4
21
-6.5
0
LINE
5
15E
100
AcDbEntity
8
guides
6
ByLayer
62
256
370
-1
100
AcDbLine
10
3.5
20
-10
11
4.4
21
-6.5
0
LINE
5
15F
100
AcDbEntity
8
guides
6
ByLayer
62
256
370
-1
100
AcDbLine
10
8.6
20
-3.5
11
8.6
21
-6.5
0
LINE
5
160
100
AcDbEntity
8
guides
6
ByLayer
62
256
370
-1
100
AcDbLine
10
9.5
20
-10
11
8.6
21
-6.5
0
LINE
5
161
100
AcDbEntity
8
guides
6
ByLayer
62
256
370
-1
100
AcDbLine
10
3.75714285714
20
-1
11
4.4
21
-3.5
0
LINE
5
162
100
AcDbEntity
8
guides
6
ByLayer
62
256
370
-1
100
AcDbLine
10
9.24285714286
20
-1
11
8.6
21
-3.5
0
LINE
5
163
100
AcDbEntity
8
guides
6
ByLayer
62
256
370
-1
100
AcDbLine
10
9.24285714286
20
-1
11
12.5
21
-1
0
LINE
5
164
100
AcDbEntity
8
guides
6
ByLayer
62
256
370
-1
100
AcDbLine
10
3.5
20
-10
11
3.5
21
-11
0
LINE
5
165
100
AcDbEntity
8
guides
6
ByLayer
62
256
370
-1
100
AcDbLine
10
9.5
20
-10
11
9.5
21
-11
0
LINE
5
166
100
AcDbEntity
8
guides
6
ByLayer
62
256
370
-1
100
AcDbLine
10
3.5
20
-11
11
9.5
21
-11
0
LINE
5
167
100
AcDbEntity
8
guides
6
ByLayer
62
256
370
-1
100
AcDbLine
10
12.5
20
-11
11
12.5
21
-1
0
LINE
5
168
100
AcDbEntity
8
guides
6
ByLayer
62
256
370
-1
100
AcDbLine
10
22.5
20
-11
11
22.5
21
-1
0
LINE
5
169
100
AcDbEntity
8
guides
6
ByLayer
62
256
370
-1
100
AcDbLine
10
22.5
20
-11
11
12.5
21
-11
0
LINE
5
16A
100
AcDbEntity
8
guides
6
ByLayer
62
256
370
-1
100
AcDbLine
10
34.5
20
-14
11
0.5
21
-14
0
LINE
5
16B
100
AcDbEntity
8
guides
6
ByLayer
62
256
370
-1
100
AcDbLine
10
-14
20
0.5
11
0.5
21
-14
0
LINE
5
16C
100
AcDbEntity
8
guides
6
ByLayer
62
256
370
-1
100
AcDbLine
10
-1
20
-1
11
3.75714285714
21
-1
0
LINE
5
16D
100
AcDbEntity
8
guides
6
ByLayer
62
256
370
-1
100
AcDbLine
10
-1
20
-1
11
-1
21
3.75714285714
0
LINE
5
16E
100
AcDbEntity
8
guides
6
ByLayer
62
256
370
-1
100
AcDbLine
10
-1
20
36
11
3.75714285714
21
36
0
LINE
5
16F
100
AcDbEntity
8
guides
6
ByLayer
62
256
370
-1
100
AcDbLine
10
-1
20
36
11
-1
21
31.2428571429
0
LINE
5
170
100
AcDbEntity
8
guides
6
ByLayer
62
256
370
-1
100
AcDbLine
10
36
20
-1
11
36
21
3.75714285714
0
LINE
5
171
100
AcDbEntity
8
guides
6
ByLayer
62
256
370
-1
100
AcDbLine
10
31.2428571429
20
-1
11
36
21
-1
0
LINE
5
172
100
AcDbEntity
8
guides
6
ByLayer
62
256
370
-1
100
AcDbLine
10
31.2428571429
20
-1
11
30.6
21
-3.5
0
LINE
5
173
100
AcDbEntity
8
guides
6
ByLayer
62
256
370
-1
100
AcDbLine
10
34.5
20
-14
11
49
21
0.5
0
LINE
5
174
100
AcDbEntity
8
roulements
6
ByLayer
62
256
370
-1
100
AcDbLine
10
0.5
20
49
11
-14
21
34.5
0
LINE
5
175
100
AcDbEntity
8
guides-profil-pour-3D
6
ByLayer
62
256
370
-1
100
AcDbLine
10
-14
20
34.5
11
0.5
21
49
0
LINE
5
176
100
AcDbEntity
8
guides-profil-pour-3D
6
ByLayer
62
256
370
-1
100
AcDbLine
10
0.5
20
49
11
34.5
21
49
0
LINE
5
177
100
AcDbEntity
8
guides-profil-pour-3D
6
ByLayer
62
256
370
-1
100
AcDbLine
10
34.5
20
49
11
49
21
34.5
0
LINE
5
178
100
AcDbEntity
8
guides-profil-pour-3D
6
ByLayer
62
256
370
-1
100
AcDbLine
10
49
20
34.5
11
49
21
0.5
0
LINE
5
179
100
AcDbEntity
8
guides-profil-pour-3D
6
ByLayer
62
256
370
-1
100
AcDbLine
10
49
20
0.5
11
34.5
21
-14
0
LINE
5
17A
100
AcDbEntity
8
guides-profil-pour-3D
6
ByLayer
62
256
370
-1
100
AcDbLine
10
34.5
20
-14
11
0.5
21
-14
0
LINE
5
17B
100
AcDbEntity
8
guides-profil-pour-3D
6
ByLayer
62
256
370
-1
100
AcDbLine
10
0.5
20
-14
11
-14
21
0.5
0
LINE
5
17C
100
AcDbEntity
8
guides-profil-pour-3D
6
ByLayer
62
256
370
-1
100
AcDbLine
10
-14
20
0.5
11
-14
21
34.5
0
LINE
5
17D
100
AcDbEntity
8
guides-profil-pour-3D
6
ByLayer
62
256
370
-1
100
AcDbLine
10
3.5
20
46
11
9.5
21
46
0
LINE
5
17E
100
AcDbEntity
8
guides-profil-pour-3D
6
ByLayer
62
256
370
-1
100
AcDbLine
10
12.5
20
36
11
12.5
21
46
0
LINE
5
17F
100
AcDbEntity
8
guides-profil-pour-3D
6
ByLayer
62
256
370
-1
100
AcDbLine
10
12.5
20
46
11
22.5
21
46
0
LINE
5
180
100
AcDbEntity
8
guides-profil-pour-3D
6
ByLayer
62
256
370
-1
100
AcDbLine
10
22.5
20
46
11
22.5
21
36
0
LINE
5
181
100
AcDbEntity
8
guides-profil-pour-3D
6
ByLayer
62
256
370
-1
100
AcDbLine
10
25.5
20
46
11
31.5
21
46
0
LINE
5
182
100
AcDbEntity
8
guides-profil-pour-3D
6
ByLayer
62
256
370
-1
100
AcDbLine
10
46
20
31.5
11
46
21
25.5
0
LINE
5
183
100
AcDbEntity
8
guides-profil-pour-3D
6
ByLayer
62
256
370
-1
100
AcDbLine
10
36
20
22.5
11
46
21
22.5
0
LINE
5
184
100
AcDbEntity
8
guides-profil-pour-3D
6
ByLayer
62
256
370
-1
100
AcDbLine
10
46
20
22.5
11
46
21
12.5
0
LINE
5
185
100
AcDbEntity
8
guides-profil-pour-3D
6
ByLayer
62
256
370
-1
100
AcDbLine
10
46
20
12.5
11
36
21
12.5
0
LINE
5
186
100
AcDbEntity
8
guides-profil-pour-3D
6
ByLayer
62
256
370
-1
100
AcDbLine
10
46
20
9.5
11
46
21
3.5
0
LINE
5
187
100
AcDbEntity
8
guides-profil-pour-3D
6
ByLayer
62
256
370
-1
100
AcDbLine
10
31.5
20
-11
11
25.5
21
-11
0
LINE
5
188
100
AcDbEntity
8
guides-profil-pour-3D
6
ByLayer
62
256
370
-1
100
AcDbLine
10
22.5
20
-1
11
22.5
21
-11
0
LINE
5
189
100
AcDbEntity
8
guides-profil-pour-3D
6
ByLayer
62
256
370
-1
100
AcDbLine
10
22.5
20
-11
11
12.5
21
-11
0
LINE
5
18A
100
AcDbEntity
8
guides-profil-pour-3D
6
ByLayer
62
256
370
-1
100
AcDbLine
10
12.5
20
-11
11
12.5
21
-1
0
LINE
5
18B
100
AcDbEntity
8
guides-profil-pour-3D
6
ByLayer
62
256
370
-1
100
AcDbLine
10
9.5
20
-11
11
3.5
21
-11
0
LINE
5
18C
100
AcDbEntity
8
guides-profil-pour-3D
6
ByLayer
62
256
370
-1
100
AcDbLine
10
-11
20
3.5
11
-11
21
9.5
0
LINE
5
18D
100
AcDbEntity
8
guides-profil-pour-3D
6
ByLayer
62
256
370
-1
100
AcDbLine
10
-1
20
12.5
11
-11
21
12.5
0
LINE
5
18E
100
AcDbEntity
8
guides-profil-pour-3D
6
ByLayer
62
256
370
-1
100
AcDbLine
10
-11
20
12.5
11
-11
21
22.5
0
LINE
5
18F
100
AcDbEntity
8
guides-profil-pour-3D
6
ByLayer
62
256
370
-1
100
AcDbLine
10
-11
20
22.5
11
-1
21
22.5
0
LINE
5
190
100
AcDbEntity
8
guides-profil-pour-3D
6
ByLayer
62
256
370
-1
100
AcDbLine
10
36
20
3.5
11
36
21
-1
0
LINE
5
191
100
AcDbEntity
8
guides-profil-pour-3D
6
ByLayer
62
256
370
-1
100
AcDbLine
10
-1
20
-1
11
-1
21
3.5
0
LINE
5
192
100
AcDbEntity
8
guides-profil-pour-3D
6
ByLayer
62
256
370
-1
100
AcDbLine
10
-11
20
3.5
11
-1
21
3.5
0
LINE
5
193
100
AcDbEntity
8
guides-profil-pour-3D
6
ByLayer
62
256
370
-1
100
AcDbLine
10
36
20
3.5
11
46
21
3.5
0
LINE
5
194
100
AcDbEntity
8
guides-profil-pour-3D
6
ByLayer
62
256
370
-1
100
AcDbLine
10
-1
20
9.5
11
-1
21
12.5
0
LINE
5
195
100
AcDbEntity
8
guides-profil-pour-3D
6
ByLayer
62
256
370
-1
100
AcDbLine
10
36
20
12.5
11
36
21
9.5
0
LINE
5
196
100
AcDbEntity
8
guides-profil-pour-3D
6
ByLayer
62
256
370
-1
100
AcDbLine
10
-11
20
9.5
11
-1
21
9.5
0
LINE
5
197
100
AcDbEntity
8
guides-profil-pour-3D
6
ByLayer
62
256
370
-1
100
AcDbLine
10
36
20
9.5
11
46
21
9.5
0
LINE
5
198
100
AcDbEntity
8
guides-profil-pour-3D
6
ByLayer
62
256
370
-1
100
AcDbLine
10
36
20
36
11
36
21
31.5
0
LINE
5
199
100
AcDbEntity
8
guides-profil-pour-3D
6
ByLayer
62
256
370
-1
100
AcDbLine
10
-1
20
31.5
11
-1
21
36
0
LINE
5
19A
100
AcDbEntity
8
guides-profil-pour-3D
6
ByLayer
62
256
370
-1
100
AcDbLine
10
-1
20
22.5
11
-1
21
25.5
0
LINE
5
19B
100
AcDbEntity
8
guides-profil-pour-3D
6
ByLayer
62
256
370
-1
100
AcDbLine
10
36
20
25.5
11
36
21
22.5
0
LINE
5
19C
100
AcDbEntity
8
guides-profil-pour-3D
6
ByLayer
62
256
370
-1
100
AcDbLine
10
36
20
31.5
11
46
21
31.5
0
LINE
5
19D
100
AcDbEntity
8
guides-profil-pour-3D
6
ByLayer
62
256
370
-1
100
AcDbLine
10
36
20
25.5
11
46
21
25.5
0
LINE
5
19E
100
AcDbEntity
8
guides-profil-pour-3D
6
ByLayer
62
256
370
-1
100
AcDbLine
10
-11
20
31.5135338346
11
-11
21
25.5
0
LINE
5
19F
100
AcDbEntity
8
guides-profil-pour-3D
6
ByLayer
62
256
370
-1
100
AcDbLine
10
-11
20
31.5135338346
11
-1
21
31.5
0
LINE
5
1A0
100
AcDbEntity
8
guides-profil-pour-3D
6
ByLayer
62
256
370
-1
100
AcDbLine
10
-11
20
25.5
11
-1
21
25.5
0
LINE
5
1A1
100
AcDbEntity
8
guides-profil-pour-3D
6
ByLayer
62
256
370
-1
100
AcDbLine
10
-1
20
36
11
3.5
21
36
0
LINE
5
1A2
100
AcDbEntity
8
guides-profil-pour-3D
6
ByLayer
62
256
370
-1
100
AcDbLine
10
3.5
20
-1
11
-1
21
-1
0
LINE
5
1A3
100
AcDbEntity
8
guides-profil-pour-3D
6
ByLayer
62
256
370
-1
100
AcDbLine
10
12.5
20
-1
11
9.5
21
-1
0
LINE
5
1A4
100
AcDbEntity
8
guides-profil-pour-3D
6
ByLayer
62
256
370
-1
100
AcDbLine
10
9.5
20
36
11
12.5
21
36
0
LINE
5
1A5
100
AcDbEntity
8
guides-profil-pour-3D
6
ByLayer
62
256
370
-1
100
AcDbLine
10
22.5
20
36
11
25.5
21
36
0
LINE
5
1A6
100
AcDbEntity
8
guides-profil-pour-3D
6
ByLayer
62
256
370
-1
100
AcDbLine
10
25.5
20
-1
11
22.5
21
-1
0
LINE
5
1A7
100
AcDbEntity
8
guides-profil-pour-3D
6
ByLayer
62
256
370
-1
100
AcDbLine
10
36
20
-1
11
31.5
21
-1
0
LINE
5
1A8
100
AcDbEntity
8
guides-profil-pour-3D
6
ByLayer
62
256
370
-1
100
AcDbLine
10
31.5
20
36
11
36
21
36
0
LINE
5
1A9
100
AcDbEntity
8
guides-profil-pour-3D
6
ByLayer
62
256
370
-1
100
AcDbLine
10
3.5
20
46
11
3.5
21
36
0
LINE
5
1AA
100
AcDbEntity
8
guides-profil-pour-3D
6
ByLayer
62
256
370
-1
100
AcDbLine
10
9.5
20
46
11
9.5
21
36
0
LINE
5
1AB
100
AcDbEntity
8
guides-profil-pour-3D
6
ByLayer
62
256
370
-1
100
AcDbLine
10
25.5
20
46
11
25.5
21
36
0
LINE
5
1AC
100
AcDbEntity
8
guides-profil-pour-3D
6
ByLayer
62
256
370
-1
100
AcDbLine
10
31.5
20
46
11
31.5
21
36
0
LINE
5
1AD
100
AcDbEntity
8
guides-profil-pour-3D
6
ByLayer
62
256
370
-1
100
AcDbLine
10
31.5
20
-1
11
31.5
21
-11
0
LINE
5
1AE
100
AcDbEntity
8
guides-profil-pour-3D
6
ByLayer
62
256
370
-1
100
AcDbLine
10
25.5
20
-11
11
25.5
21
-1
0
LINE
5
1AF
100
AcDbEntity
8
guides-profil-pour-3D
6
ByLayer
62
256
370
-1
100
AcDbLine
10
9.5
20
-11
11
9.5
21
-1
0
LINE
5
1B0
100
AcDbEntity
8
guides-profil-pour-3D
6
ByLayer
62
256
370
-1
100
AcDbLine
10
3.5
20
-11
11
3.5
21
-1
0
DIMENSION
5
1B1
100
AcDbEntity
8
cotations
6
ByLayer
62
256
370
-1
100
AcDbDimension
2
*D2
10
-3.67394039744e-16
20
-6
30
0
11
-2.5
21
-4.125
31
0
70
32
71
5
3
Standard
53
0
210
0
220
0
230
1
100
AcDbAlignedDimension
13
-5
23
30.5
33
0
14
0
24
0
34
0
100
AcDbRotatedDimension
0
DIMENSION
5
1B2
100
AcDbEntity
8
cotations
6
ByLayer
62
256
370
-1
100
AcDbDimension
2
*D3
10
-14
20
4.5
30
0
11
-15.875
21
2.25
31
0
70
32
71
5
3
Standard
53
0
210
0
220
0
230
1
100
AcDbAlignedDimension
13
0
23
0
33
0
14
-5
24
4.5
34
0
50
90
100
AcDbRotatedDimension
0
DIMENSION
5
1B3
100
AcDbEntity
8
cotations
6
ByLayer
62
256
370
-1
100
AcDbDimension
2
*D4
10
-11
20
25.5
30
0
11
-12.875
21
12.75
31
0
70
32
71
5
3
Standard
53
0
210
0
220
0
230
1
100
AcDbAlignedDimension
13
0
23
0
33
0
14
-1
24
25.5
34
0
50
90
100
AcDbRotatedDimension
0
DIMENSION
5
1B4
100
AcDbEntity
8
cotations
6
ByLayer
62
256
370
-1
100
AcDbDimension
2
*D5
10
-6
20
7.34788079488e-16
30
0
11
-7.875
21
15.75
31
0
70
32
71
5
3
Standard
53
0
210
0
220
0
230
1
100
AcDbAlignedDimension
13
-1
23
31.5
33
0
14
0
24
0
34
0
50
90
100
AcDbRotatedDimension
0
DIMENSION
5
1B5
100
AcDbEntity
8
cotations
6
ByLayer
62
256
370
-1
100
AcDbDimension
2
*D6
10
1.68722975549e-32
20
2.75545529808e-16
30
0
11
20
21
1.875
31
0
70
32
71
5
3
Standard
53
0
210
0
220
0
230
1
100
AcDbAlignedDimension
13
40
23
4.4
33
0
14
0
24
0
34
0
100
AcDbRotatedDimension
0
DIMENSION
5
1B6
100
AcDbEntity
8
cotations
6
ByLayer
62
256
370
-1
100
AcDbDimension
2
*D7
10
46
20
25.5
30
0
11
44.125
21
28.5
31
0
70
32
71
5
3
Standard
53
0
210
0
220
0
230
1
100
AcDbAlignedDimension
13
46
23
31.5
33
0
14
46
24
25.5
34
0
50
90
100
AcDbRotatedDimension
0
LINE
5
1B7
100
AcDbEntity
8
guides-profil-pour-3D2
6
ByLayer
62
256
370
-1
100
AcDbLine
10
49
20
34.5
11
49
21
0.5
0
LINE
5
1B8
100
AcDbEntity
8
guides-profil-pour-3D2
6
ByLayer
62
256
370
-1
100
AcDbLine
10
49
20
0.5
11
34.5
21
-14
0
LINE
5
1B9
100
AcDbEntity
8
guides-profil-pour-3D2
6
ByLayer
62
256
370
-1
100
AcDbLine
10
34.5
20
-14
11
0.5
21
-14
0
LINE
5
1BA
100
AcDbEntity
8
guides-profil-pour-3D2
6
ByLayer
62
256
370
-1
100
AcDbLine
10
0.5
20
-14
11
-14
21
0.5
0
LINE
5
1BB
100
AcDbEntity
8
guides-profil-pour-3D2
6
ByLayer
62
256
370
-1
100
AcDbLine
10
-14
20
0.5
11
-14
21
34.5
0
LINE
5
1BC
100
AcDbEntity
8
guides-profil-pour-3D2
6
ByLayer
62
256
370
-1
100
AcDbLine
10
3.5
20
46
11
9.5
21
46
0
LINE
5
1BD
100
AcDbEntity
8
guides-profil-pour-3D2
6
ByLayer
62
256
370
-1
100
AcDbLine
10
9.5
20
46
11
9.5
21
36
0
LINE
5
1BE
100
AcDbEntity
8
guides-profil-pour-3D2
6
ByLayer
62
256
370
-1
100
AcDbLine
10
9.5
20
36
11
12.5
21
36
0
LINE
5
1BF
100
AcDbEntity
8
guides-profil-pour-3D2
6
ByLayer
62
256
370
-1
100
AcDbLine
10
12.5
20
36
11
12.5
21
46
0
LINE
5
1C0
100
AcDbEntity
8
guides-profil-pour-3D2
6
ByLayer
62
256
370
-1
100
AcDbLine
10
12.5
20
46
11
22.5
21
46
0
LINE
5
1C1
100
AcDbEntity
8
guides-profil-pour-3D2
6
ByLayer
62
256
370
-1
100
AcDbLine
10
22.5
20
46
11
22.5
21
36
0
LINE
5
1C2
100
AcDbEntity
8
guides-profil-pour-3D2
6
ByLayer
62
256
370
-1
100
AcDbLine
10
22.5
20
36
11
25.5
21
36
0
LINE
5
1C3
100
AcDbEntity
8
guides-profil-pour-3D2
6
ByLayer
62
256
370
-1
100
AcDbLine
10
25.5
20
36
11
25.5
21
46
0
LINE
5
1C4
100
AcDbEntity
8
guides-profil-pour-3D2
6
ByLayer
62
256
370
-1
100
AcDbLine
10
25.5
20
46
11
31.5
21
46
0
LINE
5
1C5
100
AcDbEntity
8
guides-profil-pour-3D2
6
ByLayer
62
256
370
-1
100
AcDbLine
10
31.5
20
46
11
31.5
21
36
0
LINE
5
1C6
100
AcDbEntity
8
guides-profil-pour-3D2
6
ByLayer
62
256
370
-1
100
AcDbLine
10
31.5
20
36
11
36
21
36
0
LINE
5
1C7
100
AcDbEntity
8
guides-profil-pour-3D2
6
ByLayer
62
256
370
-1
100
AcDbLine
10
36
20
36
11
36
21
31.5
0
LINE
5
1C8
100
AcDbEntity
8
guides-profil-pour-3D2
6
ByLayer
62
256
370
-1
100
AcDbLine
10
36
20
31.5
11
46
21
31.5
0
LINE
5
1C9
100
AcDbEntity
8
guides-profil-pour-3D2
6
ByLayer
62
256
370
-1
100
AcDbLine
10
46
20
31.5
11
46
21
25.5
0
LINE
5
1CA
100
AcDbEntity
8
guides-profil-pour-3D2
6
ByLayer
62
256
370
-1
100
AcDbLine
10
46
20
25.5
11
36
21
25.5
0
LINE
5
1CB
100
AcDbEntity
8
guides-profil-pour-3D2
6
ByLayer
62
256
370
-1
100
AcDbLine
10
36
20
25.5
11
36
21
22.5
0
LINE
5
1CC
100
AcDbEntity
8
guides-profil-pour-3D2
6
ByLayer
62
256
370
-1
100
AcDbLine
10
36
20
22.5
11
46
21
22.5
0
LINE
5
1CD
100
AcDbEntity
8
guides-profil-pour-3D2
6
ByLayer
62
256
370
-1
100
AcDbLine
10
46
20
22.5
11
46
21
12.5
0
LINE
5
1CE
100
AcDbEntity
8
guides-profil-pour-3D2
6
ByLayer
62
256
370
-1
100
AcDbLine
10
46
20
12.5
11
36
21
12.5
0
LINE
5
1CF
100
AcDbEntity
8
guides-profil-pour-3D2
6
ByLayer
62
256
370
-1
100
AcDbLine
10
36
20
12.5
11
36
21
9.5
0
LINE
5
1D0
100
AcDbEntity
8
guides-profil-pour-3D2
6
ByLayer
62
256
370
-1
100
AcDbLine
10
36
20
9.5
11
46
21
9.5
0
LINE
5
1D1
100
AcDbEntity
8
guides-profil-pour-3D2
6
ByLayer
62
256
370
-1
100
AcDbLine
10
46
20
9.5
11
46
21
3.5
0
LINE
5
1D2
100
AcDbEntity
8
guides-profil-pour-3D2
6
ByLayer
62
256
370
-1
100
AcDbLine
10
46
20
3.5
11
36
21
3.5
0
LINE
5
1D3
100
AcDbEntity
8
guides-profil-pour-3D2
6
ByLayer
62
256
370
-1
100
AcDbLine
10
36
20
3.5
11
36
21
-1
0
LINE
5
1D4
100
AcDbEntity
8
guides-profil-pour-3D2
6
ByLayer
62
256
370
-1
100
AcDbLine
10
36
20
-1
11
31.5
21
-1
0
LINE
5
1D5
100
AcDbEntity
8
guides-profil-pour-3D2
6
ByLayer
62
256
370
-1
100
AcDbLine
10
31.5
20
-1
11
31.5
21
-11
0
LINE
5
1D6
100
AcDbEntity
8
guides-profil-pour-3D2
6
ByLayer
62
256
370
-1
100
AcDbLine
10
31.5
20
-11
11
25.5
21
-11
0
LINE
5
1D7
100
AcDbEntity
8
guides-profil-pour-3D2
6
ByLayer
62
256
370
-1
100
AcDbLine
10
25.5
20
-11
11
25.5
21
-1
0
LINE
5
1D8
100
AcDbEntity
8
guides-profil-pour-3D2
6
ByLayer
62
256
370
-1
100
AcDbLine
10
25.5
20
-1
11
22.5
21
-1
0
LINE
5
1D9
100
AcDbEntity
8
guides-profil-pour-3D2
6
ByLayer
62
256
370
-1
100
AcDbLine
10
22.5
20
-1
11
22.5
21
-11
0
LINE
5
1DA
100
AcDbEntity
8
guides-profil-pour-3D2
6
ByLayer
62
256
370
-1
100
AcDbLine
10
22.5
20
-11
11
12.5
21
-11
0
LINE
5
1DB
100
AcDbEntity
8
guides-profil-pour-3D2
6
ByLayer
62
256
370
-1
100
AcDbLine
10
12.5
20
-11
11
12.5
21
-1
0
LINE
5
1DC
100
AcDbEntity
8
guides-profil-pour-3D2
6
ByLayer
62
256
370
-1
100
AcDbLine
10
12.5
20
-1
11
9.5
21
-1
0
LINE
5
1DD
100
AcDbEntity
8
guides-profil-pour-3D2
6
ByLayer
62
256
370
-1
100
AcDbLine
10
9.5
20
-1
11
9.5
21
-11
0
LINE
5
1DE
100
AcDbEntity
8
guides-profil-pour-3D2
6
ByLayer
62
256
370
-1
100
AcDbLine
10
9.5
20
-11
11
3.5
21
-11
0
LINE
5
1DF
100
AcDbEntity
8
guides-profil-pour-3D2
6
ByLayer
62
256
370
-1
100
AcDbLine
10
3.5
20
-11
11
3.5
21
-1
0
LINE
5
1E0
100
AcDbEntity
8
guides-profil-pour-3D2
6
ByLayer
62
256
370
-1
100
AcDbLine
10
3.5
20
-1
11
-1
21
-1
0
LINE
5
1E1
100
AcDbEntity
8
guides-profil-pour-3D2
6
ByLayer
62
256
370
-1
100
AcDbLine
10
-1
20
-1
11
-1
21
3.5
0
LINE
5
1E2
100
AcDbEntity
8
guides-profil-pour-3D2
6
ByLayer
62
256
370
-1
100
AcDbLine
10
-1
20
3.5
11
-11
21
3.5
0
LINE
5
1E3
100
AcDbEntity
8
guides-profil-pour-3D2
6
ByLayer
62
256
370
-1
100
AcDbLine
10
-11
20
3.5
11
-11
21
9.5
0
LINE
5
1E4
100
AcDbEntity
8
guides-profil-pour-3D2
6
ByLayer
62
256
370
-1
100
AcDbLine
10
-11
20
9.5
11
-1
21
9.5
0
LINE
5
1E5
100
AcDbEntity
8
guides-profil-pour-3D2
6
ByLayer
62
256
370
-1
100
AcDbLine
10
-1
20
9.5
11
-1
21
12.5
0
LINE
5
1E6
100
AcDbEntity
8
guides-profil-pour-3D2
6
ByLayer
62
256
370
-1
100
AcDbLine
10
-1
20
12.5
11
-11
21
12.5
0
LINE
5
1E7
100
AcDbEntity
8
guides-profil-pour-3D2
6
ByLayer
62
256
370
-1
100
AcDbLine
10
-11
20
12.5
11
-11
21
22.5
0
LINE
5
1E8
100
AcDbEntity
8
guides-profil-pour-3D2
6
ByLayer
62
256
370
-1
100
AcDbLine
10
-11
20
22.5
11
-1
21
22.5
0
LINE
5
1E9
100
AcDbEntity
8
guides-profil-pour-3D2
6
ByLayer
62
256
370
-1
100
AcDbLine
10
-1
20
22.5
11
-1
21
25.5
0
LINE
5
1EA
100
AcDbEntity
8
guides-profil-pour-3D2
6
ByLayer
62
256
370
-1
100
AcDbLine
10
-1
20
25.5
11
-11
21
25.5
0
LINE
5
1EB
100
AcDbEntity
8
guides-profil-pour-3D2
6
ByLayer
62
256
370
-1
100
AcDbLine
10
-11
20
25.5
11
-11
21
31.5135338346
0
LINE
5
1EC
100
AcDbEntity
8
guides-profil-pour-3D2
6
ByLayer
62
256
370
-1
100
AcDbLine
10
-11
20
31.5135338346
11
-1
21
31.5
0
LINE
5
1ED
100
AcDbEntity
8
guides-profil-pour-3D2
6
ByLayer
62
256
370
-1
100
AcDbLine
10
-1
20
31.5
11
-1
21
36
0
LINE
5
1EE
100
AcDbEntity
8
guides-profil-pour-3D2
6
ByLayer
62
256
370
-1
100
AcDbLine
10
-1
20
36
11
3.5
21
36
0
LINE
5
1EF
100
AcDbEntity
8
guides-profil-pour-3D2
6
ByLayer
62
256
370
-1
100
AcDbLine
10
3.5
20
36
11
3.5
21
46
0
LINE
5
1F0
100
AcDbEntity
8
guides-profil-pour-3D2
6
ByLayer
62
256
370
-1
100
AcDbLine
10
-18
20
51.6
11
-18
21
55.1
0
LINE
5
1F1
100
AcDbEntity
8
guides-profil-pour-3D2
6
ByLayer
62
256
370
-1
100
AcDbLine
10
-18
20
55.1
11
-15
21
55.1
0
LINE
5
1F2
100
AcDbEntity
8
guides-profil-pour-3D2
6
ByLayer
62
256
370
-1
100
AcDbLine
10
-15
20
55.1
11
-15
21
51.6
0
LINE
5
1F3
100
AcDbEntity
8
guides-profil-pour-3D2
6
ByLayer
62
256
370
-1
100
AcDbLine
10
3.5527136788e-15
20
51.6
11
3.5527136788e-15
21
55.1
0
LINE
5
1F4
100
AcDbEntity
8
guides-profil-pour-3D2
6
ByLayer
62
256
370
-1
100
AcDbLine
10
3.5527136788e-15
20
55.1
11
2.5
21
55.1
0
LINE
5
1F5
100
AcDbEntity
8
guides-profil-pour-3D2
6
ByLayer
62
256
370
-1
100
AcDbLine
10
2.5
20
55.1
11
2.5
21
49
0
LINE
5
1F6
100
AcDbEntity
8
guides-profil-pour-3D2
6
ByLayer
62
256
370
-1
100
AcDbLine
10
2.5
20
49
11
32.5
21
49
0
LINE
5
1F7
100
AcDbEntity
8
guides-profil-pour-3D2
6
ByLayer
62
256
370
-1
100
AcDbLine
10
32.5
20
49
11
32.5
21
55.1
0
LINE
5
1F8
100
AcDbEntity
8
guides-profil-pour-3D2
6
ByLayer
62
256
370
-1
100
AcDbLine
10
32.5
20
55.1
11
35
21
55.1
0
LINE
5
1F9
100
AcDbEntity
8
guides-profil-pour-3D2
6
ByLayer
62
256
370
-1
100
AcDbLine
10
35
20
55.1
11
35
21
51.5999995232
0
LINE
5
1FA
100
AcDbEntity
8
guides-profil-pour-3D2
6
ByLayer
62
256
370
-1
100
AcDbLine
10
50
20
51.5999993257
11
50
21
55.1
0
LINE
5
1FB
100
AcDbEntity
8
guides-profil-pour-3D2
6
ByLayer
62
256
370
-1
100
AcDbLine
10
50
20
55.1
11
53
21
55.1
0
LINE
5
1FC
100
AcDbEntity
8
guides-profil-pour-3D2
6
ByLayer
62
256
370
-1
100
AcDbLine
10
53
20
55.1
11
53
21
51.5999991741
0
ARC
5
1FD
100
AcDbEntity
8
guides-profil-pour-3D2
6
ByLayer
62
256
370
-1
100
AcDbCircle
10
-7.5
20
51.6
40
7.5
100
AcDbArc
50
180
51
0
0
ARC
5
1FE
100
AcDbEntity
8
guides-profil-pour-3D2
6
ByLayer
62
256
370
-1
100
AcDbCircle
10
42.5
20
51.6
40
7.5
100
AcDbArc
50
180.000003642
51
359.999994849
0
LINE
5
1FF
100
AcDbEntity
8
guides-profil-pour-3D2
6
ByLayer
62
256
370
-1
100
AcDbLine
10
-18
20
51.6
11
-14
21
34.5
0
LINE
5
200
100
AcDbEntity
8
guides-profil-pour-3D2
6
ByLayer
62
256
370
-1
100
AcDbLine
10
53
20
51.5999991741
11
49
21
34.5
0
LINE
5
201
100
AcDbEntity
8
moteurs+poulies
6
ByLayer
62
256
370
-1
100
AcDbLine
10
13.75
20
49
11
21.25
21
49
0
LINE
5
202
100
AcDbEntity
8
moteurs+poulies
6
ByLayer
62
256
370
-1
100
AcDbLine
10
13.75
20
35.25
11
21.25
21
35.25
0
LINE
5
203
100
AcDbEntity
8
moteurs+poulies
6
ByLayer
62
256
370
-1
100
AcDbLine
10
13.75
20
33.36
11
13.75
21
50.89
0
LINE
5
204
100
AcDbEntity
8
moteurs+poulies
6
ByLayer
62
256
370
-1
100
AcDbLine
10
21.25
20
33.36
11
21.25
21
50.89
0
LINE
5
205
100
AcDbEntity
8
moteurs+poulies
6
ByLayer
62
256
370
-1
100
AcDbLine
10
12.75
20
33.36
11
12.75
21
50.89
0
LINE
5
206
100
AcDbEntity
8
moteurs+poulies
6
ByLayer
62
256
370
-1
100
AcDbLine
10
21.25
20
33.36
11
30.75
21
33.36
0
LINE
5
207
100
AcDbEntity
8
moteurs+poulies
6
ByLayer
62
256
370
-1
100
AcDbLine
10
21.25
20
50.89
11
30.75
21
50.89
0
LINE
5
208
100
AcDbEntity
8
moteurs+poulies
6
ByLayer
62
256
370
-1
100
AcDbLine
10
12.75
20
50.89
11
13.75
21
50.89
0
LINE
5
209
100
AcDbEntity
8
moteurs+poulies
6
ByLayer
62
256
370
-1
100
AcDbLine
10
12.75
20
33.36
11
13.75
21
33.36
0
LINE
5
20A
100
AcDbEntity
8
moteurs+poulies
6
ByLayer
62
256
370
-1
100
AcDbLine
10
30.75
20
63.29
11
73.05
21
63.29
0
LINE
5
20B
100
AcDbEntity
8
moteurs+poulies
6
ByLayer
62
256
370
-1
100
AcDbLine
10
30.75
20
20.96
11
73.05
21
20.96
0
LINE
5
20C
100
AcDbEntity
8
moteurs+poulies
6
ByLayer
62
256
370
-1
100
AcDbLine
10
73.05
20
20.96
11
73.05
21
63.29
0
LINE
5
20D
100
AcDbEntity
8
moteurs+poulies
6
ByLayer
62
256
370
-1
100
AcDbLine
10
30.75
20
20.96
11
30.75
21
63.29
0
ENDSEC
0
SECTION
2
OBJECTS
0
DICTIONARY
5
C
330
0
100
AcDbDictionary
281
1
3
ACAD_GROUP
350
D
0
DICTIONARY
5
D
330
C
100
AcDbDictionary
281
1
0
ENDSEC
0
EOF
