solid OpenSCAD_Model
  facet normal -0.999496 -0.03173 0
    outer loop
      vertex -4 -6 0
      vertex -3.998 -6.063 0
      vertex -4 -6 4
    endloop
  endfacet
  facet normal -0.999496 -0.03173 0
    outer loop
      vertex -4 -6 4
      vertex -3.998 -6.063 0
      vertex -3.998 -6.063 4
    endloop
  endfacet
  facet normal 0 0 -1
    outer loop
      vertex -4 -6 0
      vertex -4 6 0
      vertex -3.998 -6.063 0
    endloop
  endfacet
  facet normal 0 0 -1
    outer loop
      vertex -3.998 -6.063 0
      vertex -4 6 0
      vertex -3.998 6.063 0
    endloop
  endfacet
  facet normal 0 0 -1
    outer loop
      vertex -3.998 -6.063 0
      vertex -3.998 6.063 0
      vertex -3.992 6.125 0
    endloop
  endfacet
  facet normal 0 0 -1
    outer loop
      vertex -3.998 -6.063 0
      vertex -3.992 6.125 0
      vertex -3.982 6.187 0
    endloop
  endfacet
  facet normal 0 0 -1
    outer loop
      vertex -3.998 -6.063 0
      vertex -3.982 6.187 0
      vertex -3.969 6.249 0
    endloop
  endfacet
  facet normal 0 0 -1
    outer loop
      vertex -3.998 -6.063 0
      vertex -3.969 6.249 0
      vertex -3.951 6.309 0
    endloop
  endfacet
  facet normal 0 0 -1
    outer loop
      vertex -3.998 -6.063 0
      vertex -3.951 6.309 0
      vertex -3.93 6.368 0
    endloop
  endfacet
  facet normal 0 0 -1
    outer loop
      vertex -3.998 -6.063 0
      vertex -3.93 6.368 0
      vertex -3.905 6.426 0
    endloop
  endfacet
  facet normal 0 0 -1
    outer loop
      vertex -3.998 -6.063 0
      vertex -3.905 6.426 0
      vertex -3.876 6.482 0
    endloop
  endfacet
  facet normal 0 0 -1
    outer loop
      vertex -3.998 -6.063 0
      vertex -3.876 6.482 0
      vertex -3.844 6.536 0
    endloop
  endfacet
  facet normal 0 0 -1
    outer loop
      vertex -3.998 -6.063 0
      vertex -3.844 6.536 0
      vertex -3.809 6.588 0
    endloop
  endfacet
  facet normal 0 0 -1
    outer loop
      vertex -3.998 -6.063 0
      vertex -3.809 6.588 0
      vertex -3.771 6.637 0
    endloop
  endfacet
  facet normal 0 0 -1
    outer loop
      vertex -3.998 -6.063 0
      vertex -3.771 6.637 0
      vertex -3.729 6.685 0
    endloop
  endfacet
  facet normal 0 0 -1
    outer loop
      vertex -3.998 -6.063 0
      vertex -3.729 6.685 0
      vertex -3.685 6.729 0
    endloop
  endfacet
  facet normal 0 0 -1
    outer loop
      vertex -3.998 -6.063 0
      vertex -3.685 6.729 0
      vertex -3.637 6.771 0
    endloop
  endfacet
  facet normal 0 0 -1
    outer loop
      vertex -3.998 -6.063 0
      vertex -3.637 6.771 0
      vertex -3.588 6.809 0
    endloop
  endfacet
  facet normal 0 0 -1
    outer loop
      vertex -3.998 -6.063 0
      vertex -3.588 6.809 0
      vertex -3.536 6.844 0
    endloop
  endfacet
  facet normal 0 0 -1
    outer loop
      vertex -3.998 -6.063 0
      vertex -3.536 6.844 0
      vertex -3.482 6.876 0
    endloop
  endfacet
  facet normal 0 0 -1
    outer loop
      vertex -3.998 -6.063 0
      vertex -3.482 6.876 0
      vertex -3.426 6.905 0
    endloop
  endfacet
  facet normal 0 0 -1
    outer loop
      vertex -3.998 -6.063 0
      vertex -3.426 6.905 0
      vertex -3.368 6.93 0
    endloop
  endfacet
  facet normal 0 0 -1
    outer loop
      vertex -3.998 -6.063 0
      vertex -3.368 6.93 0
      vertex -3.309 6.951 0
    endloop
  endfacet
  facet normal 0 0 -1
    outer loop
      vertex -3.998 -6.063 0
      vertex -3.309 6.951 0
      vertex -3.249 6.969 0
    endloop
  endfacet
  facet normal 0 0 -1
    outer loop
      vertex -3.998 -6.063 0
      vertex -3.249 6.969 0
      vertex -3.187 6.982 0
    endloop
  endfacet
  facet normal 0 0 -1
    outer loop
      vertex -3.998 -6.063 0
      vertex -3.187 6.982 0
      vertex -3.125 6.992 0
    endloop
  endfacet
  facet normal 0 0 -1
    outer loop
      vertex -3.998 -6.063 0
      vertex -3.125 6.992 0
      vertex -3.063 6.998 0
    endloop
  endfacet
  facet normal 0 0 -1
    outer loop
      vertex -3.998 -6.063 0
      vertex -3.063 6.998 0
      vertex -3 7 0
    endloop
  endfacet
  facet normal 0 0 -1
    outer loop
      vertex -0.681247 1.44772 0
      vertex -3 7 0
      vertex 3 7 0
    endloop
  endfacet
  facet normal 0 0 -1
    outer loop
      vertex 0.494427 1.52169 0
      vertex 3.729 6.685 0
      vertex 3.771 6.637 0
    endloop
  endfacet
  facet normal 0 0 -1
    outer loop
      vertex 0.494427 1.52169 0
      vertex 3.685 6.729 0
      vertex 3.729 6.685 0
    endloop
  endfacet
  facet normal 0 0 -1
    outer loop
      vertex 0.494427 1.52169 0
      vertex 3.637 6.771 0
      vertex 3.685 6.729 0
    endloop
  endfacet
  facet normal 0 0 -1
    outer loop
      vertex 0.29981 1.57166 0
      vertex 3.309 6.951 0
      vertex 3.368 6.93 0
    endloop
  endfacet
  facet normal 0 0 -1
    outer loop
      vertex 0.100465 1.59684 0
      vertex 3.187 6.982 0
      vertex 3.249 6.969 0
    endloop
  endfacet
  facet normal 0 0 -1
    outer loop
      vertex 0.494427 1.52169 0
      vertex 3.844 6.536 0
      vertex 0.681247 1.44772 0
    endloop
  endfacet
  facet normal 0 0 -1
    outer loop
      vertex 0.494427 1.52169 0
      vertex 3.588 6.809 0
      vertex 3.637 6.771 0
    endloop
  endfacet
  facet normal 0 0 -1
    outer loop
      vertex 0.681247 1.44772 0
      vertex 3.876 6.482 0
      vertex 3.905 6.426 0
    endloop
  endfacet
  facet normal 0 0 -1
    outer loop
      vertex 0.29981 1.57166 0
      vertex 3.588 6.809 0
      vertex 0.494427 1.52169 0
    endloop
  endfacet
  facet normal 0 0 -1
    outer loop
      vertex 0.29981 1.57166 0
      vertex 3.536 6.844 0
      vertex 3.588 6.809 0
    endloop
  endfacet
  facet normal 0 0 -1
    outer loop
      vertex 0.29981 1.57166 0
      vertex 3.482 6.876 0
      vertex 3.536 6.844 0
    endloop
  endfacet
  facet normal 0 0 -1
    outer loop
      vertex 0.681247 1.44772 0
      vertex 3.844 6.536 0
      vertex 3.876 6.482 0
    endloop
  endfacet
  facet normal 0 0 -1
    outer loop
      vertex 0.857323 1.35092 0
      vertex 3.982 6.187 0
      vertex 3.992 6.125 0
    endloop
  endfacet
  facet normal 0 0 -1
    outer loop
      vertex 1.48764 -0.588999 0
      vertex 4 6 0
      vertex 4 -6 0
    endloop
  endfacet
  facet normal 0 0 -1
    outer loop
      vertex -3.998 -6.063 0
      vertex 4 -6 0
      vertex 3.998 -6.063 0
    endloop
  endfacet
  facet normal 0 0 -1
    outer loop
      vertex -3.998 -6.063 0
      vertex 3.998 -6.063 0
      vertex 3.992 -6.125 0
    endloop
  endfacet
  facet normal 0 0 -1
    outer loop
      vertex -3.998 -6.063 0
      vertex 3.992 -6.125 0
      vertex 3.982 -6.187 0
    endloop
  endfacet
  facet normal 0 0 -1
    outer loop
      vertex -3.998 -6.063 0
      vertex 3.982 -6.187 0
      vertex 3.969 -6.249 0
    endloop
  endfacet
  facet normal 0 0 -1
    outer loop
      vertex -3.998 -6.063 0
      vertex 3.969 -6.249 0
      vertex 3.951 -6.309 0
    endloop
  endfacet
  facet normal 0 0 -1
    outer loop
      vertex -3.998 -6.063 0
      vertex 3.951 -6.309 0
      vertex 3.93 -6.368 0
    endloop
  endfacet
  facet normal 0 0 -1
    outer loop
      vertex -3.998 -6.063 0
      vertex 3.93 -6.368 0
      vertex 3.905 -6.426 0
    endloop
  endfacet
  facet normal 0 0 -1
    outer loop
      vertex -3.998 -6.063 0
      vertex 3.905 -6.426 0
      vertex 3.876 -6.482 0
    endloop
  endfacet
  facet normal 0 0 -1
    outer loop
      vertex -3.998 -6.063 0
      vertex 3.876 -6.482 0
      vertex 3.844 -6.536 0
    endloop
  endfacet
  facet normal 0 0 -1
    outer loop
      vertex -3.998 -6.063 0
      vertex 3.844 -6.536 0
      vertex 3.809 -6.588 0
    endloop
  endfacet
  facet normal 0 0 -1
    outer loop
      vertex -3.998 -6.063 0
      vertex 3.809 -6.588 0
      vertex 3.771 -6.637 0
    endloop
  endfacet
  facet normal 0 0 -1
    outer loop
      vertex -3.998 -6.063 0
      vertex 3.771 -6.637 0
      vertex 3.729 -6.685 0
    endloop
  endfacet
  facet normal 0 0 -1
    outer loop
      vertex -3.998 -6.063 0
      vertex 3.729 -6.685 0
      vertex 3.685 -6.729 0
    endloop
  endfacet
  facet normal 0 0 -1
    outer loop
      vertex -3.998 -6.063 0
      vertex 3.685 -6.729 0
      vertex 3.637 -6.771 0
    endloop
  endfacet
  facet normal 0 0 -1
    outer loop
      vertex -3.998 -6.063 0
      vertex 3.637 -6.771 0
      vertex 3.588 -6.809 0
    endloop
  endfacet
  facet normal 0 0 -1
    outer loop
      vertex -3.998 -6.063 0
      vertex 3.588 -6.809 0
      vertex 3.536 -6.844 0
    endloop
  endfacet
  facet normal 0 0 -1
    outer loop
      vertex -3.998 -6.063 0
      vertex 3.536 -6.844 0
      vertex 3.482 -6.876 0
    endloop
  endfacet
  facet normal 0 0 -1
    outer loop
      vertex -3.998 -6.063 0
      vertex 3.482 -6.876 0
      vertex 3.426 -6.905 0
    endloop
  endfacet
  facet normal 0 0 -1
    outer loop
      vertex -3.998 -6.063 0
      vertex 3.426 -6.905 0
      vertex 3.368 -6.93 0
    endloop
  endfacet
  facet normal 0 0 -1
    outer loop
      vertex -3.998 -6.063 0
      vertex 3.368 -6.93 0
      vertex 3.309 -6.951 0
    endloop
  endfacet
  facet normal 0 0 -1
    outer loop
      vertex -3.998 -6.063 0
      vertex 3.309 -6.951 0
      vertex 3.249 -6.969 0
    endloop
  endfacet
  facet normal 0 0 -1
    outer loop
      vertex -3.998 -6.063 0
      vertex 3.249 -6.969 0
      vertex 3.187 -6.982 0
    endloop
  endfacet
  facet normal 0 0 -1
    outer loop
      vertex -3.998 -6.063 0
      vertex 3.187 -6.982 0
      vertex 3.125 -6.992 0
    endloop
  endfacet
  facet normal 0 0 -1
    outer loop
      vertex -3.998 -6.063 0
      vertex 3.125 -6.992 0
      vertex 3.063 -6.998 0
    endloop
  endfacet
  facet normal 0 0 -1
    outer loop
      vertex -3.998 -6.063 0
      vertex 3.063 -6.998 0
      vertex 3 -7 0
    endloop
  endfacet
  facet normal 0 0 -1
    outer loop
      vertex -3.998 -6.063 0
      vertex 3 -7 0
      vertex -3 -7 0
    endloop
  endfacet
  facet normal 0 0 -1
    outer loop
      vertex -3.998 -6.063 0
      vertex -3 -7 0
      vertex -3.063 -6.998 0
    endloop
  endfacet
  facet normal 0 0 -1
    outer loop
      vertex -3.998 -6.063 0
      vertex -3.063 -6.998 0
      vertex -3.125 -6.992 0
    endloop
  endfacet
  facet normal 0 0 -1
    outer loop
      vertex -3.998 -6.063 0
      vertex -3.125 -6.992 0
      vertex -3.187 -6.982 0
    endloop
  endfacet
  facet normal 0 0 -1
    outer loop
      vertex -3.998 -6.063 0
      vertex -3.187 -6.982 0
      vertex -3.249 -6.969 0
    endloop
  endfacet
  facet normal 0 0 -1
    outer loop
      vertex -3.998 -6.063 0
      vertex -3.249 -6.969 0
      vertex -3.309 -6.951 0
    endloop
  endfacet
  facet normal 0 0 -1
    outer loop
      vertex -3.998 -6.063 0
      vertex -3.309 -6.951 0
      vertex -3.368 -6.93 0
    endloop
  endfacet
  facet normal 0 0 -1
    outer loop
      vertex -3.998 -6.063 0
      vertex -3.368 -6.93 0
      vertex -3.426 -6.905 0
    endloop
  endfacet
  facet normal 0 0 -1
    outer loop
      vertex -3.998 -6.063 0
      vertex -3.426 -6.905 0
      vertex -3.482 -6.876 0
    endloop
  endfacet
  facet normal 0 0 -1
    outer loop
      vertex -3.998 -6.063 0
      vertex -3.482 -6.876 0
      vertex -3.536 -6.844 0
    endloop
  endfacet
  facet normal 0 0 -1
    outer loop
      vertex -3.998 -6.063 0
      vertex -3.536 -6.844 0
      vertex -3.588 -6.809 0
    endloop
  endfacet
  facet normal 0 0 -1
    outer loop
      vertex -3.998 -6.063 0
      vertex -3.588 -6.809 0
      vertex -3.637 -6.771 0
    endloop
  endfacet
  facet normal 0 0 -1
    outer loop
      vertex -3.998 -6.063 0
      vertex -3.637 -6.771 0
      vertex -3.685 -6.729 0
    endloop
  endfacet
  facet normal 0 0 -1
    outer loop
      vertex -3.998 -6.063 0
      vertex -3.685 -6.729 0
      vertex -3.729 -6.685 0
    endloop
  endfacet
  facet normal 0 0 -1
    outer loop
      vertex -3.998 -6.063 0
      vertex -3.729 -6.685 0
      vertex -3.771 -6.637 0
    endloop
  endfacet
  facet normal 0 0 -1
    outer loop
      vertex -3.998 -6.063 0
      vertex -3.771 -6.637 0
      vertex -3.809 -6.588 0
    endloop
  endfacet
  facet normal 0 0 -1
    outer loop
      vertex -3.998 -6.063 0
      vertex -3.809 -6.588 0
      vertex -3.844 -6.536 0
    endloop
  endfacet
  facet normal 0 0 -1
    outer loop
      vertex -3.998 -6.063 0
      vertex -3.844 -6.536 0
      vertex -3.876 -6.482 0
    endloop
  endfacet
  facet normal 0 0 -1
    outer loop
      vertex -3.998 -6.063 0
      vertex -3.876 -6.482 0
      vertex -3.905 -6.426 0
    endloop
  endfacet
  facet normal 0 0 -1
    outer loop
      vertex -3.998 -6.063 0
      vertex -3.905 -6.426 0
      vertex -3.93 -6.368 0
    endloop
  endfacet
  facet normal 0 0 -1
    outer loop
      vertex -3.998 -6.063 0
      vertex -3.93 -6.368 0
      vertex -3.951 -6.309 0
    endloop
  endfacet
  facet normal 0 0 -1
    outer loop
      vertex -3.998 -6.063 0
      vertex -3.951 -6.309 0
      vertex -3.969 -6.249 0
    endloop
  endfacet
  facet normal 0 0 -1
    outer loop
      vertex -3.998 -6.063 0
      vertex -3.969 -6.249 0
      vertex -3.982 -6.187 0
    endloop
  endfacet
  facet normal 0 0 -1
    outer loop
      vertex -3.998 -6.063 0
      vertex -3.982 -6.187 0
      vertex -3.992 -6.125 0
    endloop
  endfacet
  facet normal 0 0 -1
    outer loop
      vertex -3.998 -6.063 0
      vertex -3 7 0
      vertex -1.6 0 0
    endloop
  endfacet
  facet normal 0 0 -1
    outer loop
      vertex -3.998 -6.063 0
      vertex -1.6 0 0
      vertex -1.58738 -0.200533 0
    endloop
  endfacet
  facet normal 0 0 -1
    outer loop
      vertex -3.998 -6.063 0
      vertex -1.58738 -0.200533 0
      vertex -1.54973 -0.397904 0
    endloop
  endfacet
  facet normal 0 0 -1
    outer loop
      vertex -3.998 -6.063 0
      vertex -1.54973 -0.397904 0
      vertex -1.48764 -0.588999 0
    endloop
  endfacet
  facet normal 0 0 -1
    outer loop
      vertex -3.998 -6.063 0
      vertex -1.48764 -0.588999 0
      vertex -1.40209 -0.770806 0
    endloop
  endfacet
  facet normal 0 0 -1
    outer loop
      vertex -3.998 -6.063 0
      vertex -1.40209 -0.770806 0
      vertex -1.29443 -0.940456 0
    endloop
  endfacet
  facet normal 0 0 -1
    outer loop
      vertex -1.01988 -1.23282 0
      vertex -3.998 -6.063 0
      vertex -1.16635 -1.09527 0
    endloop
  endfacet
  facet normal 0 0 -1
    outer loop
      vertex -0.857323 -1.35092 0
      vertex -3.998 -6.063 0
      vertex -1.01988 -1.23282 0
    endloop
  endfacet
  facet normal 0 0 -1
    outer loop
      vertex 1.58738 -0.200533 0
      vertex 4 6 0
      vertex 1.54973 -0.397904 0
    endloop
  endfacet
  facet normal 0 0 -1
    outer loop
      vertex -3.998 -6.063 0
      vertex -0.857323 -1.35092 0
      vertex 4 -6 0
    endloop
  endfacet
  facet normal 0 0 -1
    outer loop
      vertex 0.681247 1.44772 0
      vertex 3.93 6.368 0
      vertex 3.951 6.309 0
    endloop
  endfacet
  facet normal 0 0 -1
    outer loop
      vertex -0.857323 -1.35092 0
      vertex -0.681247 -1.44772 0
      vertex 4 -6 0
    endloop
  endfacet
  facet normal 0 0 -1
    outer loop
      vertex 0.857323 1.35092 0
      vertex 4 6 0
      vertex 1.01988 1.23282 0
    endloop
  endfacet
  facet normal 0 0 -1
    outer loop
      vertex -0.681247 -1.44772 0
      vertex -0.494427 -1.52169 0
      vertex 4 -6 0
    endloop
  endfacet
  facet normal 0 0 -1
    outer loop
      vertex 1.01988 1.23282 0
      vertex 4 6 0
      vertex 1.16635 1.09527 0
    endloop
  endfacet
  facet normal 0 0 -1
    outer loop
      vertex -0.494427 -1.52169 0
      vertex -0.29981 -1.57166 0
      vertex 4 -6 0
    endloop
  endfacet
  facet normal 0 0 -1
    outer loop
      vertex -0.29981 -1.57166 0
      vertex -0.100465 -1.59684 0
      vertex 4 -6 0
    endloop
  endfacet
  facet normal 0 0 -1
    outer loop
      vertex 1.16635 1.09527 0
      vertex 4 6 0
      vertex 1.29443 0.940456 0
    endloop
  endfacet
  facet normal 0 0 -1
    outer loop
      vertex -0.100465 -1.59684 0
      vertex 0.100465 -1.59684 0
      vertex 4 -6 0
    endloop
  endfacet
  facet normal 0 0 -1
    outer loop
      vertex 1.29443 0.940456 0
      vertex 4 6 0
      vertex 1.40209 0.770806 0
    endloop
  endfacet
  facet normal 0 0 -1
    outer loop
      vertex 0.100465 -1.59684 0
      vertex 0.29981 -1.57166 0
      vertex 4 -6 0
    endloop
  endfacet
  facet normal 0 0 -1
    outer loop
      vertex 0.29981 -1.57166 0
      vertex 0.494427 -1.52169 0
      vertex 4 -6 0
    endloop
  endfacet
  facet normal 0 0 -1
    outer loop
      vertex 1.40209 0.770806 0
      vertex 4 6 0
      vertex 1.48764 0.588999 0
    endloop
  endfacet
  facet normal 0 0 -1
    outer loop
      vertex 0.494427 -1.52169 0
      vertex 0.681247 -1.44772 0
      vertex 4 -6 0
    endloop
  endfacet
  facet normal 0 0 -1
    outer loop
      vertex 1.48764 0.588999 0
      vertex 4 6 0
      vertex 1.54973 0.397904 0
    endloop
  endfacet
  facet normal 0 0 -1
    outer loop
      vertex 0.681247 -1.44772 0
      vertex 0.857323 -1.35092 0
      vertex 4 -6 0
    endloop
  endfacet
  facet normal 0 0 -1
    outer loop
      vertex 1.54973 0.397904 0
      vertex 4 6 0
      vertex 1.58738 0.200533 0
    endloop
  endfacet
  facet normal 0 0 -1
    outer loop
      vertex 0.857323 -1.35092 0
      vertex 1.01988 -1.23282 0
      vertex 4 -6 0
    endloop
  endfacet
  facet normal 0 0 -1
    outer loop
      vertex 1.58738 0.200533 0
      vertex 4 6 0
      vertex 1.6 0 0
    endloop
  endfacet
  facet normal 0 0 -1
    outer loop
      vertex 1.01988 -1.23282 0
      vertex 1.16635 -1.09527 0
      vertex 4 -6 0
    endloop
  endfacet
  facet normal 0 0 -1
    outer loop
      vertex 1.16635 -1.09527 0
      vertex 1.29443 -0.940456 0
      vertex 4 -6 0
    endloop
  endfacet
  facet normal 0 0 -1
    outer loop
      vertex 1.6 0 0
      vertex 4 6 0
      vertex 1.58738 -0.200533 0
    endloop
  endfacet
  facet normal 0 0 -1
    outer loop
      vertex 1.29443 -0.940456 0
      vertex 1.40209 -0.770806 0
      vertex 4 -6 0
    endloop
  endfacet
  facet normal 0 0 -1
    outer loop
      vertex 1.54973 -0.397904 0
      vertex 4 6 0
      vertex 1.48764 -0.588999 0
    endloop
  endfacet
  facet normal 0 0 -1
    outer loop
      vertex 1.40209 -0.770806 0
      vertex 1.48764 -0.588999 0
      vertex 4 -6 0
    endloop
  endfacet
  facet normal 0 0 -1
    outer loop
      vertex 0.681247 1.44772 0
      vertex 3.951 6.309 0
      vertex 3.969 6.249 0
    endloop
  endfacet
  facet normal 0 0 -1
    outer loop
      vertex 0.681247 1.44772 0
      vertex 3.982 6.187 0
      vertex 0.857323 1.35092 0
    endloop
  endfacet
  facet normal 0 0 -1
    outer loop
      vertex 0.681247 1.44772 0
      vertex 3.969 6.249 0
      vertex 3.982 6.187 0
    endloop
  endfacet
  facet normal 0 0 -1
    outer loop
      vertex 0.494427 1.52169 0
      vertex 3.809 6.588 0
      vertex 3.844 6.536 0
    endloop
  endfacet
  facet normal 0 0 -1
    outer loop
      vertex 0.494427 1.52169 0
      vertex 3.771 6.637 0
      vertex 3.809 6.588 0
    endloop
  endfacet
  facet normal 0 0 -1
    outer loop
      vertex 0.100465 1.59684 0
      vertex 3.309 6.951 0
      vertex 0.29981 1.57166 0
    endloop
  endfacet
  facet normal 0 0 -1
    outer loop
      vertex 0.100465 1.59684 0
      vertex 3.249 6.969 0
      vertex 3.309 6.951 0
    endloop
  endfacet
  facet normal 0 0 -1
    outer loop
      vertex 0.29981 1.57166 0
      vertex 3.426 6.905 0
      vertex 3.482 6.876 0
    endloop
  endfacet
  facet normal 0 0 -1
    outer loop
      vertex 0.29981 1.57166 0
      vertex 3.368 6.93 0
      vertex 3.426 6.905 0
    endloop
  endfacet
  facet normal 0 0 -1
    outer loop
      vertex -0.29981 1.57166 0
      vertex 3 7 0
      vertex -0.100465 1.59684 0
    endloop
  endfacet
  facet normal 0 0 -1
    outer loop
      vertex -0.494427 1.52169 0
      vertex 3 7 0
      vertex -0.29981 1.57166 0
    endloop
  endfacet
  facet normal 0 0 -1
    outer loop
      vertex -0.681247 1.44772 0
      vertex 3 7 0
      vertex -0.494427 1.52169 0
    endloop
  endfacet
  facet normal 0 0 -1
    outer loop
      vertex -0.857323 1.35092 0
      vertex -3 7 0
      vertex -0.681247 1.44772 0
    endloop
  endfacet
  facet normal 0 0 -1
    outer loop
      vertex -1.01988 1.23282 0
      vertex -3 7 0
      vertex -0.857323 1.35092 0
    endloop
  endfacet
  facet normal 0 0 -1
    outer loop
      vertex -1.16635 1.09527 0
      vertex -3 7 0
      vertex -1.01988 1.23282 0
    endloop
  endfacet
  facet normal 0 0 -1
    outer loop
      vertex -1.29443 0.940456 0
      vertex -3 7 0
      vertex -1.16635 1.09527 0
    endloop
  endfacet
  facet normal 0 0 -1
    outer loop
      vertex -1.40209 0.770806 0
      vertex -3 7 0
      vertex -1.29443 0.940456 0
    endloop
  endfacet
  facet normal 0 0 -1
    outer loop
      vertex -1.48764 0.588999 0
      vertex -3 7 0
      vertex -1.40209 0.770806 0
    endloop
  endfacet
  facet normal 0 0 -1
    outer loop
      vertex -1.54973 0.397904 0
      vertex -3 7 0
      vertex -1.48764 0.588999 0
    endloop
  endfacet
  facet normal 0 0 -1
    outer loop
      vertex -1.58738 0.200533 0
      vertex -3 7 0
      vertex -1.54973 0.397904 0
    endloop
  endfacet
  facet normal 0 0 -1
    outer loop
      vertex -1.6 0 0
      vertex -3 7 0
      vertex -1.58738 0.200533 0
    endloop
  endfacet
  facet normal 0 0 -1
    outer loop
      vertex -1.16635 -1.09527 0
      vertex -3.998 -6.063 0
      vertex -1.29443 -0.940456 0
    endloop
  endfacet
  facet normal 0 0 -1
    outer loop
      vertex 0.100465 1.59684 0
      vertex 3 7 0
      vertex 3.063 6.998 0
    endloop
  endfacet
  facet normal 0 0 -1
    outer loop
      vertex 0.100465 1.59684 0
      vertex 3.063 6.998 0
      vertex 3.125 6.992 0
    endloop
  endfacet
  facet normal 0 0 -1
    outer loop
      vertex -0.100465 1.59684 0
      vertex 3 7 0
      vertex 0.100465 1.59684 0
    endloop
  endfacet
  facet normal 0 0 -1
    outer loop
      vertex 0.100465 1.59684 0
      vertex 3.125 6.992 0
      vertex 3.187 6.982 0
    endloop
  endfacet
  facet normal 0 0 -1
    outer loop
      vertex 0.857323 1.35092 0
      vertex 3.992 6.125 0
      vertex 3.998 6.063 0
    endloop
  endfacet
  facet normal 0 0 -1
    outer loop
      vertex 0.857323 1.35092 0
      vertex 3.998 6.063 0
      vertex 4 6 0
    endloop
  endfacet
  facet normal 0 0 -1
    outer loop
      vertex 0.681247 1.44772 0
      vertex 3.905 6.426 0
      vertex 3.93 6.368 0
    endloop
  endfacet
  facet normal -1 0 0
    outer loop
      vertex -4 -6 0
      vertex -4 -6 4
      vertex -4 6 0
    endloop
  endfacet
  facet normal -1 0 0
    outer loop
      vertex -4 6 0
      vertex -4 -6 4
      vertex -4 6 4
    endloop
  endfacet
  facet normal 0 0 1
    outer loop
      vertex -4 6 4
      vertex -4 -6 4
      vertex -3.998 -6.063 4
    endloop
  endfacet
  facet normal 0 0 1
    outer loop
      vertex -3.982 -6.187 4
      vertex -4 6 4
      vertex -3.992 -6.125 4
    endloop
  endfacet
  facet normal 0 0 1
    outer loop
      vertex -3.992 -6.125 4
      vertex -4 6 4
      vertex -3.998 -6.063 4
    endloop
  endfacet
  facet normal 0 0 1
    outer loop
      vertex -3.969 -6.249 4
      vertex -4 6 4
      vertex -3.982 -6.187 4
    endloop
  endfacet
  facet normal 0 0 1
    outer loop
      vertex -3.951 -6.309 4
      vertex -4 6 4
      vertex -3.969 -6.249 4
    endloop
  endfacet
  facet normal 0 0 1
    outer loop
      vertex -3.93 -6.368 4
      vertex -4 6 4
      vertex -3.951 -6.309 4
    endloop
  endfacet
  facet normal 0 0 1
    outer loop
      vertex -3.905 -6.426 4
      vertex -4 6 4
      vertex -3.93 -6.368 4
    endloop
  endfacet
  facet normal 0 0 1
    outer loop
      vertex -3.876 -6.482 4
      vertex -4 6 4
      vertex -3.905 -6.426 4
    endloop
  endfacet
  facet normal 0 0 1
    outer loop
      vertex -3.844 -6.536 4
      vertex -4 6 4
      vertex -3.876 -6.482 4
    endloop
  endfacet
  facet normal 0 0 1
    outer loop
      vertex -3.809 -6.588 4
      vertex -4 6 4
      vertex -3.844 -6.536 4
    endloop
  endfacet
  facet normal 0 0 1
    outer loop
      vertex -3.771 -6.637 4
      vertex -4 6 4
      vertex -3.809 -6.588 4
    endloop
  endfacet
  facet normal 0 0 1
    outer loop
      vertex -3.729 -6.685 4
      vertex -4 6 4
      vertex -3.771 -6.637 4
    endloop
  endfacet
  facet normal 0 0 1
    outer loop
      vertex -3.685 -6.729 4
      vertex -4 6 4
      vertex -3.729 -6.685 4
    endloop
  endfacet
  facet normal 0 0 1
    outer loop
      vertex -3.637 -6.771 4
      vertex -4 6 4
      vertex -3.685 -6.729 4
    endloop
  endfacet
  facet normal 0 0 1
    outer loop
      vertex -3.588 -6.809 4
      vertex -4 6 4
      vertex -3.637 -6.771 4
    endloop
  endfacet
  facet normal 0 0 1
    outer loop
      vertex -3.536 -6.844 4
      vertex -4 6 4
      vertex -3.588 -6.809 4
    endloop
  endfacet
  facet normal 0 0 1
    outer loop
      vertex -3.482 -6.876 4
      vertex -4 6 4
      vertex -3.536 -6.844 4
    endloop
  endfacet
  facet normal 0 0 1
    outer loop
      vertex -3.426 -6.905 4
      vertex -4 6 4
      vertex -3.482 -6.876 4
    endloop
  endfacet
  facet normal 0 0 1
    outer loop
      vertex -3.368 -6.93 4
      vertex -4 6 4
      vertex -3.426 -6.905 4
    endloop
  endfacet
  facet normal 0 0 1
    outer loop
      vertex -3.309 -6.951 4
      vertex -4 6 4
      vertex -3.368 -6.93 4
    endloop
  endfacet
  facet normal 0 0 1
    outer loop
      vertex -3.249 -6.969 4
      vertex -4 6 4
      vertex -3.309 -6.951 4
    endloop
  endfacet
  facet normal 0 0 1
    outer loop
      vertex -3.187 -6.982 4
      vertex -4 6 4
      vertex -3.249 -6.969 4
    endloop
  endfacet
  facet normal 0 0 1
    outer loop
      vertex -3.125 -6.992 4
      vertex -4 6 4
      vertex -3.187 -6.982 4
    endloop
  endfacet
  facet normal 0 0 1
    outer loop
      vertex -3.063 -6.998 4
      vertex -4 6 4
      vertex -3.125 -6.992 4
    endloop
  endfacet
  facet normal 0 0 1
    outer loop
      vertex -3 -7 4
      vertex -4 6 4
      vertex -3.063 -6.998 4
    endloop
  endfacet
  facet normal 0 0 1
    outer loop
      vertex -3.464 0 4
      vertex -4 6 4
      vertex -3 -7 4
    endloop
  endfacet
  facet normal 0 0 1
    outer loop
      vertex -3.464 0 4
      vertex -1.732 3 4
      vertex -4 6 4
    endloop
  endfacet
  facet normal 0 0 1
    outer loop
      vertex 3.464 0 4
      vertex 3.951 -6.309 4
      vertex 3.969 -6.249 4
    endloop
  endfacet
  facet normal 0 0 1
    outer loop
      vertex 3.464 0 4
      vertex 3.969 -6.249 4
      vertex 3.982 -6.187 4
    endloop
  endfacet
  facet normal 0 0 1
    outer loop
      vertex 3.464 0 4
      vertex 3.982 -6.187 4
      vertex 3.992 -6.125 4
    endloop
  endfacet
  facet normal 0 0 1
    outer loop
      vertex 3.464 0 4
      vertex 3.992 -6.125 4
      vertex 3.998 -6.063 4
    endloop
  endfacet
  facet normal 0 0 1
    outer loop
      vertex 3.464 0 4
      vertex 3.998 -6.063 4
      vertex 4 -6 4
    endloop
  endfacet
  facet normal 0 0 1
    outer loop
      vertex 3.998 6.063 4
      vertex -4 6 4
      vertex 4 6 4
    endloop
  endfacet
  facet normal 0 0 1
    outer loop
      vertex 3.992 6.125 4
      vertex -4 6 4
      vertex 3.998 6.063 4
    endloop
  endfacet
  facet normal 0 0 1
    outer loop
      vertex 3.982 6.187 4
      vertex -4 6 4
      vertex 3.992 6.125 4
    endloop
  endfacet
  facet normal 0 0 1
    outer loop
      vertex 3.969 6.249 4
      vertex -4 6 4
      vertex 3.982 6.187 4
    endloop
  endfacet
  facet normal 0 0 1
    outer loop
      vertex 3.951 6.309 4
      vertex -4 6 4
      vertex 3.969 6.249 4
    endloop
  endfacet
  facet normal 0 0 1
    outer loop
      vertex 3.93 6.368 4
      vertex -4 6 4
      vertex 3.951 6.309 4
    endloop
  endfacet
  facet normal 0 0 1
    outer loop
      vertex 3.905 6.426 4
      vertex -4 6 4
      vertex 3.93 6.368 4
    endloop
  endfacet
  facet normal 0 0 1
    outer loop
      vertex 3.876 6.482 4
      vertex -4 6 4
      vertex 3.905 6.426 4
    endloop
  endfacet
  facet normal 0 0 1
    outer loop
      vertex 3.844 6.536 4
      vertex -4 6 4
      vertex 3.876 6.482 4
    endloop
  endfacet
  facet normal 0 0 1
    outer loop
      vertex 3.809 6.588 4
      vertex -4 6 4
      vertex 3.844 6.536 4
    endloop
  endfacet
  facet normal 0 0 1
    outer loop
      vertex 3.771 6.637 4
      vertex -4 6 4
      vertex 3.809 6.588 4
    endloop
  endfacet
  facet normal 0 0 1
    outer loop
      vertex 3.729 6.685 4
      vertex -4 6 4
      vertex 3.771 6.637 4
    endloop
  endfacet
  facet normal 0 0 1
    outer loop
      vertex 3.685 6.729 4
      vertex -4 6 4
      vertex 3.729 6.685 4
    endloop
  endfacet
  facet normal 0 0 1
    outer loop
      vertex 3.637 6.771 4
      vertex -4 6 4
      vertex 3.685 6.729 4
    endloop
  endfacet
  facet normal 0 0 1
    outer loop
      vertex 3.588 6.809 4
      vertex -4 6 4
      vertex 3.637 6.771 4
    endloop
  endfacet
  facet normal 0 0 1
    outer loop
      vertex 3.536 6.844 4
      vertex -4 6 4
      vertex 3.588 6.809 4
    endloop
  endfacet
  facet normal 0 0 1
    outer loop
      vertex 3.482 6.876 4
      vertex -4 6 4
      vertex 3.536 6.844 4
    endloop
  endfacet
  facet normal 0 0 1
    outer loop
      vertex 3.426 6.905 4
      vertex -4 6 4
      vertex 3.482 6.876 4
    endloop
  endfacet
  facet normal 0 0 1
    outer loop
      vertex 3.368 6.93 4
      vertex -4 6 4
      vertex 3.426 6.905 4
    endloop
  endfacet
  facet normal 0 0 1
    outer loop
      vertex 3.309 6.951 4
      vertex -4 6 4
      vertex 3.368 6.93 4
    endloop
  endfacet
  facet normal 0 0 1
    outer loop
      vertex 3.249 6.969 4
      vertex -4 6 4
      vertex 3.309 6.951 4
    endloop
  endfacet
  facet normal 0 0 1
    outer loop
      vertex 3.187 6.982 4
      vertex -4 6 4
      vertex 3.249 6.969 4
    endloop
  endfacet
  facet normal 0 0 1
    outer loop
      vertex 3.125 6.992 4
      vertex -4 6 4
      vertex 3.187 6.982 4
    endloop
  endfacet
  facet normal 0 0 1
    outer loop
      vertex 3.063 6.998 4
      vertex -4 6 4
      vertex 3.125 6.992 4
    endloop
  endfacet
  facet normal 0 0 1
    outer loop
      vertex 3 7 4
      vertex -4 6 4
      vertex 3.063 6.998 4
    endloop
  endfacet
  facet normal 0 0 1
    outer loop
      vertex -3 7 4
      vertex -4 6 4
      vertex 3 7 4
    endloop
  endfacet
  facet normal 0 0 1
    outer loop
      vertex -3.063 6.998 4
      vertex -4 6 4
      vertex -3 7 4
    endloop
  endfacet
  facet normal 0 0 1
    outer loop
      vertex -3.125 6.992 4
      vertex -4 6 4
      vertex -3.063 6.998 4
    endloop
  endfacet
  facet normal 0 0 1
    outer loop
      vertex -3.187 6.982 4
      vertex -4 6 4
      vertex -3.125 6.992 4
    endloop
  endfacet
  facet normal 0 0 1
    outer loop
      vertex -3.249 6.969 4
      vertex -4 6 4
      vertex -3.187 6.982 4
    endloop
  endfacet
  facet normal 0 0 1
    outer loop
      vertex -3.309 6.951 4
      vertex -4 6 4
      vertex -3.249 6.969 4
    endloop
  endfacet
  facet normal 0 0 1
    outer loop
      vertex -3.368 6.93 4
      vertex -4 6 4
      vertex -3.309 6.951 4
    endloop
  endfacet
  facet normal 0 0 1
    outer loop
      vertex -3.426 6.905 4
      vertex -4 6 4
      vertex -3.368 6.93 4
    endloop
  endfacet
  facet normal 0 0 1
    outer loop
      vertex -3.482 6.876 4
      vertex -4 6 4
      vertex -3.426 6.905 4
    endloop
  endfacet
  facet normal 0 0 1
    outer loop
      vertex -3.536 6.844 4
      vertex -4 6 4
      vertex -3.482 6.876 4
    endloop
  endfacet
  facet normal 0 0 1
    outer loop
      vertex -3.588 6.809 4
      vertex -4 6 4
      vertex -3.536 6.844 4
    endloop
  endfacet
  facet normal 0 0 1
    outer loop
      vertex -3.637 6.771 4
      vertex -4 6 4
      vertex -3.588 6.809 4
    endloop
  endfacet
  facet normal 0 0 1
    outer loop
      vertex -3.685 6.729 4
      vertex -4 6 4
      vertex -3.637 6.771 4
    endloop
  endfacet
  facet normal 0 0 1
    outer loop
      vertex -3.729 6.685 4
      vertex -4 6 4
      vertex -3.685 6.729 4
    endloop
  endfacet
  facet normal 0 0 1
    outer loop
      vertex -3.771 6.637 4
      vertex -4 6 4
      vertex -3.729 6.685 4
    endloop
  endfacet
  facet normal 0 0 1
    outer loop
      vertex -3.809 6.588 4
      vertex -4 6 4
      vertex -3.771 6.637 4
    endloop
  endfacet
  facet normal 0 0 1
    outer loop
      vertex -3.844 6.536 4
      vertex -4 6 4
      vertex -3.809 6.588 4
    endloop
  endfacet
  facet normal 0 0 1
    outer loop
      vertex -3.876 6.482 4
      vertex -4 6 4
      vertex -3.844 6.536 4
    endloop
  endfacet
  facet normal 0 0 1
    outer loop
      vertex -3.905 6.426 4
      vertex -4 6 4
      vertex -3.876 6.482 4
    endloop
  endfacet
  facet normal 0 0 1
    outer loop
      vertex -3.93 6.368 4
      vertex -4 6 4
      vertex -3.905 6.426 4
    endloop
  endfacet
  facet normal 0 0 1
    outer loop
      vertex -3.951 6.309 4
      vertex -4 6 4
      vertex -3.93 6.368 4
    endloop
  endfacet
  facet normal 0 0 1
    outer loop
      vertex -3.969 6.249 4
      vertex -4 6 4
      vertex -3.951 6.309 4
    endloop
  endfacet
  facet normal 0 0 1
    outer loop
      vertex -3.982 6.187 4
      vertex -4 6 4
      vertex -3.969 6.249 4
    endloop
  endfacet
  facet normal 0 0 1
    outer loop
      vertex -3.992 6.125 4
      vertex -4 6 4
      vertex -3.982 6.187 4
    endloop
  endfacet
  facet normal 0 0 1
    outer loop
      vertex -3.998 6.063 4
      vertex -4 6 4
      vertex -3.992 6.125 4
    endloop
  endfacet
  facet normal 0 0 1
    outer loop
      vertex 3 -7 4
      vertex -1.732 -3 4
      vertex -3 -7 4
    endloop
  endfacet
  facet normal 0 0 1
    outer loop
      vertex -1.732 -3 4
      vertex -3.464 0 4
      vertex -3 -7 4
    endloop
  endfacet
  facet normal 0 0 1
    outer loop
      vertex 4 6 4
      vertex -4 6 4
      vertex -1.732 3 4
    endloop
  endfacet
  facet normal 0 0 1
    outer loop
      vertex 4 6 4
      vertex -1.732 3 4
      vertex 1.732 3 4
    endloop
  endfacet
  facet normal 0 0 1
    outer loop
      vertex 4 6 4
      vertex 3.464 0 4
      vertex 4 -6 4
    endloop
  endfacet
  facet normal 0 0 1
    outer loop
      vertex 4 6 4
      vertex 1.732 3 4
      vertex 3.464 0 4
    endloop
  endfacet
  facet normal 0 0 1
    outer loop
      vertex 3.93 -6.368 4
      vertex 1.732 -3 4
      vertex 3.905 -6.426 4
    endloop
  endfacet
  facet normal 0 0 1
    outer loop
      vertex 3.464 0 4
      vertex 3.93 -6.368 4
      vertex 3.951 -6.309 4
    endloop
  endfacet
  facet normal 0 0 1
    outer loop
      vertex 3.464 0 4
      vertex 1.732 -3 4
      vertex 3.93 -6.368 4
    endloop
  endfacet
  facet normal 0 0 1
    outer loop
      vertex 1.732 -3 4
      vertex 3.876 -6.482 4
      vertex 3.905 -6.426 4
    endloop
  endfacet
  facet normal 0 0 1
    outer loop
      vertex 1.732 -3 4
      vertex 3.844 -6.536 4
      vertex 3.876 -6.482 4
    endloop
  endfacet
  facet normal 0 0 1
    outer loop
      vertex 1.732 -3 4
      vertex 3.809 -6.588 4
      vertex 3.844 -6.536 4
    endloop
  endfacet
  facet normal 0 0 1
    outer loop
      vertex 1.732 -3 4
      vertex 3.771 -6.637 4
      vertex 3.809 -6.588 4
    endloop
  endfacet
  facet normal 0 0 1
    outer loop
      vertex 1.732 -3 4
      vertex 3.729 -6.685 4
      vertex 3.771 -6.637 4
    endloop
  endfacet
  facet normal 0 0 1
    outer loop
      vertex 1.732 -3 4
      vertex 3.685 -6.729 4
      vertex 3.729 -6.685 4
    endloop
  endfacet
  facet normal 0 0 1
    outer loop
      vertex 1.732 -3 4
      vertex 3.637 -6.771 4
      vertex 3.685 -6.729 4
    endloop
  endfacet
  facet normal 0 0 1
    outer loop
      vertex 1.732 -3 4
      vertex 3.588 -6.809 4
      vertex 3.637 -6.771 4
    endloop
  endfacet
  facet normal 0 0 1
    outer loop
      vertex 1.732 -3 4
      vertex 3.536 -6.844 4
      vertex 3.588 -6.809 4
    endloop
  endfacet
  facet normal 0 0 1
    outer loop
      vertex 1.732 -3 4
      vertex 3.482 -6.876 4
      vertex 3.536 -6.844 4
    endloop
  endfacet
  facet normal 0 0 1
    outer loop
      vertex 1.732 -3 4
      vertex 3.426 -6.905 4
      vertex 3.482 -6.876 4
    endloop
  endfacet
  facet normal 0 0 1
    outer loop
      vertex 1.732 -3 4
      vertex 3.368 -6.93 4
      vertex 3.426 -6.905 4
    endloop
  endfacet
  facet normal 0 0 1
    outer loop
      vertex 1.732 -3 4
      vertex 3.309 -6.951 4
      vertex 3.368 -6.93 4
    endloop
  endfacet
  facet normal 0 0 1
    outer loop
      vertex 1.732 -3 4
      vertex 3.249 -6.969 4
      vertex 3.309 -6.951 4
    endloop
  endfacet
  facet normal 0 0 1
    outer loop
      vertex 1.732 -3 4
      vertex 3.187 -6.982 4
      vertex 3.249 -6.969 4
    endloop
  endfacet
  facet normal 0 0 1
    outer loop
      vertex 1.732 -3 4
      vertex 3.125 -6.992 4
      vertex 3.187 -6.982 4
    endloop
  endfacet
  facet normal 0 0 1
    outer loop
      vertex 1.732 -3 4
      vertex 3.063 -6.998 4
      vertex 3.125 -6.992 4
    endloop
  endfacet
  facet normal 0 0 1
    outer loop
      vertex 1.732 -3 4
      vertex 3 -7 4
      vertex 3.063 -6.998 4
    endloop
  endfacet
  facet normal 0 0 1
    outer loop
      vertex 1.732 -3 4
      vertex -1.732 -3 4
      vertex 3 -7 4
    endloop
  endfacet
  facet normal -0.99535 -0.0963242 0
    outer loop
      vertex -3.998 -6.063 0
      vertex -3.992 -6.125 0
      vertex -3.998 -6.063 4
    endloop
  endfacet
  facet normal -0.99535 -0.0963242 0
    outer loop
      vertex -3.998 -6.063 4
      vertex -3.992 -6.125 0
      vertex -3.992 -6.125 4
    endloop
  endfacet
  facet normal -0.987241 -0.159232 0
    outer loop
      vertex -3.992 -6.125 0
      vertex -3.982 -6.187 0
      vertex -3.992 -6.125 4
    endloop
  endfacet
  facet normal -0.987241 -0.159232 0
    outer loop
      vertex -3.992 -6.125 4
      vertex -3.982 -6.187 0
      vertex -3.982 -6.187 4
    endloop
  endfacet
  facet normal -0.978717 -0.205215 0
    outer loop
      vertex -3.982 -6.187 0
      vertex -3.969 -6.249 0
      vertex -3.982 -6.187 4
    endloop
  endfacet
  facet normal -0.978717 -0.205215 0
    outer loop
      vertex -3.982 -6.187 4
      vertex -3.969 -6.249 0
      vertex -3.969 -6.249 4
    endloop
  endfacet
  facet normal -0.957826 -0.287348 0
    outer loop
      vertex -3.969 -6.249 0
      vertex -3.951 -6.309 0
      vertex -3.969 -6.249 4
    endloop
  endfacet
  facet normal -0.957826 -0.287348 0
    outer loop
      vertex -3.969 -6.249 4
      vertex -3.951 -6.309 0
      vertex -3.951 -6.309 4
    endloop
  endfacet
  facet normal -0.942103 -0.335325 0
    outer loop
      vertex -3.951 -6.309 0
      vertex -3.93 -6.368 0
      vertex -3.951 -6.309 4
    endloop
  endfacet
  facet normal -0.942103 -0.335325 0
    outer loop
      vertex -3.951 -6.309 4
      vertex -3.93 -6.368 0
      vertex -3.93 -6.368 4
    endloop
  endfacet
  facet normal -0.918324 -0.395829 0
    outer loop
      vertex -3.93 -6.368 0
      vertex -3.905 -6.426 0
      vertex -3.93 -6.368 4
    endloop
  endfacet
  facet normal -0.918324 -0.395829 0
    outer loop
      vertex -3.93 -6.368 4
      vertex -3.905 -6.426 0
      vertex -3.905 -6.426 4
    endloop
  endfacet
  facet normal -0.887994 -0.459854 0
    outer loop
      vertex -3.905 -6.426 0
      vertex -3.876 -6.482 0
      vertex -3.905 -6.426 4
    endloop
  endfacet
  facet normal -0.887994 -0.459854 0
    outer loop
      vertex -3.905 -6.426 4
      vertex -3.876 -6.482 0
      vertex -3.876 -6.482 4
    endloop
  endfacet
  facet normal -0.860292 -0.509802 0
    outer loop
      vertex -3.876 -6.482 0
      vertex -3.844 -6.536 0
      vertex -3.876 -6.482 4
    endloop
  endfacet
  facet normal -0.860292 -0.509802 0
    outer loop
      vertex -3.876 -6.482 4
      vertex -3.844 -6.536 0
      vertex -3.844 -6.536 4
    endloop
  endfacet
  facet normal -0.829588 -0.558376 0
    outer loop
      vertex -3.844 -6.536 0
      vertex -3.809 -6.588 0
      vertex -3.844 -6.536 4
    endloop
  endfacet
  facet normal -0.829588 -0.558376 0
    outer loop
      vertex -3.844 -6.536 4
      vertex -3.809 -6.588 0
      vertex -3.809 -6.588 4
    endloop
  endfacet
  facet normal -0.79022 -0.612824 0
    outer loop
      vertex -3.809 -6.588 0
      vertex -3.771 -6.637 0
      vertex -3.809 -6.588 4
    endloop
  endfacet
  facet normal -0.79022 -0.612824 0
    outer loop
      vertex -3.809 -6.588 4
      vertex -3.771 -6.637 0
      vertex -3.771 -6.637 4
    endloop
  endfacet
  facet normal -0.752577 -0.658505 0
    outer loop
      vertex -3.771 -6.637 0
      vertex -3.729 -6.685 0
      vertex -3.771 -6.637 4
    endloop
  endfacet
  facet normal -0.752577 -0.658505 0
    outer loop
      vertex -3.771 -6.637 4
      vertex -3.729 -6.685 0
      vertex -3.729 -6.685 4
    endloop
  endfacet
  facet normal -0.707107 -0.707107 0
    outer loop
      vertex -3.729 -6.685 0
      vertex -3.685 -6.729 0
      vertex -3.729 -6.685 4
    endloop
  endfacet
  facet normal -0.707107 -0.707107 0
    outer loop
      vertex -3.729 -6.685 4
      vertex -3.685 -6.729 0
      vertex -3.685 -6.729 4
    endloop
  endfacet
  facet normal -0.658505 -0.752577 0
    outer loop
      vertex -3.685 -6.729 4
      vertex -3.685 -6.729 0
      vertex -3.637 -6.771 0
    endloop
  endfacet
  facet normal -0.658505 -0.752577 0
    outer loop
      vertex -3.637 -6.771 4
      vertex -3.685 -6.729 4
      vertex -3.637 -6.771 0
    endloop
  endfacet
  facet normal -0.612824 -0.79022 0
    outer loop
      vertex -3.637 -6.771 4
      vertex -3.637 -6.771 0
      vertex -3.588 -6.809 0
    endloop
  endfacet
  facet normal -0.612824 -0.79022 0
    outer loop
      vertex -3.588 -6.809 4
      vertex -3.637 -6.771 4
      vertex -3.588 -6.809 0
    endloop
  endfacet
  facet normal -0.558376 -0.829588 0
    outer loop
      vertex -3.588 -6.809 4
      vertex -3.588 -6.809 0
      vertex -3.536 -6.844 0
    endloop
  endfacet
  facet normal -0.558376 -0.829588 0
    outer loop
      vertex -3.536 -6.844 4
      vertex -3.588 -6.809 4
      vertex -3.536 -6.844 0
    endloop
  endfacet
  facet normal -0.509802 -0.860292 0
    outer loop
      vertex -3.536 -6.844 4
      vertex -3.536 -6.844 0
      vertex -3.482 -6.876 0
    endloop
  endfacet
  facet normal -0.509802 -0.860292 0
    outer loop
      vertex -3.482 -6.876 4
      vertex -3.536 -6.844 4
      vertex -3.482 -6.876 0
    endloop
  endfacet
  facet normal -0.459854 -0.887994 0
    outer loop
      vertex -3.482 -6.876 4
      vertex -3.482 -6.876 0
      vertex -3.426 -6.905 0
    endloop
  endfacet
  facet normal -0.459854 -0.887994 0
    outer loop
      vertex -3.426 -6.905 4
      vertex -3.482 -6.876 4
      vertex -3.426 -6.905 0
    endloop
  endfacet
  facet normal -0.395829 -0.918324 0
    outer loop
      vertex -3.426 -6.905 4
      vertex -3.426 -6.905 0
      vertex -3.368 -6.93 0
    endloop
  endfacet
  facet normal -0.395829 -0.918324 0
    outer loop
      vertex -3.368 -6.93 4
      vertex -3.426 -6.905 4
      vertex -3.368 -6.93 0
    endloop
  endfacet
  facet normal -0.335325 -0.942103 0
    outer loop
      vertex -3.368 -6.93 4
      vertex -3.368 -6.93 0
      vertex -3.309 -6.951 0
    endloop
  endfacet
  facet normal -0.335325 -0.942103 0
    outer loop
      vertex -3.309 -6.951 4
      vertex -3.368 -6.93 4
      vertex -3.309 -6.951 0
    endloop
  endfacet
  facet normal -0.287348 -0.957826 0
    outer loop
      vertex -3.309 -6.951 4
      vertex -3.309 -6.951 0
      vertex -3.249 -6.969 0
    endloop
  endfacet
  facet normal -0.287348 -0.957826 0
    outer loop
      vertex -3.249 -6.969 4
      vertex -3.309 -6.951 4
      vertex -3.249 -6.969 0
    endloop
  endfacet
  facet normal -0.205215 -0.978717 0
    outer loop
      vertex -3.249 -6.969 4
      vertex -3.249 -6.969 0
      vertex -3.187 -6.982 0
    endloop
  endfacet
  facet normal -0.205215 -0.978717 0
    outer loop
      vertex -3.187 -6.982 4
      vertex -3.249 -6.969 4
      vertex -3.187 -6.982 0
    endloop
  endfacet
  facet normal -0.159232 -0.987241 0
    outer loop
      vertex -3.187 -6.982 4
      vertex -3.187 -6.982 0
      vertex -3.125 -6.992 0
    endloop
  endfacet
  facet normal -0.159232 -0.987241 0
    outer loop
      vertex -3.125 -6.992 4
      vertex -3.187 -6.982 4
      vertex -3.125 -6.992 0
    endloop
  endfacet
  facet normal -0.0963242 -0.99535 0
    outer loop
      vertex -3.125 -6.992 4
      vertex -3.125 -6.992 0
      vertex -3.063 -6.998 0
    endloop
  endfacet
  facet normal -0.0963242 -0.99535 0
    outer loop
      vertex -3.063 -6.998 4
      vertex -3.125 -6.992 4
      vertex -3.063 -6.998 0
    endloop
  endfacet
  facet normal -0.03173 -0.999496 0
    outer loop
      vertex -3.063 -6.998 4
      vertex -3.063 -6.998 0
      vertex -3 -7 0
    endloop
  endfacet
  facet normal -0.03173 -0.999496 0
    outer loop
      vertex -3 -7 4
      vertex -3.063 -6.998 4
      vertex -3 -7 0
    endloop
  endfacet
  facet normal 0 -1 0
    outer loop
      vertex -3 -7 4
      vertex -3 -7 0
      vertex 3 -7 0
    endloop
  endfacet
  facet normal 0 -1 0
    outer loop
      vertex 3 -7 4
      vertex -3 -7 4
      vertex 3 -7 0
    endloop
  endfacet
  facet normal 0.03173 -0.999496 0
    outer loop
      vertex 3 -7 4
      vertex 3 -7 0
      vertex 3.063 -6.998 0
    endloop
  endfacet
  facet normal 0.03173 -0.999496 0
    outer loop
      vertex 3.063 -6.998 4
      vertex 3 -7 4
      vertex 3.063 -6.998 0
    endloop
  endfacet
  facet normal 0.0963242 -0.99535 0
    outer loop
      vertex 3.063 -6.998 4
      vertex 3.063 -6.998 0
      vertex 3.125 -6.992 0
    endloop
  endfacet
  facet normal 0.0963242 -0.99535 0
    outer loop
      vertex 3.125 -6.992 4
      vertex 3.063 -6.998 4
      vertex 3.125 -6.992 0
    endloop
  endfacet
  facet normal 0.159232 -0.987241 0
    outer loop
      vertex 3.125 -6.992 4
      vertex 3.125 -6.992 0
      vertex 3.187 -6.982 0
    endloop
  endfacet
  facet normal 0.159232 -0.987241 0
    outer loop
      vertex 3.187 -6.982 4
      vertex 3.125 -6.992 4
      vertex 3.187 -6.982 0
    endloop
  endfacet
  facet normal 0.205215 -0.978717 0
    outer loop
      vertex 3.187 -6.982 4
      vertex 3.187 -6.982 0
      vertex 3.249 -6.969 0
    endloop
  endfacet
  facet normal 0.205215 -0.978717 0
    outer loop
      vertex 3.249 -6.969 4
      vertex 3.187 -6.982 4
      vertex 3.249 -6.969 0
    endloop
  endfacet
  facet normal 0.287348 -0.957826 0
    outer loop
      vertex 3.249 -6.969 4
      vertex 3.249 -6.969 0
      vertex 3.309 -6.951 0
    endloop
  endfacet
  facet normal 0.287348 -0.957826 0
    outer loop
      vertex 3.309 -6.951 4
      vertex 3.249 -6.969 4
      vertex 3.309 -6.951 0
    endloop
  endfacet
  facet normal 0.335325 -0.942103 0
    outer loop
      vertex 3.309 -6.951 4
      vertex 3.309 -6.951 0
      vertex 3.368 -6.93 0
    endloop
  endfacet
  facet normal 0.335325 -0.942103 0
    outer loop
      vertex 3.368 -6.93 4
      vertex 3.309 -6.951 4
      vertex 3.368 -6.93 0
    endloop
  endfacet
  facet normal 0.395829 -0.918324 0
    outer loop
      vertex 3.368 -6.93 4
      vertex 3.368 -6.93 0
      vertex 3.426 -6.905 0
    endloop
  endfacet
  facet normal 0.395829 -0.918324 0
    outer loop
      vertex 3.426 -6.905 4
      vertex 3.368 -6.93 4
      vertex 3.426 -6.905 0
    endloop
  endfacet
  facet normal 0.459854 -0.887994 0
    outer loop
      vertex 3.426 -6.905 4
      vertex 3.426 -6.905 0
      vertex 3.482 -6.876 0
    endloop
  endfacet
  facet normal 0.459854 -0.887994 0
    outer loop
      vertex 3.482 -6.876 4
      vertex 3.426 -6.905 4
      vertex 3.482 -6.876 0
    endloop
  endfacet
  facet normal 0.509802 -0.860292 0
    outer loop
      vertex 3.482 -6.876 4
      vertex 3.482 -6.876 0
      vertex 3.536 -6.844 0
    endloop
  endfacet
  facet normal 0.509802 -0.860292 0
    outer loop
      vertex 3.536 -6.844 4
      vertex 3.482 -6.876 4
      vertex 3.536 -6.844 0
    endloop
  endfacet
  facet normal 0.558376 -0.829588 0
    outer loop
      vertex 3.536 -6.844 4
      vertex 3.536 -6.844 0
      vertex 3.588 -6.809 0
    endloop
  endfacet
  facet normal 0.558376 -0.829588 0
    outer loop
      vertex 3.588 -6.809 4
      vertex 3.536 -6.844 4
      vertex 3.588 -6.809 0
    endloop
  endfacet
  facet normal 0.612824 -0.79022 0
    outer loop
      vertex 3.588 -6.809 4
      vertex 3.588 -6.809 0
      vertex 3.637 -6.771 0
    endloop
  endfacet
  facet normal 0.612824 -0.79022 0
    outer loop
      vertex 3.637 -6.771 4
      vertex 3.588 -6.809 4
      vertex 3.637 -6.771 0
    endloop
  endfacet
  facet normal 0.658505 -0.752577 0
    outer loop
      vertex 3.637 -6.771 4
      vertex 3.637 -6.771 0
      vertex 3.685 -6.729 0
    endloop
  endfacet
  facet normal 0.658505 -0.752577 0
    outer loop
      vertex 3.685 -6.729 4
      vertex 3.637 -6.771 4
      vertex 3.685 -6.729 0
    endloop
  endfacet
  facet normal 0.707107 -0.707107 0
    outer loop
      vertex 3.685 -6.729 4
      vertex 3.685 -6.729 0
      vertex 3.729 -6.685 0
    endloop
  endfacet
  facet normal 0.707107 -0.707107 0
    outer loop
      vertex 3.729 -6.685 4
      vertex 3.685 -6.729 4
      vertex 3.729 -6.685 0
    endloop
  endfacet
  facet normal 0.752577 -0.658505 0
    outer loop
      vertex 3.729 -6.685 4
      vertex 3.729 -6.685 0
      vertex 3.771 -6.637 0
    endloop
  endfacet
  facet normal 0.752577 -0.658505 0
    outer loop
      vertex 3.771 -6.637 4
      vertex 3.729 -6.685 4
      vertex 3.771 -6.637 0
    endloop
  endfacet
  facet normal 0.79022 -0.612824 0
    outer loop
      vertex 3.771 -6.637 4
      vertex 3.771 -6.637 0
      vertex 3.809 -6.588 0
    endloop
  endfacet
  facet normal 0.79022 -0.612824 0
    outer loop
      vertex 3.809 -6.588 4
      vertex 3.771 -6.637 4
      vertex 3.809 -6.588 0
    endloop
  endfacet
  facet normal 0.829588 -0.558376 0
    outer loop
      vertex 3.809 -6.588 4
      vertex 3.809 -6.588 0
      vertex 3.844 -6.536 0
    endloop
  endfacet
  facet normal 0.829588 -0.558376 0
    outer loop
      vertex 3.844 -6.536 4
      vertex 3.809 -6.588 4
      vertex 3.844 -6.536 0
    endloop
  endfacet
  facet normal 0.860292 -0.509802 0
    outer loop
      vertex 3.844 -6.536 4
      vertex 3.844 -6.536 0
      vertex 3.876 -6.482 0
    endloop
  endfacet
  facet normal 0.860292 -0.509802 0
    outer loop
      vertex 3.876 -6.482 4
      vertex 3.844 -6.536 4
      vertex 3.876 -6.482 0
    endloop
  endfacet
  facet normal 0.887994 -0.459854 0
    outer loop
      vertex 3.876 -6.482 4
      vertex 3.876 -6.482 0
      vertex 3.905 -6.426 0
    endloop
  endfacet
  facet normal 0.887994 -0.459854 0
    outer loop
      vertex 3.905 -6.426 4
      vertex 3.876 -6.482 4
      vertex 3.905 -6.426 0
    endloop
  endfacet
  facet normal 0.918324 -0.395829 0
    outer loop
      vertex 3.905 -6.426 4
      vertex 3.905 -6.426 0
      vertex 3.93 -6.368 0
    endloop
  endfacet
  facet normal 0.918324 -0.395829 0
    outer loop
      vertex 3.93 -6.368 4
      vertex 3.905 -6.426 4
      vertex 3.93 -6.368 0
    endloop
  endfacet
  facet normal 0.942103 -0.335325 0
    outer loop
      vertex 3.93 -6.368 4
      vertex 3.93 -6.368 0
      vertex 3.951 -6.309 0
    endloop
  endfacet
  facet normal 0.942103 -0.335325 0
    outer loop
      vertex 3.951 -6.309 4
      vertex 3.93 -6.368 4
      vertex 3.951 -6.309 0
    endloop
  endfacet
  facet normal 0.957826 -0.287348 0
    outer loop
      vertex 3.951 -6.309 4
      vertex 3.951 -6.309 0
      vertex 3.969 -6.249 0
    endloop
  endfacet
  facet normal 0.957826 -0.287348 0
    outer loop
      vertex 3.969 -6.249 4
      vertex 3.951 -6.309 4
      vertex 3.969 -6.249 0
    endloop
  endfacet
  facet normal 0.978717 -0.205215 0
    outer loop
      vertex 3.969 -6.249 4
      vertex 3.969 -6.249 0
      vertex 3.982 -6.187 0
    endloop
  endfacet
  facet normal 0.978717 -0.205215 0
    outer loop
      vertex 3.982 -6.187 4
      vertex 3.969 -6.249 4
      vertex 3.982 -6.187 0
    endloop
  endfacet
  facet normal 0.987241 -0.159232 0
    outer loop
      vertex 3.982 -6.187 4
      vertex 3.982 -6.187 0
      vertex 3.992 -6.125 0
    endloop
  endfacet
  facet normal 0.987241 -0.159232 0
    outer loop
      vertex 3.992 -6.125 4
      vertex 3.982 -6.187 4
      vertex 3.992 -6.125 0
    endloop
  endfacet
  facet normal 0.99535 -0.0963242 0
    outer loop
      vertex 3.992 -6.125 4
      vertex 3.992 -6.125 0
      vertex 3.998 -6.063 0
    endloop
  endfacet
  facet normal 0.99535 -0.0963242 0
    outer loop
      vertex 3.998 -6.063 4
      vertex 3.992 -6.125 4
      vertex 3.998 -6.063 0
    endloop
  endfacet
  facet normal 0.999496 -0.03173 0
    outer loop
      vertex 3.998 -6.063 4
      vertex 3.998 -6.063 0
      vertex 4 -6 0
    endloop
  endfacet
  facet normal 0.999496 -0.03173 0
    outer loop
      vertex 4 -6 4
      vertex 3.998 -6.063 4
      vertex 4 -6 0
    endloop
  endfacet
  facet normal 1 0 0
    outer loop
      vertex 4 -6 4
      vertex 4 -6 0
      vertex 4 6 0
    endloop
  endfacet
  facet normal 1 0 0
    outer loop
      vertex 4 6 4
      vertex 4 -6 4
      vertex 4 6 0
    endloop
  endfacet
  facet normal 0.999496 0.03173 0
    outer loop
      vertex 4 6 0
      vertex 3.998 6.063 0
      vertex 3.998 6.063 4
    endloop
  endfacet
  facet normal 0.999496 0.03173 0
    outer loop
      vertex 4 6 4
      vertex 4 6 0
      vertex 3.998 6.063 4
    endloop
  endfacet
  facet normal 0.99535 0.0963242 0
    outer loop
      vertex 3.998 6.063 0
      vertex 3.992 6.125 0
      vertex 3.992 6.125 4
    endloop
  endfacet
  facet normal 0.99535 0.0963242 0
    outer loop
      vertex 3.998 6.063 4
      vertex 3.998 6.063 0
      vertex 3.992 6.125 4
    endloop
  endfacet
  facet normal 0.987241 0.159232 0
    outer loop
      vertex 3.992 6.125 0
      vertex 3.982 6.187 0
      vertex 3.982 6.187 4
    endloop
  endfacet
  facet normal 0.987241 0.159232 0
    outer loop
      vertex 3.992 6.125 4
      vertex 3.992 6.125 0
      vertex 3.982 6.187 4
    endloop
  endfacet
  facet normal 0.978717 0.205215 0
    outer loop
      vertex 3.982 6.187 0
      vertex 3.969 6.249 0
      vertex 3.969 6.249 4
    endloop
  endfacet
  facet normal 0.978717 0.205215 0
    outer loop
      vertex 3.982 6.187 4
      vertex 3.982 6.187 0
      vertex 3.969 6.249 4
    endloop
  endfacet
  facet normal 0.957826 0.287348 0
    outer loop
      vertex 3.969 6.249 0
      vertex 3.951 6.309 0
      vertex 3.951 6.309 4
    endloop
  endfacet
  facet normal 0.957826 0.287348 0
    outer loop
      vertex 3.969 6.249 4
      vertex 3.969 6.249 0
      vertex 3.951 6.309 4
    endloop
  endfacet
  facet normal 0.942103 0.335325 0
    outer loop
      vertex 3.951 6.309 0
      vertex 3.93 6.368 0
      vertex 3.93 6.368 4
    endloop
  endfacet
  facet normal 0.942103 0.335325 0
    outer loop
      vertex 3.951 6.309 4
      vertex 3.951 6.309 0
      vertex 3.93 6.368 4
    endloop
  endfacet
  facet normal 0.918324 0.395829 0
    outer loop
      vertex 3.93 6.368 0
      vertex 3.905 6.426 0
      vertex 3.905 6.426 4
    endloop
  endfacet
  facet normal 0.918324 0.395829 0
    outer loop
      vertex 3.93 6.368 4
      vertex 3.93 6.368 0
      vertex 3.905 6.426 4
    endloop
  endfacet
  facet normal 0.887994 0.459854 0
    outer loop
      vertex 3.905 6.426 0
      vertex 3.876 6.482 0
      vertex 3.876 6.482 4
    endloop
  endfacet
  facet normal 0.887994 0.459854 0
    outer loop
      vertex 3.905 6.426 4
      vertex 3.905 6.426 0
      vertex 3.876 6.482 4
    endloop
  endfacet
  facet normal 0.860292 0.509802 0
    outer loop
      vertex 3.876 6.482 0
      vertex 3.844 6.536 0
      vertex 3.844 6.536 4
    endloop
  endfacet
  facet normal 0.860292 0.509802 0
    outer loop
      vertex 3.876 6.482 4
      vertex 3.876 6.482 0
      vertex 3.844 6.536 4
    endloop
  endfacet
  facet normal 0.829588 0.558376 0
    outer loop
      vertex 3.844 6.536 0
      vertex 3.809 6.588 0
      vertex 3.809 6.588 4
    endloop
  endfacet
  facet normal 0.829588 0.558376 0
    outer loop
      vertex 3.844 6.536 4
      vertex 3.844 6.536 0
      vertex 3.809 6.588 4
    endloop
  endfacet
  facet normal 0.79022 0.612824 0
    outer loop
      vertex 3.809 6.588 0
      vertex 3.771 6.637 0
      vertex 3.771 6.637 4
    endloop
  endfacet
  facet normal 0.79022 0.612824 0
    outer loop
      vertex 3.809 6.588 4
      vertex 3.809 6.588 0
      vertex 3.771 6.637 4
    endloop
  endfacet
  facet normal 0.752577 0.658505 0
    outer loop
      vertex 3.771 6.637 0
      vertex 3.729 6.685 0
      vertex 3.729 6.685 4
    endloop
  endfacet
  facet normal 0.752577 0.658505 0
    outer loop
      vertex 3.771 6.637 4
      vertex 3.771 6.637 0
      vertex 3.729 6.685 4
    endloop
  endfacet
  facet normal 0.707107 0.707107 0
    outer loop
      vertex 3.729 6.685 0
      vertex 3.685 6.729 0
      vertex 3.685 6.729 4
    endloop
  endfacet
  facet normal 0.707107 0.707107 0
    outer loop
      vertex 3.729 6.685 4
      vertex 3.729 6.685 0
      vertex 3.685 6.729 4
    endloop
  endfacet
  facet normal 0.658505 0.752577 0
    outer loop
      vertex 3.637 6.771 0
      vertex 3.637 6.771 4
      vertex 3.685 6.729 0
    endloop
  endfacet
  facet normal 0.658505 0.752577 0
    outer loop
      vertex 3.685 6.729 0
      vertex 3.637 6.771 4
      vertex 3.685 6.729 4
    endloop
  endfacet
  facet normal 0.612824 0.79022 0
    outer loop
      vertex 3.588 6.809 0
      vertex 3.588 6.809 4
      vertex 3.637 6.771 0
    endloop
  endfacet
  facet normal 0.612824 0.79022 0
    outer loop
      vertex 3.637 6.771 0
      vertex 3.588 6.809 4
      vertex 3.637 6.771 4
    endloop
  endfacet
  facet normal 0.558376 0.829588 0
    outer loop
      vertex 3.536 6.844 0
      vertex 3.536 6.844 4
      vertex 3.588 6.809 0
    endloop
  endfacet
  facet normal 0.558376 0.829588 0
    outer loop
      vertex 3.588 6.809 0
      vertex 3.536 6.844 4
      vertex 3.588 6.809 4
    endloop
  endfacet
  facet normal 0.509802 0.860292 0
    outer loop
      vertex 3.482 6.876 0
      vertex 3.482 6.876 4
      vertex 3.536 6.844 0
    endloop
  endfacet
  facet normal 0.509802 0.860292 0
    outer loop
      vertex 3.536 6.844 0
      vertex 3.482 6.876 4
      vertex 3.536 6.844 4
    endloop
  endfacet
  facet normal 0.459854 0.887994 0
    outer loop
      vertex 3.426 6.905 0
      vertex 3.426 6.905 4
      vertex 3.482 6.876 0
    endloop
  endfacet
  facet normal 0.459854 0.887994 0
    outer loop
      vertex 3.482 6.876 0
      vertex 3.426 6.905 4
      vertex 3.482 6.876 4
    endloop
  endfacet
  facet normal 0.395829 0.918324 0
    outer loop
      vertex 3.368 6.93 0
      vertex 3.368 6.93 4
      vertex 3.426 6.905 0
    endloop
  endfacet
  facet normal 0.395829 0.918324 0
    outer loop
      vertex 3.426 6.905 0
      vertex 3.368 6.93 4
      vertex 3.426 6.905 4
    endloop
  endfacet
  facet normal 0.335325 0.942103 0
    outer loop
      vertex 3.309 6.951 0
      vertex 3.309 6.951 4
      vertex 3.368 6.93 0
    endloop
  endfacet
  facet normal 0.335325 0.942103 0
    outer loop
      vertex 3.368 6.93 0
      vertex 3.309 6.951 4
      vertex 3.368 6.93 4
    endloop
  endfacet
  facet normal 0.287348 0.957826 0
    outer loop
      vertex 3.249 6.969 0
      vertex 3.249 6.969 4
      vertex 3.309 6.951 0
    endloop
  endfacet
  facet normal 0.287348 0.957826 0
    outer loop
      vertex 3.309 6.951 0
      vertex 3.249 6.969 4
      vertex 3.309 6.951 4
    endloop
  endfacet
  facet normal 0.205215 0.978717 0
    outer loop
      vertex 3.187 6.982 0
      vertex 3.187 6.982 4
      vertex 3.249 6.969 0
    endloop
  endfacet
  facet normal 0.205215 0.978717 0
    outer loop
      vertex 3.249 6.969 0
      vertex 3.187 6.982 4
      vertex 3.249 6.969 4
    endloop
  endfacet
  facet normal 0.159232 0.987241 0
    outer loop
      vertex 3.125 6.992 0
      vertex 3.125 6.992 4
      vertex 3.187 6.982 0
    endloop
  endfacet
  facet normal 0.159232 0.987241 0
    outer loop
      vertex 3.187 6.982 0
      vertex 3.125 6.992 4
      vertex 3.187 6.982 4
    endloop
  endfacet
  facet normal 0.0963242 0.99535 0
    outer loop
      vertex 3.063 6.998 0
      vertex 3.063 6.998 4
      vertex 3.125 6.992 0
    endloop
  endfacet
  facet normal 0.0963242 0.99535 0
    outer loop
      vertex 3.125 6.992 0
      vertex 3.063 6.998 4
      vertex 3.125 6.992 4
    endloop
  endfacet
  facet normal 0.03173 0.999496 0
    outer loop
      vertex 3 7 0
      vertex 3 7 4
      vertex 3.063 6.998 0
    endloop
  endfacet
  facet normal 0.03173 0.999496 0
    outer loop
      vertex 3.063 6.998 0
      vertex 3 7 4
      vertex 3.063 6.998 4
    endloop
  endfacet
  facet normal 0 1 0
    outer loop
      vertex -3 7 0
      vertex -3 7 4
      vertex 3 7 0
    endloop
  endfacet
  facet normal 0 1 0
    outer loop
      vertex 3 7 0
      vertex -3 7 4
      vertex 3 7 4
    endloop
  endfacet
  facet normal -0.03173 0.999496 0
    outer loop
      vertex -3.063 6.998 0
      vertex -3.063 6.998 4
      vertex -3 7 0
    endloop
  endfacet
  facet normal -0.03173 0.999496 0
    outer loop
      vertex -3 7 0
      vertex -3.063 6.998 4
      vertex -3 7 4
    endloop
  endfacet
  facet normal -0.0963242 0.99535 0
    outer loop
      vertex -3.125 6.992 0
      vertex -3.125 6.992 4
      vertex -3.063 6.998 0
    endloop
  endfacet
  facet normal -0.0963242 0.99535 0
    outer loop
      vertex -3.063 6.998 0
      vertex -3.125 6.992 4
      vertex -3.063 6.998 4
    endloop
  endfacet
  facet normal -0.159232 0.987241 0
    outer loop
      vertex -3.187 6.982 0
      vertex -3.187 6.982 4
      vertex -3.125 6.992 0
    endloop
  endfacet
  facet normal -0.159232 0.987241 0
    outer loop
      vertex -3.125 6.992 0
      vertex -3.187 6.982 4
      vertex -3.125 6.992 4
    endloop
  endfacet
  facet normal -0.205215 0.978717 0
    outer loop
      vertex -3.249 6.969 0
      vertex -3.249 6.969 4
      vertex -3.187 6.982 0
    endloop
  endfacet
  facet normal -0.205215 0.978717 0
    outer loop
      vertex -3.187 6.982 0
      vertex -3.249 6.969 4
      vertex -3.187 6.982 4
    endloop
  endfacet
  facet normal -0.287348 0.957826 0
    outer loop
      vertex -3.309 6.951 0
      vertex -3.309 6.951 4
      vertex -3.249 6.969 0
    endloop
  endfacet
  facet normal -0.287348 0.957826 0
    outer loop
      vertex -3.249 6.969 0
      vertex -3.309 6.951 4
      vertex -3.249 6.969 4
    endloop
  endfacet
  facet normal -0.335325 0.942103 0
    outer loop
      vertex -3.368 6.93 0
      vertex -3.368 6.93 4
      vertex -3.309 6.951 0
    endloop
  endfacet
  facet normal -0.335325 0.942103 0
    outer loop
      vertex -3.309 6.951 0
      vertex -3.368 6.93 4
      vertex -3.309 6.951 4
    endloop
  endfacet
  facet normal -0.395829 0.918324 0
    outer loop
      vertex -3.426 6.905 0
      vertex -3.426 6.905 4
      vertex -3.368 6.93 0
    endloop
  endfacet
  facet normal -0.395829 0.918324 0
    outer loop
      vertex -3.368 6.93 0
      vertex -3.426 6.905 4
      vertex -3.368 6.93 4
    endloop
  endfacet
  facet normal -0.459854 0.887994 0
    outer loop
      vertex -3.482 6.876 0
      vertex -3.482 6.876 4
      vertex -3.426 6.905 0
    endloop
  endfacet
  facet normal -0.459854 0.887994 0
    outer loop
      vertex -3.426 6.905 0
      vertex -3.482 6.876 4
      vertex -3.426 6.905 4
    endloop
  endfacet
  facet normal -0.509802 0.860292 0
    outer loop
      vertex -3.536 6.844 0
      vertex -3.536 6.844 4
      vertex -3.482 6.876 0
    endloop
  endfacet
  facet normal -0.509802 0.860292 0
    outer loop
      vertex -3.482 6.876 0
      vertex -3.536 6.844 4
      vertex -3.482 6.876 4
    endloop
  endfacet
  facet normal -0.558376 0.829588 0
    outer loop
      vertex -3.588 6.809 0
      vertex -3.588 6.809 4
      vertex -3.536 6.844 0
    endloop
  endfacet
  facet normal -0.558376 0.829588 0
    outer loop
      vertex -3.536 6.844 0
      vertex -3.588 6.809 4
      vertex -3.536 6.844 4
    endloop
  endfacet
  facet normal -0.612824 0.79022 0
    outer loop
      vertex -3.637 6.771 0
      vertex -3.637 6.771 4
      vertex -3.588 6.809 0
    endloop
  endfacet
  facet normal -0.612824 0.79022 0
    outer loop
      vertex -3.588 6.809 0
      vertex -3.637 6.771 4
      vertex -3.588 6.809 4
    endloop
  endfacet
  facet normal -0.658505 0.752577 0
    outer loop
      vertex -3.685 6.729 0
      vertex -3.685 6.729 4
      vertex -3.637 6.771 0
    endloop
  endfacet
  facet normal -0.658505 0.752577 0
    outer loop
      vertex -3.637 6.771 0
      vertex -3.685 6.729 4
      vertex -3.637 6.771 4
    endloop
  endfacet
  facet normal -0.707107 0.707107 0
    outer loop
      vertex -3.729 6.685 0
      vertex -3.729 6.685 4
      vertex -3.685 6.729 0
    endloop
  endfacet
  facet normal -0.707107 0.707107 0
    outer loop
      vertex -3.685 6.729 0
      vertex -3.729 6.685 4
      vertex -3.685 6.729 4
    endloop
  endfacet
  facet normal -0.752577 0.658505 0
    outer loop
      vertex -3.771 6.637 0
      vertex -3.771 6.637 4
      vertex -3.729 6.685 0
    endloop
  endfacet
  facet normal -0.752577 0.658505 0
    outer loop
      vertex -3.729 6.685 0
      vertex -3.771 6.637 4
      vertex -3.729 6.685 4
    endloop
  endfacet
  facet normal -0.79022 0.612824 0
    outer loop
      vertex -3.809 6.588 0
      vertex -3.809 6.588 4
      vertex -3.771 6.637 0
    endloop
  endfacet
  facet normal -0.79022 0.612824 0
    outer loop
      vertex -3.771 6.637 0
      vertex -3.809 6.588 4
      vertex -3.771 6.637 4
    endloop
  endfacet
  facet normal -0.829588 0.558376 0
    outer loop
      vertex -3.844 6.536 0
      vertex -3.844 6.536 4
      vertex -3.809 6.588 0
    endloop
  endfacet
  facet normal -0.829588 0.558376 0
    outer loop
      vertex -3.809 6.588 0
      vertex -3.844 6.536 4
      vertex -3.809 6.588 4
    endloop
  endfacet
  facet normal -0.860292 0.509802 0
    outer loop
      vertex -3.876 6.482 0
      vertex -3.876 6.482 4
      vertex -3.844 6.536 0
    endloop
  endfacet
  facet normal -0.860292 0.509802 0
    outer loop
      vertex -3.844 6.536 0
      vertex -3.876 6.482 4
      vertex -3.844 6.536 4
    endloop
  endfacet
  facet normal -0.887994 0.459854 0
    outer loop
      vertex -3.905 6.426 0
      vertex -3.905 6.426 4
      vertex -3.876 6.482 0
    endloop
  endfacet
  facet normal -0.887994 0.459854 0
    outer loop
      vertex -3.876 6.482 0
      vertex -3.905 6.426 4
      vertex -3.876 6.482 4
    endloop
  endfacet
  facet normal -0.918324 0.395829 0
    outer loop
      vertex -3.93 6.368 0
      vertex -3.93 6.368 4
      vertex -3.905 6.426 0
    endloop
  endfacet
  facet normal -0.918324 0.395829 0
    outer loop
      vertex -3.905 6.426 0
      vertex -3.93 6.368 4
      vertex -3.905 6.426 4
    endloop
  endfacet
  facet normal -0.942103 0.335325 0
    outer loop
      vertex -3.951 6.309 0
      vertex -3.951 6.309 4
      vertex -3.93 6.368 0
    endloop
  endfacet
  facet normal -0.942103 0.335325 0
    outer loop
      vertex -3.93 6.368 0
      vertex -3.951 6.309 4
      vertex -3.93 6.368 4
    endloop
  endfacet
  facet normal -0.957826 0.287348 0
    outer loop
      vertex -3.969 6.249 0
      vertex -3.969 6.249 4
      vertex -3.951 6.309 0
    endloop
  endfacet
  facet normal -0.957826 0.287348 0
    outer loop
      vertex -3.951 6.309 0
      vertex -3.969 6.249 4
      vertex -3.951 6.309 4
    endloop
  endfacet
  facet normal -0.978717 0.205215 0
    outer loop
      vertex -3.982 6.187 0
      vertex -3.982 6.187 4
      vertex -3.969 6.249 0
    endloop
  endfacet
  facet normal -0.978717 0.205215 0
    outer loop
      vertex -3.969 6.249 0
      vertex -3.982 6.187 4
      vertex -3.969 6.249 4
    endloop
  endfacet
  facet normal -0.987241 0.159232 0
    outer loop
      vertex -3.992 6.125 0
      vertex -3.992 6.125 4
      vertex -3.982 6.187 0
    endloop
  endfacet
  facet normal -0.987241 0.159232 0
    outer loop
      vertex -3.982 6.187 0
      vertex -3.992 6.125 4
      vertex -3.982 6.187 4
    endloop
  endfacet
  facet normal -0.99535 0.0963242 0
    outer loop
      vertex -3.998 6.063 0
      vertex -3.998 6.063 4
      vertex -3.992 6.125 0
    endloop
  endfacet
  facet normal -0.99535 0.0963242 0
    outer loop
      vertex -3.992 6.125 0
      vertex -3.998 6.063 4
      vertex -3.992 6.125 4
    endloop
  endfacet
  facet normal -0.999496 0.03173 0
    outer loop
      vertex -4 6 0
      vertex -4 6 4
      vertex -3.998 6.063 0
    endloop
  endfacet
  facet normal -0.999496 0.03173 0
    outer loop
      vertex -3.998 6.063 0
      vertex -4 6 4
      vertex -3.998 6.063 4
    endloop
  endfacet
  facet normal 0.998027 -0.0627882 0
    outer loop
      vertex -1.58738 0.200533 0
      vertex -1.58738 0.200533 2
      vertex -1.6 0 2
    endloop
  endfacet
  facet normal 0.998027 -0.0627882 0
    outer loop
      vertex -1.6 0 0
      vertex -1.58738 0.200533 0
      vertex -1.6 0 2
    endloop
  endfacet
  facet normal 0.998027 0.0627882 0
    outer loop
      vertex -1.6 0 2
      vertex -1.58738 -0.200533 2
      vertex -1.58738 -0.200533 0
    endloop
  endfacet
  facet normal 0.998027 0.0627882 0
    outer loop
      vertex -1.6 0 0
      vertex -1.6 0 2
      vertex -1.58738 -0.200533 0
    endloop
  endfacet
  facet normal 0.982287 -0.187384 0
    outer loop
      vertex -1.54973 0.397904 0
      vertex -1.54973 0.397904 2
      vertex -1.58738 0.200533 2
    endloop
  endfacet
  facet normal 0.982287 -0.187384 0
    outer loop
      vertex -1.58738 0.200533 0
      vertex -1.54973 0.397904 0
      vertex -1.58738 0.200533 2
    endloop
  endfacet
  facet normal 0.951056 -0.309019 0
    outer loop
      vertex -1.48764 0.588999 0
      vertex -1.48764 0.588999 2
      vertex -1.54973 0.397904 2
    endloop
  endfacet
  facet normal 0.951056 -0.309019 0
    outer loop
      vertex -1.54973 0.397904 0
      vertex -1.48764 0.588999 0
      vertex -1.54973 0.397904 2
    endloop
  endfacet
  facet normal 0.904829 -0.425776 0
    outer loop
      vertex -1.40209 0.770806 0
      vertex -1.40209 0.770806 2
      vertex -1.48764 0.588999 2
    endloop
  endfacet
  facet normal 0.904829 -0.425776 0
    outer loop
      vertex -1.48764 0.588999 0
      vertex -1.40209 0.770806 0
      vertex -1.48764 0.588999 2
    endloop
  endfacet
  facet normal 0.844326 -0.53583 0
    outer loop
      vertex -1.29443 0.940456 0
      vertex -1.29443 0.940456 2
      vertex -1.40209 0.770806 2
    endloop
  endfacet
  facet normal 0.844326 -0.53583 0
    outer loop
      vertex -1.40209 0.770806 0
      vertex -1.29443 0.940456 0
      vertex -1.40209 0.770806 2
    endloop
  endfacet
  facet normal 0.770514 -0.637423 0
    outer loop
      vertex -1.16635 1.09527 0
      vertex -1.16635 1.09527 2
      vertex -1.29443 0.940456 2
    endloop
  endfacet
  facet normal 0.770514 -0.637423 0
    outer loop
      vertex -1.29443 0.940456 0
      vertex -1.16635 1.09527 0
      vertex -1.29443 0.940456 2
    endloop
  endfacet
  facet normal 0.684546 -0.72897 0
    outer loop
      vertex -1.01988 1.23282 0
      vertex -1.01988 1.23282 2
      vertex -1.16635 1.09527 2
    endloop
  endfacet
  facet normal 0.684546 -0.72897 0
    outer loop
      vertex -1.16635 1.09527 0
      vertex -1.01988 1.23282 0
      vertex -1.16635 1.09527 2
    endloop
  endfacet
  facet normal 0.587788 -0.809015 0
    outer loop
      vertex -0.857323 1.35092 0
      vertex -0.857323 1.35092 2
      vertex -1.01988 1.23282 2
    endloop
  endfacet
  facet normal 0.587788 -0.809015 0
    outer loop
      vertex -1.01988 1.23282 0
      vertex -0.857323 1.35092 0
      vertex -1.01988 1.23282 2
    endloop
  endfacet
  facet normal 0.481751 -0.876308 0
    outer loop
      vertex -0.681247 1.44772 0
      vertex -0.681247 1.44772 2
      vertex -0.857323 1.35092 2
    endloop
  endfacet
  facet normal 0.481751 -0.876308 0
    outer loop
      vertex -0.857323 1.35092 0
      vertex -0.681247 1.44772 0
      vertex -0.857323 1.35092 2
    endloop
  endfacet
  facet normal 0.368123 -0.929777 0
    outer loop
      vertex -0.494427 1.52169 0
      vertex -0.494427 1.52169 2
      vertex -0.681247 1.44772 2
    endloop
  endfacet
  facet normal 0.368123 -0.929777 0
    outer loop
      vertex -0.681247 1.44772 0
      vertex -0.494427 1.52169 0
      vertex -0.681247 1.44772 2
    endloop
  endfacet
  facet normal 0.248694 -0.968582 0
    outer loop
      vertex -0.29981 1.57166 0
      vertex -0.29981 1.57166 2
      vertex -0.494427 1.52169 2
    endloop
  endfacet
  facet normal 0.248694 -0.968582 0
    outer loop
      vertex -0.494427 1.52169 0
      vertex -0.29981 1.57166 0
      vertex -0.494427 1.52169 2
    endloop
  endfacet
  facet normal 0.125333 -0.992115 0
    outer loop
      vertex -0.100465 1.59684 0
      vertex -0.100465 1.59684 2
      vertex -0.29981 1.57166 2
    endloop
  endfacet
  facet normal 0.125333 -0.992115 0
    outer loop
      vertex -0.29981 1.57166 0
      vertex -0.100465 1.59684 0
      vertex -0.29981 1.57166 2
    endloop
  endfacet
  facet normal 0 -1 0
    outer loop
      vertex 0.100465 1.59684 0
      vertex 0.100465 1.59684 2
      vertex -0.100465 1.59684 2
    endloop
  endfacet
  facet normal 0 -1 0
    outer loop
      vertex -0.100465 1.59684 0
      vertex 0.100465 1.59684 0
      vertex -0.100465 1.59684 2
    endloop
  endfacet
  facet normal -0.125333 -0.992115 0
    outer loop
      vertex 0.29981 1.57166 0
      vertex 0.29981 1.57166 2
      vertex 0.100465 1.59684 2
    endloop
  endfacet
  facet normal -0.125333 -0.992115 0
    outer loop
      vertex 0.100465 1.59684 0
      vertex 0.29981 1.57166 0
      vertex 0.100465 1.59684 2
    endloop
  endfacet
  facet normal -0.248694 -0.968582 0
    outer loop
      vertex 0.494427 1.52169 0
      vertex 0.494427 1.52169 2
      vertex 0.29981 1.57166 2
    endloop
  endfacet
  facet normal -0.248694 -0.968582 0
    outer loop
      vertex 0.29981 1.57166 0
      vertex 0.494427 1.52169 0
      vertex 0.29981 1.57166 2
    endloop
  endfacet
  facet normal -0.368123 -0.929777 0
    outer loop
      vertex 0.681247 1.44772 0
      vertex 0.681247 1.44772 2
      vertex 0.494427 1.52169 2
    endloop
  endfacet
  facet normal -0.368123 -0.929777 0
    outer loop
      vertex 0.494427 1.52169 0
      vertex 0.681247 1.44772 0
      vertex 0.494427 1.52169 2
    endloop
  endfacet
  facet normal -0.481751 -0.876308 0
    outer loop
      vertex 0.857323 1.35092 0
      vertex 0.857323 1.35092 2
      vertex 0.681247 1.44772 2
    endloop
  endfacet
  facet normal -0.481751 -0.876308 0
    outer loop
      vertex 0.681247 1.44772 0
      vertex 0.857323 1.35092 0
      vertex 0.681247 1.44772 2
    endloop
  endfacet
  facet normal -0.587788 -0.809015 0
    outer loop
      vertex 1.01988 1.23282 0
      vertex 1.01988 1.23282 2
      vertex 0.857323 1.35092 2
    endloop
  endfacet
  facet normal -0.587788 -0.809015 0
    outer loop
      vertex 0.857323 1.35092 0
      vertex 1.01988 1.23282 0
      vertex 0.857323 1.35092 2
    endloop
  endfacet
  facet normal -0.684546 -0.72897 0
    outer loop
      vertex 1.16635 1.09527 0
      vertex 1.16635 1.09527 2
      vertex 1.01988 1.23282 2
    endloop
  endfacet
  facet normal -0.684546 -0.72897 0
    outer loop
      vertex 1.01988 1.23282 0
      vertex 1.16635 1.09527 0
      vertex 1.01988 1.23282 2
    endloop
  endfacet
  facet normal -0.770514 -0.637423 0
    outer loop
      vertex 1.29443 0.940456 2
      vertex 1.16635 1.09527 2
      vertex 1.29443 0.940456 0
    endloop
  endfacet
  facet normal -0.770514 -0.637423 0
    outer loop
      vertex 1.29443 0.940456 0
      vertex 1.16635 1.09527 2
      vertex 1.16635 1.09527 0
    endloop
  endfacet
  facet normal -0.844326 -0.53583 0
    outer loop
      vertex 1.40209 0.770806 2
      vertex 1.29443 0.940456 2
      vertex 1.40209 0.770806 0
    endloop
  endfacet
  facet normal -0.844326 -0.53583 0
    outer loop
      vertex 1.40209 0.770806 0
      vertex 1.29443 0.940456 2
      vertex 1.29443 0.940456 0
    endloop
  endfacet
  facet normal -0.904829 -0.425776 0
    outer loop
      vertex 1.48764 0.588999 2
      vertex 1.40209 0.770806 2
      vertex 1.48764 0.588999 0
    endloop
  endfacet
  facet normal -0.904829 -0.425776 0
    outer loop
      vertex 1.48764 0.588999 0
      vertex 1.40209 0.770806 2
      vertex 1.40209 0.770806 0
    endloop
  endfacet
  facet normal -0.951056 -0.309019 0
    outer loop
      vertex 1.54973 0.397904 2
      vertex 1.48764 0.588999 2
      vertex 1.54973 0.397904 0
    endloop
  endfacet
  facet normal -0.951056 -0.309019 0
    outer loop
      vertex 1.54973 0.397904 0
      vertex 1.48764 0.588999 2
      vertex 1.48764 0.588999 0
    endloop
  endfacet
  facet normal -0.982287 -0.187384 0
    outer loop
      vertex 1.58738 0.200533 2
      vertex 1.54973 0.397904 2
      vertex 1.58738 0.200533 0
    endloop
  endfacet
  facet normal -0.982287 -0.187384 0
    outer loop
      vertex 1.58738 0.200533 0
      vertex 1.54973 0.397904 2
      vertex 1.54973 0.397904 0
    endloop
  endfacet
  facet normal -0.998027 -0.0627882 0
    outer loop
      vertex 1.6 0 2
      vertex 1.58738 0.200533 2
      vertex 1.6 0 0
    endloop
  endfacet
  facet normal -0.998027 -0.0627882 0
    outer loop
      vertex 1.6 0 0
      vertex 1.58738 0.200533 2
      vertex 1.58738 0.200533 0
    endloop
  endfacet
  facet normal -0.998027 0.0627882 0
    outer loop
      vertex 1.6 0 2
      vertex 1.6 0 0
      vertex 1.58738 -0.200533 2
    endloop
  endfacet
  facet normal -0.998027 0.0627882 0
    outer loop
      vertex 1.58738 -0.200533 2
      vertex 1.6 0 0
      vertex 1.58738 -0.200533 0
    endloop
  endfacet
  facet normal -0.982287 0.187384 0
    outer loop
      vertex 1.58738 -0.200533 2
      vertex 1.58738 -0.200533 0
      vertex 1.54973 -0.397904 2
    endloop
  endfacet
  facet normal -0.982287 0.187384 0
    outer loop
      vertex 1.54973 -0.397904 2
      vertex 1.58738 -0.200533 0
      vertex 1.54973 -0.397904 0
    endloop
  endfacet
  facet normal -0.951056 0.309019 0
    outer loop
      vertex 1.54973 -0.397904 2
      vertex 1.54973 -0.397904 0
      vertex 1.48764 -0.588999 2
    endloop
  endfacet
  facet normal -0.951056 0.309019 0
    outer loop
      vertex 1.48764 -0.588999 2
      vertex 1.54973 -0.397904 0
      vertex 1.48764 -0.588999 0
    endloop
  endfacet
  facet normal -0.904829 0.425776 0
    outer loop
      vertex 1.48764 -0.588999 2
      vertex 1.48764 -0.588999 0
      vertex 1.40209 -0.770806 2
    endloop
  endfacet
  facet normal -0.904829 0.425776 0
    outer loop
      vertex 1.40209 -0.770806 2
      vertex 1.48764 -0.588999 0
      vertex 1.40209 -0.770806 0
    endloop
  endfacet
  facet normal -0.844326 0.53583 0
    outer loop
      vertex 1.40209 -0.770806 2
      vertex 1.40209 -0.770806 0
      vertex 1.29443 -0.940456 2
    endloop
  endfacet
  facet normal -0.844326 0.53583 0
    outer loop
      vertex 1.29443 -0.940456 2
      vertex 1.40209 -0.770806 0
      vertex 1.29443 -0.940456 0
    endloop
  endfacet
  facet normal -0.770514 0.637423 0
    outer loop
      vertex 1.29443 -0.940456 2
      vertex 1.29443 -0.940456 0
      vertex 1.16635 -1.09527 2
    endloop
  endfacet
  facet normal -0.770514 0.637423 0
    outer loop
      vertex 1.16635 -1.09527 2
      vertex 1.29443 -0.940456 0
      vertex 1.16635 -1.09527 0
    endloop
  endfacet
  facet normal -0.684546 0.72897 0
    outer loop
      vertex 1.16635 -1.09527 2
      vertex 1.16635 -1.09527 0
      vertex 1.01988 -1.23282 2
    endloop
  endfacet
  facet normal -0.684546 0.72897 0
    outer loop
      vertex 1.01988 -1.23282 2
      vertex 1.16635 -1.09527 0
      vertex 1.01988 -1.23282 0
    endloop
  endfacet
  facet normal -0.587788 0.809015 0
    outer loop
      vertex 1.01988 -1.23282 2
      vertex 1.01988 -1.23282 0
      vertex 0.857323 -1.35092 2
    endloop
  endfacet
  facet normal -0.587788 0.809015 0
    outer loop
      vertex 0.857323 -1.35092 2
      vertex 1.01988 -1.23282 0
      vertex 0.857323 -1.35092 0
    endloop
  endfacet
  facet normal -0.481751 0.876308 0
    outer loop
      vertex 0.857323 -1.35092 2
      vertex 0.857323 -1.35092 0
      vertex 0.681247 -1.44772 2
    endloop
  endfacet
  facet normal -0.481751 0.876308 0
    outer loop
      vertex 0.681247 -1.44772 2
      vertex 0.857323 -1.35092 0
      vertex 0.681247 -1.44772 0
    endloop
  endfacet
  facet normal -0.368123 0.929777 0
    outer loop
      vertex 0.681247 -1.44772 2
      vertex 0.681247 -1.44772 0
      vertex 0.494427 -1.52169 2
    endloop
  endfacet
  facet normal -0.368123 0.929777 0
    outer loop
      vertex 0.494427 -1.52169 2
      vertex 0.681247 -1.44772 0
      vertex 0.494427 -1.52169 0
    endloop
  endfacet
  facet normal -0.248694 0.968582 0
    outer loop
      vertex 0.494427 -1.52169 2
      vertex 0.494427 -1.52169 0
      vertex 0.29981 -1.57166 2
    endloop
  endfacet
  facet normal -0.248694 0.968582 0
    outer loop
      vertex 0.29981 -1.57166 2
      vertex 0.494427 -1.52169 0
      vertex 0.29981 -1.57166 0
    endloop
  endfacet
  facet normal -0.125333 0.992115 0
    outer loop
      vertex 0.29981 -1.57166 2
      vertex 0.29981 -1.57166 0
      vertex 0.100465 -1.59684 2
    endloop
  endfacet
  facet normal -0.125333 0.992115 0
    outer loop
      vertex 0.100465 -1.59684 2
      vertex 0.29981 -1.57166 0
      vertex 0.100465 -1.59684 0
    endloop
  endfacet
  facet normal 0 1 0
    outer loop
      vertex 0.100465 -1.59684 2
      vertex 0.100465 -1.59684 0
      vertex -0.100465 -1.59684 2
    endloop
  endfacet
  facet normal 0 1 0
    outer loop
      vertex -0.100465 -1.59684 2
      vertex 0.100465 -1.59684 0
      vertex -0.100465 -1.59684 0
    endloop
  endfacet
  facet normal 0.125333 0.992115 0
    outer loop
      vertex -0.100465 -1.59684 2
      vertex -0.100465 -1.59684 0
      vertex -0.29981 -1.57166 2
    endloop
  endfacet
  facet normal 0.125333 0.992115 0
    outer loop
      vertex -0.29981 -1.57166 2
      vertex -0.100465 -1.59684 0
      vertex -0.29981 -1.57166 0
    endloop
  endfacet
  facet normal 0.248694 0.968582 0
    outer loop
      vertex -0.29981 -1.57166 2
      vertex -0.29981 -1.57166 0
      vertex -0.494427 -1.52169 2
    endloop
  endfacet
  facet normal 0.248694 0.968582 0
    outer loop
      vertex -0.494427 -1.52169 2
      vertex -0.29981 -1.57166 0
      vertex -0.494427 -1.52169 0
    endloop
  endfacet
  facet normal 0.368123 0.929777 0
    outer loop
      vertex -0.494427 -1.52169 2
      vertex -0.494427 -1.52169 0
      vertex -0.681247 -1.44772 2
    endloop
  endfacet
  facet normal 0.368123 0.929777 0
    outer loop
      vertex -0.681247 -1.44772 2
      vertex -0.494427 -1.52169 0
      vertex -0.681247 -1.44772 0
    endloop
  endfacet
  facet normal 0.481751 0.876308 0
    outer loop
      vertex -0.681247 -1.44772 2
      vertex -0.681247 -1.44772 0
      vertex -0.857323 -1.35092 2
    endloop
  endfacet
  facet normal 0.481751 0.876308 0
    outer loop
      vertex -0.857323 -1.35092 2
      vertex -0.681247 -1.44772 0
      vertex -0.857323 -1.35092 0
    endloop
  endfacet
  facet normal 0.587788 0.809015 0
    outer loop
      vertex -0.857323 -1.35092 2
      vertex -0.857323 -1.35092 0
      vertex -1.01988 -1.23282 2
    endloop
  endfacet
  facet normal 0.587788 0.809015 0
    outer loop
      vertex -1.01988 -1.23282 2
      vertex -0.857323 -1.35092 0
      vertex -1.01988 -1.23282 0
    endloop
  endfacet
  facet normal 0.684546 0.72897 0
    outer loop
      vertex -1.01988 -1.23282 2
      vertex -1.01988 -1.23282 0
      vertex -1.16635 -1.09527 2
    endloop
  endfacet
  facet normal 0.684546 0.72897 0
    outer loop
      vertex -1.16635 -1.09527 2
      vertex -1.01988 -1.23282 0
      vertex -1.16635 -1.09527 0
    endloop
  endfacet
  facet normal 0.770514 0.637423 0
    outer loop
      vertex -1.29443 -0.940456 2
      vertex -1.16635 -1.09527 2
      vertex -1.16635 -1.09527 0
    endloop
  endfacet
  facet normal 0.770514 0.637423 0
    outer loop
      vertex -1.29443 -0.940456 0
      vertex -1.29443 -0.940456 2
      vertex -1.16635 -1.09527 0
    endloop
  endfacet
  facet normal 0.844326 0.53583 0
    outer loop
      vertex -1.40209 -0.770806 2
      vertex -1.29443 -0.940456 2
      vertex -1.29443 -0.940456 0
    endloop
  endfacet
  facet normal 0.844326 0.53583 0
    outer loop
      vertex -1.40209 -0.770806 0
      vertex -1.40209 -0.770806 2
      vertex -1.29443 -0.940456 0
    endloop
  endfacet
  facet normal 0.904829 0.425776 0
    outer loop
      vertex -1.48764 -0.588999 2
      vertex -1.40209 -0.770806 2
      vertex -1.40209 -0.770806 0
    endloop
  endfacet
  facet normal 0.904829 0.425776 0
    outer loop
      vertex -1.48764 -0.588999 0
      vertex -1.48764 -0.588999 2
      vertex -1.40209 -0.770806 0
    endloop
  endfacet
  facet normal 0.951056 0.309019 0
    outer loop
      vertex -1.54973 -0.397904 2
      vertex -1.48764 -0.588999 2
      vertex -1.48764 -0.588999 0
    endloop
  endfacet
  facet normal 0.951056 0.309019 0
    outer loop
      vertex -1.54973 -0.397904 0
      vertex -1.54973 -0.397904 2
      vertex -1.48764 -0.588999 0
    endloop
  endfacet
  facet normal 0.982287 0.187384 0
    outer loop
      vertex -1.58738 -0.200533 2
      vertex -1.54973 -0.397904 2
      vertex -1.54973 -0.397904 0
    endloop
  endfacet
  facet normal 0.982287 0.187384 0
    outer loop
      vertex -1.58738 -0.200533 0
      vertex -1.58738 -0.200533 2
      vertex -1.54973 -0.397904 0
    endloop
  endfacet
  facet normal 0.866032 0.499989 0
    outer loop
      vertex -3.464 0 4
      vertex -1.732 -3 4
      vertex -1.732 -3 2
    endloop
  endfacet
  facet normal 0.866032 0.499989 0
    outer loop
      vertex -3.464 0 2
      vertex -3.464 0 4
      vertex -1.732 -3 2
    endloop
  endfacet
  facet normal 0 1 0
    outer loop
      vertex 1.732 -3 4
      vertex 1.732 -3 2
      vertex -1.732 -3 4
    endloop
  endfacet
  facet normal 0 1 0
    outer loop
      vertex -1.732 -3 4
      vertex 1.732 -3 2
      vertex -1.732 -3 2
    endloop
  endfacet
  facet normal -0.866032 0.499989 0
    outer loop
      vertex 3.464 0 4
      vertex 3.464 0 2
      vertex 1.732 -3 4
    endloop
  endfacet
  facet normal -0.866032 0.499989 0
    outer loop
      vertex 1.732 -3 4
      vertex 3.464 0 2
      vertex 1.732 -3 2
    endloop
  endfacet
  facet normal -0.866032 -0.499989 0
    outer loop
      vertex 3.464 0 4
      vertex 1.732 3 4
      vertex 3.464 0 2
    endloop
  endfacet
  facet normal -0.866032 -0.499989 0
    outer loop
      vertex 3.464 0 2
      vertex 1.732 3 4
      vertex 1.732 3 2
    endloop
  endfacet
  facet normal 0 -1 0
    outer loop
      vertex 1.732 3 2
      vertex 1.732 3 4
      vertex -1.732 3 4
    endloop
  endfacet
  facet normal 0 -1 0
    outer loop
      vertex -1.732 3 2
      vertex 1.732 3 2
      vertex -1.732 3 4
    endloop
  endfacet
  facet normal 0.866032 -0.499989 0
    outer loop
      vertex -1.732 3 2
      vertex -1.732 3 4
      vertex -3.464 0 4
    endloop
  endfacet
  facet normal 0.866032 -0.499989 0
    outer loop
      vertex -3.464 0 2
      vertex -1.732 3 2
      vertex -3.464 0 4
    endloop
  endfacet
  facet normal 0 0 1
    outer loop
      vertex -1.732 -3 2
      vertex 1.732 -3 2
      vertex 3.464 0 2
    endloop
  endfacet
  facet normal 0 0 1
    outer loop
      vertex 0.857323 -1.35092 2
      vertex 0.681247 -1.44772 2
      vertex -1.732 -3 2
    endloop
  endfacet
  facet normal 0 0 1
    outer loop
      vertex 0.857323 -1.35092 2
      vertex -1.732 -3 2
      vertex 3.464 0 2
    endloop
  endfacet
  facet normal 0 0 1
    outer loop
      vertex -3.464 0 2
      vertex -1.732 -3 2
      vertex -1.732 3 2
    endloop
  endfacet
  facet normal 0 0 1
    outer loop
      vertex 0.681247 1.44772 2
      vertex 0.857323 1.35092 2
      vertex 1.732 3 2
    endloop
  endfacet
  facet normal 0 0 1
    outer loop
      vertex -1.732 3 2
      vertex -1.732 -3 2
      vertex -1.6 0 2
    endloop
  endfacet
  facet normal 0 0 1
    outer loop
      vertex 0.100465 1.59684 2
      vertex 0.29981 1.57166 2
      vertex 1.732 3 2
    endloop
  endfacet
  facet normal 0 0 1
    outer loop
      vertex -1.732 3 2
      vertex -1.6 0 2
      vertex -1.58738 0.200533 2
    endloop
  endfacet
  facet normal 0 0 1
    outer loop
      vertex 0.29981 -1.57166 2
      vertex 0.100465 -1.59684 2
      vertex -1.732 -3 2
    endloop
  endfacet
  facet normal 0 0 1
    outer loop
      vertex -1.732 3 2
      vertex -1.58738 0.200533 2
      vertex -1.54973 0.397904 2
    endloop
  endfacet
  facet normal 0 0 1
    outer loop
      vertex -1.732 3 2
      vertex -1.54973 0.397904 2
      vertex -1.48764 0.588999 2
    endloop
  endfacet
  facet normal 0 0 1
    outer loop
      vertex -0.100465 1.59684 2
      vertex 0.100465 1.59684 2
      vertex 1.732 3 2
    endloop
  endfacet
  facet normal 0 0 1
    outer loop
      vertex -1.732 3 2
      vertex -1.48764 0.588999 2
      vertex -1.40209 0.770806 2
    endloop
  endfacet
  facet normal 0 0 1
    outer loop
      vertex -1.732 3 2
      vertex -1.40209 0.770806 2
      vertex -1.29443 0.940456 2
    endloop
  endfacet
  facet normal 0 0 1
    outer loop
      vertex -0.494427 1.52169 2
      vertex -0.29981 1.57166 2
      vertex 1.732 3 2
    endloop
  endfacet
  facet normal 0 0 1
    outer loop
      vertex -1.732 3 2
      vertex -1.29443 0.940456 2
      vertex -1.16635 1.09527 2
    endloop
  endfacet
  facet normal 0 0 1
    outer loop
      vertex -0.681247 1.44772 2
      vertex -0.494427 1.52169 2
      vertex 1.732 3 2
    endloop
  endfacet
  facet normal 0 0 1
    outer loop
      vertex -1.732 3 2
      vertex -1.16635 1.09527 2
      vertex -1.01988 1.23282 2
    endloop
  endfacet
  facet normal 0 0 1
    outer loop
      vertex -1.732 3 2
      vertex -0.857323 1.35092 2
      vertex 1.732 3 2
    endloop
  endfacet
  facet normal 0 0 1
    outer loop
      vertex -1.732 3 2
      vertex -1.01988 1.23282 2
      vertex -0.857323 1.35092 2
    endloop
  endfacet
  facet normal 0 0 1
    outer loop
      vertex 0.29981 1.57166 2
      vertex 0.494427 1.52169 2
      vertex 1.732 3 2
    endloop
  endfacet
  facet normal 0 0 1
    outer loop
      vertex 0.494427 1.52169 2
      vertex 0.681247 1.44772 2
      vertex 1.732 3 2
    endloop
  endfacet
  facet normal 0 0 1
    outer loop
      vertex 1.732 3 2
      vertex 0.857323 1.35092 2
      vertex 3.464 0 2
    endloop
  endfacet
  facet normal 0 0 1
    outer loop
      vertex 0.857323 1.35092 2
      vertex 1.01988 1.23282 2
      vertex 3.464 0 2
    endloop
  endfacet
  facet normal 0 0 1
    outer loop
      vertex -0.857323 -1.35092 2
      vertex -1.01988 -1.23282 2
      vertex -1.732 -3 2
    endloop
  endfacet
  facet normal 0 0 1
    outer loop
      vertex 1.01988 1.23282 2
      vertex 1.16635 1.09527 2
      vertex 3.464 0 2
    endloop
  endfacet
  facet normal 0 0 1
    outer loop
      vertex 1.16635 1.09527 2
      vertex 1.29443 0.940456 2
      vertex 3.464 0 2
    endloop
  endfacet
  facet normal 0 0 1
    outer loop
      vertex 1.29443 0.940456 2
      vertex 1.40209 0.770806 2
      vertex 3.464 0 2
    endloop
  endfacet
  facet normal 0 0 1
    outer loop
      vertex 1.40209 0.770806 2
      vertex 1.48764 0.588999 2
      vertex 3.464 0 2
    endloop
  endfacet
  facet normal 0 0 1
    outer loop
      vertex 1.48764 0.588999 2
      vertex 1.54973 0.397904 2
      vertex 3.464 0 2
    endloop
  endfacet
  facet normal 0 0 1
    outer loop
      vertex 1.54973 0.397904 2
      vertex 1.58738 0.200533 2
      vertex 3.464 0 2
    endloop
  endfacet
  facet normal 0 0 1
    outer loop
      vertex 1.58738 0.200533 2
      vertex 1.6 0 2
      vertex 3.464 0 2
    endloop
  endfacet
  facet normal 0 0 1
    outer loop
      vertex 1.6 0 2
      vertex 1.58738 -0.200533 2
      vertex 3.464 0 2
    endloop
  endfacet
  facet normal 0 0 1
    outer loop
      vertex 1.58738 -0.200533 2
      vertex 1.54973 -0.397904 2
      vertex 3.464 0 2
    endloop
  endfacet
  facet normal 0 0 1
    outer loop
      vertex 1.54973 -0.397904 2
      vertex 1.48764 -0.588999 2
      vertex 3.464 0 2
    endloop
  endfacet
  facet normal 0 0 1
    outer loop
      vertex 1.48764 -0.588999 2
      vertex 1.40209 -0.770806 2
      vertex 3.464 0 2
    endloop
  endfacet
  facet normal 0 0 1
    outer loop
      vertex 1.40209 -0.770806 2
      vertex 1.29443 -0.940456 2
      vertex 3.464 0 2
    endloop
  endfacet
  facet normal 0 0 1
    outer loop
      vertex 1.29443 -0.940456 2
      vertex 1.16635 -1.09527 2
      vertex 3.464 0 2
    endloop
  endfacet
  facet normal 0 0 1
    outer loop
      vertex 1.16635 -1.09527 2
      vertex 1.01988 -1.23282 2
      vertex 3.464 0 2
    endloop
  endfacet
  facet normal 0 0 1
    outer loop
      vertex 1.01988 -1.23282 2
      vertex 0.857323 -1.35092 2
      vertex 3.464 0 2
    endloop
  endfacet
  facet normal 0 0 1
    outer loop
      vertex 0.681247 -1.44772 2
      vertex 0.494427 -1.52169 2
      vertex -1.732 -3 2
    endloop
  endfacet
  facet normal 0 0 1
    outer loop
      vertex 0.494427 -1.52169 2
      vertex 0.29981 -1.57166 2
      vertex -1.732 -3 2
    endloop
  endfacet
  facet normal 0 0 1
    outer loop
      vertex 0.100465 -1.59684 2
      vertex -0.100465 -1.59684 2
      vertex -1.732 -3 2
    endloop
  endfacet
  facet normal 0 0 1
    outer loop
      vertex -0.100465 -1.59684 2
      vertex -0.29981 -1.57166 2
      vertex -1.732 -3 2
    endloop
  endfacet
  facet normal 0 0 1
    outer loop
      vertex -0.29981 -1.57166 2
      vertex -0.494427 -1.52169 2
      vertex -1.732 -3 2
    endloop
  endfacet
  facet normal 0 0 1
    outer loop
      vertex -0.681247 -1.44772 2
      vertex -0.857323 -1.35092 2
      vertex -1.732 -3 2
    endloop
  endfacet
  facet normal 0 0 1
    outer loop
      vertex -1.16635 -1.09527 2
      vertex -1.732 -3 2
      vertex -1.01988 -1.23282 2
    endloop
  endfacet
  facet normal 0 0 1
    outer loop
      vertex -1.29443 -0.940456 2
      vertex -1.732 -3 2
      vertex -1.16635 -1.09527 2
    endloop
  endfacet
  facet normal 0 0 1
    outer loop
      vertex -1.40209 -0.770806 2
      vertex -1.732 -3 2
      vertex -1.29443 -0.940456 2
    endloop
  endfacet
  facet normal 0 0 1
    outer loop
      vertex -1.48764 -0.588999 2
      vertex -1.732 -3 2
      vertex -1.40209 -0.770806 2
    endloop
  endfacet
  facet normal 0 0 1
    outer loop
      vertex -1.54973 -0.397904 2
      vertex -1.732 -3 2
      vertex -1.48764 -0.588999 2
    endloop
  endfacet
  facet normal 0 0 1
    outer loop
      vertex -1.58738 -0.200533 2
      vertex -1.732 -3 2
      vertex -1.54973 -0.397904 2
    endloop
  endfacet
  facet normal 0 0 1
    outer loop
      vertex -1.6 0 2
      vertex -1.732 -3 2
      vertex -1.58738 -0.200533 2
    endloop
  endfacet
  facet normal 0 0 1
    outer loop
      vertex -0.857323 1.35092 2
      vertex -0.681247 1.44772 2
      vertex 1.732 3 2
    endloop
  endfacet
  facet normal 0 0 1
    outer loop
      vertex -0.29981 1.57166 2
      vertex -0.100465 1.59684 2
      vertex 1.732 3 2
    endloop
  endfacet
  facet normal 0 0 1
    outer loop
      vertex -0.494427 -1.52169 2
      vertex -0.681247 -1.44772 2
      vertex -1.732 -3 2
    endloop
  endfacet
endsolid OpenSCAD_Model
