<?xml version="1.0" encoding="UTF-8" standalone="no"?>
<svg width="105.833mm" height="109.361mm"
 viewBox="0 0 300 310"
 xmlns="http://www.w3.org/2000/svg" xmlns:xlink="http://www.w3.org/1999/xlink"  version="1.2" baseProfile="tiny">
<title>Qt Svg Document</title>
<desc>Generated with Qt</desc>
<defs>
</defs>
<g fill="none" stroke="black" stroke-width="1" fill-rule="evenodd" stroke-linecap="square" stroke-linejoin="bevel" >

<g fill="#ffffff" fill-opacity="1" stroke="none" transform="matrix(1,0,0,1,0,0)"
font-family="Ubuntu" font-size="11" font-weight="400" font-style="normal" 
>
<path vector-effect="non-scaling-stroke" fill-rule="evenodd" d="M0,0 L300,0 L300,310 L0,310 L0,0"/>
</g>

<g fill="#000000" fill-opacity="1" stroke="none" transform="matrix(1,0,0,1,0,0)"
font-family="Ubuntu" font-size="11" font-weight="400" font-style="normal" 
>
<path vector-effect="non-scaling-stroke" fill-rule="evenodd" d="M288,152 L288,62 L288,62 L198,62 L198,62 L198,73 L198,73 L224,73 L224,73 L224,116 L224,116 L198,116 L198,116 L135,116 L135,116 L109,116 L109,116 L109,73 L109,73 L135,73 L135,73 L135,62 L135,62 L45,62 L45,62 L45,152 L45,152 L56,152 L56,152 L56,126 L56,126 L99,126 L99,126 L99,241 L99,241 L56,241 L56,241 L56,215 L56,215 L45,215 L45,215 L45,305 L45,305 L135,305 L135,305 L135,294 L135,294 L109,294 L109,294 L109,251 L109,251 L135,251 L135,251 L198,251 L198,251 L224,251 L224,251 L224,294 L224,294 L198,294 L198,294 L198,305 L198,305 L288,305 L288,305 L288,215 L288,215 L277,215 L277,215 L277,241 L277,241 L234,241 L234,241 L234,126 L234,126 L277,126 L277,126 L277,152 L277,152 L288,152 M277,116 L277,73 L277,73 L234,73 L234,73 L234,116 L234,116 L277,116 M224,126 L198,126 L198,126 L135,126 L135,126 L109,126 L109,126 L109,241 L109,241 L135,241 L135,241 L198,241 L198,241 L224,241 L224,241 L224,126 M56,116 L56,73 L56,73 L99,73 L99,73 L99,116 L99,116 L56,116 M277,251 L277,294 L277,294 L234,294 L234,294 L234,251 L234,251 L277,251 M56,251 L56,294 L56,294 L99,294 L99,294 L99,251 L99,251 L56,251"/>
</g>

<g fill="#000000" fill-opacity="1" stroke="#000000" stroke-opacity="1" stroke-width="1" stroke-linecap="round" stroke-linejoin="round" transform="matrix(1,0,0,1,0,0)"
font-family="Ubuntu" font-size="11" font-weight="400" font-style="normal" 
>
<polyline fill="none" vector-effect="non-scaling-stroke" points="198,62 288,62 " />
<polyline fill="none" vector-effect="non-scaling-stroke" points="198,62 198,73 " />
<polyline fill="none" vector-effect="non-scaling-stroke" points="277,152 288,152 " />
<polyline fill="none" vector-effect="non-scaling-stroke" points="224,73 198,73 " />
<polyline fill="none" vector-effect="non-scaling-stroke" points="277,116 277,73 " />
<polyline fill="none" vector-effect="non-scaling-stroke" points="277,73 234,73 " />
<polyline fill="none" vector-effect="non-scaling-stroke" points="234,116 234,73 " />
<polyline fill="none" vector-effect="non-scaling-stroke" points="277,152 277,126 " />
<polyline fill="none" vector-effect="non-scaling-stroke" points="224,116 198,116 " />
<polyline fill="none" vector-effect="non-scaling-stroke" points="224,116 224,73 " />
<polyline fill="none" vector-effect="non-scaling-stroke" points="234,116 277,116 " />
<polyline fill="none" vector-effect="non-scaling-stroke" points="277,126 234,126 " />
<polyline fill="none" vector-effect="non-scaling-stroke" points="224,126 198,126 " />
<polyline fill="none" vector-effect="non-scaling-stroke" points="45,152 45,62 " />
<polyline fill="none" vector-effect="non-scaling-stroke" points="135,62 45,62 " />
<polyline fill="none" vector-effect="non-scaling-stroke" points="135,62 135,73 " />
<polyline fill="none" vector-effect="non-scaling-stroke" points="56,152 45,152 " />
<polyline fill="none" vector-effect="non-scaling-stroke" points="109,73 135,73 " />
<polyline fill="none" vector-effect="non-scaling-stroke" points="56,116 56,73 " />
<polyline fill="none" vector-effect="non-scaling-stroke" points="56,73 99,73 " />
<polyline fill="none" vector-effect="non-scaling-stroke" points="99,116 99,73 " />
<polyline fill="none" vector-effect="non-scaling-stroke" points="56,152 56,126 " />
<polyline fill="none" vector-effect="non-scaling-stroke" points="109,116 135,116 " />
<polyline fill="none" vector-effect="non-scaling-stroke" points="109,116 109,73 " />
<polyline fill="none" vector-effect="non-scaling-stroke" points="99,116 56,116 " />
<polyline fill="none" vector-effect="non-scaling-stroke" points="56,126 99,126 " />
<polyline fill="none" vector-effect="non-scaling-stroke" points="109,126 135,126 " />
<polyline fill="none" vector-effect="non-scaling-stroke" points="288,215 288,305 " />
<polyline fill="none" vector-effect="non-scaling-stroke" points="198,305 288,305 " />
<polyline fill="none" vector-effect="non-scaling-stroke" points="198,305 198,294 " />
<polyline fill="none" vector-effect="non-scaling-stroke" points="277,215 288,215 " />
<polyline fill="none" vector-effect="non-scaling-stroke" points="224,294 198,294 " />
<polyline fill="none" vector-effect="non-scaling-stroke" points="277,251 277,294 " />
<polyline fill="none" vector-effect="non-scaling-stroke" points="277,294 234,294 " />
<polyline fill="none" vector-effect="non-scaling-stroke" points="234,251 234,294 " />
<polyline fill="none" vector-effect="non-scaling-stroke" points="277,215 277,241 " />
<polyline fill="none" vector-effect="non-scaling-stroke" points="224,251 198,251 " />
<polyline fill="none" vector-effect="non-scaling-stroke" points="224,251 224,294 " />
<polyline fill="none" vector-effect="non-scaling-stroke" points="234,251 277,251 " />
<polyline fill="none" vector-effect="non-scaling-stroke" points="277,241 234,241 " />
<polyline fill="none" vector-effect="non-scaling-stroke" points="224,241 198,241 " />
<polyline fill="none" vector-effect="non-scaling-stroke" points="45,215 45,305 " />
<polyline fill="none" vector-effect="non-scaling-stroke" points="135,305 45,305 " />
<polyline fill="none" vector-effect="non-scaling-stroke" points="135,305 135,294 " />
<polyline fill="none" vector-effect="non-scaling-stroke" points="56,215 45,215 " />
<polyline fill="none" vector-effect="non-scaling-stroke" points="109,294 135,294 " />
<polyline fill="none" vector-effect="non-scaling-stroke" points="56,251 56,294 " />
<polyline fill="none" vector-effect="non-scaling-stroke" points="56,294 99,294 " />
<polyline fill="none" vector-effect="non-scaling-stroke" points="99,251 99,294 " />
<polyline fill="none" vector-effect="non-scaling-stroke" points="56,215 56,241 " />
<polyline fill="none" vector-effect="non-scaling-stroke" points="109,251 135,251 " />
<polyline fill="none" vector-effect="non-scaling-stroke" points="109,251 109,294 " />
<polyline fill="none" vector-effect="non-scaling-stroke" points="99,251 56,251 " />
<polyline fill="none" vector-effect="non-scaling-stroke" points="56,241 99,241 " />
<polyline fill="none" vector-effect="non-scaling-stroke" points="109,241 135,241 " />
<polyline fill="none" vector-effect="non-scaling-stroke" points="99,126 99,241 " />
<polyline fill="none" vector-effect="non-scaling-stroke" points="109,241 109,126 " />
<polyline fill="none" vector-effect="non-scaling-stroke" points="135,126 198,126 " />
<polyline fill="none" vector-effect="non-scaling-stroke" points="135,116 198,116 " />
<polyline fill="none" vector-effect="non-scaling-stroke" points="234,126 234,241 " />
<polyline fill="none" vector-effect="non-scaling-stroke" points="224,126 224,241 " />
<polyline fill="none" vector-effect="non-scaling-stroke" points="198,241 135,241 " />
<polyline fill="none" vector-effect="non-scaling-stroke" points="135,251 198,251 " />
<polyline fill="none" vector-effect="non-scaling-stroke" points="29,45 31,45 " />
<polyline fill="none" vector-effect="non-scaling-stroke" points="30,44 30,46 " />
<polyline fill="none" vector-effect="non-scaling-stroke" points="12,27 14,27 " />
<polyline fill="none" vector-effect="non-scaling-stroke" points="13,26 13,28 " />
<polyline fill="none" vector-effect="non-scaling-stroke" points="45,45 135,45 " />
</g>

<g fill="#000000" fill-opacity="1" stroke="#000000" stroke-opacity="1" stroke-width="1" stroke-linecap="round" stroke-linejoin="round" transform="matrix(1,0,0,1,0,0)"
font-family="Ubuntu" font-size="11" font-weight="400" font-style="normal" 
>
<path vector-effect="non-scaling-stroke" fill-rule="evenodd" d="M45,45 L62,42 L62,48 L45,45"/>
</g>

<g fill="#000000" fill-opacity="1" stroke="#000000" stroke-opacity="1" stroke-width="1" stroke-linecap="round" stroke-linejoin="round" transform="matrix(1,0,0,1,0,0)"
font-family="Ubuntu" font-size="11" font-weight="400" font-style="normal" 
>
<path vector-effect="non-scaling-stroke" fill-rule="evenodd" d="M135,45 L118,48 L118,42 L135,45"/>
<polyline fill="none" vector-effect="non-scaling-stroke" points="81,27 85,23 " />
<polyline fill="none" vector-effect="non-scaling-stroke" points="85,23 85,40 " />
<polyline fill="none" vector-effect="non-scaling-stroke" points="91,23 95,23 " />
<polyline fill="none" vector-effect="non-scaling-stroke" points="95,31 97,30 98,29 99,27 98,25 97,24 95,23 " />
<polyline fill="none" vector-effect="non-scaling-stroke" points="93,31 95,31 " />
<polyline fill="none" vector-effect="non-scaling-stroke" points="99,35 98,33 97,31 95,31 " />
<polyline fill="none" vector-effect="non-scaling-stroke" points="99,35 99,37 " />
<polyline fill="none" vector-effect="non-scaling-stroke" points="95,40 97,40 98,39 99,37 " />
<polyline fill="none" vector-effect="non-scaling-stroke" points="95,40 91,40 " />
<polyline fill="none" vector-effect="non-scaling-stroke" points="45,58 45,36 " />
<polyline fill="none" vector-effect="non-scaling-stroke" points="135,58 135,36 " />
<polyline fill="none" vector-effect="non-scaling-stroke" points="135,45 198,45 " />
</g>

<g fill="#000000" fill-opacity="1" stroke="#000000" stroke-opacity="1" stroke-width="1" stroke-linecap="round" stroke-linejoin="round" transform="matrix(1,0,0,1,0,0)"
font-family="Ubuntu" font-size="11" font-weight="400" font-style="normal" 
>
<path vector-effect="non-scaling-stroke" fill-rule="evenodd" d="M135,45 L153,42 L153,48 L135,45"/>
</g>

<g fill="#000000" fill-opacity="1" stroke="#000000" stroke-opacity="1" stroke-width="1" stroke-linecap="round" stroke-linejoin="round" transform="matrix(1,0,0,1,0,0)"
font-family="Ubuntu" font-size="11" font-weight="400" font-style="normal" 
>
<path vector-effect="non-scaling-stroke" fill-rule="evenodd" d="M198,45 L180,48 L180,42 L198,45"/>
<polyline fill="none" vector-effect="non-scaling-stroke" points="170,33 166,33 " />
<polyline fill="none" vector-effect="non-scaling-stroke" points="163,29 163,31 164,32 166,33 " />
<polyline fill="none" vector-effect="non-scaling-stroke" points="163,29 163,27 " />
<polyline fill="none" vector-effect="non-scaling-stroke" points="170,27 170,25 168,24 167,23 165,23 163,25 163,26 163,27 " />
<polyline fill="none" vector-effect="non-scaling-stroke" points="170,27 170,33 " />
<polyline fill="none" vector-effect="non-scaling-stroke" points="164,40 166,40 168,38 169,37 170,35 170,33 " />
<polyline fill="none" vector-effect="non-scaling-stroke" points="135,58 135,36 " />
<polyline fill="none" vector-effect="non-scaling-stroke" points="198,58 198,36 " />
<polyline fill="none" vector-effect="non-scaling-stroke" points="45,27 288,27 " />
</g>

<g fill="#000000" fill-opacity="1" stroke="#000000" stroke-opacity="1" stroke-width="1" stroke-linecap="round" stroke-linejoin="round" transform="matrix(1,0,0,1,0,0)"
font-family="Ubuntu" font-size="11" font-weight="400" font-style="normal" 
>
<path vector-effect="non-scaling-stroke" fill-rule="evenodd" d="M45,27 L62,24 L62,30 L45,27"/>
</g>

<g fill="#000000" fill-opacity="1" stroke="#000000" stroke-opacity="1" stroke-width="1" stroke-linecap="round" stroke-linejoin="round" transform="matrix(1,0,0,1,0,0)"
font-family="Ubuntu" font-size="11" font-weight="400" font-style="normal" 
>
<path vector-effect="non-scaling-stroke" fill-rule="evenodd" d="M288,27 L270,30 L270,24 L288,27"/>
<polyline fill="none" vector-effect="non-scaling-stroke" points="156,5 160,5 " />
<polyline fill="none" vector-effect="non-scaling-stroke" points="160,13 162,12 163,11 164,9 163,7 162,6 160,5 " />
<polyline fill="none" vector-effect="non-scaling-stroke" points="158,13 160,13 " />
<polyline fill="none" vector-effect="non-scaling-stroke" points="164,17 163,15 162,13 160,13 " />
<polyline fill="none" vector-effect="non-scaling-stroke" points="164,17 164,18 " />
<polyline fill="none" vector-effect="non-scaling-stroke" points="160,22 162,22 163,21 164,19 164,18 " />
<polyline fill="none" vector-effect="non-scaling-stroke" points="160,22 156,22 " />
<polyline fill="none" vector-effect="non-scaling-stroke" points="177,5 169,5 " />
<polyline fill="none" vector-effect="non-scaling-stroke" points="169,5 169,13 " />
<polyline fill="none" vector-effect="non-scaling-stroke" points="169,13 173,13 " />
<polyline fill="none" vector-effect="non-scaling-stroke" points="177,17 177,15 175,13 173,13 " />
<polyline fill="none" vector-effect="non-scaling-stroke" points="177,17 177,18 " />
<polyline fill="none" vector-effect="non-scaling-stroke" points="173,22 175,22 176,21 177,19 177,18 " />
<polyline fill="none" vector-effect="non-scaling-stroke" points="173,22 169,22 " />
<polyline fill="none" vector-effect="non-scaling-stroke" points="45,58 45,18 " />
<polyline fill="none" vector-effect="non-scaling-stroke" points="288,58 288,18 " />
<polyline fill="none" vector-effect="non-scaling-stroke" points="109,95 224,95 " />
</g>

<g fill="#000000" fill-opacity="1" stroke="#000000" stroke-opacity="1" stroke-width="1" stroke-linecap="round" stroke-linejoin="round" transform="matrix(1,0,0,1,0,0)"
font-family="Ubuntu" font-size="11" font-weight="400" font-style="normal" 
>
<path vector-effect="non-scaling-stroke" fill-rule="evenodd" d="M109,95 L127,92 L127,97 L109,95"/>
</g>

<g fill="#000000" fill-opacity="1" stroke="#000000" stroke-opacity="1" stroke-width="1" stroke-linecap="round" stroke-linejoin="round" transform="matrix(1,0,0,1,0,0)"
font-family="Ubuntu" font-size="11" font-weight="400" font-style="normal" 
>
<path vector-effect="non-scaling-stroke" fill-rule="evenodd" d="M224,95 L206,97 L206,92 L224,95"/>
<polyline fill="none" vector-effect="non-scaling-stroke" points="140,77 144,73 " />
<polyline fill="none" vector-effect="non-scaling-stroke" points="144,73 144,90 " />
<polyline fill="none" vector-effect="non-scaling-stroke" points="150,81 154,81 " />
<polyline fill="none" vector-effect="non-scaling-stroke" points="158,84 157,83 156,81 154,81 " />
<polyline fill="none" vector-effect="non-scaling-stroke" points="158,84 158,86 " />
<polyline fill="none" vector-effect="non-scaling-stroke" points="150,86 151,88 152,90 154,90 155,90 157,89 158,87 158,86 " />
<polyline fill="none" vector-effect="non-scaling-stroke" points="150,86 150,81 " />
<polyline fill="none" vector-effect="non-scaling-stroke" points="156,73 154,74 152,75 151,76 150,78 150,80 150,81 " />
<polyline fill="none" vector-effect="non-scaling-stroke" points="164,90 164,89 " />
<polyline fill="none" vector-effect="non-scaling-stroke" points="173,73 169,86 " />
<polyline fill="none" vector-effect="non-scaling-stroke" points="169,86 179,86 " />
<polyline fill="none" vector-effect="non-scaling-stroke" points="176,83 176,90 " />
<polyline fill="none" vector-effect="non-scaling-stroke" points="185,81 189,81 " />
<polyline fill="none" vector-effect="non-scaling-stroke" points="192,84 192,83 191,81 189,81 " />
<polyline fill="none" vector-effect="non-scaling-stroke" points="192,84 192,86 " />
<polyline fill="none" vector-effect="non-scaling-stroke" points="185,86 185,88 186,90 188,90 190,90 192,89 192,87 192,86 " />
<polyline fill="none" vector-effect="non-scaling-stroke" points="185,86 185,81 " />
<polyline fill="none" vector-effect="non-scaling-stroke" points="191,73 189,74 187,75 186,76 185,78 185,80 185,81 " />
<polyline fill="none" vector-effect="non-scaling-stroke" points="109,90 109,86 " />
<polyline fill="none" vector-effect="non-scaling-stroke" points="224,90 224,86 " />
<polyline fill="none" vector-effect="non-scaling-stroke" points="10,184 91,184 " />
</g>

<g fill="#000000" fill-opacity="1" stroke="#000000" stroke-opacity="1" stroke-width="1" stroke-linecap="round" stroke-linejoin="round" transform="matrix(1,0,0,1,0,0)"
font-family="Ubuntu" font-size="11" font-weight="400" font-style="normal" 
>
<path vector-effect="non-scaling-stroke" fill-rule="evenodd" d="M45,184 L28,186 L28,181 L45,184"/>
</g>

<g fill="#000000" fill-opacity="1" stroke="#000000" stroke-opacity="1" stroke-width="1" stroke-linecap="round" stroke-linejoin="round" transform="matrix(1,0,0,1,0,0)"
font-family="Ubuntu" font-size="11" font-weight="400" font-style="normal" 
>
<path vector-effect="non-scaling-stroke" fill-rule="evenodd" d="M56,184 L73,181 L73,186 L56,184"/>
<polyline fill="none" vector-effect="non-scaling-stroke" points="60,166 64,162 " />
<polyline fill="none" vector-effect="non-scaling-stroke" points="64,162 64,179 " />
<polyline fill="none" vector-effect="non-scaling-stroke" points="70,179 70,178 " />
<polyline fill="none" vector-effect="non-scaling-stroke" points="83,162 76,162 " />
<polyline fill="none" vector-effect="non-scaling-stroke" points="76,162 76,170 " />
<polyline fill="none" vector-effect="non-scaling-stroke" points="76,170 80,170 " />
<polyline fill="none" vector-effect="non-scaling-stroke" points="83,173 83,172 82,170 80,170 " />
<polyline fill="none" vector-effect="non-scaling-stroke" points="83,173 83,175 " />
<polyline fill="none" vector-effect="non-scaling-stroke" points="80,179 81,179 83,177 83,176 83,175 " />
<polyline fill="none" vector-effect="non-scaling-stroke" points="80,179 76,179 " />
<polyline fill="none" vector-effect="non-scaling-stroke" points="89,164 89,162 " />
<polyline fill="none" vector-effect="non-scaling-stroke" points="89,162 97,162 " />
<polyline fill="none" vector-effect="non-scaling-stroke" points="97,162 93,179 " />
<polyline fill="none" vector-effect="non-scaling-stroke" points="45,157 45,192 " />
<polyline fill="none" vector-effect="non-scaling-stroke" points="56,157 56,192 " />
</g>
</g>
</svg>
