<?xml version="1.0" encoding="utf-8"?>
<!-- Generator: Adobe Illustrator 16.0.0, SVG Export Plug-In . SVG Version: 6.00 Build 0)  -->
<!DOCTYPE svg PUBLIC "-//W3C//DTD SVG 1.1//EN" "http://www.w3.org/Graphics/SVG/1.1/DTD/svg11.dtd">
<svg version="1.1" xmlns="http://www.w3.org/2000/svg" xmlns:xlink="http://www.w3.org/1999/xlink" x="0px" y="0px"
	 width="595.28px" height="841.89px" viewBox="0 0 595.28 841.89" enable-background="new 0 0 595.28 841.89" xml:space="preserve">
<g id="Calque_12">
	<rect fill="#F29220" stroke="#020202" stroke-miterlimit="10" width="595.28" height="841.89"/>
</g>
<g id="Calque_1">
	<polygon fill="#C7C6C6" stroke="#020202" stroke-miterlimit="10" points="84.721,813.734 84.971,774.734 142.971,774.234 
		143.471,813.484 	"/>
	<circle fill="#9C9C9B" stroke="#878787" stroke-miterlimit="10" cx="114.75" cy="794.5" r="16.25"/>
	<path fill="#020202" stroke="#020202" stroke-miterlimit="10" d="M4,778.984c0,0,62.72,6.25,79.97,29.25l-0.25-6.25
		c0,0-19.44-19.75-79.72-26.75V778.984z"/>
	<g>
		<circle fill="#878787" cx="106.75" cy="784.5" r="2"/>
		<circle fill="#878787" cx="111.75" cy="784.5" r="2"/>
		<circle fill="#878787" cx="117" cy="784.5" r="2"/>
		<circle fill="#878787" cx="122.25" cy="784.5" r="2"/>
		<circle fill="#878787" cx="101.5" cy="789.25" r="2"/>
		<circle fill="#878787" cx="106.5" cy="789.25" r="2"/>
		<circle fill="#878787" cx="111.75" cy="789.25" r="2"/>
		<circle fill="#878787" cx="117" cy="789.25" r="2"/>
		<circle fill="#878787" cx="122.25" cy="789.25" r="2"/>
		<circle fill="#878787" cx="127.25" cy="789.25" r="2"/>
		<path fill="#878787" d="M99.75,794.25c0,1.104,0.896,2,2,2s2-0.896,2-2s-0.896-2-2-2"/>
		<path fill="#878787" d="M101.75,792.25c-1.104,0-2,0.896-2,2"/>
		<path fill="#878787" d="M106.75,792.25c-1.104,0-2,0.896-2,2s0.896,2,2,2s2-0.896,2-2S107.854,792.25,106.75,792.25"/>
		<path fill="#878787" d="M112,792.25c-1.104,0-2,0.896-2,2s0.896,2,2,2s2-0.896,2-2S113.104,792.25,112,792.25"/>
		<path fill="#878787" d="M117.25,792.25c-1.104,0-2,0.896-2,2s0.896,2,2,2s2-0.896,2-2S118.354,792.25,117.25,792.25"/>
		<path fill="#878787" d="M122.5,792.25c-1.104,0-2,0.896-2,2s0.896,2,2,2s2-0.896,2-2S123.604,792.25,122.5,792.25"/>
		<path fill="#878787" d="M127.5,792.25c-1.104,0-2,0.896-2,2s0.896,2,2,2s2-0.896,2-2S128.604,792.25,127.5,792.25"/>
		<circle fill="#878787" cx="107.25" cy="804" r="2"/>
		<circle fill="#878787" cx="112.25" cy="804" r="2"/>
		<circle fill="#878787" cx="117.5" cy="804" r="2"/>
		<circle fill="#878787" cx="122.75" cy="804" r="2"/>
		<path fill="#878787" d="M100,799c0,1.104,0.896,2,2,2s2-0.896,2-2s-0.896-2-2-2"/>
		<path fill="#878787" d="M102,797c-1.104,0-2,0.896-2,2"/>
		<path fill="#878787" d="M107,797c-1.104,0-2,0.896-2,2s0.896,2,2,2s2-0.896,2-2S108.104,797,107,797"/>
		<path fill="#878787" d="M112.25,797c-1.104,0-2,0.896-2,2s0.896,2,2,2s2-0.896,2-2S113.354,797,112.25,797"/>
		<path fill="#878787" d="M117.5,797c-1.104,0-2,0.896-2,2s0.896,2,2,2s2-0.896,2-2S118.604,797,117.5,797"/>
		<path fill="#878787" d="M122.75,797c-1.104,0-2,0.896-2,2s0.896,2,2,2s2-0.896,2-2S123.854,797,122.75,797"/>
		<path fill="#878787" d="M127.75,797c-1.104,0-2,0.896-2,2s0.896,2,2,2s2-0.896,2-2S128.854,797,127.75,797"/>
		<circle fill="#878787" cx="111.75" cy="780.25" r="2"/>
		<circle fill="#878787" cx="117" cy="780.25" r="2"/>
		<circle fill="#878787" cx="112.25" cy="808.25" r="2"/>
		<circle fill="#878787" cx="117.5" cy="808.25" r="2"/>
	</g>
</g>
<g id="Calque_2">
	<g>
		<polygon fill="#B17F4A" stroke="#020202" stroke-miterlimit="10" points="167.22,813.984 210.471,813.484 210.471,801.234 
			166.47,801.734 		"/>
		<polygon fill="#B17F4A" stroke="#020202" stroke-miterlimit="10" points="164.47,801.484 215.971,800.984 215.721,797.734 
			170.72,798.607 164.22,798.734 		"/>
		<polygon fill="#B17F4A" stroke="#020202" stroke-miterlimit="10" points="170.72,798.607 207.721,797.734 207.471,795.734 
			171.22,795.484 		"/>
	</g>
</g>
<g id="Calque_3">
	<polygon fill="#C7C6C6" stroke="#020202" stroke-miterlimit="10" points="289.021,96.5 541.289,95.123 540.974,79.968 
		288.39,79.968 	"/>
	<polygon fill="#020202" stroke="#020202" stroke-miterlimit="10" points="289.021,78.734 541.289,78.234 540.974,72.734 
		288.39,72.734 	"/>
	<polygon fill="#C7C6C6" stroke="#020202" stroke-miterlimit="10" points="290.021,807.5 542.289,806.123 541.974,790.969 
		289.39,790.969 	"/>
	<polygon fill="#020202" stroke="#020202" stroke-miterlimit="10" points="287.031,813.734 543.289,813.234 542.969,807.734 
		286.39,807.734 	"/>
</g>
<g id="bobine">
	<path fill="#020202" stroke="#020202" stroke-miterlimit="10" d="M331.387,72.151c0,0-1.25-13.25,36.5-13l0.25-5.75
		c0,0-42.25,0.75-42.75,18.5L331.387,72.151z"/>
	<rect x="368.887" y="41.987" fill="#585857" stroke="#020202" stroke-miterlimit="10" width="43" height="29.333"/>
	<path fill="#878787" stroke="#020202" stroke-miterlimit="10" d="M371.221,41.321c0-0.736-0.598-1.333-1.334-1.333l0,0
		c-0.736,0-1.334,0.597-1.334,1.333v29.166c0,0.736,0.598,1.334,1.334,1.334l0,0c0.736,0,1.334-0.598,1.334-1.334V41.321z"/>
	<path fill="#585857" stroke="#020202" stroke-miterlimit="10" d="M414.887,41.071c0-0.736-0.596-1.333-1.334-1.333l0,0
		c-0.736,0-1.332,0.597-1.332,1.333v29.166c0,0.736,0.596,1.334,1.332,1.334l0,0c0.738,0,1.334-0.598,1.334-1.334V41.071z"/>
	<path fill="#1D1D1B" stroke="#020202" stroke-miterlimit="10" d="M373.667,41.834c0,0,1.166-2.5,2.833-0.167
		c0,0-0.332,28.333,1.334,29.333c0,0-0.5,1.833-3,0.333C374.834,71.334,373.167,50.334,373.667,41.834z"/>
	<path fill="#1D1D1B" stroke="#020202" stroke-miterlimit="10" d="M378.167,41.667c0,0,1.166-2.5,2.833-0.167
		c0,0-0.332,28.333,1.334,29.333c0,0-0.5,1.833-3,0.333C379.334,71.167,377.667,50.167,378.167,41.667z"/>
	<path fill="#1D1D1B" stroke="#020202" stroke-miterlimit="10" d="M382.667,41.667c0,0,1.166-2.5,2.833-0.167
		c0,0-0.332,28.333,1.334,29.333c0,0-0.5,1.833-3,0.333C383.834,71.167,382.167,50.167,382.667,41.667z"/>
	<path fill="#1D1D1B" stroke="#020202" stroke-miterlimit="10" d="M387.501,41.834c0,0,1.166-2.5,2.833-0.167
		c0,0-0.332,28.333,1.334,29.333c0,0-0.5,1.833-3,0.333C388.668,71.334,387.001,50.334,387.501,41.834z"/>
	<path fill="#1D1D1B" stroke="#020202" stroke-miterlimit="10" d="M392.001,41.501c0,0,1.166-2.5,2.833-0.167
		c0,0-0.332,28.333,1.334,29.333c0,0-0.5,1.833-3,0.333C393.168,71.001,391.501,50.001,392.001,41.501z"/>
	<path fill="#1D1D1B" stroke="#020202" stroke-miterlimit="10" d="M396.334,41.667c0,0,1.166-2.5,2.833-0.167
		c0,0-0.332,28.333,1.334,29.333c0,0-0.5,1.833-3,0.333C397.501,71.167,395.834,50.167,396.334,41.667z"/>
	<path fill="#1D1D1B" stroke="#020202" stroke-miterlimit="10" d="M401.167,41.667c0,0,1.166-2.5,2.833-0.167
		c0,0-0.332,28.333,1.334,29.333c0,0-0.5,1.833-3,0.333C402.334,71.167,400.667,50.167,401.167,41.667z"/>
	<path fill="#1D1D1B" stroke="#020202" stroke-miterlimit="10" d="M405.834,41.5c0,0,1.166-2.5,2.833-0.167
		c0,0-0.332,28.333,1.334,29.333c0,0-0.5,1.833-3,0.333C407.001,71,405.334,50,405.834,41.5z"/>
</g>
<g id="Calque_5">
	<g>
		<polygon fill="#7E5023" stroke="#020202" stroke-miterlimit="10" points="313.887,96.649 314.221,119.316 349.221,118.316 
			348.887,96.649 		"/>
		<rect x="320.555" y="119.316" fill="#7E5023" stroke="#020202" stroke-miterlimit="10" width="23" height="3"/>
	</g>
</g>
<g id="Calque_6">
	<rect x="283.145" y="72" fill="#C7C6C6" stroke="#1D1D1B" stroke-miterlimit="10" width="5.585" height="742"/>
	<rect x="540.145" y="71" fill="#C7C6C6" stroke="#1D1D1B" stroke-miterlimit="10" width="5.586" height="742"/>
	<rect x="406.56" y="96.5" fill="#C7C6C6" stroke="#1D1D1B" stroke-miterlimit="10" width="14.881" height="694"/>
</g>
<g id="Calque_7">
	<path fill="#020202" stroke="#020202" stroke-miterlimit="10" d="M296.939,790.984l-7,0.25l0.75-16.75h15.5c0,0,7,4,5.25,12.75
		l-10.25-0.5l-0.25,3.75L296.939,790.984z"/>
	<path fill="#020202" stroke="#020202" stroke-miterlimit="10" d="M533.191,790.719l7,0.25l-0.75-16.75h-15.5c0,0-7,4-5.25,12.75
		l10.25-0.5l0.25,3.75L533.191,790.719z"/>
</g>
<g id="Calque_8">
	<circle fill="#942582" stroke="#020202" stroke-miterlimit="10" cx="298" cy="113.125" r="3.75"/>
	<circle fill="#942582" stroke="#020202" stroke-miterlimit="10" cx="529" cy="113.125" r="3.75"/>
	<circle fill="#FFFFFF" stroke="#020202" stroke-miterlimit="10" cx="298" cy="775.875" r="3.75"/>
	<circle fill="#FFFFFF" stroke="#020202" stroke-miterlimit="10" cx="529" cy="776.126" r="3.75"/>
	<rect x="397.5" y="767.5" fill="#020202" stroke="#020202" stroke-miterlimit="10" width="33" height="15"/>
	<rect x="397.5" y="105.5" fill="#020202" stroke="#020202" stroke-miterlimit="10" width="33" height="15"/>
</g>
<g id="Calque_9">
	<rect x="410.887" y="109" fill="#585857" stroke="#020202" stroke-miterlimit="10" width="6" height="670"/>
</g>
<g id="Calque_10">
	<path fill="#020202" stroke="#020202" stroke-miterlimit="10" d="M400.834,418.667"/>
	<path fill="#020202" stroke="#020202" stroke-miterlimit="10" d="M405,414.167"/>
</g>
<g id="Calque_13">
</g>
<g id="Calque_14">
	<path fill="#585857" stroke="#020202" stroke-miterlimit="10" d="M305.969,108.768c0-0.001,0.001-0.003,0.001-0.005
		s-0.001-0.003-0.001-0.005v-0.747h-0.165c-0.762-1.718-4.077-3.011-8.053-3.011c-3.979,0-7.292,1.293-8.053,3.011h-0.167V780.99
		h0.167c0.761,1.716,4.074,3.01,8.053,3.01c3.976,0,7.292-1.294,8.053-3.01h0.165v-0.748c0-0.002,0.001-0.004,0.001-0.006
		s-0.001-0.002-0.001-0.004V108.768z M301.834,776.07c0,0.002,0,0.002,0,0.004v0.739h-0.075c-0.348,1.696-1.86,2.975-3.674,2.975
		c-1.815,0-3.327-1.278-3.674-2.975h-0.076V111.939h0.076c0.347-1.696,1.859-2.974,3.674-2.974c1.814,0,3.327,1.278,3.674,2.974
		h0.075v0.738c0,0.001,0,0.003,0,0.005s0,0.003,0,0.005v663.377C301.834,776.066,301.834,776.068,301.834,776.07z"/>
	<path fill="#585857" stroke="#020202" stroke-miterlimit="10" d="M536.969,109.768c0-0.001,0.001-0.003,0.001-0.005
		s-0.001-0.003-0.001-0.005v-0.747h-0.165c-0.762-1.718-4.077-3.011-8.054-3.011c-3.979,0-7.291,1.293-8.053,3.011h-0.166V781.99
		h0.166c0.762,1.716,4.074,3.01,8.053,3.01c3.977,0,7.292-1.294,8.054-3.01h0.165v-0.748c0-0.002,0.001-0.004,0.001-0.006
		s-0.001-0.002-0.001-0.004V109.768z M532.834,777.07c0,0.002,0,0.002,0,0.004v0.739h-0.075c-0.348,1.696-1.86,2.975-3.675,2.975
		s-3.326-1.278-3.674-2.975h-0.076V112.939h0.076c0.348-1.696,1.859-2.974,3.674-2.974s3.327,1.278,3.675,2.974h0.075v0.738
		c0,0.001,0,0.003,0,0.005s0,0.003,0,0.005v663.377C532.834,777.066,532.834,777.068,532.834,777.07z"/>
</g>
<g id="Calque_15">
	<path fill="#585857" stroke="#020202" stroke-miterlimit="10" d="M79,115"/>
</g>
<g id="Calque_17">
	<path fill="#FFFFFF" stroke="#020202" stroke-miterlimit="10" d="M434.221,405.484c0-2.715-2.201-4.917-4.918-4.917h-31.5
		c-2.715,0-4.916,2.201-4.916,4.917l0,0c0,2.716,2.201,4.917,4.916,4.917h31.5C432.02,410.401,434.221,408.2,434.221,405.484
		L434.221,405.484z"/>
	<polygon fill="#020202" stroke="#020202" stroke-miterlimit="10" points="404.887,400.485 404.887,395.651 400.721,400.151 	"/>
	<polygon fill="#020202" stroke="#020202" stroke-miterlimit="10" points="421.719,400.485 421.719,395.651 425.887,400.151 	"/>
</g>
<g id="Calque_11">
</g>
<g id="Calque_21">
</g>
<g id="end_stop">
	<rect x="535" y="126" fill="#1D1D1B" stroke="#020202" stroke-miterlimit="10" width="21.334" height="6.667"/>
	<rect x="549.334" y="123" fill="#E6352C" stroke="#020202" stroke-miterlimit="10" width="7" height="6.417"/>
	<path fill="#FFFFFF" stroke="#020202" stroke-width="0.5" stroke-miterlimit="10" d="M548.957,127.095c0,0-3.473-0.633-4.27,9.348
		l-1.525-0.065c0,0,1.164-11.147,5.866-10.874L548.957,127.095z"/>
	<rect x="274" y="128" fill="#1D1D1B" stroke="#020202" stroke-miterlimit="10" width="21.334" height="6.667"/>
	<rect x="274" y="125" fill="#E6352C" stroke="#020202" stroke-miterlimit="10" width="7" height="6.417"/>
	<path fill="#FFFFFF" stroke="#020202" stroke-width="0.5" stroke-miterlimit="10" d="M281.377,129.095c0,0,3.473-0.633,4.27,9.348
		l1.525-0.065c0,0-1.164-11.147-5.866-10.874L281.377,129.095z"/>
</g>
<g id="Calque_20">
	<polygon fill="#1D1D1B" stroke="#020202" stroke-miterlimit="10" points="281.344,433.469 281.344,446.125 308.656,447.531 	"/>
	<rect x="306.5" y="431.5" fill="#FFFFFF" stroke="#020202" stroke-miterlimit="10" width="5" height="22"/>
	<polygon fill="#1D1D1B" stroke="#020202" stroke-miterlimit="10" points="547,398.969 547,411.625 518.541,413.031 	"/>
	<rect x="515.344" y="397" fill="#FFFFFF" stroke="#020202" stroke-miterlimit="10" width="5.621" height="22"/>
</g>
<g id="Calque_22">
	<path fill="#95C13D" stroke="#020202" stroke-miterlimit="10" d="M398.336,536.402"/>
	<g>
		<path fill="#95C13D" stroke="#020202" stroke-miterlimit="10" d="M195.826,468.724"/>
		<path fill="#95C13D" stroke="#020202" stroke-miterlimit="10" d="M152.583,592.709"/>
		<path fill="#95C13D" stroke="#020202" stroke-miterlimit="10" d="M165.985,505.678"/>
	</g>
	<g>
		<path fill="#95C13D" stroke="#020202" stroke-miterlimit="10" d="M342.383,434.164"/>
		<path fill="#95C13D" stroke="#020202" stroke-miterlimit="10" d="M318.074,441.433c1.992,1.91,2.867,4.235,1.95,5.195
			c-0.915,0.955-3.278,0.179-5.271-1.733c-1.995-1.911-2.867-4.237-1.951-5.194C313.721,438.743,316.081,439.52,318.074,441.433z"/>
		<path fill="#95C13D" stroke="#020202" stroke-miterlimit="10" d="M428.815,569.606c1.993,1.909,2.868,4.234,1.951,5.195
			c-0.915,0.955-3.278,0.178-5.271-1.733c-1.994-1.912-2.866-4.238-1.95-5.194C424.463,566.917,426.823,567.692,428.815,569.606z"/>
		<path fill="#95C13D" stroke="#020202" stroke-miterlimit="10" d="M298.042,561.297"/>
		<path fill="#95C13D" stroke="#020202" stroke-miterlimit="10" d="M311.784,472.057"/>
		<g>
			<path fill="#3D3C3B" stroke="#020202" stroke-miterlimit="10" d="M321.057,446.45L321,446.5c0.419-1.815-0.738-4.62-3.06-6.997
				c-0.011-0.014-0.025-0.025-0.04-0.039l-1.175,1.286c0.216,0.149,0.427,0.306,0.639,0.486c1.981,1.679,2.873,3.889,1.988,4.931
				c-0.882,1.045-3.211,0.524-5.192-1.158c-0.258-0.217-0.493-0.444-0.714-0.678l-0.897,0.984c1.373,1.334,3.361,3.29,6.311,3.005
				l-0.139,0.117l3.854,4.53l2.337-1.986L321.057,446.45z"/>
			<path fill="#3D3C3B" stroke="#020202" stroke-miterlimit="10" d="M424.178,565.047l-0.059,0.052
				c1.856-0.167,4.476,1.367,6.506,3.993c0.013,0.016,0.024,0.031,0.035,0.047l-1.436,0.986c-0.119-0.234-0.245-0.467-0.392-0.698
				c-1.391-2.196-3.456-3.387-4.61-2.655c-1.156,0.733-0.962,3.106,0.427,5.304c0.182,0.286,0.374,0.551,0.575,0.801l-1.102,0.756
				c-1.129-1.547-2.791-3.784-2.101-6.669l-0.137,0.123l-3.956-4.442l2.293-2.039L424.178,565.047z"/>
			
				<rect x="299.403" y="506.512" transform="matrix(0.6562 0.7546 -0.7546 0.6562 510.9106 -106.29)" fill="#1D1D1B" stroke="#020202" stroke-miterlimit="10" width="145.412" height="2.131"/>
		</g>
	</g>
	<g>
		<path fill="#95C13D" stroke="#020202" stroke-miterlimit="10" d="M339.648,441.3"/>
		<path fill="#95C13D" stroke="#020202" stroke-miterlimit="10" d="M315.793,448.617c1.974,1.864,2.85,4.145,1.954,5.096
			c-0.893,0.946-3.223,0.198-5.195-1.668c-1.976-1.866-2.85-4.147-1.955-5.094C311.493,446.002,313.82,446.749,315.793,448.617z"/>
		<path fill="#95C13D" stroke="#020202" stroke-miterlimit="10" d="M425.596,573.9c1.974,1.864,2.85,4.145,1.954,5.096
			c-0.893,0.946-3.223,0.198-5.195-1.668c-1.976-1.866-2.85-4.148-1.955-5.095C421.296,571.285,423.623,572.033,425.596,573.9z"/>
		<path fill="#95C13D" stroke="#020202" stroke-miterlimit="10" d="M296.925,566.639"/>
		<path fill="#95C13D" stroke="#020202" stroke-miterlimit="10" d="M309.82,478.778"/>
		<g>
			<path fill="#3D3C3B" stroke="#020202" stroke-miterlimit="10" d="M318.762,453.53l-0.056,0.049
				c0.398-1.787-0.759-4.538-3.058-6.858c-0.012-0.015-0.026-0.026-0.04-0.038l-1.147,1.272c0.214,0.145,0.424,0.298,0.633,0.474
				c1.96,1.637,2.852,3.805,1.99,4.836c-0.861,1.033-3.155,0.537-5.115-1.104c-0.255-0.211-0.488-0.434-0.706-0.661l-0.877,0.974
				c1.359,1.302,3.329,3.213,6.228,2.912l-0.135,0.116l3.821,4.428l2.284-1.969L318.762,453.53z"/>
			<path fill="#3D3C3B" stroke="#020202" stroke-miterlimit="10" d="M421.002,569.449l-0.057,0.051
				c1.824-0.177,4.411,1.313,6.426,3.882c0.013,0.016,0.024,0.03,0.035,0.046l-1.405,0.98c-0.119-0.23-0.244-0.458-0.39-0.685
				c-1.384-2.15-3.423-3.306-4.553-2.579c-1.133,0.729-0.925,3.062,0.457,5.213c0.181,0.28,0.372,0.539,0.57,0.784l-1.077,0.751
				c-1.121-1.514-2.772-3.703-2.112-6.544l-0.135,0.122l-3.921-4.341l2.24-2.022L421.002,569.449z"/>
			
				<rect x="297.889" y="512.245" transform="matrix(0.6616 0.7499 -0.7499 0.6616 509.9303 -103.2873)" fill="#1D1D1B" stroke="#020202" stroke-miterlimit="10" width="143.01" height="2.096"/>
		</g>
	</g>
	<g>
		<path fill="#95C13D" stroke="#020202" stroke-miterlimit="10" d="M485.831,410.781"/>
		<path fill="#95C13D" stroke="#020202" stroke-miterlimit="10" d="M509.871,404.92c-0.736,2.589-0.327,4.977,0.919,5.333
			c1.241,0.353,2.848-1.465,3.581-4.056c0.737-2.592,0.325-4.979-0.916-5.333C512.209,400.512,510.605,402.329,509.871,404.92z"/>
		<path fill="#95C13D" stroke="#020202" stroke-miterlimit="10" d="M479.824,567.359c-0.736,2.588-0.327,4.977,0.918,5.333
			c1.24,0.353,2.848-1.466,3.582-4.057c0.736-2.592,0.325-4.979-0.917-5.332C482.163,562.95,480.559,564.767,479.824,567.359z"/>
		<path fill="#95C13D" stroke="#020202" stroke-miterlimit="10" d="M585.791,495.929"/>
		<path fill="#95C13D" stroke="#020202" stroke-miterlimit="10" d="M530.253,427.595"/>
		<g>
			<path fill="#3D3C3B" stroke="#020202" stroke-miterlimit="10" d="M509.832,410.613l0.074,0.014
				c-1.246-1.322-1.656-4.252-0.874-7.396c0.003-0.017,0.01-0.034,0.015-0.052l1.623,0.503c-0.107,0.231-0.209,0.467-0.297,0.724
				c-0.842,2.388-0.504,4.688,0.755,5.129c1.257,0.445,2.961-1.14,3.8-3.533c0.11-0.309,0.196-0.617,0.267-0.921l1.24,0.385
				c-0.499,1.799-1.208,4.426-3.83,5.64l0.174,0.03l-1.013,5.711l-2.944-0.52L509.832,410.613z"/>
			<path fill="#3D3C3B" stroke="#020202" stroke-miterlimit="10" d="M481.481,561.236l0.074,0.015
				c-1.645,0.775-3.092,3.355-3.508,6.567c-0.003,0.019-0.006,0.037-0.006,0.057l1.693,0.121c-0.016-0.254-0.022-0.513-0.015-0.78
				c0.089-2.533,1.241-4.552,2.572-4.505c1.334,0.045,2.34,2.139,2.254,4.672c-0.013,0.331-0.043,0.648-0.089,0.959l1.299,0.093
				c0.188-1.858,0.485-4.561-1.518-6.647l0.177,0.036l1.139-5.687l-2.935-0.589L481.481,561.236z"/>
			
				<rect x="426.081" y="486.174" transform="matrix(-0.1851 0.9827 -0.9827 -0.1851 1067.77 88.9933)" fill="#1D1D1B" stroke="#020202" stroke-miterlimit="10" width="141.811" height="2.08"/>
		</g>
	</g>
	<g>
		<path fill="#95C13D" stroke="#020202" stroke-miterlimit="10" d="M486.902,415.237"/>
		<path fill="#95C13D" stroke="#020202" stroke-miterlimit="10" d="M510.969,409.482c-0.748,2.585-0.35,4.976,0.895,5.337
			c1.239,0.358,2.854-1.453,3.6-4.04c0.748-2.589,0.347-4.978-0.893-5.336C513.325,405.084,511.714,406.894,510.969,409.482z"/>
		<path fill="#95C13D" stroke="#020202" stroke-miterlimit="10" d="M480.202,571.786c-0.748,2.585-0.35,4.976,0.894,5.338
			c1.239,0.356,2.854-1.454,3.601-4.041c0.748-2.589,0.347-4.978-0.893-5.337C482.56,567.387,480.948,569.196,480.202,571.786z"/>
		<path fill="#95C13D" stroke="#020202" stroke-miterlimit="10" d="M586.485,500.825"/>
		<path fill="#95C13D" stroke="#020202" stroke-miterlimit="10" d="M531.25,432.246"/>
		<g>
			<path fill="#3D3C3B" stroke="#020202" stroke-miterlimit="10" d="M510.903,415.174l0.074,0.015
				c-1.24-1.327-1.637-4.259-0.841-7.4c0.003-0.017,0.01-0.034,0.015-0.052l1.621,0.51c-0.109,0.231-0.211,0.466-0.301,0.723
				c-0.852,2.385-0.523,4.686,0.732,5.133c1.255,0.45,2.967-1.127,3.815-3.516c0.111-0.309,0.199-0.617,0.271-0.921l1.239,0.391
				c-0.507,1.797-1.228,4.42-3.854,5.622l0.173,0.031l-1.038,5.707l-2.941-0.533L510.903,415.174z"/>
			<path fill="#3D3C3B" stroke="#020202" stroke-miterlimit="10" d="M481.888,565.671l0.072,0.015
				c-1.647,0.768-3.106,3.342-3.536,6.552c-0.003,0.019-0.005,0.037-0.007,0.057l1.694,0.13c-0.015-0.256-0.021-0.514-0.011-0.781
				c0.099-2.533,1.259-4.547,2.591-4.494c1.334,0.052,2.331,2.15,2.233,4.684c-0.014,0.331-0.046,0.647-0.094,0.958l1.299,0.098
				c0.195-1.857,0.505-4.558-1.488-6.654l0.177,0.038l1.165-5.684l-2.932-0.6L481.888,565.671z"/>
			
				<rect x="426.814" y="490.679" transform="matrix(-0.1894 0.9819 -0.9819 -0.1894 1074.8228 96.1631)" fill="#1D1D1B" stroke="#020202" stroke-miterlimit="10" width="141.812" height="2.078"/>
		</g>
	</g>
	<g>
		
			<rect x="377.123" y="486.005" transform="matrix(0.3084 0.9512 -0.9512 0.3084 771.5822 -87.2897)" fill="#1D1D1B" stroke="#020202" stroke-miterlimit="10" width="137.404" height="2.013"/>
		<g>
			<path fill="#95C13D" stroke="#020202" stroke-miterlimit="10" d="M416.728,411.003c-1.487-4.033-1.226-7.846,0.585-8.516
				c1.81-0.664,4.482,2.07,5.967,6.101c1.488,4.036,1.226,7.847-0.585,8.514C420.885,417.771,418.213,415.038,416.728,411.003z"/>
			
				<rect x="421.438" y="419.312" transform="matrix(-0.3204 -0.9473 0.9473 -0.3204 161.2206 957.4169)" fill="#3D3C3B" stroke="#020202" stroke-miterlimit="10" width="5.249" height="3.125"/>
			
				<rect x="417.911" y="411.8" transform="matrix(-0.3204 -0.9473 0.9473 -0.3204 163.9781 947.1143)" fill="#3D3C3B" stroke="#020202" stroke-miterlimit="10" width="7.626" height="5.875"/>
		</g>
		<g>
			<path fill="#95C13D" stroke="#020202" stroke-miterlimit="10" d="M474.876,565.486c1.393,4.065,1.041,7.873-0.784,8.5
				c-1.824,0.621-4.433-2.175-5.823-6.239c-1.392-4.069-1.041-7.874,0.785-8.498C470.879,558.622,473.485,561.418,474.876,565.486z"
				/>
			
				<rect x="465.15" y="553.883" transform="matrix(0.2979 0.9546 -0.9546 0.2979 858.6758 -56.542)" fill="#3D3C3B" stroke="#020202" stroke-miterlimit="10" width="5.249" height="3.125"/>
			
				<rect x="466.156" y="558.698" transform="matrix(0.298 0.9546 -0.9546 0.298 866.0377 -54.347)" fill="#3D3C3B" stroke="#020202" stroke-miterlimit="10" width="7.626" height="5.875"/>
		</g>
	</g>
	<g>
		
			<rect x="360.123" y="487.006" transform="matrix(0.3084 0.9512 -0.9512 0.3084 760.7772 -70.4268)" fill="#1D1D1B" stroke="#020202" stroke-miterlimit="10" width="137.404" height="2.013"/>
		<g>
			<path fill="#95C13D" stroke="#020202" stroke-miterlimit="10" d="M399.728,412.003c-1.487-4.033-1.226-7.846,0.585-8.516
				c1.81-0.664,4.482,2.07,5.967,6.101c1.488,4.036,1.226,7.847-0.585,8.514C403.885,418.771,401.213,416.038,399.728,412.003z"/>
			
				<rect x="404.438" y="420.312" transform="matrix(-0.3204 -0.9473 0.9473 -0.3204 137.8273 942.6332)" fill="#3D3C3B" stroke="#020202" stroke-miterlimit="10" width="5.249" height="3.125"/>
			
				<rect x="400.911" y="412.8" transform="matrix(-0.3204 -0.9473 0.9473 -0.3204 140.5839 932.331)" fill="#3D3C3B" stroke="#020202" stroke-miterlimit="10" width="7.626" height="5.875"/>
		</g>
		<g>
			<path fill="#95C13D" stroke="#020202" stroke-miterlimit="10" d="M457.876,566.486c1.393,4.065,1.041,7.873-0.784,8.5
				c-1.824,0.621-4.433-2.175-5.823-6.239c-1.392-4.069-1.041-7.874,0.785-8.498C453.879,559.622,456.485,562.418,457.876,566.486z"
				/>
			
				<rect x="448.15" y="554.883" transform="matrix(0.2979 0.9546 -0.9546 0.2979 847.6941 -39.6115)" fill="#3D3C3B" stroke="#020202" stroke-miterlimit="10" width="5.249" height="3.125"/>
			
				<rect x="449.156" y="559.698" transform="matrix(0.298 0.9546 -0.9546 0.298 855.0582 -37.4174)" fill="#3D3C3B" stroke="#020202" stroke-miterlimit="10" width="7.626" height="5.875"/>
		</g>
	</g>
</g>
<g id="Calque_23">
	<rect x="25.5" y="101.5" fill="#F9B332" stroke="#020202" stroke-width="0.5" stroke-miterlimit="10" width="205" height="161"/>
</g>
<g id="Calque_26">
	<polyline fill="#585857" stroke="#1D1D1B" stroke-miterlimit="10" points="427,578.563 432.5,571 476.5,571 486.5,578.563 
		427,578.563 	"/>
</g>
<g id="legende">
	<g>
		<path fill="#95C13D" stroke="#020202" stroke-miterlimit="10" d="M42.818,131.472c-4.298,0.063-7.808-1.45-7.838-3.381
			c-0.025-1.927,3.441-3.54,7.736-3.602c4.301-0.063,7.809,1.451,7.836,3.38C50.583,129.799,47.117,131.412,42.818,131.472z"/>
		
			<rect x="51.94" y="126.27" transform="matrix(-0.9999 -0.0127 0.0127 -0.9999 107.5084 256.3451)" fill="#3D3C3B" stroke="#020202" stroke-miterlimit="10" width="5.249" height="3.125"/>
		
			<rect x="44.187" y="125.063" transform="matrix(-0.9999 -0.0126 0.0126 -0.9999 94.3898 256.5923)" fill="#3D3C3B" stroke="#020202" stroke-miterlimit="10" width="7.626" height="5.874"/>
	</g>
	<rect x="35.166" y="143.291" fill="#1D1D1B" stroke="#020202" stroke-miterlimit="10" width="21.334" height="6.667"/>
	
		<rect x="49.5" y="140.291" transform="matrix(0.9998 0.0181 -0.0181 0.9998 2.6114 -0.9377)" fill="#E6352C" stroke="#020202" stroke-miterlimit="10" width="7" height="6.417"/>
	<path fill="#FFFFFF" stroke="#020202" stroke-width="0.5" stroke-miterlimit="10" d="M49.123,144.386c0,0-3.473-0.633-4.27,9.348
		l-1.525-0.065c0,0,1.164-11.147,5.866-10.874L49.123,144.386z"/>
	<rect x="99" y="124.5" fill="none" width="102" height="11"/>
	<text transform="matrix(1 0 0 1 99 131.6597)" fill="#1D1D1B" font-family="'ArialMT'" font-size="10">Rotules</text>
	<rect x="99.5" y="144.5" fill="none" width="102" height="19"/>
	<text transform="matrix(1 0 0 1 99.5 151.6597)" fill="#1D1D1B" font-family="'ArialMT'" font-size="10">End Stop</text>
	<rect x="99" y="161.5" fill="none" width="102" height="19"/>
	<text transform="matrix(1 0 0 1 99 168.6597)" fill="#1D1D1B" font-family="'ArialMT'" font-size="10">Glissement</text>
	<rect x="98.5" y="179.5" fill="none" width="102" height="19"/>
	<text transform="matrix(1 0 0 1 98.5 186.6597)" fill="#1D1D1B" font-family="'ArialMT'" font-size="10">Fixation moteur</text>
	<rect x="99" y="196.5" fill="none" width="102" height="19"/>
	<text transform="matrix(1 0 0 1 99 203.6597)" fill="#1D1D1B" font-family="'ArialMT'" font-size="10">Fixation poulie</text>
	<rect x="98.5" y="214.5" fill="none" width="102" height="19"/>
	<text transform="matrix(1 0 0 1 98.5 221.6597)" fill="#1D1D1B" font-family="'ArialMT'" font-size="10">Bowden</text>
	<rect x="98.5" y="233.5" fill="none" width="102" height="19"/>
	<text transform="matrix(1 0 0 1 98.5 240.6597)" fill="#1D1D1B" font-family="'ArialMT'" font-size="10">Bieillette</text>
	<rect x="103.5" y="271" fill="none" width="1" height="4"/>
	<polygon fill="#1D1D1B" stroke="#020202" stroke-miterlimit="10" points="36.426,158.892 35.331,166.479 51.584,169.686 	"/>
	<rect x="50.971" y="158.837" fill="#FFFFFF" stroke="#020202" stroke-miterlimit="10" width="3.029" height="13.326"/>
	<g>
		<polygon fill="#7E5023" stroke="#020202" stroke-miterlimit="10" points="34.318,212.5 34.474,223.066 50.79,222.601 
			50.634,212.5 		"/>
		<rect x="37.427" y="223.066" fill="#7E5023" stroke="#020202" stroke-miterlimit="10" width="10.721" height="1.399"/>
	</g>
	<circle fill="#942582" stroke="#020202" stroke-miterlimit="10" cx="38.5" cy="201" r="3.75"/>
	<path fill="#020202" stroke="#020202" stroke-miterlimit="10" d="M45.632,189.005l5.093,0.182L50.179,177H38.901
		c0,0-5.093,2.911-3.82,9.277l7.458-0.364l0.182,2.729L45.632,189.005z"/>
	<g>
		
			<rect x="39.706" y="237.493" transform="matrix(0.9996 -0.0274 0.0274 0.9996 -6.4872 1.7613)" fill="#1D1D1B" stroke="#020202" stroke-miterlimit="10" width="42.754" height="0.626"/>
		<g>
			
				<ellipse transform="matrix(0.0672 0.9977 -0.9977 0.0672 271.5543 187.0065)" fill="#95C13D" stroke="#020202" stroke-miterlimit="10" cx="35.765" cy="238.731" rx="1.086" ry="2.423"/>
			
				<rect x="38.612" y="238.006" transform="matrix(-0.9992 0.0401 -0.0401 -0.9992 88.3811 475.2142)" fill="#3D3C3B" stroke="#020202" stroke-miterlimit="10" width="1.633" height="0.972"/>
			
				<rect x="36.206" y="237.738" transform="matrix(-0.9992 0.0399 -0.0399 -0.9992 84.2825 475.6205)" fill="#3D3C3B" stroke="#020202" stroke-miterlimit="10" width="2.372" height="1.828"/>
		</g>
		<g>
			
				<ellipse transform="matrix(-0.0434 -0.9991 0.9991 -0.0434 -146.0029 334.4239)" fill="#95C13D" stroke="#020202" stroke-miterlimit="10" cx="87.106" cy="237.112" rx="1.086" ry="2.423"/>
			
				<rect x="82.622" y="236.778" transform="matrix(0.9999 -0.0162 0.0162 0.9999 -3.8212 1.3786)" fill="#3D3C3B" stroke="#020202" stroke-miterlimit="10" width="1.633" height="0.972"/>
			
				<rect x="84.292" y="236.239" transform="matrix(0.9999 -0.0163 0.0163 0.9999 -3.8447 1.4212)" fill="#3D3C3B" stroke="#020202" stroke-miterlimit="10" width="2.372" height="1.828"/>
		</g>
	</g>
</g>
<g id="Calque_27">
</g>
<g id="Calque_18">
	<rect x="427" y="578.563" fill="#FFFFFF" stroke="#020202" stroke-miterlimit="10" width="59.5" height="3.375"/>
	<rect x="453.623" y="582.822" fill="#FFFFFF" stroke="#020202" stroke-miterlimit="10" width="6.877" height="5.178"/>
</g>
<g id="fil_raccord">
	<path fill="none" stroke="#1D1D1B" stroke-width="6" stroke-miterlimit="10" d="M330,122c0,0-26,370.741,76,402.229
		c0,0,51,9.142,52,49.771"/>
</g>
</svg>
